<?xml version="1.0" encoding="UTF-8"?>
<svg version="1.1" xmlns="http://www.w3.org/2000/svg" width="191" height="209">
<path d="M0 0 C1.03769531 -0.01417969 2.07539062 -0.02835937 3.14453125 -0.04296875 C6.24522295 0.19187183 8.36451214 0.94248997 11.1875 2.1875 C12.095 2.290625 13.0025 2.39375 13.9375 2.5 C21.51411736 4.10274598 26.65400473 8.0996635 31.1875 14.1875 C32.3321875 15.2703125 32.3321875 15.2703125 33.5 16.375 C35.1875 18.1875 35.1875 18.1875 35.1875 21.1875 C36.35667969 21.16429688 37.52585938 21.14109375 38.73046875 21.1171875 C40.27863942 21.09842179 41.82681703 21.08022245 43.375 21.0625 C44.52838867 21.03736328 44.52838867 21.03736328 45.70507812 21.01171875 C50.04278129 20.97448525 53.20126107 21.28071151 57.1875 23.1875 C57.8475 23.1875 58.5075 23.1875 59.1875 23.1875 C59.1875 23.8475 59.1875 24.5075 59.1875 25.1875 C59.88875 25.414375 60.59 25.64125 61.3125 25.875 C66.69986899 28.33445106 70.59122766 31.85071797 73.1875 37.1875 C73.1875 37.8475 73.1875 38.5075 73.1875 39.1875 C73.8475 39.1875 74.5075 39.1875 75.1875 39.1875 C75.373125 40.3321875 75.373125 40.3321875 75.5625 41.5 C76.06852792 44.39017136 76.06852792 44.39017136 78.1875 47.1875 C78.44628906 49.10107422 78.44628906 49.10107422 78.453125 51.2421875 C78.45570313 52.02207031 78.45828125 52.80195312 78.4609375 53.60546875 C78.45320312 54.41628906 78.44546875 55.22710937 78.4375 56.0625 C78.44523438 56.86558594 78.45296875 57.66867188 78.4609375 58.49609375 C78.44662723 62.83926129 78.20461034 66.23332338 76.1875 70.1875 C76.620625 70.579375 77.05375 70.97125 77.5 71.375 C83.28804471 77.59178877 86.36260985 86.97851534 86.625 95.375 C86.41419337 100.20012957 85.34286221 104.84711464 83.1875 109.1875 C82.1975 109.6825 82.1975 109.6825 81.1875 110.1875 C81.125625 110.88875 81.06375 111.59 81 112.3125 C79.74755769 116.74421896 76.5114411 119.13991428 73.1875 122.1875 C72.5275 122.8475 71.8675 123.5075 71.1875 124.1875 C68.99234259 125.43462028 66.79589731 126.63853475 64.5625 127.8125 C63.95148438 128.13734375 63.34046875 128.4621875 62.7109375 128.796875 C61.2048411 129.59698871 59.69639376 130.39267427 58.1875 131.1875 C57.83869166 134.38174068 57.83869166 134.38174068 60.5 136.5625 C61.386875 137.42875 62.27375 138.295 63.1875 139.1875 C66.89802722 144.620772 67.42593078 148.63065357 67.1875 155.1875 C66.8575 156.1775 66.5275 157.1675 66.1875 158.1875 C65.5275 158.1875 64.8675 158.1875 64.1875 158.1875 C64.105 158.765 64.0225 159.3425 63.9375 159.9375 C62.67043887 163.73868338 59.96240433 165.61651786 56.8125 167.9375 C53.58315959 169.47528115 51.73783331 169.61354 48.1875 169.1875 C45.82227442 168.26546291 43.48348193 167.27051035 41.1875 166.1875 C40.1975 165.8575 39.2075 165.5275 38.1875 165.1875 C38.1875 164.5275 38.1875 163.8675 38.1875 163.1875 C37.5275 162.8575 36.8675 162.5275 36.1875 162.1875 C34.24597154 158.41230577 34.00475611 155.39060941 34.1875 151.1875 C34.1875 150.1975 34.1875 149.2075 34.1875 148.1875 C34.1875 147.5275 34.1875 146.8675 34.1875 146.1875 C32.5375 146.1875 30.8875 146.1875 29.1875 146.1875 C29.78159583 151.03928258 30.8143866 155.50276015 32.1875 160.1875 C32.29578125 160.92355469 32.4040625 161.65960938 32.515625 162.41796875 C33.40256422 168.17343301 34.99183589 170.33487035 39.640625 173.7734375 C41.97213878 175.9047708 41.97521645 178.14476917 42.1875 181.1875 C42.8475 181.5175 43.5075 181.8475 44.1875 182.1875 C44.1875 184.8275 44.1875 187.4675 44.1875 190.1875 C43.5275 190.1875 42.8675 190.1875 42.1875 190.1875 C41.94 190.785625 41.6925 191.38375 41.4375 192 C39.95658673 194.59159822 38.76449464 195.68425313 36.1875 197.1875 C28.69466913 199.10427069 21.47263032 198.61587677 14.1875 196.1875 C13.445 196.06375 12.7025 195.94 11.9375 195.8125 C9.42116618 194.91380935 8.54575933 193.42862789 7.1875 191.1875 C7.1875 190.5275 7.1875 189.8675 7.1875 189.1875 C6.5275 188.8575 5.8675 188.5275 5.1875 188.1875 C4.83570803 185.8568782 4.50419821 183.52314933 4.1875 181.1875 C3.836875 180.5275 3.48625 179.8675 3.125 179.1875 C1.7440495 176.24147227 2.1875 173.41221669 2.1875 170.1875 C1.836875 169.32125 1.48625 168.455 1.125 167.5625 C-0.0106185 164.68559981 0.35129431 163.11421993 1.1875 160.1875 C0.5275 160.1875 -0.1325 160.1875 -0.8125 160.1875 C-0.791875 159.28 -0.77125 158.3725 -0.75 157.4375 C-0.8014755 154.76077412 -1.0340017 152.71761948 -1.8125 150.1875 C-3.4625 150.8475 -5.1125 151.5075 -6.8125 152.1875 C-6.791875 152.97125 -6.77125 153.755 -6.75 154.5625 C-6.8125 157.1875 -6.8125 157.1875 -7.8125 159.1875 C-8.02313303 161.69169265 -8.18690135 164.17896025 -8.3125 166.6875 C-8.65678464 172.87488623 -9.11659526 179.02800274 -9.8125 185.1875 C-10.4725 185.1875 -11.1325 185.1875 -11.8125 185.1875 C-11.85375 186.095 -11.895 187.0025 -11.9375 187.9375 C-12.87423456 191.41679979 -13.73811025 192.5059138 -16.76171875 194.38037109 C-21.2144937 196.13285609 -26.03749759 195.71359162 -30.75 195.625 C-31.80896484 195.63208984 -32.86792969 195.63917969 -33.95898438 195.64648438 C-39.97385065 195.59770505 -44.55023408 195.19554457 -49.8125 192.1875 C-52.24079921 188.1755274 -52.28736008 184.38372789 -51.3125 179.875 C-51.1475 179.318125 -50.9825 178.76125 -50.8125 178.1875 C-50.1525 178.1875 -49.4925 178.1875 -48.8125 178.1875 C-48.585625 177.61 -48.35875 177.0325 -48.125 176.4375 C-46.8125 174.1875 -46.8125 174.1875 -44.25 172.625 C-40.84672169 169.22172169 -41.12840102 166.31829143 -40.953125 161.6484375 C-40.8125 159.1875 -40.8125 159.1875 -39.8125 157.1875 C-39.5522771 155.20330037 -39.29455381 153.21861181 -39.06640625 151.23046875 C-38.77098809 148.85348878 -38.32423158 146.52684438 -37.8125 144.1875 C-38.4725 143.8575 -39.1325 143.5275 -39.8125 143.1875 C-39.8125 142.5275 -39.8125 141.8675 -39.8125 141.1875 C-42.72767292 142.26151108 -44.59060176 142.96560176 -46.8125 145.1875 C-53.16375981 147.3486092 -59.63989126 148.13328123 -65.8125 145.1875 C-69.45258615 142.4765803 -72.78588248 139.57427869 -75.8125 136.1875 C-75.8125 135.5275 -75.8125 134.8675 -75.8125 134.1875 C-76.781875 134.3525 -77.75125 134.5175 -78.75 134.6875 C-83.6579814 134.67750411 -86.46518771 131.80986136 -89.8515625 128.5390625 C-93.76057607 123.85136097 -94.8125 119.45418812 -94.8125 113.4375 C-93.56498444 109.38307444 -92.14436954 107.79505007 -88.8125 105.1875 C-86.50888473 103.99992194 -84.24994286 103.09556695 -81.8125 102.1875 C-82.16183594 101.64222656 -82.51117188 101.09695312 -82.87109375 100.53515625 C-87.76585057 92.42344877 -88.9995254 84.47824698 -86.8125 75.1875 C-85.91052982 73.00678728 -84.9020316 70.97247191 -83.75 68.9140625 C-82.66455141 67.03497013 -82.66455141 67.03497013 -81.8125 64.1875 C-78.36805556 61.1875 -78.36805556 61.1875 -75.8125 61.1875 C-74.75662535 58.44222591 -74.74506014 57.36452963 -75.8125 54.5625 C-77.52045239 48.79816068 -76.75254365 43.35368755 -74.375 37.875 C-73.859375 36.988125 -73.34375 36.10125 -72.8125 35.1875 C-72.379375 33.9190625 -72.379375 33.9190625 -71.9375 32.625 C-69.68548953 27.74564399 -65.13119116 24.25604372 -60.8125 21.1875 C-59.8225 21.1875 -58.8325 21.1875 -57.8125 21.1875 C-57.8125 20.5275 -57.8125 19.8675 -57.8125 19.1875 C-55.04985711 18.59017181 -52.65217231 18.1875 -49.8125 18.1875 C-49.8125 17.5275 -49.8125 16.8675 -49.8125 16.1875 C-45.8525 16.1875 -41.8925 16.1875 -37.8125 16.1875 C-37.8125 16.8475 -37.8125 17.5075 -37.8125 18.1875 C-33.58165097 16.49942092 -33.58165097 16.49942092 -30.8125 13.1875 C-30.1525 13.1875 -29.4925 13.1875 -28.8125 13.1875 C-28.4825 12.1975 -28.1525 11.2075 -27.8125 10.1875 C-21.81264543 4.55995144 -15.82899882 2.46285208 -7.8125 1.1875 C-5.13017173 -0.15366414 -2.99417741 0.01845979 0 0 Z " fill="#E7F5FB" transform="translate(99.8125,4.8125)"/>
<path d="M0 0 C1.03769531 -0.01417969 2.07539062 -0.02835937 3.14453125 -0.04296875 C6.24522295 0.19187183 8.36451214 0.94248997 11.1875 2.1875 C12.095 2.290625 13.0025 2.39375 13.9375 2.5 C21.51411736 4.10274598 26.65400473 8.0996635 31.1875 14.1875 C32.3321875 15.2703125 32.3321875 15.2703125 33.5 16.375 C35.1875 18.1875 35.1875 18.1875 35.1875 21.1875 C36.35667969 21.16429688 37.52585938 21.14109375 38.73046875 21.1171875 C40.27863942 21.09842179 41.82681703 21.08022245 43.375 21.0625 C44.52838867 21.03736328 44.52838867 21.03736328 45.70507812 21.01171875 C50.04278129 20.97448525 53.20126107 21.28071151 57.1875 23.1875 C57.8475 23.1875 58.5075 23.1875 59.1875 23.1875 C59.1875 23.8475 59.1875 24.5075 59.1875 25.1875 C59.88875 25.414375 60.59 25.64125 61.3125 25.875 C66.69986899 28.33445106 70.59122766 31.85071797 73.1875 37.1875 C73.1875 37.8475 73.1875 38.5075 73.1875 39.1875 C73.8475 39.1875 74.5075 39.1875 75.1875 39.1875 C75.373125 40.3321875 75.373125 40.3321875 75.5625 41.5 C76.06852792 44.39017136 76.06852792 44.39017136 78.1875 47.1875 C78.44628906 49.10107422 78.44628906 49.10107422 78.453125 51.2421875 C78.45570313 52.02207031 78.45828125 52.80195312 78.4609375 53.60546875 C78.45320312 54.41628906 78.44546875 55.22710937 78.4375 56.0625 C78.44523438 56.86558594 78.45296875 57.66867188 78.4609375 58.49609375 C78.44662723 62.83926129 78.20461034 66.23332338 76.1875 70.1875 C76.620625 70.579375 77.05375 70.97125 77.5 71.375 C83.28804471 77.59178877 86.36260985 86.97851534 86.625 95.375 C86.41419337 100.20012957 85.34286221 104.84711464 83.1875 109.1875 C82.1975 109.6825 82.1975 109.6825 81.1875 110.1875 C81.125625 110.88875 81.06375 111.59 81 112.3125 C79.74755769 116.74421896 76.5114411 119.13991428 73.1875 122.1875 C72.5275 122.8475 71.8675 123.5075 71.1875 124.1875 C68.99234259 125.43462028 66.79589731 126.63853475 64.5625 127.8125 C63.95148438 128.13734375 63.34046875 128.4621875 62.7109375 128.796875 C61.2048411 129.59698871 59.69639376 130.39267427 58.1875 131.1875 C57.83869166 134.38174068 57.83869166 134.38174068 60.5 136.5625 C61.386875 137.42875 62.27375 138.295 63.1875 139.1875 C66.89802722 144.620772 67.42593078 148.63065357 67.1875 155.1875 C66.8575 156.1775 66.5275 157.1675 66.1875 158.1875 C65.5275 158.1875 64.8675 158.1875 64.1875 158.1875 C64.105 158.765 64.0225 159.3425 63.9375 159.9375 C62.67043887 163.73868338 59.96240433 165.61651786 56.8125 167.9375 C53.58315959 169.47528115 51.73783331 169.61354 48.1875 169.1875 C45.82227442 168.26546291 43.48348193 167.27051035 41.1875 166.1875 C40.1975 165.8575 39.2075 165.5275 38.1875 165.1875 C38.1875 164.5275 38.1875 163.8675 38.1875 163.1875 C37.5275 162.8575 36.8675 162.5275 36.1875 162.1875 C34.24597154 158.41230577 34.00475611 155.39060941 34.1875 151.1875 C34.1875 150.1975 34.1875 149.2075 34.1875 148.1875 C34.1875 147.5275 34.1875 146.8675 34.1875 146.1875 C32.5375 146.1875 30.8875 146.1875 29.1875 146.1875 C29.78159583 151.03928258 30.8143866 155.50276015 32.1875 160.1875 C32.29578125 160.92355469 32.4040625 161.65960938 32.515625 162.41796875 C33.40256422 168.17343301 34.99183589 170.33487035 39.640625 173.7734375 C41.97213878 175.9047708 41.97521645 178.14476917 42.1875 181.1875 C42.8475 181.5175 43.5075 181.8475 44.1875 182.1875 C44.1875 184.8275 44.1875 187.4675 44.1875 190.1875 C43.5275 190.1875 42.8675 190.1875 42.1875 190.1875 C41.94 190.785625 41.6925 191.38375 41.4375 192 C39.95658673 194.59159822 38.76449464 195.68425313 36.1875 197.1875 C28.69466913 199.10427069 21.47263032 198.61587677 14.1875 196.1875 C13.445 196.06375 12.7025 195.94 11.9375 195.8125 C9.42116618 194.91380935 8.54575933 193.42862789 7.1875 191.1875 C7.1875 190.5275 7.1875 189.8675 7.1875 189.1875 C6.5275 188.8575 5.8675 188.5275 5.1875 188.1875 C4.83570803 185.8568782 4.50419821 183.52314933 4.1875 181.1875 C3.836875 180.5275 3.48625 179.8675 3.125 179.1875 C1.7440495 176.24147227 2.1875 173.41221669 2.1875 170.1875 C1.836875 169.32125 1.48625 168.455 1.125 167.5625 C-0.0106185 164.68559981 0.35129431 163.11421993 1.1875 160.1875 C0.5275 160.1875 -0.1325 160.1875 -0.8125 160.1875 C-0.791875 159.28 -0.77125 158.3725 -0.75 157.4375 C-0.8014755 154.76077412 -1.0340017 152.71761948 -1.8125 150.1875 C-3.4625 150.8475 -5.1125 151.5075 -6.8125 152.1875 C-6.791875 152.97125 -6.77125 153.755 -6.75 154.5625 C-6.8125 157.1875 -6.8125 157.1875 -7.8125 159.1875 C-8.02313303 161.69169265 -8.18690135 164.17896025 -8.3125 166.6875 C-8.65678464 172.87488623 -9.11659526 179.02800274 -9.8125 185.1875 C-10.4725 185.1875 -11.1325 185.1875 -11.8125 185.1875 C-11.85375 186.095 -11.895 187.0025 -11.9375 187.9375 C-12.87423456 191.41679979 -13.73811025 192.5059138 -16.76171875 194.38037109 C-21.2144937 196.13285609 -26.03749759 195.71359162 -30.75 195.625 C-31.80896484 195.63208984 -32.86792969 195.63917969 -33.95898438 195.64648438 C-39.97385065 195.59770505 -44.55023408 195.19554457 -49.8125 192.1875 C-52.24079921 188.1755274 -52.28736008 184.38372789 -51.3125 179.875 C-51.1475 179.318125 -50.9825 178.76125 -50.8125 178.1875 C-50.1525 178.1875 -49.4925 178.1875 -48.8125 178.1875 C-48.585625 177.61 -48.35875 177.0325 -48.125 176.4375 C-46.8125 174.1875 -46.8125 174.1875 -44.25 172.625 C-40.84672169 169.22172169 -41.12840102 166.31829143 -40.953125 161.6484375 C-40.8125 159.1875 -40.8125 159.1875 -39.8125 157.1875 C-39.5522771 155.20330037 -39.29455381 153.21861181 -39.06640625 151.23046875 C-38.77098809 148.85348878 -38.32423158 146.52684438 -37.8125 144.1875 C-38.4725 143.8575 -39.1325 143.5275 -39.8125 143.1875 C-39.8125 142.5275 -39.8125 141.8675 -39.8125 141.1875 C-42.72767292 142.26151108 -44.59060176 142.96560176 -46.8125 145.1875 C-53.16375981 147.3486092 -59.63989126 148.13328123 -65.8125 145.1875 C-69.45258615 142.4765803 -72.78588248 139.57427869 -75.8125 136.1875 C-75.8125 135.5275 -75.8125 134.8675 -75.8125 134.1875 C-76.781875 134.3525 -77.75125 134.5175 -78.75 134.6875 C-83.6579814 134.67750411 -86.46518771 131.80986136 -89.8515625 128.5390625 C-93.76057607 123.85136097 -94.8125 119.45418812 -94.8125 113.4375 C-93.56498444 109.38307444 -92.14436954 107.79505007 -88.8125 105.1875 C-86.50888473 103.99992194 -84.24994286 103.09556695 -81.8125 102.1875 C-82.16183594 101.64222656 -82.51117188 101.09695312 -82.87109375 100.53515625 C-87.76585057 92.42344877 -88.9995254 84.47824698 -86.8125 75.1875 C-85.91052982 73.00678728 -84.9020316 70.97247191 -83.75 68.9140625 C-82.66455141 67.03497013 -82.66455141 67.03497013 -81.8125 64.1875 C-78.36805556 61.1875 -78.36805556 61.1875 -75.8125 61.1875 C-74.75662535 58.44222591 -74.74506014 57.36452963 -75.8125 54.5625 C-77.52045239 48.79816068 -76.75254365 43.35368755 -74.375 37.875 C-73.859375 36.988125 -73.34375 36.10125 -72.8125 35.1875 C-72.379375 33.9190625 -72.379375 33.9190625 -71.9375 32.625 C-69.68548953 27.74564399 -65.13119116 24.25604372 -60.8125 21.1875 C-59.8225 21.1875 -58.8325 21.1875 -57.8125 21.1875 C-57.8125 20.5275 -57.8125 19.8675 -57.8125 19.1875 C-55.04985711 18.59017181 -52.65217231 18.1875 -49.8125 18.1875 C-49.8125 17.5275 -49.8125 16.8675 -49.8125 16.1875 C-45.8525 16.1875 -41.8925 16.1875 -37.8125 16.1875 C-37.8125 16.8475 -37.8125 17.5075 -37.8125 18.1875 C-33.58165097 16.49942092 -33.58165097 16.49942092 -30.8125 13.1875 C-30.1525 13.1875 -29.4925 13.1875 -28.8125 13.1875 C-28.4825 12.1975 -28.1525 11.2075 -27.8125 10.1875 C-21.81264543 4.55995144 -15.82899882 2.46285208 -7.8125 1.1875 C-5.13017173 -0.15366414 -2.99417741 0.01845979 0 0 Z M-30.8125 18.1875 C-31.4725 19.1775 -32.1325 20.1675 -32.8125 21.1875 C-33.59753906 20.95160156 -33.59753906 20.95160156 -34.3984375 20.7109375 C-42.66801672 18.91785722 -51.17868831 19.21213258 -58.55859375 23.50390625 C-64.57036494 27.99450137 -69.87335917 33.77821835 -71.8125 41.1875 C-71.96227154 44.37354914 -71.71660898 47.50838029 -71.5 50.6875 C-71.17846568 59.20370496 -71.17846568 59.20370496 -73.4765625 62.76953125 C-75.625 64.5 -75.625 64.5 -77.76953125 65.73828125 C-80.74123888 67.84631859 -81.54537713 69.77363073 -82.8125 73.1875 C-83.32238651 76.44621399 -83.43104283 79.64219237 -83.4375 82.9375 C-83.43983643 83.82477783 -83.44217285 84.71205566 -83.44458008 85.6262207 C-83.26311961 92.19195464 -81.92476129 96.47240315 -77.63671875 101.60546875 C-75.79612116 103.40554461 -75.79612116 103.40554461 -72.8125 104.1875 C-71.3275 103.1975 -71.3275 103.1975 -69.8125 102.1875 C-66.28941753 101.73774479 -64.54233507 101.64276802 -61.65625 103.796875 C-59.2554262 106.90980756 -59.31590851 108.91950421 -59.25 112.8125 C-59.24789106 116.20114938 -59.24789106 116.20114938 -58.8125 119.1875 C-56.07609783 121.48735478 -56.07609783 121.48735478 -53.4375 120.875 C-52.57125 120.648125 -51.705 120.42125 -50.8125 120.1875 C-49.884375 120.001875 -48.95625 119.81625 -48 119.625 C-46.9171875 119.4084375 -46.9171875 119.4084375 -45.8125 119.1875 C-45.874375 119.991875 -45.93625 120.79625 -46 121.625 C-45.67014693 127.89220839 -43.86597174 134.06322854 -39.51953125 138.77734375 C-28.8383183 147.60095444 -17.20345012 149.07837402 -3.8125 148.1875 C3.2460909 147.06094185 9.58812846 144.72388924 15.1875 140.1875 C15.5175 139.5275 15.8475 138.8675 16.1875 138.1875 C18 137.375 18 137.375 20.1875 137.1875 C21.08082031 137.91453125 21.08082031 137.91453125 21.9921875 138.65625 C26.71742808 141.95214734 33.46417807 140.47958846 38.875 139.5625 C43.12881357 137.79676606 46.94587139 135.49648713 50.1875 132.1875 C50.1875 131.1975 50.1875 130.2075 50.1875 129.1875 C50.950625 128.960625 51.71375 128.73375 52.5 128.5 C55.73486301 126.92018318 56.60391358 125.35467283 58.1875 122.1875 C58.5175 123.1775 58.8475 124.1675 59.1875 125.1875 C66.89619809 124.45333828 71.74923684 120.34847304 76.57421875 114.58203125 C82.23773511 106.17589195 83.47880491 96.36971657 81.71484375 86.55859375 C80.31497082 81.06807418 78.15125619 77.31992333 74.296875 73.171875 C72.67024441 70.26226817 73.50848592 68.40993968 74.1875 65.1875 C74.90546231 53.27638757 74.7107363 43.63870591 67.0625 33.875 C61.54914012 28.18862673 56.33206182 25.19697917 48.3203125 24.88671875 C43.60072485 24.82682103 38.90180991 24.96969307 34.1875 25.1875 C33.78917969 24.07375 33.78917969 24.07375 33.3828125 22.9375 C29.63312621 14.31077075 21.92536983 9.09249643 13.51171875 5.5859375 C-3.15624228 -0.48057534 -19.08243702 5.85252346 -30.8125 18.1875 Z " fill="#639ABF" transform="translate(99.8125,4.8125)"/>
<path d="M0 0 C1.03769531 -0.01417969 2.07539062 -0.02835937 3.14453125 -0.04296875 C6.24522295 0.19187183 8.36451214 0.94248997 11.1875 2.1875 C12.095 2.290625 13.0025 2.39375 13.9375 2.5 C21.51411736 4.10274598 26.65400473 8.0996635 31.1875 14.1875 C32.3321875 15.2703125 32.3321875 15.2703125 33.5 16.375 C35.1875 18.1875 35.1875 18.1875 35.1875 21.1875 C36.35667969 21.16429688 37.52585938 21.14109375 38.73046875 21.1171875 C40.27863942 21.09842179 41.82681703 21.08022245 43.375 21.0625 C44.52838867 21.03736328 44.52838867 21.03736328 45.70507812 21.01171875 C50.04278129 20.97448525 53.20126107 21.28071151 57.1875 23.1875 C57.8475 23.1875 58.5075 23.1875 59.1875 23.1875 C59.1875 23.8475 59.1875 24.5075 59.1875 25.1875 C59.88875 25.414375 60.59 25.64125 61.3125 25.875 C66.69986899 28.33445106 70.59122766 31.85071797 73.1875 37.1875 C73.1875 37.8475 73.1875 38.5075 73.1875 39.1875 C73.8475 39.1875 74.5075 39.1875 75.1875 39.1875 C75.373125 40.3321875 75.373125 40.3321875 75.5625 41.5 C76.06852792 44.39017136 76.06852792 44.39017136 78.1875 47.1875 C78.44628906 49.10107422 78.44628906 49.10107422 78.453125 51.2421875 C78.45570313 52.02207031 78.45828125 52.80195312 78.4609375 53.60546875 C78.45320312 54.41628906 78.44546875 55.22710937 78.4375 56.0625 C78.44523438 56.86558594 78.45296875 57.66867188 78.4609375 58.49609375 C78.44662723 62.83926129 78.20461034 66.23332338 76.1875 70.1875 C76.620625 70.579375 77.05375 70.97125 77.5 71.375 C83.28804471 77.59178877 86.36260985 86.97851534 86.625 95.375 C86.41419337 100.20012957 85.34286221 104.84711464 83.1875 109.1875 C82.1975 109.6825 82.1975 109.6825 81.1875 110.1875 C81.125625 110.88875 81.06375 111.59 81 112.3125 C79.74755769 116.74421896 76.5114411 119.13991428 73.1875 122.1875 C72.5275 122.8475 71.8675 123.5075 71.1875 124.1875 C69.73312571 125.12304627 68.25038363 126.01517424 66.75 126.875 C65.96753906 127.33261719 65.18507812 127.79023438 64.37890625 128.26171875 C62.1875 129.1875 62.1875 129.1875 59.1875 128.1875 C60.1875 125.1875 60.1875 125.1875 62.2265625 124.08203125 C63.07992187 123.72496094 63.93328125 123.36789063 64.8125 123 C72.53828715 119.26954849 76.63976368 114.40497365 79.625 106.375 C82.32093633 97.13676992 82.22148692 88.03577058 78.1875 79.1875 C76.65890202 77.0543073 75.0829004 75.09397853 73.296875 73.171875 C71.67024441 70.26226817 72.50848592 68.40993968 73.1875 65.1875 C73.88320398 53.64565699 73.7751745 43.98506915 66.5625 34.375 C61.42474413 29.03526846 56.00515236 26.13487041 48.52734375 25.9765625 C46.83076018 25.95998565 45.13413782 25.94702351 43.4375 25.9375 C35.01371378 25.84484238 35.01371378 25.84484238 31.875 23.34765625 C30.45012721 21.02062216 29.33191145 18.66156936 28.1875 16.1875 C22.95672552 9.90777342 14.99773257 5.99533295 6.97851562 4.88037109 C-5.20491283 3.78808103 -14.2840688 5.4860008 -24.2109375 13.00390625 C-27.55590613 15.79943057 -30.2666711 18.64345855 -32.8125 22.1875 C-33.59753906 21.95160156 -33.59753906 21.95160156 -34.3984375 21.7109375 C-42.73238998 19.90389926 -51.19768681 20.24585712 -58.625 24.5703125 C-64.35300112 28.8049419 -68.93738359 34.19556932 -70.8125 41.1875 C-70.96492592 44.37344596 -70.71660947 47.50837313 -70.5 50.6875 C-70.17846568 59.20370496 -70.17846568 59.20370496 -72.4765625 62.76953125 C-74.625 64.5 -74.625 64.5 -76.76953125 65.73828125 C-79.74123888 67.84631859 -80.54537713 69.77363073 -81.8125 73.1875 C-82.32239291 76.4462549 -82.43011968 79.64218914 -82.4375 82.9375 C-82.44201172 83.82405273 -82.44652344 84.71060547 -82.45117188 85.62402344 C-82.26012471 93.05029958 -80.22860998 97.93718931 -74.8125 103.1875 C-74.049375 102.86652344 -73.28625 102.54554687 -72.5 102.21484375 C-69.2735182 100.98146481 -67.24001401 100.68765421 -63.8125 101.1875 C-60.9375 102.875 -60.9375 102.875 -58.8125 106.1875 C-58.3950297 110.55244263 -58.52453974 114.8169031 -58.8125 119.1875 C-56.4864143 119.56813221 -54.15194736 119.90019945 -51.8125 120.1875 C-51.4825 119.8575 -51.1525 119.5275 -50.8125 119.1875 C-49.14632885 119.14686168 -47.47861905 119.144779 -45.8125 119.1875 C-44.6875 122.9375 -44.6875 122.9375 -45.8125 125.1875 C-44.8225 125.6825 -44.8225 125.6825 -43.8125 126.1875 C-44.4725 126.8475 -45.1325 127.5075 -45.8125 128.1875 C-45.42483695 131.77338324 -44.22683748 134.88737921 -42.8125 138.1875 C-47.85183027 142.16591864 -52.51464541 143.24157718 -58.8125 144.1875 C-56.5025 144.5175 -54.1925 144.8475 -51.8125 145.1875 C-53.8125 147.1875 -53.8125 147.1875 -56.28125 147.26171875 C-64.94725888 146.15613257 -70.17157929 142.87673341 -75.8125 136.1875 C-75.8125 135.5275 -75.8125 134.8675 -75.8125 134.1875 C-76.781875 134.3525 -77.75125 134.5175 -78.75 134.6875 C-83.6579814 134.67750411 -86.46518771 131.80986136 -89.8515625 128.5390625 C-93.76057607 123.85136097 -94.8125 119.45418812 -94.8125 113.4375 C-93.56498444 109.38307444 -92.14436954 107.79505007 -88.8125 105.1875 C-86.50888473 103.99992194 -84.24994286 103.09556695 -81.8125 102.1875 C-82.16183594 101.64222656 -82.51117188 101.09695312 -82.87109375 100.53515625 C-87.76585057 92.42344877 -88.9995254 84.47824698 -86.8125 75.1875 C-85.91052982 73.00678728 -84.9020316 70.97247191 -83.75 68.9140625 C-82.66455141 67.03497013 -82.66455141 67.03497013 -81.8125 64.1875 C-78.36805556 61.1875 -78.36805556 61.1875 -75.8125 61.1875 C-74.75662535 58.44222591 -74.74506014 57.36452963 -75.8125 54.5625 C-77.52045239 48.79816068 -76.75254365 43.35368755 -74.375 37.875 C-73.859375 36.988125 -73.34375 36.10125 -72.8125 35.1875 C-72.379375 33.9190625 -72.379375 33.9190625 -71.9375 32.625 C-69.68548953 27.74564399 -65.13119116 24.25604372 -60.8125 21.1875 C-59.8225 21.1875 -58.8325 21.1875 -57.8125 21.1875 C-57.8125 20.5275 -57.8125 19.8675 -57.8125 19.1875 C-55.04985711 18.59017181 -52.65217231 18.1875 -49.8125 18.1875 C-49.8125 17.5275 -49.8125 16.8675 -49.8125 16.1875 C-45.8525 16.1875 -41.8925 16.1875 -37.8125 16.1875 C-37.8125 16.8475 -37.8125 17.5075 -37.8125 18.1875 C-33.58165097 16.49942092 -33.58165097 16.49942092 -30.8125 13.1875 C-30.1525 13.1875 -29.4925 13.1875 -28.8125 13.1875 C-28.4825 12.1975 -28.1525 11.2075 -27.8125 10.1875 C-21.81264543 4.55995144 -15.82899882 2.46285208 -7.8125 1.1875 C-5.13017173 -0.15366414 -2.99417741 0.01845979 0 0 Z " fill="#96D2F5" transform="translate(99.8125,4.8125)"/>
<path d="M0 0 C0.33 0 0.66 0 1 0 C1.495 4.455 1.495 4.455 2 9 C1.01 9.66 0.02 10.32 -1 11 C-1 10.01 -1 9.02 -1 8 C-1.66 8 -2.32 8 -3 8 C-3.2475 8.556875 -3.495 9.11375 -3.75 9.6875 C-7.30369071 16.26182781 -11.88600179 19.42006559 -18.921875 21.59375 C-26.4682089 23.06897317 -33.07049813 22.13788764 -40 19 C-40 19.66 -40 20.32 -40 21 C-39.071875 21.144375 -38.14375 21.28875 -37.1875 21.4375 C-34 23 -34 23 -32.375 26.5 C-31.87600252 28.3226854 -31.42678288 30.15906629 -31 32 C-30.74839111 33.05719238 -30.74839111 33.05719238 -30.49169922 34.13574219 C-27 48.87847222 -27 48.87847222 -27 53 C-26.2575 53.20625 -25.515 53.4125 -24.75 53.625 C-21.005393 55.4973035 -19.84247611 57.24680792 -18 61 C-17.47897626 64.08403952 -17.21167162 66.95682061 -18 70 C-22.48430227 74.17668716 -27.1217735 73.47901395 -32.9375 73.4375 C-33.92685547 73.45748047 -34.91621094 73.47746094 -35.93554688 73.49804688 C-36.89396484 73.49740234 -37.85238281 73.49675781 -38.83984375 73.49609375 C-39.70988037 73.49794678 -40.57991699 73.4997998 -41.47631836 73.50170898 C-44.99372479 72.80244709 -46.54089096 71.60765632 -49 69 C-49.91839784 66.3711626 -50.52847068 64.1222688 -51.01953125 61.41796875 C-51.16782883 60.68556473 -51.3161264 59.95316071 -51.46891785 59.19856262 C-51.7780003 57.65302699 -52.07748486 56.10554458 -52.36791992 54.55639648 C-52.80984675 52.20163758 -53.28003243 49.85397796 -53.75585938 47.50585938 C-54.05375967 45.99772599 -54.35003683 44.4892709 -54.64453125 42.98046875 C-54.78196243 42.28543747 -54.91939362 41.59040619 -55.06098938 40.87431335 C-55.86826455 36.53046033 -56.12457613 32.41329797 -56 28 C-54.783125 27.608125 -53.56625 27.21625 -52.3125 26.8125 C-48.26276963 25.2974413 -45.78377688 23.37427501 -43 20 C-42.67 19.01 -42.34 18.02 -42 17 C-40.1875 16.1875 -40.1875 16.1875 -38 16 C-35.75 16.9375 -35.75 16.9375 -34 18 C-34 18.66 -34 19.32 -34 20 C-32.8553125 19.7834375 -32.8553125 19.7834375 -31.6875 19.5625 C-28 19 -28 19 -25.43359375 18.921875 C-18.48353794 18.65121914 -13.83294883 17.19477388 -9 12 C-8.67 11.01 -8.34 10.02 -8 9 C-7.21625 8.566875 -6.4325 8.13375 -5.625 7.6875 C-2.37199038 5.59627953 -1.48184769 3.50963927 0 0 Z " fill="#97DBF8" transform="translate(158,125)"/>
<path d="M0 0 C2.14855454 0.6155803 4.29379625 1.24273431 6.4375 1.875 C8.22994141 2.39707031 8.22994141 2.39707031 10.05859375 2.9296875 C13 4 13 4 14 6 C15.89533342 6.46523063 15.89533342 6.46523063 18.0625 6.625 C19.361875 6.74875 20.66125 6.8725 22 7 C23.25225219 13.96722863 22.63050634 20.20242586 21.6875 27.1875 C21.55666016 28.25419922 21.42582031 29.32089844 21.29101562 30.41992188 C20.04592216 40.03781776 20.04592216 40.03781776 18 44 C15.69034152 45.05352843 13.3570226 46.05719096 11 47 C10.67 47.99 10.34 48.98 10 50 C9.34 50 8.68 50 8 50 C8 49.34 8 48.68 8 48 C6.12054688 47.96132812 6.12054688 47.96132812 4.203125 47.921875 C2.55204877 47.86558831 0.90100845 47.8082411 -0.75 47.75 C-1.575 47.73582031 -2.4 47.72164062 -3.25 47.70703125 C-9.36101304 47.46061943 -9.36101304 47.46061943 -12.546875 45.1640625 C-14.71532989 41.93469689 -14.52542196 39.80930917 -14 36 C-11.92875805 32.1534078 -9.81061201 29.21261342 -6 27 C-5.01 27 -4.02 27 -3 27 C-3.02320313 26.36835938 -3.04640625 25.73671875 -3.0703125 25.0859375 C-3.43767313 6.87534626 -3.43767313 6.87534626 0 0 Z " fill="#91D4F6" transform="translate(66,150)"/>
<path d="M0 0 C1.03769531 -0.01417969 2.07539062 -0.02835937 3.14453125 -0.04296875 C6.24522295 0.19187183 8.36451214 0.94248997 11.1875 2.1875 C12.095 2.290625 13.0025 2.39375 13.9375 2.5 C21.51411736 4.10274598 26.65400473 8.0996635 31.1875 14.1875 C32.3321875 15.2703125 32.3321875 15.2703125 33.5 16.375 C35.1875 18.1875 35.1875 18.1875 35.1875 21.1875 C36.35667969 21.16429688 37.52585937 21.14109375 38.73046875 21.1171875 C40.27863942 21.09842179 41.82681703 21.08022245 43.375 21.0625 C44.52838867 21.03736328 44.52838867 21.03736328 45.70507812 21.01171875 C50.04278129 20.97448525 53.20126107 21.28071151 57.1875 23.1875 C57.8475 23.1875 58.5075 23.1875 59.1875 23.1875 C59.1875 23.8475 59.1875 24.5075 59.1875 25.1875 C59.88875 25.414375 60.59 25.64125 61.3125 25.875 C66.69986899 28.33445106 70.59122766 31.85071797 73.1875 37.1875 C73.1875 37.8475 73.1875 38.5075 73.1875 39.1875 C73.8475 39.1875 74.5075 39.1875 75.1875 39.1875 C75.373125 40.3321875 75.373125 40.3321875 75.5625 41.5 C76.06852792 44.39017136 76.06852792 44.39017136 78.1875 47.1875 C78.44628906 49.10107422 78.44628906 49.10107422 78.453125 51.2421875 C78.45570313 52.02207031 78.45828125 52.80195312 78.4609375 53.60546875 C78.45320312 54.41628906 78.44546875 55.22710937 78.4375 56.0625 C78.44523438 56.86558594 78.45296875 57.66867188 78.4609375 58.49609375 C78.44662723 62.83926129 78.20461034 66.23332338 76.1875 70.1875 C76.620625 70.579375 77.05375 70.97125 77.5 71.375 C83.28804471 77.59178877 86.36260985 86.97851534 86.625 95.375 C86.41419337 100.20012957 85.34286221 104.84711464 83.1875 109.1875 C82.1975 109.6825 82.1975 109.6825 81.1875 110.1875 C81.125625 110.88875 81.06375 111.59 81 112.3125 C79.74755769 116.74421896 76.5114411 119.13991428 73.1875 122.1875 C72.5275 122.8475 71.8675 123.5075 71.1875 124.1875 C69.73312571 125.12304627 68.25038363 126.01517424 66.75 126.875 C65.96753906 127.33261719 65.18507813 127.79023438 64.37890625 128.26171875 C62.1875 129.1875 62.1875 129.1875 59.1875 128.1875 C60.1875 125.1875 60.1875 125.1875 62.2265625 124.08203125 C63.07992187 123.72496094 63.93328125 123.36789063 64.8125 123 C72.53828715 119.26954849 76.63976368 114.40497365 79.625 106.375 C82.32093633 97.13676992 82.22148692 88.03577058 78.1875 79.1875 C76.65890202 77.0543073 75.0829004 75.09397853 73.296875 73.171875 C71.67024441 70.26226817 72.50848592 68.40993968 73.1875 65.1875 C73.88320398 53.64565699 73.7751745 43.98506915 66.5625 34.375 C61.42474413 29.03526846 56.00515236 26.13487041 48.52734375 25.9765625 C46.83076018 25.95998565 45.13413782 25.94702351 43.4375 25.9375 C35.01371378 25.84484238 35.01371378 25.84484238 31.875 23.34765625 C30.45012721 21.02062216 29.33191145 18.66156936 28.1875 16.1875 C22.95672552 9.90777342 14.99773257 5.99533295 6.97851562 4.88037109 C-5.20491283 3.78808103 -14.2840688 5.4860008 -24.2109375 13.00390625 C-27.55590613 15.79943057 -30.2666711 18.64345855 -32.8125 22.1875 C-33.33585937 22.03023437 -33.85921875 21.87296875 -34.3984375 21.7109375 C-43.22969102 19.79607023 -51.21043636 20.480279 -58.921875 25.19140625 C-59.54578125 25.52011719 -60.1696875 25.84882813 -60.8125 26.1875 C-61.4725 25.8575 -62.1325 25.5275 -62.8125 25.1875 C-62.1525 23.8675 -61.4925 22.5475 -60.8125 21.1875 C-59.8225 21.1875 -58.8325 21.1875 -57.8125 21.1875 C-57.8125 20.5275 -57.8125 19.8675 -57.8125 19.1875 C-55.04985711 18.59017181 -52.65217231 18.1875 -49.8125 18.1875 C-49.8125 17.5275 -49.8125 16.8675 -49.8125 16.1875 C-45.8525 16.1875 -41.8925 16.1875 -37.8125 16.1875 C-37.8125 16.8475 -37.8125 17.5075 -37.8125 18.1875 C-33.58165097 16.49942092 -33.58165097 16.49942092 -30.8125 13.1875 C-30.1525 13.1875 -29.4925 13.1875 -28.8125 13.1875 C-28.4825 12.1975 -28.1525 11.2075 -27.8125 10.1875 C-21.81264543 4.55995144 -15.82899882 2.46285208 -7.8125 1.1875 C-5.13017173 -0.15366414 -2.99417741 0.01845979 0 0 Z " fill="#5E6C89" transform="translate(99.8125,4.8125)"/>
<path d="M0 0 C0.671875 1.79296875 0.671875 1.79296875 1 4 C-0.109375 5.67578125 -0.109375 5.67578125 -1.75 7.3125 C-5.38407826 10.95539884 -7.85918907 15.03421029 -8.10595703 20.23168945 C-8.00912731 22.65870391 -7.85260874 25.07673731 -7.6875 27.5 C-7.36596568 36.01620496 -7.36596568 36.01620496 -9.6640625 39.58203125 C-11.8125 41.3125 -11.8125 41.3125 -13.95703125 42.55078125 C-16.92708608 44.65764615 -17.73252739 46.58906453 -19 50 C-19.51038932 53.23801997 -19.61763242 56.41261173 -19.625 59.6875 C-19.62951172 60.57147461 -19.63402344 61.45544922 -19.63867188 62.36621094 C-19.43706563 70.21445413 -17.3117461 75.09203751 -12 81 C-12.495 81.495 -12.495 81.495 -13 82 C-8.95377498 82.36980013 -8.95377498 82.36980013 -6 80 C-1.45945946 80.54054054 -1.45945946 80.54054054 0 82 C0.04063832 83.66617115 0.042721 85.33388095 0 87 C-1.66611905 87.042721 -3.33382885 87.04063832 -5 87 C-5.495 86.505 -5.495 86.505 -6 86 C-9.45821402 85.74996036 -9.45821402 85.74996036 -13 86 C-13.99 86.99 -13.99 86.99 -15 88 C-15.14031566 90.92202417 -15.14031566 90.92202417 -14 94 C-12.56022836 95.33420373 -12.56022836 95.33420373 -10.875 96.5 C-9.451875 97.7375 -9.451875 97.7375 -8 99 C-7.9342828 102.28585982 -8.44613235 104.07688726 -10.125 106.875 C-13.28083517 108.7685011 -15.39501847 108.54074723 -19 108 C-22.87526352 105.73098252 -25.43100598 103.13798804 -27.4375 99.125 C-29.12429731 89.75390381 -29.12429731 89.75390381 -26.4375 85.5625 C-23.31896306 83.56343786 -20.65813817 83.28139524 -17 83 C-17.99 82.67 -18.98 82.34 -20 82 C-19.773125 81.443125 -19.54625 80.88625 -19.3125 80.3125 C-18.86845528 77.02656909 -20.18454049 75.72318927 -22 73 C-25.75494456 67.29804714 -25.90190514 61.61397101 -25 55 C-23.65054232 51.14026084 -21.89182625 47.61617936 -20 44 C-19.67 43.01 -19.34 42.02 -19 41 C-15.55555556 38 -15.55555556 38 -13 38 C-11.94412535 35.25472591 -11.93256014 34.17702963 -13 31.375 C-14.70795239 25.61066068 -13.94004365 20.16618755 -11.5625 14.6875 C-11.046875 13.800625 -10.53125 12.91375 -10 12 C-9.71125 11.154375 -9.4225 10.30875 -9.125 9.4375 C-7.15170332 5.16202386 -3.85579582 2.57053055 0 0 Z " fill="#B2DDF0" transform="translate(37,28)"/>
<path d="M0 0 C2.32911599 2.74502956 4.07804019 5.16508501 5.625 8.4375 C9.11612252 14.69697359 16.33685917 17.6296046 22.875 19.8125 C27.69054014 21.13276695 32.45613128 21.4380015 37.43359375 21.59375 C40.33169936 22.05250644 41.21913896 22.73015678 43 25 C42.01 25.66 41.02 26.32 40 27 C39.45303969 29.25647477 39.45303969 29.25647477 39.375 31.8125 C39.20840445 34.43439662 39.02116395 36.90002401 38.4765625 39.47265625 C37.95151611 42.25712359 37.93762949 44.79493816 38 47.625 C38.07083601 50.85689283 38.03114583 52.90656252 37 56 C37 56.99 37 57.98 37 59 C36.34 59 35.68 59 35 59 C34.95875 59.9075 34.9175 60.815 34.875 61.75 C34 65 34 65 31.25 67.4375 C28 69 28 69 25.125 68.75 C24.073125 68.37875 24.073125 68.37875 23 68 C23.495 66.515 23.495 66.515 24 65 C25.13695312 64.62746094 26.27390625 64.25492187 27.4453125 63.87109375 C29.81161949 62.9370252 30.76165399 62.51817366 31.83886719 60.17626953 C32.34074984 57.80205945 32.64239144 55.47803242 32.875 53.0625 C32.98102539 52.21308838 33.08705078 51.36367676 33.19628906 50.48852539 C33.49805408 47.9947071 33.75442862 45.49989607 34 43 C34.14179687 41.72898438 34.28359375 40.45796875 34.4296875 39.1484375 C35.21529117 33.92325519 35.21529117 33.92325519 34 29 C34.495 27.515 34.495 27.515 35 26 C34.443125 26.185625 33.88625 26.37125 33.3125 26.5625 C30.600867 27.07551165 28.65628961 26.6640724 26 26 C26 25.34 26 24.68 26 24 C22.04 22.68 18.08 21.36 14 20 C12.16342642 25.46054063 12.16342642 25.46054063 11.61328125 30.8203125 C11.56107422 31.68527344 11.50886719 32.55023438 11.45507812 33.44140625 C11.35966126 35.23733464 11.28428521 37.03443482 11.22851562 38.83203125 C10.78961662 45.28529353 10.78961662 45.28529353 8.42504883 47.42553711 C6.5390625 48.47265625 6.5390625 48.47265625 3 50 C0.47692841 53.01140803 0.03174596 54.69312241 -0.375 58.625 C-0.29869692 61.89170736 -0.29869692 61.89170736 1.24536133 63.67895508 C3.43585461 65.32814934 4.72608594 65.42033845 7.44921875 65.51171875 C8.72055664 65.56489258 8.72055664 65.56489258 10.01757812 65.61914062 C10.89865234 65.64169922 11.77972656 65.66425781 12.6875 65.6875 C13.58017578 65.72166016 14.47285156 65.75582031 15.39257812 65.79101562 C17.59492671 65.87345648 19.79687938 65.94261551 22 66 C21.505 67.485 21.505 67.485 21 69 C18.3118751 69.08164159 15.626277 69.14079668 12.9375 69.1875 C12.18533203 69.21263672 11.43316406 69.23777344 10.65820312 69.26367188 C5.34013566 69.33273769 1.70195905 68.53881552 -3 66 C-5.42829921 61.9880274 -5.47486008 58.19622789 -4.5 53.6875 C-4.335 53.130625 -4.17 52.57375 -4 52 C-3.34 52 -2.68 52 -2 52 C-1.773125 51.4225 -1.54625 50.845 -1.3125 50.25 C0 48 0 48 2.5625 46.4375 C5.96577831 43.03422169 5.68409898 40.13079143 5.859375 35.4609375 C6 33 6 33 7 31 C7.2602229 29.01580037 7.51794619 27.03111181 7.74609375 25.04296875 C8.04151191 22.66598878 8.48826842 20.33934438 9 18 C8.34 17.67 7.68 17.34 7 17 C7 16.34 7 15.68 7 15 C4.08482708 16.07401108 2.22189824 16.77810176 0 19 C-2.71484375 19.265625 -2.71484375 19.265625 -5.9375 19.25 C-7.52884766 19.25773437 -7.52884766 19.25773437 -9.15234375 19.265625 C-12 19 -12 19 -15 17 C-14.11957031 16.89042969 -13.23914062 16.78085938 -12.33203125 16.66796875 C-11.17058594 16.50941406 -10.00914063 16.35085937 -8.8125 16.1875 C-7.66394531 16.03667969 -6.51539063 15.88585937 -5.33203125 15.73046875 C-1.98163973 14.99597495 0.1929729 13.92950074 3 12 C2.690625 11.319375 2.38125 10.63875 2.0625 9.9375 C0.86629351 6.63034088 0.40994603 3.48454122 0 0 Z " fill="#5C86B4" transform="translate(53,131)"/>
<path d="M0 0 C4.17787582 1.80881214 6.19319933 5.8924028 8.0390625 9.8828125 C8.93619358 14.67708097 8.43257064 18.63284547 6.9765625 23.2578125 C4.3261811 26.84865182 2.12600874 28.05073315 -1.9609375 29.8828125 C-4.8984375 30.1328125 -4.8984375 30.1328125 -6.9609375 29.8828125 C-7.2909375 28.8928125 -7.6209375 27.9028125 -7.9609375 26.8828125 C-9.9409375 27.2128125 -11.9209375 27.5428125 -13.9609375 27.8828125 C-16.72031338 23.97490058 -17.2866566 21.44763226 -17.0859375 16.6953125 C-16.7891347 12.6342011 -16.7891347 12.6342011 -17.9609375 8.8828125 C-17.30867187 8.65207031 -16.65640625 8.42132813 -15.984375 8.18359375 C-9.83977389 5.89248206 -9.83977389 5.89248206 -4.5859375 2.0703125 C-1.9609375 -0.1171875 -1.9609375 -0.1171875 0 0 Z " fill="#99DEF7" transform="translate(154.9609375,140.1171875)"/>
<path d="M0 0 C1.03769531 -0.01417969 2.07539062 -0.02835937 3.14453125 -0.04296875 C6.24522295 0.19187183 8.36451214 0.94248997 11.1875 2.1875 C12.095 2.290625 13.0025 2.39375 13.9375 2.5 C21.51411736 4.10274598 26.65400473 8.0996635 31.1875 14.1875 C32.3321875 15.2703125 32.3321875 15.2703125 33.5 16.375 C35.1875 18.1875 35.1875 18.1875 35.1875 21.1875 C37.8275 21.5175 40.4675 21.8475 43.1875 22.1875 C41.40990086 24.55763219 40.2746053 25.16427192 37.375 25.9375 C33.52334592 25.03122845 33.28851935 24.30014837 31.25 21.0625 C30.74855469 20.24007813 30.24710937 19.41765625 29.73046875 18.5703125 C25.0050134 11.27277387 17.47547018 7.29506323 9.1875 5.1875 C-2.18233821 3.60668032 -12.22395935 4.40427542 -21.8125 11.1875 C-26.12477236 14.45330887 -29.65309433 17.7893 -32.8125 22.1875 C-33.33585937 22.03023437 -33.85921875 21.87296875 -34.3984375 21.7109375 C-43.22969102 19.79607023 -51.21043636 20.480279 -58.921875 25.19140625 C-59.54578125 25.52011719 -60.1696875 25.84882813 -60.8125 26.1875 C-61.4725 25.8575 -62.1325 25.5275 -62.8125 25.1875 C-62.1525 23.8675 -61.4925 22.5475 -60.8125 21.1875 C-59.8225 21.1875 -58.8325 21.1875 -57.8125 21.1875 C-57.8125 20.5275 -57.8125 19.8675 -57.8125 19.1875 C-55.04985711 18.59017181 -52.65217231 18.1875 -49.8125 18.1875 C-49.8125 17.5275 -49.8125 16.8675 -49.8125 16.1875 C-45.8525 16.1875 -41.8925 16.1875 -37.8125 16.1875 C-37.8125 16.8475 -37.8125 17.5075 -37.8125 18.1875 C-33.58165097 16.49942092 -33.58165097 16.49942092 -30.8125 13.1875 C-30.1525 13.1875 -29.4925 13.1875 -28.8125 13.1875 C-28.4825 12.1975 -28.1525 11.2075 -27.8125 10.1875 C-21.81264543 4.55995144 -15.82899882 2.46285208 -7.8125 1.1875 C-5.13017173 -0.15366414 -2.99417741 0.01845979 0 0 Z " fill="#5C6379" transform="translate(99.8125,4.8125)"/>
<path d="M0 0 C3 0.9375 3 0.9375 4.6640625 3.0625 C6.27840054 6.53663099 6.39989127 9.05418955 6.375 12.875 C6.38273438 14.05964844 6.39046875 15.24429688 6.3984375 16.46484375 C5.88238279 20.96261469 4.28339991 24.18740921 1.625 27.8125 C0 28.9375 0 28.9375 -2.4375 29.5 C-5 28.9375 -5 28.9375 -7.1328125 26.37109375 C-9.29960153 22.38655911 -9.50618653 19.94333619 -9.4375 15.4375 C-9.43621094 14.1690625 -9.43492188 12.900625 -9.43359375 11.59375 C-8.97131801 7.69564109 -8.07225971 5.25311554 -6 1.9375 C-3 -0.0625 -3 -0.0625 0 0 Z " fill="#425371" transform="translate(122,73.0625)"/>
<path d="M0 0 C0.33 0 0.66 0 1 0 C1.495 4.455 1.495 4.455 2 9 C1.01 9.66 0.02 10.32 -1 11 C-1 10.01 -1 9.02 -1 8 C-1.66 8 -2.32 8 -3 8 C-3.2475 8.556875 -3.495 9.11375 -3.75 9.6875 C-7.30369071 16.26182781 -11.88600179 19.42006559 -18.921875 21.59375 C-26.4682089 23.06897317 -33.07049813 22.13788764 -40 19 C-40 19.66 -40 20.32 -40 21 C-39.05125 21.2475 -38.1025 21.495 -37.125 21.75 C-34 23 -34 23 -32.625 24.9375 C-32 27 -32 27 -32 30 C-32.56847656 29.97679687 -33.13695313 29.95359375 -33.72265625 29.9296875 C-39.37222626 29.79764413 -45.02512593 29.76884445 -49.75 33.3125 C-51.33183227 35.44797356 -52.642651 37.71718577 -54 40 C-54.33 40 -54.66 40 -55 40 C-55.98248524 35.9472484 -56.08159574 32.16138263 -56 28 C-54.783125 27.608125 -53.56625 27.21625 -52.3125 26.8125 C-48.26276963 25.2974413 -45.78377688 23.37427501 -43 20 C-42.67 19.01 -42.34 18.02 -42 17 C-40.1875 16.1875 -40.1875 16.1875 -38 16 C-35.75 16.9375 -35.75 16.9375 -34 18 C-34 18.66 -34 19.32 -34 20 C-32.8553125 19.7834375 -32.8553125 19.7834375 -31.6875 19.5625 C-28 19 -28 19 -25.43359375 18.921875 C-18.48353794 18.65121914 -13.83294883 17.19477388 -9 12 C-8.67 11.01 -8.34 10.02 -8 9 C-7.21625 8.566875 -6.4325 8.13375 -5.625 7.6875 C-2.37199038 5.59627953 -1.48184769 3.50963927 0 0 Z " fill="#73B9F0" transform="translate(158,125)"/>
<path d="M0 0 C2.875 0.9375 2.875 0.9375 4.875 3.9375 C5.12455468 6.73483388 5.24521827 9.39018773 5.25 12.1875 C5.27449219 12.92613281 5.29898438 13.66476563 5.32421875 14.42578125 C5.35398243 20.05111738 4.07940981 23.30691897 0.875 27.9375 C-1.0625 29.1875 -1.0625 29.1875 -3.125 28.9375 C-6.49423426 26.19510002 -8.37699629 24.20271262 -9.125 19.9375 C-9.65229501 13.30339305 -9.30195817 7.04744025 -5.375 1.4375 C-3.125 -0.0625 -3.125 -0.0625 0 0 Z " fill="#405476" transform="translate(70.125,71.0625)"/>
<path d="M0 0 C0.671875 1.79296875 0.671875 1.79296875 1 4 C-0.109375 5.67578125 -0.109375 5.67578125 -1.75 7.3125 C-5.38407826 10.95539884 -7.85918907 15.03421029 -8.10595703 20.23168945 C-8.00912731 22.65870391 -7.85260874 25.07673731 -7.6875 27.5 C-7.36596568 36.01620496 -7.36596568 36.01620496 -9.6640625 39.58203125 C-11.8125 41.3125 -11.8125 41.3125 -13.95703125 42.55078125 C-16.93999408 44.66680268 -17.74241298 46.56492433 -19 50 C-19.43686711 53.34378304 -19.46474568 56.63144297 -19.4375 60 C-19.45748047 60.8765625 -19.47746094 61.753125 -19.49804688 62.65625 C-19.49371997 68.40238107 -18.53191394 71.3001066 -15 76 C-15 77.32 -15 78.64 -15 80 C-18.88088981 78.52793835 -20.10463303 76.62591942 -22 73 C-22.8353125 71.7315625 -22.8353125 71.7315625 -23.6875 70.4375 C-26.0333942 64.29349137 -26.08608181 58.10642754 -23.91015625 51.8828125 C-22.68521395 49.20569223 -21.36428789 46.60780275 -20 44 C-19.67 43.01 -19.34 42.02 -19 41 C-15.55555556 38 -15.55555556 38 -13 38 C-11.94412535 35.25472591 -11.93256014 34.17702963 -13 31.375 C-14.70795239 25.61066068 -13.94004365 20.16618755 -11.5625 14.6875 C-11.046875 13.800625 -10.53125 12.91375 -10 12 C-9.71125 11.154375 -9.4225 10.30875 -9.125 9.4375 C-7.15170332 5.16202386 -3.85579582 2.57053055 0 0 Z " fill="#8CAAAF" transform="translate(37,28)"/>
<path d="M0 0 C1.65 0.33 3.3 0.66 5 1 C4.68417969 2.10859375 4.36835937 3.2171875 4.04296875 4.359375 C3.22851468 7.6000599 2.80587019 10.68082921 2.61328125 14.015625 C2.56107422 14.87414062 2.50886719 15.73265625 2.45507812 16.6171875 C2.35923315 18.38703716 2.28403869 20.15811439 2.22851562 21.9296875 C1.79150139 28.28800457 1.79150139 28.28800457 -0.57495117 30.41674805 C-2.4609375 31.46484375 -2.4609375 31.46484375 -6 33 C-8.52307159 36.01140803 -8.96825404 37.69312241 -9.375 41.625 C-9.29869692 44.89170736 -9.29869692 44.89170736 -7.75463867 46.67895508 C-5.56414539 48.32814934 -4.27391406 48.42033845 -1.55078125 48.51171875 C-0.70322266 48.54716797 0.14433594 48.58261719 1.01757812 48.61914062 C2.33918945 48.65297852 2.33918945 48.65297852 3.6875 48.6875 C5.02651367 48.73874023 5.02651367 48.73874023 6.39257812 48.79101562 C8.59492671 48.87345648 10.79687938 48.94261551 13 49 C12.67 49.99 12.34 50.98 12 52 C9.3118751 52.08164159 6.626277 52.14079668 3.9375 52.1875 C3.18533203 52.21263672 2.43316406 52.23777344 1.65820312 52.26367188 C-3.65986434 52.33273769 -7.29804095 51.53881552 -12 49 C-14.42829921 44.9880274 -14.47486008 41.19622789 -13.5 36.6875 C-13.335 36.130625 -13.17 35.57375 -13 35 C-12.34 35 -11.68 35 -11 35 C-10.6596875 34.13375 -10.6596875 34.13375 -10.3125 33.25 C-9 31 -9 31 -6.4375 29.4375 C-3.03422169 26.03422169 -3.31590102 23.13079143 -3.140625 18.4609375 C-3 16 -3 16 -2 14 C-1.73960909 12.01451934 -1.48179141 10.0285361 -1.25390625 8.0390625 C-0.95815235 5.66393122 -0.49648475 3.34057099 0 1 C0 0.67 0 0.34 0 0 Z " fill="#5D769F" transform="translate(62,148)"/>
<path d="M0 0 C0 0.66 0 1.32 0 2 C1.32 2.33 2.64 2.66 4 3 C4 3.33 4 3.66 4 4 C2.741875 4.103125 1.48375 4.20625 0.1875 4.3125 C-2.22562115 4.63709683 -3.83912862 4.91453708 -6 6.0625 C-8.34077663 10.59775473 -7.27319858 15.13726765 -5.8125 19.75 C-3.84756651 23.27332902 -2.50353856 25.00935309 1 27 C5.27169964 27.44965259 8.34148709 27.34144827 12 25 C11.7525 25.721875 11.505 26.44375 11.25 27.1875 C10.6924214 30.15384399 10.6924214 30.15384399 12.8125 32.75 C14.79198582 35.03330825 14.79198582 35.03330825 17 36 C17 36.99 17 37.98 17 39 C12.17965738 38.58682778 10.09007389 36.61980085 7 33 C7 32.34 7 31.68 7 31 C5.5459375 31.2475 5.5459375 31.2475 4.0625 31.5 C-0.8454814 31.49000411 -3.65268771 28.62236136 -7.0390625 25.3515625 C-10.94807607 20.66386097 -12 16.26668812 -12 10.25 C-10.55362046 5.54926649 -7.97408664 3.18445198 -3.8125 0.6875 C-2 0 -2 0 0 0 Z " fill="#82A9C0" transform="translate(17,108)"/>
<path d="M0 0 C1.515625 1.1953125 1.515625 1.1953125 3 3 C3.109375 5.3046875 3.109375 5.3046875 2.75 7.875 C2.64171875 8.71804687 2.5334375 9.56109375 2.421875 10.4296875 C2.14483996 12.11754912 1.82305362 13.7987865 1.453125 15.46875 C0.9553147 18.24962135 0.9378076 20.80301989 1 23.625 C1.07083601 26.85689283 1.03114583 28.90656252 0 32 C0 32.99 0 33.98 0 35 C-0.66 35 -1.32 35 -2 35 C-2.04125 35.9075 -2.0825 36.815 -2.125 37.75 C-3 41 -3 41 -5.75 43.4375 C-9 45 -9 45 -11.875 44.75 C-12.57625 44.5025 -13.2775 44.255 -14 44 C-13.67 43.01 -13.34 42.02 -13 41 C-11.86046875 40.6184375 -10.7209375 40.236875 -9.546875 39.84375 C-5.61854286 38.32758454 -5.61854286 38.32758454 -4.765625 34.21875 C-4.56180895 32.64965253 -4.39191781 31.07590202 -4.25 29.5 C-4.04133743 27.79545354 -3.83167056 26.09102978 -3.62109375 24.38671875 C-3.52296387 23.5054834 -3.42483398 22.62424805 -3.32373047 21.71630859 C-2.78869622 17.22702425 -2.04184324 12.77356447 -1.3125 8.3125 C-1.05760169 6.70458404 -0.80360263 5.09652509 -0.55078125 3.48828125 C-0.36902344 2.33714844 -0.18726562 1.18601563 0 0 Z " fill="#6791B6" transform="translate(90,155)"/>
<path d="M0 0 C0.495 0.99 0.495 0.99 1 2 C1.66 2.33 2.32 2.66 3 3 C2.40832031 3.43570312 1.81664062 3.87140625 1.20703125 4.3203125 C-3.50848408 7.87425717 -7.43698017 11.28761893 -11 16 C-11.52335937 15.84273437 -12.04671875 15.68546875 -12.5859375 15.5234375 C-21.41719102 13.60857023 -29.39793636 14.292779 -37.109375 19.00390625 C-37.73328125 19.33261719 -38.3571875 19.66132813 -39 20 C-39.66 19.67 -40.32 19.34 -41 19 C-40.34 17.68 -39.68 16.36 -39 15 C-38.01 15 -37.02 15 -36 15 C-36 14.34 -36 13.68 -36 13 C-33.23735711 12.40267181 -30.83967231 12 -28 12 C-28 11.34 -28 10.68 -28 10 C-24.04 10 -20.08 10 -16 10 C-16 10.66 -16 11.32 -16 12 C-11.76915097 10.31192092 -11.76915097 10.31192092 -9 7 C-8.34 7 -7.68 7 -7 7 C-6.67 6.01 -6.34 5.02 -6 4 C-4.04402816 2.60287726 -2.04563599 1.26220093 0 0 Z " fill="#60697E" transform="translate(78,11)"/>
<path d="M0 0 C3 1 3 1 4.5625 3.625 C8.98934499 14.01846216 9.34075677 23.40730329 5.4765625 34.0546875 C2.62896404 39.73481775 -1.81513537 45.93837846 -8 48 C-8 44 -8 44 -6.6875 42.3125 C-5 41 -5 41 -2 40 C4.40134918 31.38699247 5.38655416 22.35078803 4 12 C3.14240621 9.57367445 2.09918344 7.3350529 1 5 C0.3125 2.0625 0.3125 2.0625 0 0 Z " fill="#BBE4F4" transform="translate(174,80)"/>
<path d="M0 0 C0.99 0.33 1.98 0.66 3 1 C1.80322599 1.99326168 0.59189654 2.9689962 -0.625 3.9375 C-1.29789063 4.48277344 -1.97078125 5.02804688 -2.6640625 5.58984375 C-5.4390481 7.26504409 -7.80301455 7.63816354 -11 8 C-10.87882812 8.6705542 -10.75765625 9.3411084 -10.6328125 10.03198242 C-10.08407115 13.08303709 -9.54197366 16.13523621 -9 19.1875 C-8.80921875 20.24259766 -8.6184375 21.29769531 -8.421875 22.38476562 C-8.24140625 23.40634766 -8.0609375 24.42792969 -7.875 25.48046875 C-7.70742187 26.41785889 -7.53984375 27.35524902 -7.3671875 28.32104492 C-7.01100934 30.91967719 -6.93354004 33.38106212 -7 36 C-8.32 36 -9.64 36 -11 36 C-10.95875 35.113125 -10.9175 34.22625 -10.875 33.3125 C-10.80582769 30.048334 -10.80582769 30.048334 -12.0625 27.4375 C-13.18299353 24.52421683 -12.84427369 22.95495793 -12 20 C-12.66 20 -13.32 20 -14 20 C-13.979375 19.0925 -13.95875 18.185 -13.9375 17.25 C-13.9889755 14.57327412 -14.2215017 12.53011948 -15 10 C-16.98 10 -18.96 10 -21 10 C-20.67 9.34 -20.34 8.68 -20 8 C-16.56968287 6.918655 -13.10108882 6.07186815 -9.61328125 5.1953125 C-5.90346317 4.14744746 -5.90346317 4.14744746 -2.73046875 1.8046875 C-1.82941406 1.20914063 -0.92835937 0.61359375 0 0 Z " fill="#4A658E" transform="translate(113,145)"/>
<path d="M0 0 C2.4375 1.25 2.4375 1.25 5 3 C5.66015625 5.109375 5.66015625 5.109375 6 7 C6.79664062 7.19335938 7.59328125 7.38671875 8.4140625 7.5859375 C9.47367188 7.84632813 10.53328125 8.10671875 11.625 8.375 C12.66914062 8.63023437 13.71328125 8.88546875 14.7890625 9.1484375 C18 10 18 10 20.875 11.09375 C24.80232492 12.23267423 28.31494081 12.22044443 32.375 12.125 C33.11105469 12.11597656 33.84710938 12.10695312 34.60546875 12.09765625 C36.4037888 12.07430144 38.20193911 12.03843836 40 12 C40 12.99 40 13.98 40 15 C29.64483967 18.22623086 17.75357622 16.32424968 8.23828125 11.640625 C1.46661846 7.89254346 1.46661846 7.89254346 -0.34375 4.4296875 C-1 2 -1 2 0 0 Z " fill="#B8E3F5" transform="translate(60,137)"/>
<path d="M0 0 C2.46662251 3.69993376 2.13104974 6.26611099 1.8125 10.5 C1.76512695 11.51513672 1.76512695 11.51513672 1.71679688 12.55078125 C1.51195232 15.5611056 1.34564591 17.56119512 -0.55078125 19.96875 C-1.02902344 20.3090625 -1.50726563 20.649375 -2 21 C-3 17 -3 17 -3.25 15 C-3.89807667 12.72592865 -3.89807667 12.72592865 -6.5 11.125 C-9 9 -9 9 -10 5.9375 C-10 3 -10 3 -9 1.125 C-5.92163439 -0.60658065 -3.45132193 -0.37650785 0 0 Z " fill="#7CB0D3" transform="translate(31,113)"/>
<path d="M0 0 C0.33 0 0.66 0 1 0 C1.495 4.455 1.495 4.455 2 9 C1.01 9.66 0.02 10.32 -1 11 C-1 10.01 -1 9.02 -1 8 C-1.66 8 -2.32 8 -3 8 C-3.2475 8.556875 -3.495 9.11375 -3.75 9.6875 C-7.30058812 16.25608802 -11.88446711 19.42998889 -18.921875 21.58984375 C-26.92704483 23.16981148 -33.07129196 22.18337089 -40 18 C-39.34 17.34 -38.68 16.68 -38 16 C-36.68 16.66 -35.36 17.32 -34 18 C-34 18.66 -34 19.32 -34 20 C-32.8553125 19.7834375 -32.8553125 19.7834375 -31.6875 19.5625 C-28 19 -28 19 -25.43359375 18.921875 C-18.48353794 18.65121914 -13.83294883 17.19477388 -9 12 C-8.67 11.01 -8.34 10.02 -8 9 C-7.21625 8.566875 -6.4325 8.13375 -5.625 7.6875 C-2.37199038 5.59627953 -1.48184769 3.50963927 0 0 Z " fill="#B2DDF4" transform="translate(158,125)"/>
<path d="M0 0 C0.33 0 0.66 0 1 0 C2.39118517 5.9441548 1.69155567 10.47460378 -1 16 C-1.66 16.33 -2.32 16.66 -3 17 C-3.0928125 18.051875 -3.0928125 18.051875 -3.1875 19.125 C-4.43994231 23.55671896 -7.6760589 25.95241428 -11 29 C-11.66 29.66 -12.32 30.32 -13 31 C-14.45437429 31.93554627 -15.93711637 32.82767424 -17.4375 33.6875 C-18.61119141 34.37392578 -18.61119141 34.37392578 -19.80859375 35.07421875 C-22 36 -22 36 -25 35 C-24 32 -24 32 -21.9609375 30.89453125 C-20.68089844 30.35892578 -20.68089844 30.35892578 -19.375 29.8125 C-12.84061335 26.65732473 -8.58841645 22.85319087 -5.7890625 16.0625 C-5.10494735 14.00501081 -4.45541226 11.93564773 -3.84375 9.85546875 C-2.82708409 6.41480773 -1.48247919 3.26145422 0 0 Z " fill="#7A9BC6" transform="translate(184,98)"/>
<path d="M0 0 C2.0625 0.4375 2.0625 0.4375 4 1 C3.34 2.65 2.68 4.3 2 6 C2.433125 6.391875 2.86625 6.78375 3.3125 7.1875 C9.10212617 13.40598737 12.26331533 22.8347102 12.25 31.25 C12.1675 32.4875 12.085 33.725 12 35 C11.34 34.34 10.68 33.68 10 33 C9.34 33.66 8.68 34.32 8 35 C7.89042969 34.154375 7.78085938 33.30875 7.66796875 32.4375 C6.51627961 24.19777282 5.4963961 17.06015846 0.25 10.375 C-1.82752341 7.66302334 -2.00979562 7.26448183 -1.875 3.625 C-1 1 -1 1 0 0 Z " fill="#61799A" transform="translate(174,69)"/>
<path d="M0 0 C1.125 1.75 1.125 1.75 2 4 C0.65399975 8.03800076 -1.9553851 10.23771345 -5.3125 12.6875 C-8.58165363 14.2840634 -10.39159576 14.43300851 -14 14 C-16.36522558 13.07796291 -18.70401807 12.08301035 -21 11 C-21.99 10.67 -22.98 10.34 -24 10 C-24 9.34 -24 8.68 -24 8 C-24.66 7.67 -25.32 7.34 -26 7 C-26.33 6.01 -26.66 5.02 -27 4 C-26.34 3.34 -25.68 2.68 -25 2 C-22.48916886 3.25541557 -22.12874554 4.50063488 -21 7 C-19.02 7 -17.04 7 -15 7 C-14.67 7.66 -14.34 8.32 -14 9 C-7.60551858 8.63614892 -7.60551858 8.63614892 -2 6 C-0.70768358 2.95800528 -0.70768358 2.95800528 0 0 Z " fill="#5A89AC" transform="translate(162,160)"/>
<path d="M0 0 C1.10844754 3.74314209 0.96363452 7.01660971 0.7421875 10.87890625 C1.07652558 13.62959681 1.85284494 14.29465252 4 16 C6.11615844 16.50054751 6.11615844 16.50054751 8.44921875 16.51171875 C9.72055664 16.56489258 9.72055664 16.56489258 11.01757812 16.61914062 C12.33918945 16.65297852 12.33918945 16.65297852 13.6875 16.6875 C14.58017578 16.72166016 15.47285156 16.75582031 16.39257812 16.79101562 C18.59492671 16.87345648 20.79687938 16.94261551 23 17 C22.67 17.99 22.34 18.98 22 20 C19.3118751 20.08164159 16.626277 20.14079668 13.9375 20.1875 C13.18533203 20.21263672 12.43316406 20.23777344 11.65820312 20.26367188 C6.34013566 20.33273769 2.70195905 19.53881552 -2 17 C-4.42829921 12.9880274 -4.47486008 9.19622789 -3.5 4.6875 C-3.335 4.130625 -3.17 3.57375 -3 3 C-2.34 3 -1.68 3 -1 3 C-0.67 2.01 -0.34 1.02 0 0 Z " fill="#72A1C5" transform="translate(52,180)"/>
<path d="M0 0 C4.99191405 4.15992838 7.55258621 8.64396554 9 15 C9.61161277 21.74075348 9.56247284 28.72331258 8.41796875 35.390625 C7.74408535 37.97404586 7.74408535 37.97404586 9 40 C7.35 40 5.7 40 4 40 C4.14194764 37.93722893 4.28872216 35.87478969 4.4375 33.8125 C4.51871094 32.66394531 4.59992188 31.51539062 4.68359375 30.33203125 C5 27 5 27 5.5546875 24.2890625 C6.73972645 18.19754647 4.57461308 11.54360575 1.375 6.375 C0 4 0 4 0 0 Z " fill="#D1EFF5" transform="translate(165,38)"/>
<path d="M0 0 C3.3 0 6.6 0 10 0 C10.8125 3.1875 10.8125 3.1875 11 7 C8.5625 9.9375 8.5625 9.9375 6 12 C2.82149863 11.0799075 1.34822284 10.58564751 -0.375 7.6875 C-1.06313804 4.72850644 -0.82756731 2.89648559 0 0 Z " fill="#4D6F9F" transform="translate(63,88)"/>
<path d="M0 0 C0.671875 1.79296875 0.671875 1.79296875 1 4 C-0.109375 5.67578125 -0.109375 5.67578125 -1.75 7.3125 C-7.69787515 13.83998247 -8.55212352 20.45945889 -9 29 C-9.66 27.68 -10.32 26.36 -11 25 C-11 27.97 -11 30.94 -11 34 C-11.66 33.67 -12.32 33.34 -13 33 C-15.02947191 25.37311364 -12.97869057 19.07439011 -10 12 C-9.731875 11.175 -9.46375 10.35 -9.1875 9.5 C-7.15014441 5.21083033 -3.89493817 2.59662544 0 0 Z " fill="#A2B3B9" transform="translate(37,28)"/>
<path d="M0 0 C2.7920301 0.1404983 5.58349796 0.28715383 8.375 0.4375 C9.1690625 0.47681641 9.963125 0.51613281 10.78125 0.55664062 C16.7734375 0.88671875 16.7734375 0.88671875 19 2 C18.67 2.99 18.34 3.98 18 5 C14.7 5.66 11.4 6.32 8 7 C10.31 7.33 12.62 7.66 15 8 C14.34 8.66 13.68 9.32 13 10 C10.25 9.86328125 10.25 9.86328125 7 9.3125 C5.39125 9.05919922 5.39125 9.05919922 3.75 8.80078125 C1 8 1 8 -1 5 C-0.34 5 0.32 5 1 5 C0.67 3.35 0.34 1.7 0 0 Z " fill="#9FDAF8" transform="translate(33,142)"/>
<path d="M0 0 C0.99 0 1.98 0 3 0 C3.01417969 0.90621094 3.02835938 1.81242187 3.04296875 2.74609375 C3.32297312 9.89755678 3.84321433 15.16547356 7.94140625 21.1328125 C9 23 9 23 9 27 C5.11911019 25.52793835 3.89536697 23.62591942 2 20 C1.443125 19.154375 0.88625 18.30875 0.3125 17.4375 C-1.62348574 12.36706116 -1.418242 7.37280108 -1 2 C-0.67 1.34 -0.34 0.68 0 0 Z " fill="#6D95AA" transform="translate(13,81)"/>
<path d="M0 0 C1.0725 -0.01417969 2.145 -0.02835937 3.25 -0.04296875 C6 0.1875 6 0.1875 8 2.1875 C7.67 2.8475 7.34 3.5075 7 4.1875 C5.28103516 4.24357422 5.28103516 4.24357422 3.52734375 4.30078125 C1.99736554 4.36648584 0.46741903 4.43293159 -1.0625 4.5 C-1.81466797 4.52255859 -2.56683594 4.54511719 -3.34179688 4.56835938 C-8.59667829 4.81859182 -12.23094708 6.01019677 -17 8.1875 C-18.32 8.1875 -19.64 8.1875 -21 8.1875 C-20.875 6.3125 -20.875 6.3125 -20 4.1875 C-16.10618018 2.46697496 -12.18180546 1.85278723 -8 1.1875 C-5.27457733 -0.17521133 -3.03912726 0.01826399 0 0 Z " fill="#4E4D5E" transform="translate(100,4.8125)"/>
<path d="M0 0 C0.33 0 0.66 0 1 0 C1.7860262 12.90829694 1.7860262 12.90829694 -1.25 17.125 C-2.1575 17.74375 -3.065 18.3625 -4 19 C-6.27191416 21.02040748 -6.27191416 21.02040748 -8 23 C-8 23.99 -8 24.98 -8 26 C-8.99 26 -9.98 26 -11 26 C-11.33 26.66 -11.66 27.32 -12 28 C-12.50537432 22.69356959 -11.30655751 20.13319688 -8 16 C-5.34200077 13.58363706 -4.64705667 13 -1 13 C-1.01160156 12.22914063 -1.02320313 11.45828125 -1.03515625 10.6640625 C-1.04869141 9.15972656 -1.04869141 9.15972656 -1.0625 7.625 C-1.07410156 6.62726563 -1.08570313 5.62953125 -1.09765625 4.6015625 C-1 2 -1 2 0 0 Z " fill="#BDE5F0" transform="translate(64,164)"/>
<path d="M0 0 C2.8125 1.0625 2.8125 1.0625 4.3125 2.8125 C4.9758991 5.79779594 4.15558748 7.37632504 2.8125 10.0625 C1.8225 9.4025 0.8325 8.7425 -0.1875 8.0625 C-0.8475 8.7225 -1.5075 9.3825 -2.1875 10.0625 C-4.1875 9.9375 -4.1875 9.9375 -6.1875 9.0625 C-7.4375 7 -7.4375 7 -8.1875 5.0625 C-4.0552686 0.07951507 -4.0552686 0.07951507 0 0 Z " fill="#5B6278" transform="translate(122.1875,72.9375)"/>
<path d="M0 0 C7.50892857 9.0625 7.50892857 9.0625 7 15 C5.824375 15.433125 5.824375 15.433125 4.625 15.875 C1.90328368 16.84912254 1.90328368 16.84912254 0 19 C-2.71484375 19.265625 -2.71484375 19.265625 -5.9375 19.25 C-7.52884766 19.25773437 -7.52884766 19.25773437 -9.15234375 19.265625 C-12 19 -12 19 -15 17 C-14.11957031 16.89042969 -13.23914062 16.78085938 -12.33203125 16.66796875 C-11.17058594 16.50941406 -10.00914063 16.35085937 -8.8125 16.1875 C-7.66394531 16.03667969 -6.51539063 15.88585937 -5.33203125 15.73046875 C-1.98163973 14.99597495 0.1929729 13.92950074 3 12 C2.690625 11.319375 2.38125 10.63875 2.0625 9.9375 C0.86629351 6.63034088 0.40994603 3.48454122 0 0 Z " fill="#7CA5CD" transform="translate(53,131)"/>
<path d="M0 0 C0.33 0.99 0.66 1.98 1 3 C-0.6237707 5.43565606 -1.81160422 7.15989002 -4 9 C-6.6875 9.5 -6.6875 9.5 -9 9 C-11 7 -11 7 -11.125 3.875 C-11.08375 2.92625 -11.0425 1.9775 -11 1 C-7.32589215 -0.17571451 -3.83070817 -0.07366746 0 0 Z " fill="#5678A7" transform="translate(126,93)"/>
<path d="M0 0 C0.66 0 1.32 0 2 0 C1.7525 0.721875 1.505 1.44375 1.25 2.1875 C0.6924214 5.15384399 0.6924214 5.15384399 2.8125 7.75 C4.79198582 10.03330825 4.79198582 10.03330825 7 11 C7 11.99 7 12.98 7 14 C2.17965738 13.58682778 0.09007389 11.61980085 -3 8 C-3 7.34 -3 6.68 -3 6 C-5.31 6 -7.62 6 -10 6 C-10.66 4.68 -11.32 3.36 -12 2 C-11.30132812 2.02320313 -10.60265625 2.04640625 -9.8828125 2.0703125 C-8.51769531 2.09738281 -8.51769531 2.09738281 -7.125 2.125 C-6.22007813 2.14820313 -5.31515625 2.17140625 -4.3828125 2.1953125 C-1.81193006 2.24324836 -1.81193006 2.24324836 0 0 Z " fill="#78A2BC" transform="translate(27,133)"/>
<path d="M0 0 C0.12375 0.95261719 0.2475 1.90523437 0.375 2.88671875 C1.31320185 10.07272512 1.31320185 10.07272512 4.98046875 16.04296875 C6.95484701 17.23458466 8.83627507 18.20851867 11 19 C10.67 19.99 10.34 20.98 10 22 C3.51510574 20.53172205 3.51510574 20.53172205 1.0625 18 C0 16 0 16 0 14 C-0.66 13.67 -1.32 13.34 -2 13 C-2.35840222 10.67038557 -2.68848712 8.33634657 -3 6 C-3.97549761 3.18137797 -3.97549761 3.18137797 -5 1 C-1.125 0 -1.125 0 0 0 Z " fill="#6187B7" transform="translate(107,180)"/>
<path d="M0 0 C2.7019433 0.36512747 4.58390852 0.69869237 6.8125 2.3125 C8 4 8 4 8 8 C8.66 8.33 9.32 8.66 10 9 C10 11.64 10 14.28 10 17 C9.34 17 8.68 17 8 17 C7.34 18.32 6.68 19.64 6 21 C5.01 21 4.02 21 3 21 C3.32355469 20.4328125 3.64710938 19.865625 3.98046875 19.28125 C5.62744218 15.59606807 5.50370998 11.96397856 5 8 C3.64114884 5.59916562 3.64114884 5.59916562 2 4 C2 3.34 2 2.68 2 2 C1.34 2 0.68 2 0 2 C0 1.34 0 0.68 0 0 Z " fill="#5C728F" transform="translate(134,178)"/>
<path d="M0 0 C3.3125 -0.25 3.3125 -0.25 7 0 C8.73046875 2.015625 8.73046875 2.015625 10 4 C8.98292969 4.02126953 8.98292969 4.02126953 7.9453125 4.04296875 C1.34901025 4.3810064 -3.28461337 5.72644807 -9.00390625 9.0390625 C-9.66261719 9.35617188 -10.32132813 9.67328125 -11 10 C-11.66 9.67 -12.32 9.34 -13 9 C-12.34 7.68 -11.68 6.36 -11 5 C-10.01 5 -9.02 5 -8 5 C-8 4.34 -8 3.68 -8 3 C-5.23735711 2.40267181 -2.83967231 2 0 2 C0 1.34 0 0.68 0 0 Z " fill="#708795" transform="translate(50,21)"/>
<path d="M0 0 C3.65409536 0.28659571 4.73758014 0.55772248 7.1875 3.25 C7.48311076 6.12038052 7.56693016 8.58754745 7.4375 11.4375 C7.41945313 12.18708984 7.40140625 12.93667969 7.3828125 13.70898438 C7.33574109 15.5565371 7.26399766 17.40343159 7.1875 19.25 C4.02913707 16.09163707 4.7385934 12.31274274 4.53125 8 C4.45564222 5.10884848 4.45564222 5.10884848 2.1875 3.25 C-2.31567123 3.60263785 -2.31567123 3.60263785 -5.8125 6.25 C-8.2875 5.26 -8.2875 5.26 -10.8125 4.25 C-10.8125 3.92 -10.8125 3.59 -10.8125 3.25 C-9.678125 2.940625 -8.54375 2.63125 -7.375 2.3125 C-4.09033849 1.33286411 -3.23210081 0.28729785 0 0 Z " fill="#7A9EB9" transform="translate(32.8125,105.75)"/>
<path d="M0 0 C1.42662689 2.66303686 2.28672032 5.07768249 3 8 C3.46279327 9.52589551 3.94250689 11.0467439 4.4375 12.5625 C4.68371094 13.32691406 4.92992187 14.09132812 5.18359375 14.87890625 C6.00573882 17.24563889 6.00573882 17.24563889 8 20 C4.25 21.125 4.25 21.125 2 20 C1.40576172 18.23413086 1.40576172 18.23413086 0.9296875 15.96484375 C0.75566406 15.15595703 0.58164063 14.34707031 0.40234375 13.51367188 C0.14130859 12.2384668 0.14130859 12.2384668 -0.125 10.9375 C-0.30675781 10.08349609 -0.48851562 9.22949219 -0.67578125 8.34960938 C-1.12476342 6.23466704 -1.56335351 4.11752353 -2 2 C-1.34 2 -0.68 2 0 2 C0 1.34 0 0.68 0 0 Z " fill="#6882B0" transform="translate(129,158)"/>
<path d="M0 0 C0.53625 0.268125 1.0725 0.53625 1.625 0.8125 C-2.15589102 4.94784955 -6.25895732 8.42230113 -11.375 10.8125 C-12.695 10.8125 -14.015 10.8125 -15.375 10.8125 C-15.705 11.4725 -16.035 12.1325 -16.375 12.8125 C-17.035 11.4925 -17.695 10.1725 -18.375 8.8125 C-17.72273437 8.58175781 -17.07046875 8.35101563 -16.3984375 8.11328125 C-10.25383639 5.82216956 -10.25383639 5.82216956 -5 2 C-2.375 -0.1875 -2.375 -0.1875 0 0 Z " fill="#87C6F0" transform="translate(155.375,140.1875)"/>
<path d="M0 0 C0.99 0.33 1.98 0.66 3 1 C4.00926479 5.15626368 4.10239579 9.04365094 4.0625 13.3125 C4.05347656 14.56675781 4.04445312 15.82101563 4.03515625 17.11328125 C4.01775391 18.54220703 4.01775391 18.54220703 4 20 C2.68 20 1.36 20 0 20 C0 13.4 0 6.8 0 0 Z " fill="#607292" transform="translate(174,49)"/>
<path d="M0 0 C0.33 0 0.66 0 1 0 C1.50567729 2.56149628 2.00470132 5.12399465 2.5 7.6875 C2.64308594 8.40873047 2.78617187 9.12996094 2.93359375 9.87304688 C3.65571887 13.63841359 4.1824976 17.14473813 4 21 C2.68 21 1.36 21 0 21 C0.04125 20.113125 0.0825 19.22625 0.125 18.3125 C0.19313751 15.07233688 0.19313751 15.07233688 -1 12.5625 C-2.2777809 9.28818645 -2.13656143 6.48231642 -2 3 C-1.34 3 -0.68 3 0 3 C0 2.01 0 1.02 0 0 Z " fill="#4D6D91" transform="translate(102,160)"/>
<path d="M0 0 C0.33 0 0.66 0 1 0 C2.39118517 5.9441548 1.69155567 10.47460378 -1 16 C-1.66 16.33 -2.32 16.66 -3 17 C-3.65555119 19.52733235 -3.65555119 19.52733235 -4 22 C-4.99 21.67 -5.98 21.34 -7 21 C-4.96192707 13.8821847 -2.59655258 6.93292719 0 0 Z " fill="#6D8AA7" transform="translate(184,98)"/>
<path d="M0 0 C1.72880982 -0.05449838 3.45812712 -0.09301688 5.1875 -0.125 C6.15042969 -0.14820312 7.11335937 -0.17140625 8.10546875 -0.1953125 C11.13855137 0.00934895 13.23625009 0.78757776 16 2 C16.66 2 17.32 2 18 2 C18 2.66 18 3.32 18 4 C18.66 4.33 19.32 4.66 20 5 C13.07 4.67 6.14 4.34 -1 4 C-0.34 3.34 0.32 2.68 1 2 C0.67 1.34 0.34 0.68 0 0 Z " fill="#585D6E" transform="translate(141,26)"/>
<path d="M0 0 C0.474375 0.495 0.94875 0.99 1.4375 1.5 C5.10560943 3.64718601 8.83575725 3.78223344 13 3 C14.64478746 1.52738251 14.64478746 1.52738251 16 0 C16.66 0 17.32 0 18 0 C17.65557106 2.49710982 17.15296001 3.82154665 15.5 5.75 C11.71501883 7.64249059 8.15117622 7.56364595 4 7 C1.4375 5.75 1.4375 5.75 0 4 C0 2.68 0 1.36 0 0 Z " fill="#7C8294" transform="translate(84,97)"/>
<path d="M0 0 C2.475 0.99 2.475 0.99 5 2 C5 2.66 5 3.32 5 4 C6.1446875 3.7834375 6.1446875 3.7834375 7.3125 3.5625 C11.40550487 2.93814333 15.48265246 2.59695555 19.609375 2.28125 C22.01129427 2.13587139 22.01129427 2.13587139 24 1 C24 1.99 24 2.98 24 4 C17.90544174 6.63548465 10.82823439 7.38225104 4.51171875 5.1015625 C2.62680059 4.15742943 0.80471374 3.08963849 -1 2 C-0.67 1.34 -0.34 0.68 0 0 Z " fill="#B5E1F7" transform="translate(119,141)"/>
<path d="M0 0 C3.00617269 3.00617269 2.59585316 5.82381598 3 10 C3.763125 10.2475 4.52625 10.495 5.3125 10.75 C8.29161079 12.13563292 9.47024685 13.11046627 11 16 C10.5703125 18.1328125 10.5703125 18.1328125 10 20 C9.56429687 19.43410156 9.12859375 18.86820313 8.6796875 18.28515625 C4.92938682 13.51056427 4.92938682 13.51056427 -0.4375 11 C-1.283125 11 -2.12875 11 -3 11 C-2.01 10.67 -1.02 10.34 0 10 C0 6.7 0 3.4 0 0 Z " fill="#ACE3EF" transform="translate(128,168)"/>
<path d="M0 0 C2.90802461 2.21928194 4.95312762 3.92969143 7 7 C7 7.99 7 8.98 7 10 C9.64 10.33 12.28 10.66 15 11 C13.1142144 13.5143808 12.16490841 13.97251526 9 14.5 C6 14 6 14 4.25 11.8125 C2.51556858 7.9100293 0.92890925 4.18009163 0 0 Z " fill="#505672" transform="translate(128,16)"/>
<path d="M0 0 C1.2684375 0.12375 1.2684375 0.12375 2.5625 0.25 C4.5625 3.25 4.5625 3.25 4.1875 5.9375 C3.98125 6.700625 3.775 7.46375 3.5625 8.25 C0.18787285 7.70276317 -1.51985 7.1951 -4.4375 5.25 C-3.32911727 0.34144793 -3.32911727 0.34144793 0 0 Z " fill="#A8D5EC" transform="translate(27.4375,113.75)"/>
<path d="M0 0 C3.96 0 7.92 0 12 0 C12 1.32 12 2.64 12 4 C8.37 4.33 4.74 4.66 1 5 C0.67 6.32 0.34 7.64 0 9 C-1.15941038 5.52176885 -0.70820884 3.54104422 0 0 Z " fill="#436190" transform="translate(114,89)"/>
<path d="M0 0 C2.97 0.495 2.97 0.495 6 1 C5.41196203 4.02419525 4.77321882 7.01758453 4 10 C2.02 10 0.04 10 -2 10 C-1.33333333 6.66666667 -0.66666667 3.33333333 0 0 Z " fill="#5A6278" transform="translate(67,71)"/>
<path d="M0 0 C0.99 0.33 1.98 0.66 3 1 C2.34 1 1.68 1 1 1 C0.95101562 1.63808594 0.90203125 2.27617188 0.8515625 2.93359375 C0.77679688 3.75988281 0.70203125 4.58617188 0.625 5.4375 C0.55539063 6.26121094 0.48578125 7.08492188 0.4140625 7.93359375 C0.27742188 8.61550781 0.14078125 9.29742187 0 10 C-0.99 10.495 -0.99 10.495 -2 11 C-2.46751788 13.35599235 -2.46751788 13.35599235 -2.625 16.0625 C-2.69976562 16.98160156 -2.77453125 17.90070313 -2.8515625 18.84765625 C-2.90054688 19.55792969 -2.94953125 20.26820312 -3 21 C-5 19 -5 19 -5.265625 17.08203125 C-5.18662395 5.60712855 -5.18662395 5.60712855 -1.375 1.0625 C-0.694375 0.5365625 -0.694375 0.5365625 0 0 Z " fill="#535D74" transform="translate(66,72)"/>
<path d="M0 0 C2.97 0 5.94 0 9 0 C8.01 2.31 7.02 4.62 6 7 C4.35 6.67 2.7 6.34 1 6 C0.67 4.02 0.34 2.04 0 0 Z " fill="#5083C6" transform="translate(64,91)"/>
<path d="M0 0 C2.14699969 3.44175522 2.09856795 5.7720292 1.625 9.75 C1.51414062 10.73484375 1.40328125 11.7196875 1.2890625 12.734375 C1.19367187 13.48203125 1.09828125 14.2296875 1 15 C0.34 13.68 -0.32 12.36 -1 11 C-1 13.97 -1 16.94 -1 20 C-1.66 19.67 -2.32 19.34 -3 19 C-4.52073222 13.28499019 -3.98120847 8.47745872 -2 3 C-1.34 3 -0.68 3 0 3 C0 2.01 0 1.02 0 0 Z " fill="#9FC3CB" transform="translate(27,42)"/>
<path d="M0 0 C0.66 0 1.32 0 2 0 C1.125 6.75 1.125 6.75 0 9 C-0.23274209 11.87910588 -0.41972757 14.74146495 -0.5625 17.625 C-0.62727539 18.82769531 -0.62727539 18.82769531 -0.69335938 20.0546875 C-0.79951457 22.0362511 -0.90026855 24.01810271 -1 26 C-1.33 26 -1.66 26 -2 26 C-2 21.38 -2 16.76 -2 12 C-2.99 11.67 -3.98 11.34 -5 11 C-4.72285156 10.45730469 -4.44570312 9.91460937 -4.16015625 9.35546875 C-3.79792969 8.64003906 -3.43570312 7.92460938 -3.0625 7.1875 C-2.52302734 6.12595703 -2.52302734 6.12595703 -1.97265625 5.04296875 C-0.89269484 2.88189715 -0.89269484 2.88189715 0 0 Z " fill="#8EAEB9" transform="translate(18,69)"/>
<path d="M0 0 C1.7325 0.1546875 1.7325 0.1546875 3.5 0.3125 C5.9294516 3.9566774 5.66179575 6.02491272 5.5 10.3125 C4.84 10.3125 4.18 10.3125 3.5 10.3125 C3.520625 9.384375 3.54125 8.45625 3.5625 7.5 C3.65769604 4.28963989 3.65769604 4.28963989 2.5 1.3125 C0.52 1.9725 -1.46 2.6325 -3.5 3.3125 C-3.83218192 6.31509517 -3.83218192 6.31509517 -2 8 C-1.2575 8.6496875 -1.2575 8.6496875 -0.5 9.3125 C-1.82 9.6425 -3.14 9.9725 -4.5 10.3125 C-6.5 7.3125 -6.5 7.3125 -6.25 4.75 C-5.04036727 0.81869362 -4.10954858 0.36692398 0 0 Z " fill="#6F99B6" transform="translate(27.5,112.6875)"/>
<path d="M0 0 C1 1 1 1 1.0625 3.5625 C1.041875 4.366875 1.02125 5.17125 1 6 C-3.49652778 6.36458333 -3.49652778 6.36458333 -5.8125 4.6875 C-7 3 -7 3 -7 0 C-4.31633121 -1.3418344 -2.84719317 -0.73004953 0 0 Z " fill="#D1F0F7" transform="translate(36,109)"/>
<path d="M0 0 C0.66 0.66 1.32 1.32 2 2 C1.94140625 4.53125 1.94140625 4.53125 1.5625 7.5 C0.91377236 11.38927567 0.91377236 11.38927567 2 15 C0.35 15 -1.3 15 -3 15 C-2.88623383 12.87436897 -2.75864369 10.7494739 -2.625 8.625 C-2.55539063 7.44164063 -2.48578125 6.25828125 -2.4140625 5.0390625 C-2 2 -2 2 0 0 Z " fill="#C3EBF4" transform="translate(172,63)"/>
<path d="M0 0 C0.33 0 0.66 0 1 0 C1.07347656 1.15628906 1.07347656 1.15628906 1.1484375 2.3359375 C1.22320312 3.33882812 1.29796875 4.34171875 1.375 5.375 C1.44460937 6.37273437 1.51421875 7.37046875 1.5859375 8.3984375 C1.76363964 11.15508879 1.76363964 11.15508879 4 13 C2.2421875 13.94401042 0.484375 14.88802083 -1.2734375 15.83203125 C-3.30502365 17.04763493 -3.30502365 17.04763493 -5 20 C-5.66 20 -6.32 20 -7 20 C-5.4856787 14.32129514 -5.4856787 14.32129514 -2.96875 12.65625 C-0.74151224 11.12137076 -0.74151224 11.12137076 -0.390625 8.30078125 C-0.34421875 7.31464844 -0.2978125 6.32851562 -0.25 5.3125 C-0.19328125 4.31863281 -0.1365625 3.32476562 -0.078125 2.30078125 C-0.05234375 1.54152344 -0.0265625 0.78226563 0 0 Z " fill="#5C6C8F" transform="translate(59,164)"/>
<path d="M0 0 C4.49652778 -0.36458333 4.49652778 -0.36458333 6.8125 1.3125 C8 3 8 3 8 6 C4.05272412 6.17942163 1.4019487 6.09350689 -2 4 C-1.34 2.68 -0.68 1.36 0 0 Z " fill="#C4E8F7" transform="translate(13,112)"/>
<path d="M0 0 C1.60875 -0.00386719 1.60875 -0.00386719 3.25 -0.0078125 C6 0.125 6 0.125 8 1.125 C8 1.785 8 2.445 8 3.125 C5.70858714 3.17884521 3.41681812 3.21772087 1.125 3.25 C-0.78925781 3.28480469 -0.78925781 3.28480469 -2.7421875 3.3203125 C-6 3.125 -6 3.125 -8 1.125 C-5.26922124 -0.24038938 -3.04439633 -0.00731826 0 0 Z " fill="#658DB3" transform="translate(128,198.875)"/>
<path d="M0 0 C1.32 0.33 2.64 0.66 4 1 C4.02712066 2.43739513 4.04645067 3.87493863 4.0625 5.3125 C4.07410156 6.11300781 4.08570313 6.91351563 4.09765625 7.73828125 C4 10 4 10 3 13 C2.01 13.33 1.02 13.66 0 14 C0 9.38 0 4.76 0 0 Z " fill="#6087A4" transform="translate(163,150)"/>
<path d="M0 0 C0.99 0.33 1.98 0.66 3 1 C4.89212737 1.22179785 6.78884472 1.40614015 8.6875 1.5625 C9.68136719 1.64628906 10.67523438 1.73007813 11.69921875 1.81640625 C12.83810547 1.90728516 12.83810547 1.90728516 14 2 C14 2.33 14 2.66 14 3 C11.69 3.33 9.38 3.66 7 4 C9.31 4.33 11.62 4.66 14 5 C13.34 5.66 12.68 6.32 12 7 C9.25 6.86328125 9.25 6.86328125 6 6.3125 C4.39125 6.05919922 4.39125 6.05919922 2.75 5.80078125 C0 5 0 5 -2 2 C-1.34 2 -0.68 2 0 2 C0 1.34 0 0.68 0 0 Z " fill="#99C0D6" transform="translate(34,145)"/>
<path d="M0 0 C4.77700421 1.9461869 8.13405342 5.1444002 10.3125 9.8125 C10.539375 10.534375 10.76625 11.25625 11 12 C10.01 12.495 10.01 12.495 9 13 C6.69995046 10.79664924 4.73441677 8.47632832 2.8125 5.9375 C2.28269531 5.24527344 1.75289062 4.55304688 1.20703125 3.83984375 C0 2 0 2 0 0 Z " fill="#61799D" transform="translate(155,138)"/>
<path d="M0 0 C0 0.66 0 1.32 0 2 C1.32 2.33 2.64 2.66 4 3 C4 3.33 4 3.66 4 4 C2.1746875 4.0928125 2.1746875 4.0928125 0.3125 4.1875 C-4.15849852 4.71163126 -6.13301658 6.50586395 -9 10 C-9.33 8.35 -9.66 6.7 -10 5 C-8.71186658 4.16121545 -7.41936744 3.32913217 -6.125 2.5 C-5.40570312 2.0359375 -4.68640625 1.571875 -3.9453125 1.09375 C-2 0 -2 0 0 0 Z " fill="#608395" transform="translate(17,108)"/>
<path d="M0 0 C1.98 0.66 3.96 1.32 6 2 C6.33 3.65 6.66 5.3 7 7 C4.36 7 1.72 7 -1 7 C-0.67 4.69 -0.34 2.38 0 0 Z " fill="#7ABBEF" transform="translate(66,150)"/>
<path d="M0 0 C-1.125 1.9765625 -1.125 1.9765625 -3 4 C-5.8125 4.4609375 -5.8125 4.4609375 -9 4.375 C-10.5778125 4.35566406 -10.5778125 4.35566406 -12.1875 4.3359375 C-15 4 -15 4 -18 2 C-15.93827387 1.66191314 -13.8755797 1.32972639 -11.8125 1 C-10.66394531 0.814375 -9.51539063 0.62875 -8.33203125 0.4375 C-5.49584607 0.06510523 -2.85280436 -0.08596021 0 0 Z " fill="#6D9ABC" transform="translate(56,146)"/>
<path d="M0 0 C0.66 0 1.32 0 2 0 C1.67 1.98 1.34 3.96 1 6 C0.01 6.33 -0.98 6.66 -2 7 C-2 6.34 -2 5.68 -2 5 C-4.64 5.33 -7.28 5.66 -10 6 C-10.66 4.68 -11.32 3.36 -12 2 C-11.30132812 2.02320313 -10.60265625 2.04640625 -9.8828125 2.0703125 C-8.51769531 2.09738281 -8.51769531 2.09738281 -7.125 2.125 C-6.22007813 2.14820313 -5.31515625 2.17140625 -4.3828125 2.1953125 C-1.81193006 2.24324836 -1.81193006 2.24324836 0 0 Z " fill="#6295B9" transform="translate(27,133)"/>
<path d="M0 0 C5.68748885 1.25124755 8.72847508 3.04102568 13 7 C12.34 7.66 11.68 8.32 11 9 C9.9790625 8.38125 9.9790625 8.38125 8.9375 7.75 C5.64808652 5.79034942 2.32839137 3.8926147 -1 2 C-0.67 1.34 -0.34 0.68 0 0 Z " fill="#495168" transform="translate(157,30)"/>
<path d="M0 0 C1.51171875 1.1796875 1.51171875 1.1796875 3 3 C3.14453125 5.4453125 3.14453125 5.4453125 2.8125 8.125 C2.71582031 9.01445312 2.61914062 9.90390625 2.51953125 10.8203125 C2.26236328 11.89925781 2.26236328 11.89925781 2 13 C1.01 13.495 1.01 13.495 0 14 C-1.86987216 10.26025568 -1.30641834 5.53209172 -0.5 1.5 C-0.335 1.005 -0.17 0.51 0 0 Z " fill="#3B5B9F" transform="translate(90,155)"/>
<path d="M0 0 C1.32 0.33 2.64 0.66 4 1 C4.33 2.98 4.66 4.96 5 7 C4.39671875 6.98839844 3.7934375 6.97679687 3.171875 6.96484375 C2.37265625 6.95582031 1.5734375 6.94679687 0.75 6.9375 C-0.03890625 6.92589844 -0.8278125 6.91429687 -1.640625 6.90234375 C-3.90691002 6.99614694 -5.8288895 7.36758937 -8 8 C-8 7.34 -8 6.68 -8 6 C-3.05 4.515 -3.05 4.515 2 3 C2 2.34 2 1.68 2 1 C1.34 0.67 0.68 0.34 0 0 Z " fill="#7DC4F1" transform="translate(121,148)"/>
<path d="M0 0 C1.78409802 3.06246747 2.22880021 5.22079273 2.125 8.75 C2.10695312 9.54921875 2.08890625 10.3484375 2.0703125 11.171875 C2.03550781 12.07679687 2.03550781 12.07679687 2 13 C1.34 12.34 0.68 11.68 0 11 C-0.66 11.66 -1.32 12.32 -2 13 C-2.05391993 11.20866022 -2.09275571 9.41686101 -2.125 7.625 C-2.14820313 6.62726563 -2.17140625 5.62953125 -2.1953125 4.6015625 C-2 2 -2 2 0 0 Z " fill="#466491" transform="translate(184,91)"/>
<path d="M0 0 C-0.875 3.875 -0.875 3.875 -2 5 C-3.66617115 5.04063832 -5.33388095 5.042721 -7 5 C-7.33 3.35 -7.66 1.7 -8 0 C-2.25 -1.125 -2.25 -1.125 0 0 Z " fill="#578FCF" transform="translate(124,95)"/>
<path d="M0 0 C0.99 0.33 1.98 0.66 3 1 C3.33 3.31 3.66 5.62 4 8 C3.34 8 2.68 8 2 8 C1.34 9.32 0.68 10.64 0 12 C-0.99 12 -1.98 12 -3 12 C-2.690625 11.505 -2.38125 11.01 -2.0625 10.5 C-0.58355618 7.02013219 -0.37597149 3.75971491 0 0 Z " fill="#5F83A2" transform="translate(140,187)"/>
<path d="M0 0 C3.32153186 4.42870914 3.3460174 5.46608682 3.1875 10.75 C3.16042969 11.92046875 3.13335937 13.0909375 3.10546875 14.296875 C3.07066406 15.18890625 3.03585938 16.0809375 3 17 C2.01 16.67 1.02 16.34 0 16 C0 10.72 0 5.44 0 0 Z " fill="#5C7CA1" transform="translate(88,165)"/>
<path d="M0 0 C1.65 0.33 3.3 0.66 5 1 C4.01 5.62 3.02 10.24 2 15 C1.67 15 1.34 15 1 15 C-1.45946585 5.67029071 -1.45946585 5.67029071 0 1 C0 0.67 0 0.34 0 0 Z " fill="#4E68A0" transform="translate(62,148)"/>
<path d="M0 0 C0.99 0.33 1.98 0.66 3 1 C-5.43425076 8 -5.43425076 8 -11 8 C-11.66 7.34 -12.32 6.68 -13 6 C-12.09507813 5.72736328 -12.09507813 5.72736328 -11.171875 5.44921875 C-6.83750718 4.08599016 -3.62029029 2.78483868 0 0 Z " fill="#5888B7" transform="translate(113,145)"/>
<path d="M0 0 C-1.09351553 3.17119503 -2.0126988 4.00783543 -4.9375 5.8125 C-8 7 -8 7 -11 6 C-10.67 5.01 -10.34 4.02 -10 3 C-6.5065403 1.25327015 -3.93154432 0 0 0 Z " fill="#7596AE" transform="translate(170,127)"/>
<path d="M0 0 C0.33 0 0.66 0 1 0 C1 4.29 1 8.58 1 13 C3.97 13.99 6.94 14.98 10 16 C10 16.33 10 16.66 10 17 C2.60935412 17.36347439 2.60935412 17.36347439 0.21875 15.9375 C-1.69546171 12.8943942 -1.04161219 10.32142987 -0.6875 6.8125 C-0.56761719 5.54019531 -0.44773438 4.26789063 -0.32421875 2.95703125 C-0.21722656 1.98121094 -0.11023437 1.00539063 0 0 Z " fill="#87B5D4" transform="translate(40,111)"/>
<path d="M0 0 C2.77190292 2.77190292 2.48034258 5.16752656 3 9 C3.37125 9.845625 3.7425 10.69125 4.125 11.5625 C5.2476233 14.68980776 4.74190281 16.80981792 4 20 C3.67 20 3.34 20 3 20 C2.49219106 17.79344925 1.99408635 15.58466395 1.5 13.375 C1.08234375 11.53035156 1.08234375 11.53035156 0.65625 9.6484375 C0.05908379 6.32847772 -0.12409534 3.36091549 0 0 Z " fill="#8ACCF1" transform="translate(104,165)"/>
<path d="M0 0 C0.66 0 1.32 0 2 0 C1.58534283 4.83766699 -0.4198615 6.85646376 -4 10 C-4.99 10.495 -4.99 10.495 -6 11 C-6.66 10.34 -7.32 9.68 -8 9 C-6.8553125 7.88625 -6.8553125 7.88625 -5.6875 6.75 C-3.04428801 4.176446 -3.04428801 4.176446 -1.3125 1.6875 C-0.879375 1.130625 -0.44625 0.57375 0 0 Z " fill="#7098C5" transform="translate(155,133)"/>
<path d="M0 0 C1.18771723 3.42943519 0.80226223 5.37784675 -0.4375 8.75 C-0.86869141 9.94882813 -0.86869141 9.94882813 -1.30859375 11.171875 C-1.53675781 11.77515625 -1.76492187 12.3784375 -2 13 C-2.66 12.67 -3.32 12.34 -4 12 C-4.08886184 8.80097361 -3.91058531 6.07322544 -3 3 C-2.34 3 -1.68 3 -1 3 C-0.67 2.01 -0.34 1.02 0 0 Z " fill="#758BC1" transform="translate(52,180)"/>
<path d="M0 0 C0 3.3 0 6.6 0 10 C-1.32 9.67 -2.64 9.34 -4 9 C-4.368 3.48 -4.368 3.48 -2.5625 1.125 C-1 0 -1 0 0 0 Z " fill="#49638E" transform="translate(138,153)"/>
<path d="M0 0 C3.3 0 6.6 0 10 0 C9.625 2.9375 9.625 2.9375 9 6 C8.01 6.495 8.01 6.495 7 7 C7.33 5.35 7.66 3.7 8 2 C7.443125 2.185625 6.88625 2.37125 6.3125 2.5625 C3.600867 3.07551165 1.65628961 2.6640724 -1 2 C-0.67 1.34 -0.34 0.68 0 0 Z " fill="#6DA7E4" transform="translate(80,155)"/>
<path d="M0 0 C0.33 2.64 0.66 5.28 1 8 C0.01 8.66 -0.98 9.32 -2 10 C-2.99 7.03 -3.98 4.06 -5 1 C-1 0 -1 0 0 0 Z " fill="#7B9AC2" transform="translate(107,180)"/>
<path d="M0 0 C2.31 0 4.62 0 7 0 C7 0.99 7 1.98 7 3 C8.32 3.33 9.64 3.66 11 4 C7.04 4 3.08 4 -1 4 C-0.34 3.34 0.32 2.68 1 2 C0.67 1.34 0.34 0.68 0 0 Z " fill="#838A9A" transform="translate(141,26)"/>
<path d="M0 0 C0.99 0 1.98 0 3 0 C4.54779543 2.26216255 5.77612283 4.55224566 7 7 C3.25 8.125 3.25 8.125 1 7 C0.59270772 4.67843403 0.25561323 2.3431213 0 0 Z " fill="#7991AC" transform="translate(130,171)"/>
<path d="M0 0 C2 2 2 2 2.9375 5.4375 C3.91462809 8.713753 4.37896062 9.97465139 7 12 C4.625 11.75 4.625 11.75 2 11 C-0.66181082 7.7044247 -0.15640774 4.06660119 0 0 Z " fill="#92CFEB" transform="translate(138,156)"/>
<path d="M0 0 C3.51705958 0.65271556 6.89325077 1.51393024 10.3125 2.5625 C11.19550781 2.83191406 12.07851562 3.10132813 12.98828125 3.37890625 C13.65214844 3.58386719 14.31601563 3.78882813 15 4 C15 4.33 15 4.66 15 5 C9.1977825 5.36263859 5.36000789 4.25684543 0 2 C0 1.34 0 0.68 0 0 Z " fill="#4F77A8" transform="translate(118,144)"/>
<path d="M0 0 C1.61949011 2.57213134 2.04408751 3.67669159 1.625 6.75 C1.41875 7.4925 1.2125 8.235 1 9 C0.01 9 -0.98 9 -2 9 C-2.33 9.66 -2.66 10.32 -3 11 C-3.32613618 6.32538149 -2.70582788 3.83325617 0 0 Z " fill="#B0E0F1" transform="translate(55,181)"/>
<path d="M0 0 C4.2295083 1.4098361 5.08210924 4.16421847 7 8 C5.35 8 3.7 8 2 8 C2 7.34 2 6.68 2 6 C1.34 5.67 0.68 5.34 0 5 C-0.33 4.01 -0.66 3.02 -1 2 C-0.67 1.34 -0.34 0.68 0 0 Z " fill="#5E82A0" transform="translate(136,162)"/>
<path d="M0 0 C0.99 0.33 1.98 0.66 3 1 C2.67 1.99 2.34 2.98 2 4 C3.32 4.66 4.64 5.32 6 6 C3.69 6.33 1.38 6.66 -1 7 C-1 4.37886292 -0.68707555 2.49064888 0 0 Z " fill="#6EA8DE" transform="translate(116,142)"/>
<path d="M0 0 C4.19360449 0.67097672 7.40334352 2.8558394 11 5 C10.01 6.485 10.01 6.485 9 8 C9 7.34 9 6.68 9 6 C6.69 5.67 4.38 5.34 2 5 C2 3.68 2 2.36 2 1 C1.34 0.67 0.68 0.34 0 0 Z " fill="#6C8FB1" transform="translate(58,143)"/>
<path d="M0 0 C4 0 4 0 5.75 1.5 C6.1625 1.995 6.575 2.49 7 3 C6.67 3.99 6.34 4.98 6 6 C3.83125748 5.49396008 2.00032373 5.00016187 0 4 C0 2.68 0 1.36 0 0 Z " fill="#D7F2FA" transform="translate(18,120)"/>
<path d="M0 0 C3.07531556 0.33246655 4.61832506 0.63104756 6.875 2.8125 C8.2347555 5.45646904 7.84040922 6.25427947 7 9 C5.83037314 7.69013727 4.66437056 6.3770374 3.5 5.0625 C2.8503125 4.33160156 2.200625 3.60070312 1.53125 2.84765625 C0 1 0 1 0 0 Z " fill="#BDEBF5" transform="translate(131,179)"/>
<path d="M0 0 C2.475 0.99 2.475 0.99 5 2 C5 2.66 5 3.32 5 4 C6.98 3.67 8.96 3.34 11 3 C11 3.99 11 4.98 11 6 C6.22423661 5.5317879 2.95523655 4.75668002 -1 2 C-0.67 1.34 -0.34 0.68 0 0 Z " fill="#ADDAF3" transform="translate(119,141)"/>
<path d="M0 0 C1.2065625 0.0309375 1.2065625 0.0309375 2.4375 0.0625 C3.5625 3.8125 3.5625 3.8125 2.4375 6.0625 C3.0975 6.3925 3.7575 6.7225 4.4375 7.0625 C3.7775 7.7225 3.1175 8.3825 2.4375 9.0625 C1.7775 9.0625 1.1175 9.0625 0.4375 9.0625 C0.4375 7.0825 0.4375 5.1025 0.4375 3.0625 C-0.8825 2.4025 -2.2025 1.7425 -3.5625 1.0625 C-2.5625 0.0625 -2.5625 0.0625 0 0 Z " fill="#A1D5F1" transform="translate(51.5625,123.9375)"/>
<path d="M0 0 C0.99 0 1.98 0 3 0 C3 1.65 3 3.3 3 5 C1.35 5.33 -0.3 5.66 -2 6 C-1.125 1.125 -1.125 1.125 0 0 Z " fill="#E5E8EB" transform="translate(67,75)"/>
<path d="M0 0 C0.33 0 0.66 0 1 0 C1.33 4.95 1.66 9.9 2 15 C1.34 14.67 0.68 14.34 0 14 C-1.10850248 9.33465044 -1.34383934 4.62877994 0 0 Z " fill="#6A8997" transform="translate(26,48)"/>
<path d="M0 0 C2.1875 -0.4375 2.1875 -0.4375 5 0 C6.98441782 2.13995327 8.5023304 4.50175965 10 7 C9.67 7.66 9.34 8.32 9 9 C7.49704815 7.69088122 5.99770689 6.37761608 4.5 5.0625 C3.6646875 4.33160156 2.829375 3.60070312 1.96875 2.84765625 C1.3190625 2.23792969 0.669375 1.62820313 0 1 C0 0.67 0 0.34 0 0 Z " fill="#5D647E" transform="translate(121,14)"/>
<path d="M0 0 C0.33 0.66 0.66 1.32 1 2 C1.66 2.33 2.32 2.66 3 3 C0.36 4.65 -2.28 6.3 -5 8 C-4.64950425 4.75791433 -4.43778819 3.38472296 -1.9375 1.1875 C-1.298125 0.795625 -0.65875 0.40375 0 0 Z " fill="#6F7485" transform="translate(78,11)"/>
<path d="M0 0 C0 0.66 0 1.32 0 2 C0.99 2.33 1.98 2.66 3 3 C-0.37097383 4.49821059 -2.20442119 5 -6 5 C-5.6875 3.0625 -5.6875 3.0625 -5 1 C-2 0 -2 0 0 0 Z " fill="#575A66" transform="translate(85,8)"/>
<path d="M0 0 C2.12046792 3.53411321 2.53199289 6.94393835 3 11 C2.01 11.495 2.01 11.495 1 12 C-0.41404314 8.19975907 -1.34892324 5.07077118 -1 1 C-0.67 0.67 -0.34 0.34 0 0 Z " fill="#97D5EB" transform="translate(126,157)"/>
<path d="M0 0 C0.33 0 0.66 0 1 0 C1.33 2.97 1.66 5.94 2 9 C1.01 9.66 0.02 10.32 -1 11 C-2.23076923 4.6 -2.23076923 4.6 -1.0625 1.5625 C-0.711875 1.046875 -0.36125 0.53125 0 0 Z " fill="#90C0E1" transform="translate(158,125)"/>
<path d="M0 0 C4 4.5 4 4.5 4 9 C0.83884224 7.63016497 0.0072908 7.0109362 -2 4 C-1.34 4 -0.68 4 0 4 C0 2.68 0 1.36 0 0 Z " fill="#7EA9BC" transform="translate(18,99)"/>
<path d="M0 0 C0.33 0.99 0.66 1.98 1 3 C-2.21311475 8.73770492 -2.21311475 8.73770492 -6 10 C-5.75 7.625 -5.75 7.625 -5 5 C-3 3.875 -3 3.875 -1 3 C-0.67 2.01 -0.34 1.02 0 0 Z " fill="#8F9BA2" transform="translate(32,35)"/>
<path d="M0 0 C0.99 0.99 1.98 1.98 3 3 C2.01 3.99 1.02 4.98 0 6 C-2.475 5.01 -2.475 5.01 -5 4 C-4.67 3.01 -4.34 2.02 -4 1 C-2.02 1.495 -2.02 1.495 0 2 C0 1.34 0 0.68 0 0 Z " fill="#A1CEE1" transform="translate(22,106)"/>
<path d="M0 0 C0.680625 0.639375 1.36125 1.27875 2.0625 1.9375 C5.46408839 4.3258493 7.90433701 4.67877153 12 5 C12 5.33 12 5.66 12 6 C10.5629191 6.05422947 9.12524538 6.09289723 7.6875 6.125 C6.88699219 6.14820312 6.08648437 6.17140625 5.26171875 6.1953125 C3 6 3 6 0 4 C0 2.68 0 1.36 0 0 Z " fill="#535872" transform="translate(84,97)"/>
<path d="M0 0 C0.66 0.33 1.32 0.66 2 1 C2 2.65 2 4.3 2 6 C0.68 6.33 -0.64 6.66 -2 7 C-2.125 4.625 -2.125 4.625 -2 2 C-1.34 1.34 -0.68 0.68 0 0 Z " fill="#EEF3F5" transform="translate(119,76)"/>
<path d="M0 0 C0.66 0 1.32 0 2 0 C2.36923077 5.53846154 2.36923077 5.53846154 0.5 7.875 C-0.2425 8.431875 -0.2425 8.431875 -1 9 C-2.0326802 6.21176345 -2.04509293 5.1322726 -1.0625 2.25 C-0.711875 1.5075 -0.36125 0.765 0 0 Z " fill="#6AA0C5" transform="translate(30,125)"/>
<path d="M0 0 C0.33 0 0.66 0 1 0 C2.28571429 7.42857143 2.28571429 7.42857143 1 11 C0.01 10.67 -0.98 10.34 -2 10 C-1.46274105 6.62294375 -0.88935377 3.303314 0 0 Z " fill="#7088BB" transform="translate(184,98)"/>
<path d="M0 0 C3.24299151 2.38957269 5.50902342 4.2047869 7 8 C6.01 8.66 5.02 9.32 4 10 C2.27735506 6.70450534 0.70554068 3.66881155 0 0 Z " fill="#454A5E" transform="translate(128,16)"/>
<path d="M0 0 C0.99 0.33 1.98 0.66 3 1 C1.3811004 2.03048037 -0.24532489 3.04914678 -1.875 4.0625 C-2.77992187 4.63097656 -3.68484375 5.19945312 -4.6171875 5.78515625 C-5.40351562 6.18605469 -6.18984375 6.58695313 -7 7 C-7.66 6.67 -8.32 6.34 -9 6 C-7.57140593 4.96674014 -6.13177617 3.94872366 -4.6875 2.9375 C-3.88699219 2.36902344 -3.08648437 1.80054688 -2.26171875 1.21484375 C-1.51535156 0.81394531 -0.76898438 0.41304687 0 0 Z " fill="#A9D7EF" transform="translate(112,144)"/>
<path d="M0 0 C2.62187494 1.04874998 3.79371361 1.64931313 5.25 4.125 C5.4975 4.74375 5.745 5.3625 6 6 C3 6 3 6 1.3125 4.6875 C0 3 0 3 0 0 Z " fill="#77A1B6" transform="translate(10,130)"/>
<path d="M0 0 C0.66 0.66 1.32 1.32 2 2 C1.34 3.65 0.68 5.3 0 7 C-1.32 6.34 -2.64 5.68 -4 5 C-4 3.68 -4 2.36 -4 1 C-2.125 0.375 -2.125 0.375 0 0 Z " fill="#4D5A78" transform="translate(125,76)"/>
<path d="M0 0 C0.33 0 0.66 0 1 0 C1 3.63 1 7.26 1 11 C1.66 11 2.32 11 3 11 C3 11.66 3 12.32 3 13 C1.68 13 0.36 13 -1 13 C-0.67 8.71 -0.34 4.42 0 0 Z " fill="#45577D" transform="translate(175,56)"/>
<path d="M0 0 C3.93846154 4.30769231 3.93846154 4.30769231 4.25 7.8125 C4.1675 8.534375 4.085 9.25625 4 10 C1.2027092 7.93243723 0.97307727 6.85559629 0.3125 3.3125 C0.209375 2.219375 0.10625 1.12625 0 0 Z " fill="#79AED8" transform="translate(53,131)"/>
<path d="M0 0 C-0.61875 0.28875 -1.2375 0.5775 -1.875 0.875 C-4.13325765 1.93720042 -4.13325765 1.93720042 -6 4 C-8.475 3.01 -8.475 3.01 -11 2 C-11 1.67 -11 1.34 -11 1 C-3.57142857 -1.42857143 -3.57142857 -1.42857143 0 0 Z " fill="#618CA9" transform="translate(33,108)"/>
<path d="M0 0 C0.99 0 1.98 0 3 0 C2.67 1.65 2.34 3.3 2 5 C0.68 5 -0.64 5 -2 5 C-1.34 3.35 -0.68 1.7 0 0 Z " fill="#5993D9" transform="translate(68,93)"/>
<path d="M0 0 C3.465 1.98 3.465 1.98 7 4 C7 4.33 7 4.66 7 5 C4.69 5 2.38 5 0 5 C-0.33 4.34 -0.66 3.68 -1 3 C-0.67 2.01 -0.34 1.02 0 0 Z " fill="#4E535E" transform="translate(119,9)"/>
<path d="M0 0 C0.33 0.99 0.66 1.98 1 3 C0.01 3.66 -0.98 4.32 -2 5 C-3.32 4.34 -4.64 3.68 -6 3 C-4.60722783 0.21445565 -3.01148006 0 0 0 Z " fill="#789DC0" transform="translate(147,167)"/>
<path d="M0 0 C1.125 1.75 1.125 1.75 2 4 C1.125 6.25 1.125 6.25 0 8 C-1.32 7.34 -2.64 6.68 -4 6 C-3.34 6 -2.68 6 -2 6 C-1.34 4.02 -0.68 2.04 0 0 Z " fill="#759DC1" transform="translate(162,160)"/>
<path d="M0 0 C0.66 0.33 1.32 0.66 2 1 C0.68 3.31 -0.64 5.62 -2 8 C-2.66 6.68 -3.32 5.36 -4 4 C-2.68 2.68 -1.36 1.36 0 0 Z " fill="#6A9AAB" transform="translate(11,110)"/>
<path d="M0 0 C1.5625 1.25 1.5625 1.25 3 3 C2.8125 5.125 2.8125 5.125 2 7 C1.01 7.495 1.01 7.495 0 8 C-0.79953138 4.71303767 -1.09658936 3.28976808 0 0 Z " fill="#6A82A1" transform="translate(181,86)"/>
<path d="M0 0 C-0.66 1.32 -1.32 2.64 -2 4 C-4.97 3.505 -4.97 3.505 -8 3 C-4.93882432 0.37613513 -4.26826873 0 0 0 Z " fill="#668DAE" transform="translate(161,167)"/>
<path d="M0 0 C0.66 0.33 1.32 0.66 2 1 C2 2.98 2 4.96 2 7 C1.01 6.67 0.02 6.34 -1 6 C-1.042721 4.33388095 -1.04063832 2.66617115 -1 1 C-0.67 0.67 -0.34 0.34 0 0 Z " fill="#7989A4" transform="translate(61,156)"/>
<path d="M0 0 C4.95 0.99 4.95 0.99 10 2 C10 2.33 10 2.66 10 3 C7.36 3.33 4.72 3.66 2 4 C1.34 2.68 0.68 1.36 0 0 Z " fill="#5C829F" transform="translate(15,135)"/>
<path d="M0 0 C-1.50223584 4.20626034 -4.28550034 5.73900021 -8 8 C-6.48291727 4.46014029 -4.24676932 0 0 0 Z " fill="#DCF1F4" transform="translate(28,66)"/>
<path d="M0 0 C1.875 0.3125 1.875 0.3125 4 1 C4.66 1.99 5.32 2.98 6 4 C3.69 4 1.38 4 -1 4 C-0.67 2.68 -0.34 1.36 0 0 Z " fill="#7E8392" transform="translate(54,21)"/>
<path d="M0 0 C1.32 0 2.64 0 4 0 C3.67 1.32 3.34 2.64 3 4 C1.35 4 -0.3 4 -2 4 C-2 3.34 -2 2.68 -2 2 C-1.34 2 -0.68 2 0 2 C0 1.34 0 0.68 0 0 Z " fill="#434B5A" transform="translate(50,21)"/>
<path d="M0 0 C2.64 0 5.28 0 8 0 C8.33 0.66 8.66 1.32 9 2 C6.36 2.33 3.72 2.66 1 3 C0.67 2.01 0.34 1.02 0 0 Z " fill="#91CFF0" transform="translate(147,167)"/>
<path d="M0 0 C1.32 0 2.64 0 4 0 C3.67 1.98 3.34 3.96 3 6 C2.34 6 1.68 6 1 6 C0.67 4.02 0.34 2.04 0 0 Z " fill="#4F7195" transform="translate(126,154)"/>
<path d="M0 0 C0 0.99 0 1.98 0 3 C-2.64 3 -5.28 3 -8 3 C-5.53387212 -0.1151089 -3.89156016 -0.31553191 0 0 Z " fill="#BDE6F6" transform="translate(100,149)"/>
<path d="M0 0 C2.88437779 1.29299694 4.87219421 2.65941363 7 5 C3 5 3 5 1.25 3.625 C0 2 0 2 0 0 Z " fill="#52718E" transform="translate(155,138)"/>
<path d="M0 0 C1.98 0.495 1.98 0.495 4 1 C2.625 3 2.625 3 1 5 C0.34 5 -0.32 5 -1 5 C-0.67 3.35 -0.34 1.7 0 0 Z " fill="#4F738C" transform="translate(174,69)"/>
<path d="M0 0 C2 2 2 2 2.125 4.625 C2.08375 5.40875 2.0425 6.1925 2 7 C1.34 6.34 0.68 5.68 0 5 C-0.66 5.66 -1.32 6.32 -2 7 C-2.125 4.625 -2.125 4.625 -2 2 C-1.34 1.34 -0.68 0.68 0 0 Z " fill="#B9E1F1" transform="translate(172,63)"/>
<path d="M0 0 C1.32 0 2.64 0 4 0 C4.33 1.32 4.66 2.64 5 4 C2.03 3.505 2.03 3.505 -1 3 C-0.67 2.01 -0.34 1.02 0 0 Z " fill="#3E4355" transform="translate(58,21)"/>
<path d="M0 0 C2 1 2 1 2 1 Z " fill="#0000FF" transform="translate(76,200)"/>
<path d="" fill="#7F7FFF" transform="translate(0,0)"/>
<path d="" fill="#0000FF" transform="translate(0,0)"/>
<path d="" fill="#0000FF" transform="translate(0,0)"/>
<path d="" fill="#000000" transform="translate(0,0)"/>
<path d="" fill="#000000" transform="translate(0,0)"/>
<path d="" fill="#00FFFF" transform="translate(0,0)"/>
<path d="" fill="#000000" transform="translate(0,0)"/>
<path d="" fill="#FFFFFF" transform="translate(0,0)"/>
<path d="" fill="#00FFFF" transform="translate(0,0)"/>
<path d="" fill="#FFFFFF" transform="translate(0,0)"/>
</svg>
