<?xml version="1.0" encoding="UTF-8"?>
<svg version="1.1" xmlns="http://www.w3.org/2000/svg" width="213" height="168">
<path d="M0 0 C5.56904201 0.18563473 10.413256 1.55536941 15.75 3.125 C15.75 3.785 15.75 4.445 15.75 5.125 C16.36875 5.269375 16.9875 5.41375 17.625 5.5625 C19.75 6.125 19.75 6.125 21.75 7.125 C21.75 7.785 21.75 8.445 21.75 9.125 C23.07 9.455 24.39 9.785 25.75 10.125 C25.75 10.785 25.75 11.445 25.75 12.125 C26.74 12.62 26.74 12.62 27.75 13.125 C28.245 13.62 28.245 13.62 28.75 14.125 C32.50145553 13.27789714 36.10368566 12.34043811 39.75 11.125 C40.74 11.455 41.73 11.785 42.75 12.125 C42.75 11.465 42.75 10.805 42.75 10.125 C44.4 10.125 46.05 10.125 47.75 10.125 C47.75 10.785 47.75 11.445 47.75 12.125 C48.28625 11.939375 48.8225 11.75375 49.375 11.5625 C53.89221535 10.73038138 57.82499582 11.86057451 61.75 14.125 C61.75 14.785 61.75 15.445 61.75 16.125 C62.513125 16.228125 63.27625 16.33125 64.0625 16.4375 C66.97761867 17.18322803 67.85756853 17.87210539 69.75 20.125 C70.92749808 21.30249808 72.12774564 22.4591596 73.375 23.5625 C74.75 25.125 74.75 25.125 74.75 28.125 C75.41 28.125 76.07 28.125 76.75 28.125 C79.44707634 34.67504254 81.28699151 40.00986245 80.75 47.125 C81.74 47.455 82.73 47.785 83.75 48.125 C91.17255412 51.35219744 95.25229157 55.99505589 98.75 63.125 C98.42 63.785 98.09 64.445 97.75 65.125 C98.41 65.125 99.07 65.125 99.75 65.125 C102.17857143 73.55357143 102.17857143 73.55357143 100.75 78.125 C101.41 78.125 102.07 78.125 102.75 78.125 C102.75 78.785 102.75 79.445 102.75 80.125 C102.09 80.125 101.43 80.125 100.75 80.125 C100.935625 81.1975 101.12125 82.27 101.3125 83.375 C101.6804568 86.52891546 101.79465343 88.22318492 100.75 91.125 C100.09 91.125 99.43 91.125 98.75 91.125 C98.564375 92.5790625 98.564375 92.5790625 98.375 94.0625 C98.16875 95.073125 97.9625 96.08375 97.75 97.125 C96.76 97.62 96.76 97.62 95.75 98.125 C96.02540704 101.94313447 96.02540704 101.94313447 97.75 105.125 C97.30091836 110.33434703 96.55621997 115.20806786 94.75 120.125 C93.76 120.455 92.77 120.785 91.75 121.125 C91.01676204 123.14008358 91.01676204 123.14008358 90.75 125.125 C90.09 125.125 89.43 125.125 88.75 125.125 C88.75 125.785 88.75 126.445 88.75 127.125 C87.140625 128.78125 87.140625 128.78125 85 130.625 C84.30390625 131.2334375 83.6078125 131.841875 82.890625 132.46875 C75.36668179 138.29019511 65.84833487 137.5430316 56.75 137.125 C55.76 136.795 54.77 136.465 53.75 136.125 C53.42 137.115 53.09 138.105 52.75 139.125 C46.2234525 145.25599917 40.14263 147.58775186 31.265625 147.4609375 C28.68849649 147.1167868 26.98102448 146.42816851 24.75 145.125 C24.42 146.115 24.09 147.105 23.75 148.125 C22.76 148.455 21.77 148.785 20.75 149.125 C20.09 149.785 19.43 150.445 18.75 151.125 C12.89702828 155.17174267 6.64355625 154.5684246 -0.1875 154.5 C-1.9190332 154.51740234 -1.9190332 154.51740234 -3.68554688 154.53515625 C-13.8748651 154.50008114 -19.83338548 151.73607634 -28.25 146.125 C-28.25 145.465 -28.25 144.805 -28.25 144.125 C-28.91 144.125 -29.57 144.125 -30.25 144.125 C-30.25 143.465 -30.25 142.805 -30.25 142.125 C-31.5184375 143.115 -31.5184375 143.115 -32.8125 144.125 C-38.75990464 147.49761361 -45.66411105 146.94137582 -52.25 146.125 C-57.36043569 144.39383991 -62.7262699 142.1724602 -65.25 137.125 C-65.91 136.795 -66.57 136.465 -67.25 136.125 C-71.25 130.59558824 -71.25 130.59558824 -71.25 128.125 C-71.91 127.795 -72.57 127.465 -73.25 127.125 C-73.56241849 125.51083778 -73.80131336 123.88206882 -74 122.25 C-74.40606714 119.54320992 -74.40606714 119.54320992 -75.25 117.125 C-78.18662672 114.90174321 -78.18662672 114.90174321 -81.25 114.125 C-81.25 113.465 -81.25 112.805 -81.25 112.125 C-82.57 111.795 -83.89 111.465 -85.25 111.125 C-85.25 110.135 -85.25 109.145 -85.25 108.125 C-86.24 107.795 -87.23 107.465 -88.25 107.125 C-88.25 106.465 -88.25 105.805 -88.25 105.125 C-88.91 104.795 -89.57 104.465 -90.25 104.125 C-90.97904086 102.48465807 -91.63655243 100.81198082 -92.25 99.125 C-92.7759375 97.8875 -92.7759375 97.8875 -93.3125 96.625 C-95.45783059 90.90411844 -95.63180488 85.18895985 -95.25 79.125 C-94.755 78.63 -94.755 78.63 -94.25 78.125 C-94.311875 76.7946875 -94.311875 76.7946875 -94.375 75.4375 C-94.14670766 69.3877529 -90.59960131 64.98732449 -87.25 60.125 C-86.59 59.135 -85.93 58.145 -85.25 57.125 C-84.26 57.125 -83.27 57.125 -82.25 57.125 C-81.92 56.135 -81.59 55.145 -81.25 54.125 C-80.26 54.125 -79.27 54.125 -78.25 54.125 C-78.27320312 53.48433594 -78.29640625 52.84367187 -78.3203125 52.18359375 C-78.51914743 42.65371948 -76.39739207 34.00428479 -70.125 26.625 C-68.25 25.125 -68.25 25.125 -66.25 25.125 C-65.92 24.135 -65.59 23.145 -65.25 22.125 C-62.97092438 19.27615547 -60.64841176 18.33332418 -57.25 17.125 C-56.074375 16.58875 -54.89875 16.0525 -53.6875 15.5 C-47.64104927 13.23545477 -40.47568628 12.97642685 -34.38671875 15.14453125 C-33.68160156 15.46808594 -32.97648437 15.79164062 -32.25 16.125 C-31.321875 14.949375 -31.321875 14.949375 -30.375 13.75 C-24.98547376 7.09234994 -18.23581595 3.78693865 -10.25 1.125 C-8.25 1.125 -6.25 1.125 -4.25 1.125 C-3.25 0.125 -3.25 0.125 0 0 Z " fill="#E5F3FB" transform="translate(104.25,7.875)"/>
<path d="M0 0 C5.56904201 0.18563473 10.413256 1.55536941 15.75 3.125 C15.75 3.785 15.75 4.445 15.75 5.125 C16.36875 5.269375 16.9875 5.41375 17.625 5.5625 C19.75 6.125 19.75 6.125 21.75 7.125 C21.75 7.785 21.75 8.445 21.75 9.125 C23.07 9.455 24.39 9.785 25.75 10.125 C25.75 10.785 25.75 11.445 25.75 12.125 C26.74 12.62 26.74 12.62 27.75 13.125 C28.245 13.62 28.245 13.62 28.75 14.125 C32.50145553 13.27789714 36.10368566 12.34043811 39.75 11.125 C40.74 11.455 41.73 11.785 42.75 12.125 C42.75 11.465 42.75 10.805 42.75 10.125 C44.4 10.125 46.05 10.125 47.75 10.125 C47.75 10.785 47.75 11.445 47.75 12.125 C48.28625 11.939375 48.8225 11.75375 49.375 11.5625 C53.89221535 10.73038138 57.82499582 11.86057451 61.75 14.125 C61.75 14.785 61.75 15.445 61.75 16.125 C62.513125 16.228125 63.27625 16.33125 64.0625 16.4375 C66.97761867 17.18322803 67.85756853 17.87210539 69.75 20.125 C70.92749808 21.30249808 72.12774564 22.4591596 73.375 23.5625 C74.75 25.125 74.75 25.125 74.75 28.125 C75.41 28.125 76.07 28.125 76.75 28.125 C79.44707634 34.67504254 81.28699151 40.00986245 80.75 47.125 C81.74 47.455 82.73 47.785 83.75 48.125 C91.17255412 51.35219744 95.25229157 55.99505589 98.75 63.125 C98.42 63.785 98.09 64.445 97.75 65.125 C98.41 65.125 99.07 65.125 99.75 65.125 C102.17857143 73.55357143 102.17857143 73.55357143 100.75 78.125 C101.41 78.125 102.07 78.125 102.75 78.125 C102.75 78.785 102.75 79.445 102.75 80.125 C102.09 80.125 101.43 80.125 100.75 80.125 C100.935625 81.1975 101.12125 82.27 101.3125 83.375 C101.6804568 86.52891546 101.79465343 88.22318492 100.75 91.125 C100.09 91.125 99.43 91.125 98.75 91.125 C98.564375 92.5790625 98.564375 92.5790625 98.375 94.0625 C98.16875 95.073125 97.9625 96.08375 97.75 97.125 C96.76 97.62 96.76 97.62 95.75 98.125 C96.02540704 101.94313447 96.02540704 101.94313447 97.75 105.125 C97.30091836 110.33434703 96.55621997 115.20806786 94.75 120.125 C93.76 120.455 92.77 120.785 91.75 121.125 C91.01676204 123.14008358 91.01676204 123.14008358 90.75 125.125 C90.09 125.125 89.43 125.125 88.75 125.125 C88.75 125.785 88.75 126.445 88.75 127.125 C87.140625 128.78125 87.140625 128.78125 85 130.625 C84.30390625 131.2334375 83.6078125 131.841875 82.890625 132.46875 C75.36668179 138.29019511 65.84833487 137.5430316 56.75 137.125 C55.76 136.795 54.77 136.465 53.75 136.125 C53.42 137.115 53.09 138.105 52.75 139.125 C46.2234525 145.25599917 40.14263 147.58775186 31.265625 147.4609375 C28.68849649 147.1167868 26.98102448 146.42816851 24.75 145.125 C24.42 146.115 24.09 147.105 23.75 148.125 C22.76 148.455 21.77 148.785 20.75 149.125 C20.09 149.785 19.43 150.445 18.75 151.125 C12.89702828 155.17174267 6.64355625 154.5684246 -0.1875 154.5 C-1.9190332 154.51740234 -1.9190332 154.51740234 -3.68554688 154.53515625 C-13.8748651 154.50008114 -19.83338548 151.73607634 -28.25 146.125 C-28.25 145.465 -28.25 144.805 -28.25 144.125 C-28.91 144.125 -29.57 144.125 -30.25 144.125 C-30.25 143.465 -30.25 142.805 -30.25 142.125 C-31.5184375 143.115 -31.5184375 143.115 -32.8125 144.125 C-38.75990464 147.49761361 -45.66411105 146.94137582 -52.25 146.125 C-57.36043569 144.39383991 -62.7262699 142.1724602 -65.25 137.125 C-65.91 136.795 -66.57 136.465 -67.25 136.125 C-71.25 130.59558824 -71.25 130.59558824 -71.25 128.125 C-71.91 127.795 -72.57 127.465 -73.25 127.125 C-73.56241849 125.51083778 -73.80131336 123.88206882 -74 122.25 C-74.40606714 119.54320992 -74.40606714 119.54320992 -75.25 117.125 C-78.18662672 114.90174321 -78.18662672 114.90174321 -81.25 114.125 C-81.25 113.465 -81.25 112.805 -81.25 112.125 C-82.57 111.795 -83.89 111.465 -85.25 111.125 C-85.25 110.135 -85.25 109.145 -85.25 108.125 C-86.24 107.795 -87.23 107.465 -88.25 107.125 C-88.25 106.465 -88.25 105.805 -88.25 105.125 C-88.91 104.795 -89.57 104.465 -90.25 104.125 C-90.97904086 102.48465807 -91.63655243 100.81198082 -92.25 99.125 C-92.7759375 97.8875 -92.7759375 97.8875 -93.3125 96.625 C-95.45783059 90.90411844 -95.63180488 85.18895985 -95.25 79.125 C-94.755 78.63 -94.755 78.63 -94.25 78.125 C-94.311875 76.7946875 -94.311875 76.7946875 -94.375 75.4375 C-94.14670766 69.3877529 -90.59960131 64.98732449 -87.25 60.125 C-86.59 59.135 -85.93 58.145 -85.25 57.125 C-84.26 57.125 -83.27 57.125 -82.25 57.125 C-81.92 56.135 -81.59 55.145 -81.25 54.125 C-80.26 54.125 -79.27 54.125 -78.25 54.125 C-78.27320312 53.48433594 -78.29640625 52.84367187 -78.3203125 52.18359375 C-78.51914743 42.65371948 -76.39739207 34.00428479 -70.125 26.625 C-68.25 25.125 -68.25 25.125 -66.25 25.125 C-65.92 24.135 -65.59 23.145 -65.25 22.125 C-62.97092438 19.27615547 -60.64841176 18.33332418 -57.25 17.125 C-56.074375 16.58875 -54.89875 16.0525 -53.6875 15.5 C-47.64104927 13.23545477 -40.47568628 12.97642685 -34.38671875 15.14453125 C-33.68160156 15.46808594 -32.97648437 15.79164062 -32.25 16.125 C-31.321875 14.949375 -31.321875 14.949375 -30.375 13.75 C-24.98547376 7.09234994 -18.23581595 3.78693865 -10.25 1.125 C-8.25 1.125 -6.25 1.125 -4.25 1.125 C-3.25 0.125 -3.25 0.125 0 0 Z M-30.25 18.125 C-30.25 18.785 -30.25 19.445 -30.25 20.125 C-31.11109375 19.80273438 -31.9721875 19.48046875 -32.859375 19.1484375 C-40.75452916 16.76533797 -49.33905217 17.19595662 -56.8359375 20.67578125 C-64.76311615 25.43465387 -71.84796453 31.96031081 -74.25 41.125 C-74.62253979 46.17167238 -74.55333117 51.06948043 -74.25 56.125 C-75.0028125 56.23070312 -75.755625 56.33640625 -76.53125 56.4453125 C-81.87917908 57.78229477 -84.82744085 62.0143358 -87.80859375 66.4375 C-92.46471831 75.09024139 -92.90980133 85.45797679 -90.55078125 94.93359375 C-89.62627053 97.18440677 -88.59015586 99.0962102 -87.25 101.125 C-86.77949219 101.84171875 -86.30898437 102.5584375 -85.82421875 103.296875 C-82.50439579 107.99781293 -79.20271819 112.33760848 -73.4375 113.875 C-72.715625 113.9575 -71.99375 114.04 -71.25 114.125 C-71.3325 115.094375 -71.415 116.06375 -71.5 117.0625 C-71.47103149 124.23220618 -67.62241012 130.46231959 -62.89453125 135.62109375 C-56.88175666 141.11971184 -50.6699378 142.35873656 -42.78515625 142.2890625 C-39.41452687 142.0709324 -36.43855219 141.20910775 -33.25 140.125 C-31.91869885 139.78364073 -30.58641852 139.44574044 -29.25 139.125 C-28.775625 139.846875 -28.30125 140.56875 -27.8125 141.3125 C-22.03205661 147.65688909 -13.72655429 150.9826463 -5.19921875 151.4609375 C6.3743452 151.704266 14.49457245 149.78909352 24.05859375 142.98046875 C24.61675781 142.69816406 25.17492187 142.41585937 25.75 142.125 C26.74 142.455 27.73 142.785 28.75 143.125 C35.40989498 143.87813837 40.50523563 143.60890615 46.02734375 139.62890625 C49.18770537 136.86986039 51.85839496 133.90821009 53.75 130.125 C54.3275 130.599375 54.905 131.07375 55.5 131.5625 C60.01116968 134.69525672 65.42739161 134.93169548 70.75 134.125 C79.94368752 130.95976198 87.48514479 125.55899806 91.94921875 116.76171875 C92.91855379 113.57000583 92.97962474 110.8316843 92.9375 107.5 C92.93105469 106.37335938 92.92460937 105.24671875 92.91796875 104.0859375 C92.8764556 101.06771774 92.8764556 101.06771774 91.75 98.125 C92.348125 97.3825 92.94625 96.64 93.5625 95.875 C99.07740962 88.94197077 98.55851056 79.54202043 97.75 71.125 C95.68213491 62.76697784 91.96049005 56.87836565 84.75 52.125 C81.65767459 50.54447812 80.21227132 50.125 76.75 50.125 C76.79640625 49.37476563 76.8428125 48.62453125 76.890625 47.8515625 C77.22890442 38.25892476 75.76973343 31.04349565 69.1875 23.8125 C61.00431072 16.41009209 52.50835853 14.17278365 41.65625 14.68359375 C36.27533177 15.29163751 31.62597624 16.81097738 26.75 19.125 C26.4921875 18.5371875 26.234375 17.949375 25.96875 17.34375 C22.57451714 11.16450557 16.08688837 7.09333136 9.58203125 4.78515625 C-5.80963911 1.19730481 -19.90097448 6.45000559 -30.25 18.125 Z " fill="#4A475B" transform="translate(104.25,7.875)"/>
<path d="M0 0 C0.26167969 0.556875 0.52335938 1.11375 0.79296875 1.6875 C4.00172127 7.83501292 8.06254124 14.25002605 14 18 C15.3303125 18.309375 15.3303125 18.309375 16.6875 18.625 C19 20 19 20 19.65234375 22.1328125 C19.9728978 23.9077812 20.27170965 25.68678821 20.55078125 27.46875 C21.66711617 33.7590546 25.52247233 39.53837929 30.73828125 43.23046875 C38.13497681 47.61780209 45.58281263 48.06867436 53.875 46.0625 C54.90625 45.711875 55.9375 45.36125 57 45 C58.33130115 44.65864073 59.66358148 44.32074044 61 44 C61.474375 44.721875 61.94875 45.44375 62.4375 46.1875 C68.21794339 52.53188909 76.52344571 55.8576463 85.05078125 56.3359375 C96.6243452 56.579266 104.74457245 54.66409352 114.30859375 47.85546875 C114.86675781 47.57316406 115.42492187 47.29085937 116 47 C117.485 47.495 117.485 47.495 119 48 C125.72128727 48.76008095 130.78187604 48.45142691 136.34765625 44.43359375 C139.53619466 41.66717863 141.67596428 38.48605359 144 35 C144.5775 35.474375 145.155 35.94875 145.75 36.4375 C150.25771256 39.56785595 155.68112091 39.81282574 161 39 C170.09455896 35.79918769 176.54629997 30.96548187 181.375 22.625 C182.36495851 18.46717424 182.68595832 14.25609123 183 10 C183.33 10 183.66 10 184 10 C184.36590746 11.72672034 184.71722195 13.45653655 185.0625 15.1875 C185.25972656 16.15042969 185.45695313 17.11335938 185.66015625 18.10546875 C186.00423947 21.03610862 185.74164697 23.16307068 185 26 C184.01 26.33 183.02 26.66 182 27 C181.26676204 29.01508358 181.26676204 29.01508358 181 31 C180.34 31 179.68 31 179 31 C179 31.66 179 32.32 179 33 C177.390625 34.65625 177.390625 34.65625 175.25 36.5 C174.55390625 37.1084375 173.8578125 37.716875 173.140625 38.34375 C165.61668179 44.16519511 156.09833487 43.4180316 147 43 C146.01 42.67 145.02 42.34 144 42 C143.67 42.99 143.34 43.98 143 45 C136.4734525 51.13099917 130.39263 53.46275186 121.515625 53.3359375 C118.93849649 52.9917868 117.23102448 52.30316851 115 51 C114.67 51.99 114.34 52.98 114 54 C112.515 54.495 112.515 54.495 111 55 C110.01 55.99 110.01 55.99 109 57 C103.14702828 61.04674267 96.89355625 60.4434246 90.0625 60.375 C88.3309668 60.39240234 88.3309668 60.39240234 86.56445312 60.41015625 C76.3751349 60.37508114 70.41661452 57.61107634 62 52 C62 51.34 62 50.68 62 50 C61.34 50 60.68 50 60 50 C60 49.34 60 48.68 60 48 C59.154375 48.66 58.30875 49.32 57.4375 50 C51.49009536 53.37261361 44.58588895 52.81637582 38 52 C32.88956431 50.26883991 27.5237301 48.0474602 25 43 C24.34 42.67 23.68 42.34 23 42 C19 36.47058824 19 36.47058824 19 34 C18.34 33.67 17.68 33.34 17 33 C16.68758151 31.38583778 16.44868664 29.75706882 16.25 28.125 C15.84393286 25.41820992 15.84393286 25.41820992 15 23 C12.06337328 20.77674321 12.06337328 20.77674321 9 20 C9 19.34 9 18.68 9 18 C7.68 17.67 6.36 17.34 5 17 C5 16.01 5 15.02 5 14 C4.01 13.67 3.02 13.34 2 13 C2 12.34 2 11.68 2 11 C1.34 10.67 0.68 10.34 0 10 C-0.71247732 8.3523962 -1.37400383 6.68236471 -2 5 C-2.65213539 3.65949948 -3.31379969 2.32338632 -4 1 C-2.68 0.67 -1.36 0.34 0 0 Z " fill="#6181A9" transform="translate(14,102)"/>
<path d="M0 0 C0 0.66 0 1.32 0 2 C1.32 2.33 2.64 2.66 4 3 C3.45472656 3.13535156 2.90945312 3.27070313 2.34765625 3.41015625 C-5.72970905 5.71600241 -12.16048536 10.07553723 -17 17 C-17.86109375 16.84144531 -18.7221875 16.68289062 -19.609375 16.51953125 C-30.27803132 14.88481778 -39.44086095 15.44533384 -48.44140625 21.6953125 C-53.97392101 26.19788629 -58.01450514 31.07385513 -60 38 C-60.31702928 41.97289854 -60.44000607 45.79259021 -60.37109375 49.77734375 C-60.68240234 51.37255859 -60.68240234 51.37255859 -61 53 C-63.83984375 54.74609375 -63.83984375 54.74609375 -67 56 C-72.41999909 60.64915478 -76.44737181 67.48926765 -77.31884766 74.60253906 C-77.39098519 77.26721136 -77.35161609 79.89898598 -77.25 82.5625 C-77.23195313 83.47580078 -77.21390625 84.38910156 -77.1953125 85.33007812 C-77.14872701 87.55453514 -77.08335485 89.77666967 -77 92 C-78.32 91.67 -79.64 91.34 -81 91 C-82.30677037 86.09961113 -82.31718286 81.03761016 -82 76 C-81.505 75.505 -81.505 75.505 -81 75 C-81.061875 73.6696875 -81.061875 73.6696875 -81.125 72.3125 C-80.89670766 66.2627529 -77.34960131 61.86232449 -74 57 C-73.34 56.01 -72.68 55.02 -72 54 C-71.01 54 -70.02 54 -69 54 C-68.67 53.01 -68.34 52.02 -68 51 C-67.01 51 -66.02 51 -65 51 C-65.02320312 50.35933594 -65.04640625 49.71867187 -65.0703125 49.05859375 C-65.26914743 39.52871948 -63.14739207 30.87928479 -56.875 23.5 C-55 22 -55 22 -53 22 C-52.67 21.01 -52.34 20.02 -52 19 C-49.72092438 16.15115547 -47.39841176 15.20832418 -44 14 C-42.824375 13.46375 -41.64875 12.9275 -40.4375 12.375 C-34.39104927 10.11045477 -27.22568628 9.85142685 -21.13671875 12.01953125 C-20.43160156 12.34308594 -19.72648437 12.66664062 -19 13 C-18.071875 11.824375 -18.071875 11.824375 -17.125 10.625 C-13.02840495 5.56450024 -6.91057786 0 0 0 Z " fill="#646171" transform="translate(91,11)"/>
<path d="M0 0 C3.85719664 1.25949278 4.87248949 2.6217923 7.0625 6 C8.25436069 13.32947403 7.47399614 20.42068602 4.0625 27 C2.1875 29.0625 2.1875 29.0625 0.0625 30 C-3.10837135 29.92266167 -4.43676016 29.50073984 -6.6875 27.25 C-9.6584849 21.90222717 -9.75188368 15.46534299 -8.37109375 9.58984375 C-5.39278455 0 -5.39278455 0 0 0 Z " fill="#475473" transform="translate(131.9375,74)"/>
<path d="M0 0 C3.375 0.0625 3.375 0.0625 7 1 C10.48121669 5.26729788 10.44457621 9.88395897 10.29296875 15.17578125 C9.71064632 20.78936949 8.51407547 26.2932277 4 30 C1.5 30.375 1.5 30.375 -1 30 C-3.5048111 28.12139167 -3.98700625 27.03898126 -5 24 C-5.17466964 21.21387601 -5.27697439 18.47507588 -5.3125 15.6875 C-5.34150391 14.94048828 -5.37050781 14.19347656 -5.40039062 13.42382812 C-5.46085982 8.12579595 -4.44007433 5.24253908 -1 1 C-0.67 0.67 -0.34 0.34 0 0 Z " fill="#435171" transform="translate(76,71)"/>
<path d="M0 0 C0.33 0 0.66 0 1 0 C1.36590746 1.72672034 1.71722195 3.45653655 2.0625 5.1875 C2.25972656 6.15042969 2.45695312 7.11335938 2.66015625 8.10546875 C3.00423947 11.03610862 2.74164697 13.16307068 2 16 C0.515 16.495 0.515 16.495 -1 17 C-1.73323796 19.01508358 -1.73323796 19.01508358 -2 21 C-2.66 21 -3.32 21 -4 21 C-4 21.66 -4 22.32 -4 23 C-5.609375 24.65625 -5.609375 24.65625 -7.75 26.5 C-8.79414063 27.41265625 -8.79414063 27.41265625 -9.859375 28.34375 C-17.38331821 34.16519511 -26.90166513 33.4180316 -36 33 C-36.99 32.67 -37.98 32.34 -39 32 C-39.33 32.99 -39.66 33.98 -40 35 C-46.5265475 41.13099917 -52.60737 43.46275186 -61.484375 43.3359375 C-64.06150351 42.9917868 -65.76897552 42.30316851 -68 41 C-68.33 41.99 -68.66 42.98 -69 44 C-70.485 44.495 -70.485 44.495 -72 45 C-72.66 45.66 -73.32 46.32 -74 47 C-74 43.78465943 -73.73523928 42.64417414 -72 40 C-69.5625 38.1875 -69.5625 38.1875 -67 37 C-66.01 37.33 -65.02 37.66 -64 38 C-57.27871273 38.76008095 -52.21812396 38.45142691 -46.65234375 34.43359375 C-43.46380534 31.66717863 -41.32403572 28.48605359 -39 25 C-38.4225 25.474375 -37.845 25.94875 -37.25 26.4375 C-32.74228744 29.56785595 -27.31887909 29.81282574 -22 29 C-12.90544104 25.79918769 -6.45370003 20.96548187 -1.625 12.625 C-0.63504149 8.46717424 -0.31404168 4.25609123 0 0 Z " fill="#6B8AB1" transform="translate(197,112)"/>
<path d="M0 0 C0.26167969 0.556875 0.52335938 1.11375 0.79296875 1.6875 C4.00172127 7.83501292 8.06254124 14.25002605 14 18 C15.3303125 18.309375 15.3303125 18.309375 16.6875 18.625 C19 20 19 20 19.65234375 22.1328125 C19.9728978 23.9077812 20.27170965 25.68678821 20.55078125 27.46875 C21.60222292 33.39339521 24.91369132 37.72795002 29 42 C31.270509 43.56129383 33.52885033 44.74196017 36 46 C37.2065625 46.61875 37.2065625 46.61875 38.4375 47.25 C38.953125 47.4975 39.46875 47.745 40 48 C39.34 48.99 38.68 49.98 38 51 C36.33333333 50.33333333 34.66666667 49.66666667 33 49 C32.113125 48.67 31.22625 48.34 30.3125 48 C27.55225683 46.80638133 26.34469005 45.6893801 25 43 C24.34 42.67 23.68 42.34 23 42 C19 36.47058824 19 36.47058824 19 34 C18.34 33.67 17.68 33.34 17 33 C16.68758151 31.38583778 16.44868664 29.75706882 16.25 28.125 C15.84393286 25.41820992 15.84393286 25.41820992 15 23 C12.06337328 20.77674321 12.06337328 20.77674321 9 20 C9 19.34 9 18.68 9 18 C7.68 17.67 6.36 17.34 5 17 C5 16.01 5 15.02 5 14 C4.01 13.67 3.02 13.34 2 13 C2 12.34 2 11.68 2 11 C1.34 10.67 0.68 10.34 0 10 C-0.71247732 8.3523962 -1.37400383 6.68236471 -2 5 C-2.65213539 3.65949948 -3.31379969 2.32338632 -4 1 C-2.68 0.67 -1.36 0.34 0 0 Z " fill="#6D98C5" transform="translate(14,102)"/>
<path d="M0 0 C2.375 0.5 2.375 0.5 5 2 C7.00454725 6.28857465 7.41889075 10.4595496 6 15 C6.66 15 7.32 15 8 15 C8 15.66 8 16.32 8 17 C7.34 17 6.68 17 6 17 C6.2784375 18.60875 6.2784375 18.60875 6.5625 20.25 C6.9304568 23.40391546 7.04465343 25.09818492 6 28 C5.34 28 4.68 28 4 28 C3.87625 28.969375 3.7525 29.93875 3.625 30.9375 C3.41875 31.948125 3.2125 32.95875 3 34 C2.01 34.495 2.01 34.495 1 35 C1.27540704 38.81813447 1.27540704 38.81813447 3 42 C2.82364548 44.69082872 2.38164079 47.32851446 2 50 C-0.71202332 47.68811126 -1.48680757 45.9810496 -2.125 42.5 C-2.62215154 39.88341297 -3.15393365 37.53819905 -4 35 C-3.401875 34.2575 -2.80375 33.515 -2.1875 32.75 C3.39500961 25.73198792 2.47643755 16.50257787 2 8 C1.53584856 5.1830809 0.88791581 2.71924216 0 0 Z " fill="#516188" transform="translate(199,71)"/>
<path d="M0 0 C0.33 0 0.66 0 1 0 C1 4.29 1 8.58 1 13 C0.13375 13.350625 -0.7325 13.70125 -1.625 14.0625 C-8.60302618 18.06840392 -12.58291593 24.41681914 -15 32 C-15.43442564 35.54592447 -15.38601141 38.99743167 -15.25 42.5625 C-15.23195313 43.47580078 -15.21390625 44.38910156 -15.1953125 45.33007812 C-15.14872701 47.55453514 -15.08335485 49.77666967 -15 52 C-16.32 51.67 -17.64 51.34 -19 51 C-20.30677037 46.09961113 -20.31718286 41.03761016 -20 36 C-19.505 35.505 -19.505 35.505 -19 35 C-19.04125 34.113125 -19.0825 33.22625 -19.125 32.3125 C-18.89670766 26.2627529 -15.34960131 21.86232449 -12 17 C-11.34 16.01 -10.68 15.02 -10 14 C-9.01 14 -8.02 14 -7 14 C-6.67 13.01 -6.34 12.02 -6 11 C-4.02 11 -2.04 11 0 11 C0 7.37 0 3.74 0 0 Z " fill="#596280" transform="translate(29,51)"/>
<path d="M0 0 C1.32 0.33 2.64 0.66 4 1 C4 1.99 4 2.98 4 4 C4.66 4 5.32 4 6 4 C8.69707634 10.55004254 10.53699151 15.88486245 10 23 C10.99 23.33 11.98 23.66 13 24 C20.54102157 27.27870503 24.25800577 31.93178867 28 39 C27.01 39.495 27.01 39.495 26 40 C21.97128826 38.65709609 21.32461631 36.48692446 19 33 C15.08457879 29.19334049 11.08611913 27.72410818 6 26 C5.90203125 24.92621094 5.8040625 23.85242188 5.703125 22.74609375 C5.55292514 21.30980755 5.40183586 19.87361417 5.25 18.4375 C5.188125 17.73302734 5.12625 17.02855469 5.0625 16.30273438 C4.47017416 10.94712156 2.79026993 7.5880658 0 3 C0 2.01 0 1.02 0 0 Z " fill="#4E5269" transform="translate(175,32)"/>
<path d="M0 0 C0.33 0 0.66 0 1 0 C2.7610915 11.82994076 2.7610915 11.82994076 0.0625 15.75 C-0.618125 16.4925 -1.29875 17.235 -2 18 C-1.67 18.66 -1.34 19.32 -1 20 C-0.33905671 27.64960594 -0.05211476 34.77905145 -5 41 C-12.80351713 49.16147663 -12.80351713 49.16147663 -18 50 C-16.87994369 46.63983107 -15.62788203 45.30935087 -13 43 C-12.34 43 -11.68 43 -11 43 C-10.67 42.01 -10.34 41.02 -10 40 C-9.01 39.505 -9.01 39.505 -8 39 C-7.27840576 37.35636866 -6.60648579 35.68949614 -6 34 C-5.34 34 -4.68 34 -4 34 C-3.97303635 32.20841511 -3.95362083 30.41671527 -3.9375 28.625 C-3.92589844 27.62726563 -3.91429687 26.62953125 -3.90234375 25.6015625 C-3.81993398 23.01567547 -3.81993398 23.01567547 -5 21 C-5.039992 19.00039988 -5.04346799 16.99952758 -5 15 C-4.01 15 -3.02 15 -2 15 C-1.34 10.05 -0.68 5.1 0 0 Z " fill="#B5E1F5" transform="translate(198,89)"/>
<path d="M0 0 C1.37478516 0.01740234 1.37478516 0.01740234 2.77734375 0.03515625 C3.69644531 0.04417969 4.61554688 0.05320312 5.5625 0.0625 C6.27277344 0.07410156 6.98304688 0.08570312 7.71484375 0.09765625 C8.96484375 2.72265625 8.96484375 2.72265625 9.71484375 6.09765625 C8.04163915 9.64485001 6.83197254 11.55341402 3.27734375 13.28515625 C0.71484375 13.09765625 0.71484375 13.09765625 -2.16015625 11.09765625 C-4.28515625 8.09765625 -4.28515625 8.09765625 -4.16015625 4.34765625 C-3.02443127 0.1292492 -3.02443127 0.1292492 0 0 Z " fill="#475F85" transform="translate(128.28515625,90.90234375)"/>
<path d="M0 0 C1.65 0 3.3 0 5 0 C5 0.66 5 1.32 5 2 C5.53625 1.814375 6.0725 1.62875 6.625 1.4375 C11.14221535 0.60538138 15.07499582 1.73557451 19 4 C19 4.66 19 5.32 19 6 C19.763125 6.103125 20.52625 6.20625 21.3125 6.3125 C24.22761867 7.05822803 25.10756853 7.74710539 27 10 C27.66 10.66 28.32 11.32 29 12 C28.34 13.32 27.68 14.64 27 16 C26.59910156 15.61328125 26.19820312 15.2265625 25.78515625 14.828125 C15.54547322 5.4475537 6.30959327 5.48312259 -7 6 C-6.6875 4.0625 -6.6875 4.0625 -6 2 C-3 1 -3 1 0 2 C0 1.34 0 0.68 0 0 Z " fill="#585869" transform="translate(147,18)"/>
<path d="M0 0 C6.08326684 1.61027652 9.20237083 5.946796 12.26953125 11.15625 C15.70553771 18.44106936 15.79967793 26.09620652 15 34 C13.9765625 36.4453125 13.9765625 36.4453125 13 38 C12.67 38 12.34 38 12 38 C11.96261719 36.96101563 11.92523438 35.92203125 11.88671875 34.8515625 C11.23996005 19.0396935 11.23996005 19.0396935 3 6 C2.34 5.67 1.68 5.34 1 5 C0.375 2.4375 0.375 2.4375 0 0 Z " fill="#CDE7EF" transform="translate(187,60)"/>
<path d="M0 0 C3.3 0 6.6 0 10 0 C10.66 1.32 11.32 2.64 12 4 C8.125 9.875 8.125 9.875 7 11 C4.17671054 11.29718836 2.59972723 11.42837659 0.25 9.75 C-1.12041836 7.83141429 -1.6018827 6.30908032 -2 4 C-1.34 4 -0.68 4 0 4 C0 2.68 0 1.36 0 0 Z " fill="#4A6D9D" transform="translate(73,90)"/>
<path d="M0 0 C0 0.66 0 1.32 0 2 C1.32 2.33 2.64 2.66 4 3 C3.45472656 3.13535156 2.90945312 3.27070313 2.34765625 3.41015625 C-5.92779227 5.77254925 -11.84756042 10.13008056 -17 17 C-22.28 16.34 -27.56 15.68 -33 15 C-33 14.67 -33 14.34 -33 14 C-30.36 14 -27.72 14 -25 14 C-25 13.34 -25 12.68 -25 12 C-22.03 12.495 -22.03 12.495 -19 13 C-18.071875 11.824375 -18.071875 11.824375 -17.125 10.625 C-13.02840495 5.56450024 -6.91057786 0 0 0 Z " fill="#626273" transform="translate(91,11)"/>
<path d="M0 0 C0.33 0 0.66 0 1 0 C1.36590746 1.72672034 1.71722195 3.45653655 2.0625 5.1875 C2.35833984 6.63189453 2.35833984 6.63189453 2.66015625 8.10546875 C3.00423947 11.03610862 2.74164697 13.16307068 2 16 C1.01 16.33 0.02 16.66 -1 17 C-1.73323796 19.01508358 -1.73323796 19.01508358 -2 21 C-2.66 21 -3.32 21 -4 21 C-4 21.66 -4 22.32 -4 23 C-5.609375 24.69140625 -5.609375 24.69140625 -7.75 26.5625 C-8.44609375 27.18253906 -9.1421875 27.80257812 -9.859375 28.44140625 C-11.97982555 29.98531094 -13.43920573 30.57896851 -16 31 C-16.33 29.68 -16.66 28.36 -17 27 C-16.12988281 26.48953125 -16.12988281 26.48953125 -15.2421875 25.96875 C-8.42052548 21.73616762 -3.11255038 17.68131103 -1.19140625 9.59765625 C-0.68784481 6.39917292 -0.28510943 3.22468597 0 0 Z " fill="#5C7AA8" transform="translate(197,112)"/>
<path d="M0 0 C3.21873267 1.56059766 4.39788742 3.91738411 6.0625 7 C5.7325 7.99 5.4025 8.98 5.0625 10 C4.0725 9.34 3.0825 8.68 2.0625 8 C2.0625 7.34 2.0625 6.68 2.0625 6 C1.4025 6 0.7425 6 0.0625 6 C0.0625 5.34 0.0625 4.68 0.0625 4 C-0.783125 4.66 -1.62875 5.32 -2.5 6 C-8.25739882 9.39232627 -15.48619758 8.29890204 -21.9375 8 C-21.6075 6.68 -21.2775 5.36 -20.9375 4 C-19.81730469 3.87882813 -18.69710937 3.75765625 -17.54296875 3.6328125 C-16.07026364 3.46396733 -14.59760996 3.29467303 -13.125 3.125 C-12.01801758 3.00705078 -12.01801758 3.00705078 -10.88867188 2.88671875 C-6.97728604 2.42655571 -3.53951941 0 0 0 Z " fill="#6C90BD" transform="translate(73.9375,146)"/>
<path d="M0 0 C0.66 0 1.32 0 2 0 C2.66 1.65 3.32 3.3 4 5 C3.34 5 2.68 5 2 5 C2.144375 6.010625 2.28875 7.02125 2.4375 8.0625 C2.95833333 11.70833333 3.47916667 15.35416667 4 19 C5.65 19 7.3 19 9 19 C9.33 19.66 9.66 20.32 10 21 C10.66 21 11.32 21 12 21 C12.33 23.31 12.66 25.62 13 28 C7.37980575 26.63752867 4.22681627 22.52551023 1 18 C-1.41847365 13.45157237 -2.5892346 9.18526449 -2 4 C-1 1.625 -1 1.625 0 0 Z " fill="#C4EAF8" transform="translate(35,119)"/>
<path d="M0 0 C1.0725 0.268125 2.145 0.53625 3.25 0.8125 C2.26 1.3075 2.26 1.3075 1.25 1.8125 C1.58 2.4725 1.91 3.1325 2.25 3.8125 C2.289992 5.81210012 2.29346799 7.81297242 2.25 9.8125 C-0.39 10.8025 -3.03 11.7925 -5.75 12.8125 C-6.74 11.8225 -7.73 10.8325 -8.75 9.8125 C-8.66517851 6.58928337 -7.71322566 4.7474377 -6.125 1.9375 C-3.75 -0.1875 -3.75 -0.1875 0 0 Z " fill="#575E79" transform="translate(79.75,71.1875)"/>
<path d="M0 0 C0.26296875 0.55816406 0.5259375 1.11632812 0.796875 1.69140625 C4.41228262 8.62876308 8.86385233 14.21081158 15 19 C15 19.66 15 20.32 15 21 C14.01 21.33 13.02 21.66 12 22 C11.01 21.34 10.02 20.68 9 20 C9 19.34 9 18.68 9 18 C7.68 17.67 6.36 17.34 5 17 C5 16.01 5 15.02 5 14 C4.01 13.67 3.02 13.34 2 13 C2 12.34 2 11.68 2 11 C1.34 10.67 0.68 10.34 0 10 C-0.71247732 8.3523962 -1.37400383 6.68236471 -2 5 C-2.65213539 3.65949948 -3.31379969 2.32338632 -4 1 C-2.68 0.67 -1.36 0.34 0 0 Z " fill="#6386AC" transform="translate(14,102)"/>
<path d="M0 0 C-1.41781267 3.54453168 -2.89716538 4.8573491 -6.25 6.625 C-6.99765625 7.02976563 -7.7453125 7.43453125 -8.515625 7.8515625 C-14.42807438 10.58467589 -19.26835443 11.29273189 -25.6875 11.1875 C-26.44611328 11.18685547 -27.20472656 11.18621094 -27.98632812 11.18554688 C-31.23899012 11.15970931 -33.89526286 11.03491238 -37 10 C-36.67 9.01 -36.34 8.02 -36 7 C-34.515 7.99 -34.515 7.99 -33 9 C-22.26464789 10.49209768 -13.75955135 6.06535837 -4.50390625 1.20703125 C-2 0 -2 0 0 0 Z M-34 7 C-32 8 -32 8 -32 8 Z " fill="#B4E0F8" transform="translate(129,148)"/>
<path d="M0 0 C2.375 0.5 2.375 0.5 5 2 C7.00454725 6.28857465 7.41889075 10.4595496 6 15 C6.66 15 7.32 15 8 15 C8 15.66 8 16.32 8 17 C7.34 17 6.68 17 6 17 C6.33 19.31 6.66 21.62 7 24 C5.68 24 4.36 24 3 24 C2.95101562 22.9378125 2.90203125 21.875625 2.8515625 20.78125 C2.31639785 10.25498713 2.31639785 10.25498713 0 0 Z " fill="#5A6284" transform="translate(199,71)"/>
<path d="M0 0 C0.66 0 1.32 0 2 0 C1.01017021 6.06270745 -1.24454988 8.62712604 -5.9296875 12.51953125 C-9.94293293 15.38938034 -12.5839339 16.26200915 -17.5625 16.1875 C-18.51253906 16.18105469 -19.46257812 16.17460937 -20.44140625 16.16796875 C-23 16 -23 16 -26 15 C-26 14.34 -26 13.68 -26 13 C-24.75863281 12.91363281 -23.51726562 12.82726562 -22.23828125 12.73828125 C-20.59625244 12.59753592 -18.95433024 12.45554304 -17.3125 12.3125 C-16.49587891 12.25900391 -15.67925781 12.20550781 -14.83789062 12.15039062 C-9.20132648 11.62552838 -6.78154992 10.47567763 -3 6 C-2.34 6 -1.68 6 -1 6 C-0.67 4.02 -0.34 2.04 0 0 Z " fill="#B2DAF4" transform="translate(156,135)"/>
<path d="M0 0 C4.46346919 0.14878231 8.44825469 1.0097327 12.75 2.125 C12.75 3.115 12.75 4.105 12.75 5.125 C4.17 5.125 -4.41 5.125 -13.25 5.125 C-12.92 3.805 -12.59 2.485 -12.25 1.125 C-10.950625 1.145625 -9.65125 1.16625 -8.3125 1.1875 C-6.95834367 1.20899454 -5.60243917 1.19648199 -4.25 1.125 C-3.25 0.125 -3.25 0.125 0 0 Z " fill="#4A4756" transform="translate(104.25,7.875)"/>
<path d="M0 0 C1.32 0.66 2.64 1.32 4 2 C2.68 2.33 1.36 2.66 0 3 C-0.16681109 5.91652174 -0.16681109 5.91652174 0 9 C0.66 9.66 1.32 10.32 2 11 C1.625 13.625 1.625 13.625 1 16 C0.01 16.33 -0.98 16.66 -2 17 C-2.33 18.65 -2.66 20.3 -3 22 C-5.50433143 18.24350286 -5.50188956 15.34471556 -5 11 C-3.03382664 3.03382664 -3.03382664 3.03382664 0 0 Z " fill="#4D576F" transform="translate(128,75)"/>
<path d="M0 0 C2.08234592 0.06743348 4.16668557 0.08514472 6.25 0.0625 C7.86648437 0.04896484 7.86648437 0.04896484 9.515625 0.03515625 C10.74539062 0.01775391 10.74539062 0.01775391 12 0 C12 0.66 12 1.32 12 2 C11.34 2 10.68 2 10 2 C10.33 2.99 10.66 3.98 11 5 C9.25034642 5.05429959 7.50020213 5.09292823 5.75 5.125 C4.77546875 5.14820313 3.8009375 5.17140625 2.796875 5.1953125 C-0.0196498 4.99862781 -1.60949036 4.44568916 -4 3 C-4.33 3.99 -4.66 4.98 -5 6 C-5.99 6.33 -6.98 6.66 -8 7 C-8.66 7.66 -9.32 8.32 -10 9 C-10 5.80366562 -9.66189865 4.65903784 -8 2 C-4.91405038 -0.98308463 -3.96747687 -1.01589373 0 0 Z " fill="#51668F" transform="translate(133,150)"/>
<path d="M0 0 C9.00985883 3.00328628 13.65666456 7.79592194 18 16 C17.34 16.33 16.68 16.66 16 17 C11.97128826 15.65709609 11.32461631 13.48692446 9 10 C6.4606543 7.65598859 4.47404146 6.18315238 1.25 4.9375 C0.5075 4.628125 -0.235 4.31875 -1 4 C-1.33 3.01 -1.66 2.02 -2 1 C-1.34 0.67 -0.68 0.34 0 0 Z " fill="#43495C" transform="translate(185,55)"/>
<path d="M0 0 C3.16909745 0.70587785 6.06074406 1.76851038 9.0625 3 C13.89110363 4.9750078 17.9598901 6.16902399 23.1875 6.5625 C24.81751953 6.68818359 24.81751953 6.68818359 26.48046875 6.81640625 C27.72763672 6.90728516 27.72763672 6.90728516 29 7 C29 7.33 29 7.66 29 8 C28.37351562 8.06058594 27.74703125 8.12117187 27.1015625 8.18359375 C26.28429687 8.26738281 25.46703125 8.35117188 24.625 8.4375 C23.81289062 8.51871094 23.00078125 8.59992188 22.1640625 8.68359375 C19.95727195 8.89090114 19.95727195 8.89090114 18 10 C12.50619804 10.62786308 8.15363194 8.32531196 3.5625 5.5 C3.046875 5.005 2.53125 4.51 2 4 C2 3.01 2 2.02 2 1 C1.34 0.67 0.68 0.34 0 0 Z " fill="#709EC5" transform="translate(78,152)"/>
<path d="M0 0 C0.99 0.33 1.98 0.66 3 1 C2.57847656 1.73863281 2.15695313 2.47726563 1.72265625 3.23828125 C-2.0728947 10.26674853 -3.96849032 15.99654251 -4 24 C-4.99 24 -5.98 24 -7 24 C-7.21973051 17.93299641 -7.04736728 12.80087395 -5 7 C-4.690625 6.071875 -4.38125 5.14375 -4.0625 4.1875 C-3 2 -3 2 0 0 Z " fill="#53576D" transform="translate(33,38)"/>
<path d="M0 0 C-0.54723683 3.37462715 -1.0549 5.08235 -3 8 C-6.125 8.6875 -6.125 8.6875 -9 9 C-10 7 -10 7 -9.1875 3.9375 C-7.23790255 -0.88518842 -4.79400491 -0.1042175 0 0 Z " fill="#568ACF" transform="translate(136,94)"/>
<path d="M0 0 C1.98 0.495 1.98 0.495 4 1 C4.13277344 1.67546875 4.26554687 2.3509375 4.40234375 3.046875 C4.57894531 3.93890625 4.75554688 4.8309375 4.9375 5.75 C5.19853516 7.07257813 5.19853516 7.07257813 5.46484375 8.421875 C5.94131671 10.9494898 5.94131671 10.9494898 6.69140625 13.140625 C7 15 7 15 5 18 C4.67 17.01 4.34 16.02 4 15 C3.34 14.67 2.68 14.34 2 14 C1.40234375 11.78515625 1.40234375 11.78515625 0.9375 9.0625 C0.33194533 5.41227791 0.33194533 5.41227791 -1 2 C-0.67 1.34 -0.34 0.68 0 0 Z " fill="#87ABCD" transform="translate(29,121)"/>
<path d="M0 0 C0.66 0 1.32 0 2 0 C2.8353125 0.99 2.8353125 0.99 3.6875 2 C5.94124705 4.31339926 5.94124705 4.31339926 9.5 4.5 C13.50751858 3.92749735 14.45770263 3.01309318 17 0 C17.66 0 18.32 0 19 0 C18.63926776 2.61530876 18.20250273 3.79749727 16.3125 5.6875 C13.38145829 7.35106421 11.38145888 7.86739377 8 8 C4.1875 6.875 4.1875 6.875 1 5 C0.0625 2.3125 0.0625 2.3125 0 0 Z " fill="#5E6278" transform="translate(93,101)"/>
<path d="M0 0 C2.61859676 1.00122817 3.79889378 1.66606437 5.265625 4.1015625 C7.4459818 9.69088984 8.44434656 14.0013214 8 20 C6 19 6 19 5 16.41796875 C4.67 15.35191406 4.34 14.28585938 4 13.1875 C2.67818912 8.89672158 2.67818912 8.89672158 0.875 4.80078125 C0 3 0 3 0 0 Z " fill="#E5EEF2" transform="translate(173,34)"/>
<path d="M0 0 C1.2065625 0.0309375 1.2065625 0.0309375 2.4375 0.0625 C1.04613119 4.23660642 -1.48417108 6.00769221 -5.37890625 7.984375 C-10.07429245 10.0625 -10.07429245 10.0625 -12.5625 10.0625 C-12.5625 9.4025 -12.5625 8.7425 -12.5625 8.0625 C-11.9025 8.0625 -11.2425 8.0625 -10.5625 8.0625 C-10.2325 7.0725 -9.9025 6.0825 -9.5625 5.0625 C-7.60102126 3.67311923 -5.60083424 2.3364589 -3.5625 1.0625 C-2.5625 0.0625 -2.5625 0.0625 0 0 Z " fill="#6486AA" transform="translate(155.5625,143.9375)"/>
<path d="M0 0 C1.32 0 2.64 0 4 0 C4 0.66 4 1.32 4 2 C4.66 1.67 5.32 1.34 6 1 C12.24793388 0.53719008 12.24793388 0.53719008 15.4375 2.5 C15.953125 2.995 16.46875 3.49 17 4 C12.37146715 6.31426642 6.18737222 5.32755096 1.375 4 C0.59125 3.67 -0.1925 3.34 -1 3 C-0.67 2.01 -0.34 1.02 0 0 Z " fill="#B4DEF6" transform="translate(49,145)"/>
<path d="M0 0 C5.94 0 11.88 0 18 0 C18 0.66 18 1.32 18 2 C13.53665816 3.72293135 9.89798769 4.22240791 5.125 4.125 C3.97257812 4.10695312 2.82015625 4.08890625 1.6328125 4.0703125 C0.76398437 4.04710937 -0.10484375 4.02390625 -1 4 C-0.67 2.68 -0.34 1.36 0 0 Z " fill="#5773A4" transform="translate(53,150)"/>
<path d="M0 0 C6.6 0 13.2 0 20 0 C20.33 0.66 20.66 1.32 21 2 C15.93311661 4.61516562 10.3026737 5.04453848 4.86328125 3.32421875 C3.2114979 2.61726888 1.60015927 1.81710261 0 1 C0 0.67 0 0.34 0 0 Z " fill="#A6D6F0" transform="translate(159,138)"/>
<path d="M0 0 C0 1.98 0 3.96 0 6 C-1.98 6.66 -3.96 7.32 -6 8 C-6.99 7.01 -7.98 6.02 -9 5 C-8 2 -8 2 -6.1875 0.8125 C-4 0 -4 0 0 0 Z " fill="#566285" transform="translate(80,76)"/>
<path d="M0 0 C2.42099096 2.42099096 3.90578986 4.09253465 4.265625 7.55859375 C4.26046875 8.50863281 4.2553125 9.45867187 4.25 10.4375 C4.25515625 11.38496094 4.2603125 12.33242187 4.265625 13.30859375 C3.99748089 16.02552453 3.38531142 17.67465583 2 20 C1.67 20 1.34 20 1 20 C0.67 13.4 0.34 6.8 0 0 Z " fill="#CEEFF8" transform="translate(198,78)"/>
<path d="M0 0 C3.90938504 1.30312835 6.41779075 2.74832909 9 6 C9 7.32 9 8.64 9 10 C6.03874657 8.62513234 3.39878817 7.23335451 1 5 C0.25 2.3125 0.25 2.3125 0 0 Z " fill="#D7ECF3" transform="translate(187,60)"/>
<path d="M0 0 C1.2065625 0.0309375 1.2065625 0.0309375 2.4375 0.0625 C2.81968767 1.71864657 3.15145102 3.38707024 3.4375 5.0625 C2.4375 6.0625 2.4375 6.0625 -0.125 6.125 C-1.3315625 6.0940625 -1.3315625 6.0940625 -2.5625 6.0625 C-2.94468767 4.40635343 -3.27645102 2.73792976 -3.5625 1.0625 C-2.5625 0.0625 -2.5625 0.0625 0 0 Z " fill="#5289C9" transform="translate(77.5625,92.9375)"/>
<path d="M0 0 C0.99 0 1.98 0 3 0 C2.35550393 3.01217112 1.34977818 5.51655836 -0.0625 8.25 C-0.42472656 8.95640625 -0.78695313 9.6628125 -1.16015625 10.390625 C-1.43730469 10.92171875 -1.71445312 11.4528125 -2 12 C-3.4606285 9.35261084 -4 8.10551666 -4 5 C-2.1875 2.3125 -2.1875 2.3125 0 0 Z " fill="#65677C" transform="translate(18,67)"/>
<path d="M0 0 C1.32 0 2.64 0 4 0 C4.33 0.66 4.66 1.32 5 2 C5.66 2 6.32 2 7 2 C7.33 4.31 7.66 6.62 8 9 C3.58110387 7.64978174 1.65654657 5.73884332 -1 2 C-0.67 1.34 -0.34 0.68 0 0 Z " fill="#B8E2F5" transform="translate(40,138)"/>
<path d="M0 0 C1.65 0 3.3 0 5 0 C5 0.66 5 1.32 5 2 C6.32 1.67 7.64 1.34 9 1 C9 1.99 9 2.98 9 4 C5.04 4 1.08 4 -3 4 C-3 3.01 -3 2.02 -3 1 C-2.01 1.33 -1.02 1.66 0 2 C0 1.34 0 0.68 0 0 Z " fill="#474656" transform="translate(147,18)"/>
<path d="M0 0 C3 2 3 2 3.58203125 3.83984375 C3.65808594 4.53207031 3.73414063 5.22429687 3.8125 5.9375 C3.90144531 6.62714844 3.99039063 7.31679687 4.08203125 8.02734375 C4 10 4 10 2 13 C-0.20914 9.68629 -0.22481553 8.6553979 -0.125 4.8125 C-0.10695312 3.91144531 -0.08890625 3.01039062 -0.0703125 2.08203125 C-0.04710937 1.39496094 -0.02390625 0.70789063 0 0 Z " fill="#445173" transform="translate(198,108)"/>
<path d="M0 0 C3.3 0.33 6.6 0.66 10 1 C9.34 2.32 8.68 3.64 8 5 C2.72 4.34 -2.56 3.68 -8 3 C-8 2.67 -8 2.34 -8 2 C-5.36 2 -2.72 2 0 2 C0 1.34 0 0.68 0 0 Z " fill="#706E80" transform="translate(66,23)"/>
<path d="M0 0 C3.48330216 0.64505596 6.09432866 1.98217268 9 4 C9 4.66 9 5.32 9 6 C9.99 6.33 10.98 6.66 12 7 C8.34765818 8.21744727 7.37046678 7.64202228 4 6 C3.34 5.34 2.68 4.68 2 4 C2 3.01 2 2.02 2 1 C1.34 0.67 0.68 0.34 0 0 Z " fill="#7294BA" transform="translate(78,152)"/>
<path d="M0 0 C0.99 0.33 1.98 0.66 3 1 C5.05893621 1.22325814 7.12233653 1.40705759 9.1875 1.5625 C10.27417969 1.64628906 11.36085937 1.73007812 12.48046875 1.81640625 C13.72763672 1.90728516 13.72763672 1.90728516 15 2 C15 1.34 15 0.68 15 0 C16.98 0 18.96 0 21 0 C20.67 0.66 20.34 1.32 20 2 C19.34 2 18.68 2 18 2 C17.67 2.66 17.34 3.32 17 4 C11.06 4 5.12 4 -1 4 C-0.67 2.68 -0.34 1.36 0 0 Z " fill="#736F80" transform="translate(141,20)"/>
<path d="M0 0 C0.66 0.33 1.32 0.66 2 1 C1.69320312 1.51046875 1.38640625 2.0209375 1.0703125 2.546875 C-0.32738285 5.75035193 -0.67631045 8.78868061 -1.125 12.25 C-1.29257812 13.51328125 -1.46015625 14.7765625 -1.6328125 16.078125 C-1.75398438 17.04234375 -1.87515625 18.0065625 -2 19 C-2.33 19 -2.66 19 -3 19 C-3.0809313 16.39521117 -3.14045434 13.79293347 -3.1875 11.1875 C-3.22520508 10.08051758 -3.22520508 10.08051758 -3.26367188 8.95117188 C-3.33834499 3.45025238 -3.33834499 3.45025238 -1.48828125 0.98828125 C-0.99714844 0.66214844 -0.50601563 0.33601563 0 0 Z " fill="#F2F9FA" transform="translate(34,44)"/>
<path d="M0 0 C0.99 0 1.98 0 3 0 C3 0.66 3 1.32 3 2 C4.32 2.33 5.64 2.66 7 3 C7 3.99 7 4.98 7 6 C4.04725901 6 2.50941597 5.56108169 -0.1875 4.5 C-0.90292969 4.2215625 -1.61835937 3.943125 -2.35546875 3.65625 C-2.89816406 3.4396875 -3.44085938 3.223125 -4 3 C-2.68 2.67 -1.36 2.34 0 2 C0 1.34 0 0.68 0 0 Z " fill="#615E6F" transform="translate(117,11)"/>
<path d="M0 0 C0.66 0 1.32 0 2 0 C2 0.66 2 1.32 2 2 C3.1446875 1.7215625 3.1446875 1.7215625 4.3125 1.4375 C7 1 7 1 10 2 C10 2.66 10 3.32 10 4 C6.7 4 3.4 4 0 4 C0 5.32 0 6.64 0 8 C-0.66 7.67 -1.32 7.34 -2 7 C-1.34 4.69 -0.68 2.38 0 0 Z " fill="#415881" transform="translate(73,86)"/>
<path d="M0 0 C1.9078584 3.1749094 2.1609041 5.10585211 1.625 8.75 C1.51414063 9.54921875 1.40328125 10.3484375 1.2890625 11.171875 C1.19367188 11.77515625 1.09828125 12.3784375 1 13 C0.01 13 -0.98 13 -2 13 C-2.19294408 8.17639811 -1.75747614 4.50353262 0 0 Z " fill="#535572" transform="translate(183,45)"/>
<path d="M0 0 C0.33 0 0.66 0 1 0 C1.36590746 1.72672034 1.71722195 3.45653655 2.0625 5.1875 C2.25972656 6.15042969 2.45695313 7.11335938 2.66015625 8.10546875 C3.00423947 11.03610862 2.74164697 13.16307068 2 16 C1.34 16 0.68 16 0 16 C-1.30267176 10.49983036 -0.71033431 5.52967941 0 0 Z " fill="#7691BF" transform="translate(197,112)"/>
<path d="M0 0 C0.66 0.33 1.32 0.66 2 1 C1.13375 1.7425 1.13375 1.7425 0.25 2.5 C-2.61672884 5.68525427 -4.23238891 9.1262991 -6 13 C-6.66 11.68 -7.32 10.36 -8 9 C-6.85459775 7.68712379 -5.70866567 6.37470979 -4.5625 5.0625 C-3.92441406 4.33160156 -3.28632813 3.60070312 -2.62890625 2.84765625 C-1.77458541 1.87860647 -0.91348825 0.91348825 0 0 Z " fill="#EBEDF0" transform="translate(25,65)"/>
<path d="M0 0 C2.64 0.66 5.28 1.32 8 2 C7.34 3.32 6.68 4.64 6 6 C3.08482708 4.92598892 1.22189824 4.22189824 -1 2 C-0.67 1.34 -0.34 0.68 0 0 Z " fill="#618BBA" transform="translate(46,147)"/>
<path d="M0 0 C2.6465335 2.6465335 3.59941997 5.56221264 5 9 C2.625 8.8125 2.625 8.8125 0 8 C-1.4375 5.625 -1.4375 5.625 -2 3 C-1.34 2.01 -0.68 1.02 0 0 Z " fill="#D8F1F6" transform="translate(18,103)"/>
<path d="M0 0 C-0.33 1.32 -0.66 2.64 -1 4 C-1 3.34 -1 2.68 -1 2 C-3.31 2.33 -5.62 2.66 -8 3 C-7.67 4.65 -7.34 6.3 -7 8 C-7.99 8 -8.98 8 -10 8 C-9.40138258 5.64828869 -8.73075648 3.3140622 -8 1 C-5.29120665 -0.35439668 -2.99066732 -0.06501451 0 0 Z " fill="#4E77AC" transform="translate(136,94)"/>
<path d="M0 0 C1.98 0.495 1.98 0.495 4 1 C3.67 2.65 3.34 4.3 3 6 C1.68 6 0.36 6 -1 6 C-0.67 4.02 -0.34 2.04 0 0 Z " fill="#E0E2E7" transform="translate(128,78)"/>
<path d="M0 0 C0 0.66 0 1.32 0 2 C1.32 2.33 2.64 2.66 4 3 C0.12315913 4.19287411 -2.91621923 5 -7 5 C-7 4.01 -7 3.02 -7 2 C-2.25 0 -2.25 0 0 0 Z " fill="#5E5C6C" transform="translate(91,11)"/>
<path d="M0 0 C0.66 0 1.32 0 2 0 C3.3271261 3.9813783 3.06915913 7.85045227 3 12 C1 11 1 11 0.33203125 9.2578125 C0.16058594 8.55398437 -0.01085937 7.85015625 -0.1875 7.125 C-0.36667969 6.42632812 -0.54585937 5.72765625 -0.73046875 5.0078125 C-1 3 -1 3 0 0 Z " fill="#DAE6EC" transform="translate(178,42)"/>
<path d="M0 0 C-1.22934015 3.68802044 -2.93859378 4.72356973 -6 7 C-6.66 5.68 -7.32 4.36 -8 3 C-5.53387212 -0.1151089 -3.89156016 -0.31553191 0 0 Z " fill="#5A73A2" transform="translate(158,144)"/>
<path d="M0 0 C0.66 0.66 1.32 1.32 2 2 C2.99 2 3.98 2 5 2 C4.67 3.65 4.34 5.3 4 7 C2.68 7.33 1.36 7.66 0 8 C0 5.36 0 2.72 0 0 Z " fill="#404E6F" transform="translate(125,84)"/>
<path d="M0 0 C-1.49835228 4.66154042 -4.88463591 5.86610751 -9 8 C-9 7.01 -9 6.02 -9 5 C-8.34 5 -7.68 5 -7 5 C-7 4.34 -7 3.68 -7 3 C-2.61538462 0 -2.61538462 0 0 0 Z " fill="#B2DBEF" transform="translate(129,148)"/>
<path d="M0 0 C0.99 0.66 1.98 1.32 3 2 C3.1875 4.625 3.1875 4.625 3 7 C1.35 7.33 -0.3 7.66 -2 8 C-2 4.79604584 -1.25664978 2.90600261 0 0 Z " fill="#6E9AC4" transform="translate(157,137)"/>
<path d="M0 0 C1.98 0.495 1.98 0.495 4 1 C4 2.98 4 4.96 4 7 C2.68 6.67 1.36 6.34 0 6 C-1.125 2.25 -1.125 2.25 0 0 Z " fill="#759CC0" transform="translate(29,121)"/>
<path d="M0 0 C4.72763768 2.73152399 6.92642516 4.93126149 9 10 C8.01 10.495 8.01 10.495 7 11 C3.97399468 9.48699734 3.41257985 7.00173218 2 4 C1.608125 3.21625 1.21625 2.4325 0.8125 1.625 C0.544375 1.08875 0.27625 0.5525 0 0 Z " fill="#393E4D" transform="translate(194,61)"/>
<path d="M0 0 C0.33 0.66 0.66 1.32 1 2 C3.02463255 2.65213292 3.02463255 2.65213292 5 3 C5 3.66 5 4.32 5 5 C5.66 5.33 6.32 5.66 7 6 C4.1875 6.3125 4.1875 6.3125 1 6 C-0.875 3.5 -0.875 3.5 -2 1 C-1.34 0.67 -0.68 0.34 0 0 Z " fill="#424251" transform="translate(125,15)"/>
<path d="M0 0 C3.96 0 7.92 0 12 0 C11.67 0.99 11.34 1.98 11 3 C8.36 3 5.72 3 3 3 C3 2.34 3 1.68 3 1 C2.01 0.67 1.02 0.34 0 0 Z " fill="#2D2940" transform="translate(55,22)"/>
<path d="M0 0 C0 0.33 0 0.66 0 1 C-2.31 1.66 -4.62 2.32 -7 3 C-7.33 4.65 -7.66 6.3 -8 8 C-8.99 7.34 -9.98 6.68 -11 6 C-11 5.34 -11 4.68 -11 4 C-10.34 4 -9.68 4 -9 4 C-9 3.01 -9 2.02 -9 1 C-6.04335481 -0.4783226 -3.25770263 -0.06032783 0 0 Z " fill="#476693" transform="translate(135,93)"/>
<path d="M0 0 C0.99 0.33 1.98 0.66 3 1 C1.90931332 4.77545388 1.0916909 7.47043472 -2 10 C-2.99 9.67 -3.98 9.34 -5 9 C-4.360625 8.443125 -3.72125 7.88625 -3.0625 7.3125 C-0.80319013 4.77933439 -0.36850953 3.31658576 0 0 Z " fill="#4B6386" transform="translate(82,91)"/>
<path d="M0 0 C2.875 0.3125 2.875 0.3125 6 1 C6.66 1.99 7.32 2.98 8 4 C6.02 4.33 4.04 4.66 2 5 C2 4.34 2 3.68 2 3 C1.34 2.67 0.68 2.34 0 2 C0 1.34 0 0.68 0 0 Z " fill="#595B72" transform="translate(129,74)"/>
<path d="M0 0 C0.99 0.33 1.98 0.66 3 1 C1.68 3.64 0.36 6.28 -1 9 C-1.33 7.68 -1.66 6.36 -2 5 C-2.66 4.67 -3.32 4.34 -4 4 C-2.68 2.68 -1.36 1.36 0 0 Z " fill="#636478" transform="translate(33,38)"/>
<path d="M0 0 C0.66 0 1.32 0 2 0 C1.62005832 2.75457718 1.1926367 3.82020574 -0.875 5.75 C-3 7 -3 7 -6 7 C-6 6.34 -6 5.68 -6 5 C-4.34467377 3.98133771 -2.67739862 2.98189187 -1 2 C-0.67 1.34 -0.34 0.68 0 0 Z " fill="#585B73" transform="translate(110,101)"/>
<path d="M0 0 C1.32 0 2.64 0 4 0 C3.67 1.65 3.34 3.3 3 5 C1.68 4.67 0.36 4.34 -1 4 C-0.67 2.68 -0.34 1.36 0 0 Z " fill="#E8ECEF" transform="translate(76,76)"/>
<path d="M0 0 C2.31 0.33 4.62 0.66 7 1 C7 2.65 7 4.3 7 6 C6.01 6 5.02 6 4 6 C1.8125 3 1.8125 3 0 0 Z " fill="#6D697E" transform="translate(127,21)"/>
<path d="M0 0 C0.66 0.66 1.32 1.32 2 2 C1.9375 4 1.9375 4 1 6 C-1.5625 7.25 -1.5625 7.25 -4 8 C-4 5 -4 5 -2.5625 3.4375 C-2.046875 2.963125 -1.53125 2.48875 -1 2 C-0.67 1.34 -0.34 0.68 0 0 Z " fill="#47475C" transform="translate(77,17)"/>
<path d="M0 0 C3.81684226 1.55500981 6.19195732 4.03595495 9 7 C8.34 7.66 7.68 8.32 7 9 C6.401875 8.236875 5.80375 7.47375 5.1875 6.6875 C3.147995 4.08847816 3.147995 4.08847816 1.25 2.25 C0.8375 1.8375 0.425 1.425 0 1 C0 0.67 0 0.34 0 0 Z " fill="#A9D8EF" transform="translate(72,143)"/>
<path d="M0 0 C1.65 0 3.3 0 5 0 C5.66 1.32 6.32 2.64 7 4 C6.01 4.33 5.02 4.66 4 5 C2.64567325 3.68799596 1.31266518 2.35368596 0 1 C0 0.67 0 0.34 0 0 Z " fill="#5C7AAB" transform="translate(22,119)"/>
<path d="M0 0 C0 3 0 3 -1.125 4.75 C-3 6 -3 6 -6.1875 5.6875 C-7.115625 5.460625 -8.04375 5.23375 -9 5 C-6.08596738 3.05731159 -3.14191424 1.53604696 0 0 Z " fill="#6785B3" transform="translate(124,153)"/>
<path d="M0 0 C1.32 0 2.64 0 4 0 C3.67 1.32 3.34 2.64 3 4 C1.02 4.33 -0.96 4.66 -3 5 C-1.75 2.5 -1.75 2.5 0 0 Z " fill="#444763" transform="translate(34,34)"/>
<path d="M0 0 C0 0.99 0 1.98 0 3 C-2.31 2.67 -4.62 2.34 -7 2 C-7 1.34 -7 0.68 -7 0 C-3.98968256 -0.93423645 -3.13349732 -1.04449911 0 0 Z " fill="#47485A" transform="translate(166,22)"/>
<path d="M0 0 C1.32 1.32 2.64 2.64 4 4 C3.67 4.99 3.34 5.98 3 7 C2.01 6.34 1.02 5.68 0 5 C0 4.34 0 3.68 0 3 C-0.66 2.67 -1.32 2.34 -2 2 C-1.34 1.34 -0.68 0.68 0 0 Z " fill="#536C9E" transform="translate(76,149)"/>
<path d="M0 0 C1.65 1.65 3.3 3.3 5 5 C1.25 6.125 1.25 6.125 -1 5 C-0.67 3.35 -0.34 1.7 0 0 Z " fill="#7DA6C3" transform="translate(20,114)"/>
<path d="M0 0 C0.99 0.33 1.98 0.66 3 1 C1.95125002 3.62187494 1.35068687 4.79371361 -1.125 6.25 C-1.74375 6.4975 -2.3625 6.745 -3 7 C-1.125 2.25 -1.125 2.25 0 0 Z " fill="#EAEAEE" transform="translate(35,39)"/>
<path d="M0 0 C1.9375 0.75 1.9375 0.75 4 2 C4.33 3.32 4.66 4.64 5 6 C2.36 4.68 -0.28 3.36 -3 2 C-2.01 1.34 -1.02 0.68 0 0 Z " fill="#6B697B" transform="translate(166,24)"/>
<path d="M0 0 C1.32 0.66 2.64 1.32 4 2 C2.68 2.33 1.36 2.66 0 3 C0 3.66 0 4.32 0 5 C-0.66 5 -1.32 5 -2 5 C-2.33 5.66 -2.66 6.32 -3 7 C-2.25 2.25 -2.25 2.25 0 0 Z " fill="#4A4B5F" transform="translate(128,75)"/>
<path d="M0 0 C0.99 0.66 1.98 1.32 3 2 C2.34 3.98 1.68 5.96 1 8 C-1 5 -1 5 -2 2 C-1.34 1.34 -0.68 0.68 0 0 Z " fill="#586E90" transform="translate(197,104)"/>
<path d="M0 0 C1.98 0.495 1.98 0.495 4 1 C3.34 2.65 2.68 4.3 2 6 C1.01 4.68 0.02 3.36 -1 2 C-0.67 1.34 -0.34 0.68 0 0 Z " fill="#FAECF1" transform="translate(147,103)"/>
<path d="M0 0 C1.98 0.495 1.98 0.495 4 1 C4 1.99 4 2.98 4 4 C2.35 3.67 0.7 3.34 -1 3 C-0.67 2.01 -0.34 1.02 0 0 Z " fill="#FBF3F5" transform="translate(57,96)"/>
<path d="M0 0 C0.99 0.33 1.98 0.66 3 1 C-1.75 4.875 -1.75 4.875 -4 6 C-3.6875 4.125 -3.6875 4.125 -3 2 C-2.01 1.34 -1.02 0.68 0 0 Z " fill="#47506C" transform="translate(76,73)"/>
<path d="M0 0 C2 1 2 1 2 1 Z " fill="#0000FF" transform="translate(93,162)"/>
<path d="" fill="#000000" transform="translate(0,0)"/>
<path d="" fill="#7F7F7F" transform="translate(0,0)"/>
<path d="M0 0 C2 1 2 1 2 1 Z " fill="#7F7F7F" transform="translate(137,20)"/>
<path d="" fill="#000000" transform="translate(0,0)"/>
<path d="" fill="#0000FF" transform="translate(0,0)"/>
<path d="" fill="#FFFFFF" transform="translate(0,0)"/>
<path d="" fill="#000000" transform="translate(0,0)"/>
<path d="" fill="#000000" transform="translate(0,0)"/>
<path d="" fill="#000000" transform="translate(0,0)"/>
<path d="" fill="#000000" transform="translate(0,0)"/>
<path d="" fill="#000000" transform="translate(0,0)"/>
<path d="" fill="#00FFFF" transform="translate(0,0)"/>
<path d="" fill="#000000" transform="translate(0,0)"/>
<path d="" fill="#000000" transform="translate(0,0)"/>
</svg>
