<?xml version="1.0" encoding="UTF-8"?>
<svg version="1.1" xmlns="http://www.w3.org/2000/svg" width="199" height="192">
<path d="M0 0 C0.83853516 -0.020625 1.67707031 -0.04125 2.54101562 -0.0625 C9.87934845 -0.10832878 15.04782877 1.56604947 20.9375 6.125 C21.60652344 6.64191406 22.27554688 7.15882813 22.96484375 7.69140625 C24.8125 9.25 24.8125 9.25 27.5 12.0625 C30.01534597 14.44188132 31.41327655 14.95863799 34.8125 15.25 C34.8125 14.59 34.8125 13.93 34.8125 13.25 C39.81449488 11.25237288 44.08131919 10.94452038 49.375 11 C50.11685547 10.99226562 50.85871094 10.98453125 51.62304688 10.9765625 C55.80303418 10.99145115 58.99459028 11.34482525 62.8125 13.25 C62.8125 13.91 62.8125 14.57 62.8125 15.25 C63.8025 14.92 64.7925 14.59 65.8125 14.25 C67.75 15.5 67.75 15.5 69.8125 17.25 C70.534375 17.765625 71.25625 18.28125 72 18.8125 C73.8125 20.25 73.8125 20.25 74.8125 22.25 C75.8025 22.58 76.7925 22.91 77.8125 23.25 C79.8125 26.25 79.8125 26.25 79.8125 29.25 C80.740625 29.5284375 80.740625 29.5284375 81.6875 29.8125 C84.86852866 31.96437233 85.00701947 34.62533763 85.8125 38.25 C86.1425 38.25 86.4725 38.25 86.8125 38.25 C86.93625 39.36375 87.06 40.4775 87.1875 41.625 C87.4590813 45.28103677 87.4590813 45.28103677 89.8125 47.25 C91.79606483 47.96408334 93.79565437 48.63617742 95.8125 49.25 C95.8125 49.91 95.8125 50.57 95.8125 51.25 C96.8025 51.58 97.7925 51.91 98.8125 52.25 C98.8125 52.91 98.8125 53.57 98.8125 54.25 C99.8025 54.25 100.7925 54.25 101.8125 54.25 C103.19921875 55.640625 103.19921875 55.640625 104.5 57.5 C104.93699219 58.10328125 105.37398437 58.7065625 105.82421875 59.328125 C106.8125 61.25 106.8125 61.25 106.8125 65.25 C107.4725 65.58 108.1325 65.91 108.8125 66.25 C113.05098134 77.22018699 113.53620022 90.51007553 108.8671875 101.46875 C107.8125 103.25 107.8125 103.25 105.8125 104.25 C105.544375 105.1575 105.27625 106.065 105 107 C103.60489747 110.81817535 101.80464387 112.5497726 98.8125 115.25 C98.27625 115.806875 97.74 116.36375 97.1875 116.9375 C94.69355207 119.31808666 93.29019759 120.25 89.8125 120.25 C89.4825 122.89 89.1525 125.53 88.8125 128.25 C88.1525 128.25 87.4925 128.25 86.8125 128.25 C86.668125 128.848125 86.52375 129.44625 86.375 130.0625 C85.58356684 133.14029562 85.09707274 134.96542726 82.8125 137.25 C82.090625 138.013125 81.36875 138.77625 80.625 139.5625 C74.94550712 144.98957098 69.87009119 148.59414955 61.8125 149.25 C60.8225 148.92 59.8325 148.59 58.8125 148.25 C58.60774942 153.47113967 58.66101554 157.40915997 60.8125 162.25 C60.9375 165.0625 60.9375 165.0625 60.8125 167.25 C61.4725 167.25 62.1325 167.25 62.8125 167.25 C62.99085515 171.79805635 62.81035435 175.1294254 60.8125 179.25 C60.1525 179.25 59.4925 179.25 58.8125 179.25 C58.8125 179.91 58.8125 180.57 58.8125 181.25 C58.1525 181.25 57.4925 181.25 56.8125 181.25 C56.8125 181.91 56.8125 182.57 56.8125 183.25 C54.6953125 184.72265625 54.6953125 184.72265625 51.9375 186.3125 C51.03257812 186.83972656 50.12765625 187.36695313 49.1953125 187.91015625 C44.40207268 190.60537143 41.17489053 190.45607399 35.8125 189.25 C32.37488428 187.12891796 30.03689161 185.1457915 28.8125 181.25 C28.85375 180.280625 28.895 179.31125 28.9375 178.3125 C29.19698037 170.83622197 25.62134314 163.05701625 22.8125 156.25 C20.5025 156.58 18.1925 156.91 15.8125 157.25 C16.00714844 157.82878906 16.20179687 158.40757812 16.40234375 159.00390625 C16.88726484 161.65942653 16.46045238 162.75126244 15.375 165.1875 C14.0562113 168.40391226 13.61773527 170.74423481 13.8125 174.25 C13.52205086 175.59332728 13.20294206 176.93225804 12.8125 178.25 C12.1525 178.25 11.4925 178.25 10.8125 178.25 C10.626875 179.3946875 10.626875 179.3946875 10.4375 180.5625 C9.8125 183.25 9.8125 183.25 7.8125 186.25 C5.2734375 186.76171875 5.2734375 186.76171875 2.1875 186.9375 C0.57681641 187.03224609 0.57681641 187.03224609 -1.06640625 187.12890625 C-11.35341928 187.52802691 -11.35341928 187.52802691 -15.1875 186.25 C-15.1875 185.59 -15.1875 184.93 -15.1875 184.25 C-15.88875 184.353125 -16.59 184.45625 -17.3125 184.5625 C-20.53083847 184.2126806 -22.5293795 183.32320534 -24.94140625 181.13671875 C-27.67999148 176.99020882 -27.68961358 172.0624652 -27.1875 167.25 C-25.25795282 162.91905131 -21.41669819 160.20193763 -17.1875 158.25 C-15.8675 158.25 -14.5475 158.25 -13.1875 158.25 C-13.1875 155.94 -13.1875 153.63 -13.1875 151.25 C-13.8475 150.92 -14.5075 150.59 -15.1875 150.25 C-15.1875 149.59 -15.1875 148.93 -15.1875 148.25 C-15.785625 148.1675 -16.38375 148.085 -17 148 C-19.7841296 147.04544128 -20.62061142 145.67867729 -22.1875 143.25 C-23.26 143.559375 -24.3325 143.86875 -25.4375 144.1875 C-36.78196616 147.40176541 -44.6438255 146.88924244 -55.1875 141.25 C-55.91066406 140.90710938 -56.63382813 140.56421875 -57.37890625 140.2109375 C-59.76399768 138.9436967 -60.98110996 137.66278007 -62.1875 135.25 C-62.8475 135.25 -63.5075 135.25 -64.1875 135.25 C-65.4765625 133.7890625 -65.4765625 133.7890625 -66.8125 131.875 C-67.25851563 131.24851563 -67.70453125 130.62203125 -68.1640625 129.9765625 C-69.1875 128.25 -69.1875 128.25 -69.1875 126.25 C-69.8475 125.92 -70.5075 125.59 -71.1875 125.25 C-75.64029494 117.91598481 -75.03537206 107.557535 -74.1875 99.25 C-73.19862141 95.80835705 -71.99912623 93.36373259 -70.1875 90.25 C-69.5275 90.25 -68.8675 90.25 -68.1875 90.25 C-68.1875 88.93 -68.1875 87.61 -68.1875 86.25 C-67.1975 85.26 -67.1975 85.26 -66.1875 84.25 C-66.48846799 80.11169011 -66.86648016 77.73152976 -69.1875 74.25 C-69.1640625 71.76953125 -69.1640625 71.76953125 -68.8125 69.0625 C-68.70164062 68.16144531 -68.59078125 67.26039062 -68.4765625 66.33203125 C-68.33347656 65.30142578 -68.33347656 65.30142578 -68.1875 64.25 C-68.8475 64.25 -69.5075 64.25 -70.1875 64.25 C-70.1875 63.59 -70.1875 62.93 -70.1875 62.25 C-69.5275 62.25 -68.8675 62.25 -68.1875 62.25 C-68.496875 60.6721875 -68.496875 60.6721875 -68.8125 59.0625 C-69.18713104 55.25375113 -68.90380067 53.58164248 -67.1875 50.25 C-66.5275 50.25 -65.8675 50.25 -65.1875 50.25 C-65.6825 48.765 -65.6825 48.765 -66.1875 47.25 C-64.9375 45.3125 -64.9375 45.3125 -63.1875 43.25 C-62.4140625 42.13625 -62.4140625 42.13625 -61.625 41 C-61.150625 40.4225 -60.67625 39.845 -60.1875 39.25 C-59.5275 39.25 -58.8675 39.25 -58.1875 39.25 C-57.8575 38.26 -57.5275 37.27 -57.1875 36.25 C-56.5275 36.25 -55.8675 36.25 -55.1875 36.25 C-55.1875 35.59 -55.1875 34.93 -55.1875 34.25 C-53.82625 33.6621875 -53.82625 33.6621875 -52.4375 33.0625 C-51.81101562 32.79050781 -51.18453125 32.51851562 -50.5390625 32.23828125 C-48.73263075 31.4790998 -46.912007 30.75361796 -45.0859375 30.04296875 C-44.00570312 29.61628906 -42.92546875 29.18960937 -41.8125 28.75 C-40.77351563 28.3478125 -39.73453125 27.945625 -38.6640625 27.53125 C-35.86634857 26.44870145 -35.86634857 26.44870145 -35.1875 23.25 C-33.46428245 18.73681118 -31.99621609 15.32154524 -28.1875 12.25 C-27.5275 12.25 -26.8675 12.25 -26.1875 12.25 C-25.8575 11.26 -25.5275 10.27 -25.1875 9.25 C-24.5275 9.25 -23.8675 9.25 -23.1875 9.25 C-22.8575 8.26 -22.5275 7.27 -22.1875 6.25 C-21.5275 6.25 -20.8675 6.25 -20.1875 6.25 C-19.5275 5.59 -18.8675 4.93 -18.1875 4.25 C-17.176875 4.085 -16.16625 3.92 -15.125 3.75 C-13.6709375 3.5025 -13.6709375 3.5025 -12.1875 3.25 C-11.8575 2.59 -11.5275 1.93 -11.1875 1.25 C-7.72008641 -0.48370679 -3.82052982 0.02296336 0 0 Z " fill="#E4F3FB" transform="translate(81.1875,0.75)"/>
<path d="M0 0 C0.83853516 -0.020625 1.67707031 -0.04125 2.54101562 -0.0625 C9.87934845 -0.10832878 15.04782877 1.56604947 20.9375 6.125 C21.60652344 6.64191406 22.27554688 7.15882813 22.96484375 7.69140625 C24.8125 9.25 24.8125 9.25 27.5 12.0625 C30.01534597 14.44188132 31.41327655 14.95863799 34.8125 15.25 C34.8125 14.59 34.8125 13.93 34.8125 13.25 C39.81449488 11.25237288 44.08131919 10.94452038 49.375 11 C50.11685547 10.99226562 50.85871094 10.98453125 51.62304688 10.9765625 C55.80303418 10.99145115 58.99459028 11.34482525 62.8125 13.25 C62.8125 13.91 62.8125 14.57 62.8125 15.25 C63.8025 14.92 64.7925 14.59 65.8125 14.25 C67.75 15.5 67.75 15.5 69.8125 17.25 C70.534375 17.765625 71.25625 18.28125 72 18.8125 C73.8125 20.25 73.8125 20.25 74.8125 22.25 C75.8025 22.58 76.7925 22.91 77.8125 23.25 C79.8125 26.25 79.8125 26.25 79.8125 29.25 C80.740625 29.5284375 80.740625 29.5284375 81.6875 29.8125 C84.86852866 31.96437233 85.00701947 34.62533763 85.8125 38.25 C86.1425 38.25 86.4725 38.25 86.8125 38.25 C86.93625 39.36375 87.06 40.4775 87.1875 41.625 C87.4590813 45.28103677 87.4590813 45.28103677 89.8125 47.25 C91.79606483 47.96408334 93.79565437 48.63617742 95.8125 49.25 C95.8125 49.91 95.8125 50.57 95.8125 51.25 C96.8025 51.58 97.7925 51.91 98.8125 52.25 C98.8125 52.91 98.8125 53.57 98.8125 54.25 C99.8025 54.25 100.7925 54.25 101.8125 54.25 C103.19921875 55.640625 103.19921875 55.640625 104.5 57.5 C104.93699219 58.10328125 105.37398437 58.7065625 105.82421875 59.328125 C106.8125 61.25 106.8125 61.25 106.8125 65.25 C107.4725 65.58 108.1325 65.91 108.8125 66.25 C113.05098134 77.22018699 113.53620022 90.51007553 108.8671875 101.46875 C107.8125 103.25 107.8125 103.25 105.8125 104.25 C105.544375 105.1575 105.27625 106.065 105 107 C103.60489747 110.81817535 101.80464387 112.5497726 98.8125 115.25 C98.27625 115.806875 97.74 116.36375 97.1875 116.9375 C94.69355207 119.31808666 93.29019759 120.25 89.8125 120.25 C89.4825 122.89 89.1525 125.53 88.8125 128.25 C88.1525 128.25 87.4925 128.25 86.8125 128.25 C86.668125 128.848125 86.52375 129.44625 86.375 130.0625 C85.58356684 133.14029562 85.09707274 134.96542726 82.8125 137.25 C82.090625 138.013125 81.36875 138.77625 80.625 139.5625 C74.94550712 144.98957098 69.87009119 148.59414955 61.8125 149.25 C60.8225 148.92 59.8325 148.59 58.8125 148.25 C58.60774942 153.47113967 58.66101554 157.40915997 60.8125 162.25 C60.9375 165.0625 60.9375 165.0625 60.8125 167.25 C61.4725 167.25 62.1325 167.25 62.8125 167.25 C62.99085515 171.79805635 62.81035435 175.1294254 60.8125 179.25 C60.1525 179.25 59.4925 179.25 58.8125 179.25 C58.8125 179.91 58.8125 180.57 58.8125 181.25 C58.1525 181.25 57.4925 181.25 56.8125 181.25 C56.8125 181.91 56.8125 182.57 56.8125 183.25 C54.6953125 184.72265625 54.6953125 184.72265625 51.9375 186.3125 C51.03257812 186.83972656 50.12765625 187.36695313 49.1953125 187.91015625 C44.40207268 190.60537143 41.17489053 190.45607399 35.8125 189.25 C32.37488428 187.12891796 30.03689161 185.1457915 28.8125 181.25 C28.85375 180.280625 28.895 179.31125 28.9375 178.3125 C29.16998979 171.61388781 26.25268093 164.62177494 23.65625 158.54296875 C22.8125 156.25 22.8125 156.25 23.1875 153.1875 C25.21479036 149.52278282 27.04106844 148.8687918 30.77734375 147.26171875 C33.68373428 145.81689121 35.60421615 143.5881829 37.8125 141.25 C38.4725 141.25 39.1325 141.25 39.8125 141.25 C40.1425 140.59 40.4725 139.93 40.8125 139.25 C42.50520833 140.25911458 44.19791667 141.26822917 45.890625 142.27734375 C52.05463336 145.39693335 59.41674305 145.15384576 65.953125 143.4140625 C74.41405053 140.24653008 79.07760791 135.87102457 83.625 128.1875 C84.9471787 125.21125204 84.9471787 125.21125204 85.4375 121.6875 C86.99457394 117.79481515 87.43234221 117.65190747 91 115.9375 C98.59455309 112.17685313 102.25576712 105.31996912 105.25 97.625 C108.56461085 86.47585441 108.10925284 74.68245576 102.8125 64.25 C101.56483465 62.1635326 100.23198865 60.22714491 98.8125 58.25 C98.8125 57.59 98.8125 56.93 98.8125 56.25 C98.296875 56.0025 97.78125 55.755 97.25 55.5 C94.62843523 54.15560781 92.11682796 52.67192479 89.59375 51.15234375 C87.6889345 50.18740432 85.89538479 49.69306979 83.8125 49.25 C83.64234375 48.4765625 83.4721875 47.703125 83.296875 46.90625 C80.94455084 36.79626104 78.2296575 28.79845271 69.8125 22.25 C66.58011785 20.31364429 63.27485365 18.72973712 59.8125 17.25 C58.8225 16.816875 57.8325 16.38375 56.8125 15.9375 C46.87674626 13.66055644 37.9598776 16.28613638 28.8125 20.25 C28.173125 19.21875 27.53375 18.1875 26.875 17.125 C21.22111974 9.3014234 13.10475085 5.87812942 3.8125 4.25 C-5.7319842 2.73086184 -14.58827272 6.40969229 -22.42578125 11.78515625 C-28.33937854 17.12181722 -32.59319097 25.48237809 -34.1875 33.25 C-34.86554687 33.25257812 -35.54359375 33.25515625 -36.2421875 33.2578125 C-44.71547358 33.6098881 -51.08691751 35.97639715 -57.0390625 42.1796875 C-62.55053172 49.15726184 -64.69588706 55.40618548 -64.5625 64.1875 C-64.57410156 64.94740234 -64.58570313 65.70730469 -64.59765625 66.49023438 C-64.56911704 72.06013762 -63.25299231 76.09719776 -61.1875 81.25 C-61.1875 85.81471441 -61.88649088 86.61888192 -64.5625 90.125 C-70.35549835 97.7298003 -71.06091045 104.90127332 -70.1875 114.25 C-67.79524635 124.32332752 -63.39371197 131.51547314 -54.5703125 136.9609375 C-45.20376089 142.02808837 -36.24226863 142.5110737 -26 139.75 C-24.39151258 139.26407932 -22.78552902 138.76928216 -21.1875 138.25 C-20.2284375 139.5803125 -20.2284375 139.5803125 -19.25 140.9375 C-13.5663295 147.68785376 -4.74274302 151.00953899 3.8125 152.25 C10.14432765 152.57416849 16.47814025 152.42723079 22.8125 152.25 C22.4825 153.57 22.1525 154.89 21.8125 156.25 C19.8325 156.58 17.8525 156.91 15.8125 157.25 C16.00714844 157.82878906 16.20179687 158.40757812 16.40234375 159.00390625 C16.88726484 161.65942653 16.46045238 162.75126244 15.375 165.1875 C14.0562113 168.40391226 13.61773527 170.74423481 13.8125 174.25 C13.52205086 175.59332728 13.20294206 176.93225804 12.8125 178.25 C12.1525 178.25 11.4925 178.25 10.8125 178.25 C10.626875 179.3946875 10.626875 179.3946875 10.4375 180.5625 C9.8125 183.25 9.8125 183.25 7.8125 186.25 C5.2734375 186.76171875 5.2734375 186.76171875 2.1875 186.9375 C0.57681641 187.03224609 0.57681641 187.03224609 -1.06640625 187.12890625 C-11.35341928 187.52802691 -11.35341928 187.52802691 -15.1875 186.25 C-15.1875 185.59 -15.1875 184.93 -15.1875 184.25 C-15.88875 184.353125 -16.59 184.45625 -17.3125 184.5625 C-20.53083847 184.2126806 -22.5293795 183.32320534 -24.94140625 181.13671875 C-27.67999148 176.99020882 -27.68961358 172.0624652 -27.1875 167.25 C-25.25795282 162.91905131 -21.41669819 160.20193763 -17.1875 158.25 C-15.8675 158.25 -14.5475 158.25 -13.1875 158.25 C-13.1875 155.94 -13.1875 153.63 -13.1875 151.25 C-13.8475 150.92 -14.5075 150.59 -15.1875 150.25 C-15.1875 149.59 -15.1875 148.93 -15.1875 148.25 C-15.785625 148.1675 -16.38375 148.085 -17 148 C-19.7841296 147.04544128 -20.62061142 145.67867729 -22.1875 143.25 C-23.26 143.559375 -24.3325 143.86875 -25.4375 144.1875 C-36.78196616 147.40176541 -44.6438255 146.88924244 -55.1875 141.25 C-55.91066406 140.90710938 -56.63382813 140.56421875 -57.37890625 140.2109375 C-59.76399768 138.9436967 -60.98110996 137.66278007 -62.1875 135.25 C-62.8475 135.25 -63.5075 135.25 -64.1875 135.25 C-65.4765625 133.7890625 -65.4765625 133.7890625 -66.8125 131.875 C-67.25851563 131.24851563 -67.70453125 130.62203125 -68.1640625 129.9765625 C-69.1875 128.25 -69.1875 128.25 -69.1875 126.25 C-69.8475 125.92 -70.5075 125.59 -71.1875 125.25 C-75.64029494 117.91598481 -75.03537206 107.557535 -74.1875 99.25 C-73.19862141 95.80835705 -71.99912623 93.36373259 -70.1875 90.25 C-69.5275 90.25 -68.8675 90.25 -68.1875 90.25 C-68.1875 88.93 -68.1875 87.61 -68.1875 86.25 C-67.1975 85.26 -67.1975 85.26 -66.1875 84.25 C-66.48846799 80.11169011 -66.86648016 77.73152976 -69.1875 74.25 C-69.1640625 71.76953125 -69.1640625 71.76953125 -68.8125 69.0625 C-68.70164062 68.16144531 -68.59078125 67.26039062 -68.4765625 66.33203125 C-68.33347656 65.30142578 -68.33347656 65.30142578 -68.1875 64.25 C-68.8475 64.25 -69.5075 64.25 -70.1875 64.25 C-70.1875 63.59 -70.1875 62.93 -70.1875 62.25 C-69.5275 62.25 -68.8675 62.25 -68.1875 62.25 C-68.496875 60.6721875 -68.496875 60.6721875 -68.8125 59.0625 C-69.18713104 55.25375113 -68.90380067 53.58164248 -67.1875 50.25 C-66.5275 50.25 -65.8675 50.25 -65.1875 50.25 C-65.6825 48.765 -65.6825 48.765 -66.1875 47.25 C-64.9375 45.3125 -64.9375 45.3125 -63.1875 43.25 C-62.4140625 42.13625 -62.4140625 42.13625 -61.625 41 C-61.150625 40.4225 -60.67625 39.845 -60.1875 39.25 C-59.5275 39.25 -58.8675 39.25 -58.1875 39.25 C-57.8575 38.26 -57.5275 37.27 -57.1875 36.25 C-56.5275 36.25 -55.8675 36.25 -55.1875 36.25 C-55.1875 35.59 -55.1875 34.93 -55.1875 34.25 C-53.82625 33.6621875 -53.82625 33.6621875 -52.4375 33.0625 C-51.81101562 32.79050781 -51.18453125 32.51851562 -50.5390625 32.23828125 C-48.73263075 31.4790998 -46.912007 30.75361796 -45.0859375 30.04296875 C-44.00570312 29.61628906 -42.92546875 29.18960937 -41.8125 28.75 C-40.77351563 28.3478125 -39.73453125 27.945625 -38.6640625 27.53125 C-35.86634857 26.44870145 -35.86634857 26.44870145 -35.1875 23.25 C-33.46428245 18.73681118 -31.99621609 15.32154524 -28.1875 12.25 C-27.5275 12.25 -26.8675 12.25 -26.1875 12.25 C-25.8575 11.26 -25.5275 10.27 -25.1875 9.25 C-24.5275 9.25 -23.8675 9.25 -23.1875 9.25 C-22.8575 8.26 -22.5275 7.27 -22.1875 6.25 C-21.5275 6.25 -20.8675 6.25 -20.1875 6.25 C-19.5275 5.59 -18.8675 4.93 -18.1875 4.25 C-17.176875 4.085 -16.16625 3.92 -15.125 3.75 C-13.6709375 3.5025 -13.6709375 3.5025 -12.1875 3.25 C-11.8575 2.59 -11.5275 1.93 -11.1875 1.25 C-7.72008641 -0.48370679 -3.82052982 0.02296336 0 0 Z " fill="#5C5A68" transform="translate(81.1875,0.75)"/>
<path d="M0 0 C0.56847656 0.20496094 1.13695313 0.40992188 1.72265625 0.62109375 C6.5084454 2.29092669 10.95943201 3.46376936 16 4 C15.95875 5.134375 15.9175 6.26875 15.875 7.4375 C15.875 12.16876363 16.84288926 16.43496038 18 21 C18.25136719 22.1446875 18.25136719 22.1446875 18.5078125 23.3125 C18.93805565 25.2246918 19.46154753 27.11541634 20 29 C20.66 29.33 21.32 29.66 22 30 C21.34 31.32 20.68 32.64 20 34 C20 33.34 20 32.68 20 32 C19.278125 32.7425 18.55625 33.485 17.8125 34.25 C12.55201961 39.39358083 9.45913028 42.14267194 2.0625 42.1875 C0.47115234 42.20876953 0.47115234 42.20876953 -1.15234375 42.23046875 C-4 42 -4 42 -7 40 C-7.37109375 37.53125 -7.37109375 37.53125 -7.4375 34.5 C-7.74203737 29.18962967 -8.86066182 25.2285333 -11.01171875 20.40234375 C-12.53918688 16.68932835 -13.23848427 12.93449794 -14 9 C-13.32453125 8.68546875 -12.6490625 8.3709375 -11.953125 8.046875 C-5.32416431 4.93666114 -5.32416431 4.93666114 0 0 Z " fill="#8BD3F6" transform="translate(121,144)"/>
<path d="M0 0 C1.794375 0.4640625 1.794375 0.4640625 3.625 0.9375 C10.00819185 2.37754808 16.48230791 2.64769232 23 3 C17.47046502 29.01968999 17.47046502 29.01968999 13 32 C4.07349897 33.04618049 -4.25852783 31.70941267 -12.0625 27.25 C-14.75558746 24.12254359 -15.07076644 22.10445377 -15 18 C-13.009794 14.16701066 -10.8614957 11.04432125 -7 9 C-3.75 8.8125 -3.75 8.8125 -1 9 C-0.67 6.03 -0.34 3.06 0 0 Z " fill="#80C8F6" transform="translate(72,153)"/>
<path d="M0 0 C0.99 0.495 0.99 0.495 2 1 C2.38063221 3.3260857 2.71269945 5.66055264 3 8 C3.495 8.99 3.495 8.99 4 10 C3.73046875 12.2421875 3.73046875 12.2421875 3.1875 14.875 C3.01605469 15.73867187 2.84460938 16.60234375 2.66796875 17.4921875 C2.02403788 19.90975251 1.29049123 21.86037514 0 24 C-0.66 24.33 -1.32 24.66 -2 25 C-2.4021875 26.36125 -2.4021875 26.36125 -2.8125 27.75 C-4.20760253 31.56817535 -6.00785613 33.2997726 -9 36 C-9.53625 36.556875 -10.0725 37.11375 -10.625 37.6875 C-13.11894793 40.06808666 -14.52230241 41 -18 41 C-18.33 43.64 -18.66 46.28 -19 49 C-19.66 49 -20.32 49 -21 49 C-21.144375 49.598125 -21.28875 50.19625 -21.4375 50.8125 C-22.22893316 53.89029562 -22.71542726 55.71542726 -25 58 C-25.721875 58.763125 -26.44375 59.52625 -27.1875 60.3125 C-32.86699288 65.73957098 -37.94240881 69.34414955 -46 70 C-46.99 69.67 -47.98 69.34 -49 69 C-49.20475058 74.22113967 -49.15148446 78.15915997 -47 83 C-46.875 85.8125 -46.875 85.8125 -47 88 C-46.34 88 -45.68 88 -45 88 C-45 90.31 -45 92.62 -45 95 C-46.32 94.67 -47.64 94.34 -49 94 C-49.47561544 91.8597305 -49.95053782 89.71934247 -50.421875 87.578125 C-50.79395955 85.91882902 -51.17841412 84.26223352 -51.578125 82.609375 C-54.07056452 72.14112903 -54.07056452 72.14112903 -52 68 C-52.969375 68.061875 -53.93875 68.12375 -54.9375 68.1875 C-58.25236554 68.24777028 -60.4791547 67.44629597 -63.5 66.125 C-65.73644099 65.19959636 -65.73644099 65.19959636 -68 65 C-70.22611879 66.19396941 -71.67788465 67.54291314 -73.39453125 69.38671875 C-75.16501246 71.16581544 -76.67512904 72.07279213 -79 73 C-79.99 73 -80.98 73 -82 73 C-81.02241999 75.79223159 -80.04301077 78.58379772 -79.0625 81.375 C-78.78470703 82.1690625 -78.50691406 82.963125 -78.22070312 83.78125 C-77.95322266 84.54179687 -77.68574219 85.30234375 -77.41015625 86.0859375 C-77.16402588 86.7876709 -76.91789551 87.4894043 -76.66430664 88.21240234 C-76.01232236 90.06505095 -76.01232236 90.06505095 -75 92 C-74.72488371 95.11361767 -74.55331352 98.22687938 -74.37890625 101.34765625 C-74.25386719 102.22292969 -74.12882812 103.09820312 -74 104 C-69.81634937 106.09182531 -64.55592381 105.42935408 -60 105 C-55.43069409 102.79694179 -53.07202485 99.94974624 -50 96 C-49.34 96 -48.68 96 -48 96 C-47.67 97.32 -47.34 98.64 -47 100 C-47.66 100 -48.32 100 -49 100 C-49 100.66 -49 101.32 -49 102 C-49.66 102 -50.32 102 -51 102 C-51 102.66 -51 103.32 -51 104 C-53.1171875 105.47265625 -53.1171875 105.47265625 -55.875 107.0625 C-56.77992188 107.58972656 -57.68484375 108.11695313 -58.6171875 108.66015625 C-63.41042732 111.35537143 -66.63760947 111.20607399 -72 110 C-75.43761572 107.87891796 -77.77560839 105.8957915 -79 102 C-78.95875 101.030625 -78.9175 100.06125 -78.875 99.0625 C-78.64251021 92.36388781 -81.55981907 85.37177494 -84.15625 79.29296875 C-85 77 -85 77 -84.625 73.9375 C-82.59770964 70.27278282 -80.77143156 69.6187918 -77.03515625 68.01171875 C-74.12876572 66.56689121 -72.20828385 64.3381829 -70 62 C-69.34 62 -68.68 62 -68 62 C-67.67 61.34 -67.34 60.68 -67 60 C-65.30729167 61.00911458 -63.61458333 62.01822917 -61.921875 63.02734375 C-55.75786664 66.14693335 -48.39575695 65.90384576 -41.859375 64.1640625 C-33.39844947 60.99653008 -28.73489209 56.62102457 -24.1875 48.9375 C-22.8653213 45.96125204 -22.8653213 45.96125204 -22.375 42.4375 C-20.81792606 38.54481515 -20.38015779 38.40190747 -16.8125 36.6875 C-9.1139218 32.8753423 -5.49624056 25.97717401 -2.625 18.125 C-0.80673769 12.14182915 -0.22093196 6.23028114 0 0 Z " fill="#517AAB" transform="translate(189,80)"/>
<path d="M0 0 C0.99 0.495 0.99 0.495 2 1 C2.67338808 3.16719222 3.2637383 5.36044773 3.8125 7.5625 C6.84515748 18.61485169 12.00097971 26.02467234 21.97265625 31.9296875 C31.33694836 36.87345636 41.21936296 35.60505958 50.98046875 32.65625 C51.64691406 32.4396875 52.31335937 32.223125 53 32 C53.639375 32.886875 54.27875 33.77375 54.9375 34.6875 C60.6211705 41.43785376 69.44475698 44.75953899 78 46 C84.33182765 46.32416849 90.66564025 46.17723079 97 46 C96.67 47.32 96.34 48.64 96 50 C94.02 50.33 92.04 50.66 90 51 C90.19464844 51.57878906 90.38929687 52.15757812 90.58984375 52.75390625 C91.07476484 55.40942653 90.64795238 56.50126244 89.5625 58.9375 C88.2437113 62.15391226 87.80523527 64.49423481 88 68 C87.70955086 69.34332728 87.39044206 70.68225804 87 72 C86.34 72 85.68 72 85 72 C84.814375 73.1446875 84.814375 73.1446875 84.625 74.3125 C84 77 84 77 82 80 C79.4609375 80.51171875 79.4609375 80.51171875 76.375 80.6875 C75.30121094 80.75066406 74.22742188 80.81382812 73.12109375 80.87890625 C62.83408072 81.27802691 62.83408072 81.27802691 59 80 C59 79.34 59 78.68 59 78 C58.29875 78.103125 57.5975 78.20625 56.875 78.3125 C53.65666153 77.9626806 51.6581205 77.07320534 49.24609375 74.88671875 C46.50750852 70.74020882 46.49788642 65.8124652 47 61 C48.92954718 56.66905131 52.77080181 53.95193763 57 52 C58.32 52 59.64 52 61 52 C61 49.69 61 47.38 61 45 C60.01 44.505 60.01 44.505 59 44 C59 43.34 59 42.68 59 42 C58.401875 41.9175 57.80375 41.835 57.1875 41.75 C54.4033704 40.79544128 53.56688858 39.42867729 52 37 C50.9275 37.309375 49.855 37.61875 48.75 37.9375 C37.40553384 41.15176541 29.5436745 40.63924244 19 35 C18.27683594 34.65710938 17.55367187 34.31421875 16.80859375 33.9609375 C14.42350232 32.6936967 13.20639004 31.41278007 12 29 C11.34 29 10.68 29 10 29 C8.7109375 27.5390625 8.7109375 27.5390625 7.375 25.625 C6.92898437 24.99851563 6.48296875 24.37203125 6.0234375 23.7265625 C5 22 5 22 5 20 C4.34 19.67 3.68 19.34 3 19 C-0.59664554 13.07611323 -0.1169666 6.69308871 0 0 Z M65 46 C64.67 48.97 64.34 51.94 64 55 C63.13375 54.896875 62.2675 54.79375 61.375 54.6875 C56.86137358 55.10542837 55.16041392 56.83958608 52 60 C49.95150149 62.67195458 49.99991759 64.0045324 49.9375 67.4375 C51.18622399 71.62439807 52.37439749 72.77366769 55.9921875 75 C62.736987 78.35927757 70.58250923 78.98546663 78 78 C80.73440159 76.43619133 81.8241878 75.43948778 83.00488281 72.48803711 C83.23530273 71.5110083 83.46572266 70.53397949 83.703125 69.52734375 C83.9609375 68.46322266 84.21875 67.39910156 84.484375 66.30273438 C84.86335938 64.63694336 84.86335938 64.63694336 85.25 62.9375 C85.518125 61.82310547 85.78625 60.70871094 86.0625 59.56054688 C87.44598608 54.33616089 87.44598608 54.33616089 88 49 C87.09378906 48.95101562 86.18757813 48.90203125 85.25390625 48.8515625 C78.29098709 48.42420873 71.75578571 47.74718596 65 46 Z " fill="#5F80AF" transform="translate(7,107)"/>
<path d="M0 0 C4.2664206 4.41353855 4.33565062 9.2195972 4.2890625 15.06640625 C3.85431273 19.47852887 2.4350587 23.29447589 0 27 C-3 29 -3 29 -5.5 28.875 C-8.53699432 27.81205199 -9.38765207 26.74099148 -11 24 C-12.96453005 18.10640985 -13.17209822 10.47185491 -11.17578125 4.55859375 C-8.11380584 -0.89377138 -5.91489306 -1.56925734 0 0 Z " fill="#485474" transform="translate(124,76)"/>
<path d="M0 0 C2.57244338 0.9894013 3.76897699 1.76842009 5.4375 3.9375 C7.55055981 10.27667943 7.65779546 18.92844524 5.125 25.1875 C3.4375 27.9375 3.4375 27.9375 0.4375 29.9375 C-2.72007545 29.77962123 -4.09847153 29.41810091 -6.3125 27.125 C-9.77605133 21.06378518 -9.09570588 13.69239704 -7.8125 7.0625 C-6.16482558 2.94331395 -4.79634506 -0.11698403 0 0 Z " fill="#3D4C6C" transform="translate(68.5625,75.0625)"/>
<path d="M0 0 C0.495 1.98 0.495 1.98 1 4 C0.32195313 4.00257812 -0.35609375 4.00515625 -1.0546875 4.0078125 C-9.52797358 4.3598881 -15.89941751 6.72639715 -21.8515625 12.9296875 C-27.36303172 19.90726184 -29.50838706 26.15618548 -29.375 34.9375 C-29.38660156 35.69740234 -29.39820313 36.45730469 -29.41015625 37.24023438 C-29.38161704 42.81013762 -28.06549231 46.84719776 -26 52 C-26 56.56471441 -26.69899088 57.36888192 -29.375 60.875 C-34.59719069 68.10815524 -35.40817625 74.24723817 -36 83 C-36.33 83 -36.66 83 -37 83 C-38.94327249 74.50474797 -39.73925726 68.57889487 -35 61 C-34.34 61 -33.68 61 -33 61 C-33 59.68 -33 58.36 -33 57 C-32.34 56.34 -31.68 55.68 -31 55 C-31.30096799 50.86169011 -31.67898016 48.48152976 -34 45 C-33.9765625 42.51953125 -33.9765625 42.51953125 -33.625 39.8125 C-33.45871094 38.46091797 -33.45871094 38.46091797 -33.2890625 37.08203125 C-33.14597656 36.05142578 -33.14597656 36.05142578 -33 35 C-33.66 35 -34.32 35 -35 35 C-35 34.34 -35 33.68 -35 33 C-34.34 33 -33.68 33 -33 33 C-33.20625 31.948125 -33.4125 30.89625 -33.625 29.8125 C-33.99963104 26.00375113 -33.71630067 24.33164248 -32 21 C-31.34 21 -30.68 21 -30 21 C-30.33 20.01 -30.66 19.02 -31 18 C-29.75 16.0625 -29.75 16.0625 -28 14 C-27.2265625 12.88625 -27.2265625 12.88625 -26.4375 11.75 C-25.963125 11.1725 -25.48875 10.595 -25 10 C-24.34 10 -23.68 10 -23 10 C-22.67 9.01 -22.34 8.02 -22 7 C-21.34 7 -20.68 7 -20 7 C-20 6.34 -20 5.68 -20 5 C-14.67258228 2.64364216 -10.0735041 1.03697836 -4.25 0.4375 C-3.05117187 0.31181641 -3.05117187 0.31181641 -1.828125 0.18359375 C-1.22484375 0.12300781 -0.6215625 0.06242187 0 0 Z " fill="#565872" transform="translate(46,30)"/>
<path d="M0 0 C0.99 0.495 0.99 0.495 2 1 C2.67338808 3.16719222 3.2637383 5.36044773 3.8125 7.5625 C6.84515748 18.61485169 12.00097971 26.02467234 21.97265625 31.9296875 C31.33694836 36.87345636 41.21936296 35.60505958 50.98046875 32.65625 C51.64691406 32.4396875 52.31335937 32.223125 53 32 C53.639375 32.886875 54.27875 33.77375 54.9375 34.6875 C58.22077841 38.68247171 62.42354703 40.74667022 67 43 C63.28125 45.046875 63.28125 45.046875 60.75 44.625 C60.1725 44.41875 59.595 44.2125 59 44 C59 43.34 59 42.68 59 42 C58.401875 41.9175 57.80375 41.835 57.1875 41.75 C54.4033704 40.79544128 53.56688858 39.42867729 52 37 C50.9275 37.309375 49.855 37.61875 48.75 37.9375 C37.40553384 41.15176541 29.5436745 40.63924244 19 35 C18.27683594 34.65710938 17.55367187 34.31421875 16.80859375 33.9609375 C14.42350232 32.6936967 13.20639004 31.41278007 12 29 C11.34 29 10.68 29 10 29 C8.7109375 27.5390625 8.7109375 27.5390625 7.375 25.625 C6.92898437 24.99851563 6.48296875 24.37203125 6.0234375 23.7265625 C5 22 5 22 5 20 C4.34 19.67 3.68 19.34 3 19 C-0.59664554 13.07611323 -0.1169666 6.69308871 0 0 Z " fill="#6E93BC" transform="translate(7,107)"/>
<path d="M0 0 C0.56847656 0.20496094 1.13695313 0.40992188 1.72265625 0.62109375 C6.5084454 2.29092669 10.95943201 3.46376936 16 4 C15.67 4.66 15.34 5.32 15 6 C14.77532169 7.53668865 14.59203195 9.07968054 14.4375 10.625 C14.35371094 11.44226563 14.26992187 12.25953125 14.18359375 13.1015625 C14.09271484 14.04128906 14.09271484 14.04128906 14 15 C13.45472656 14.7834375 12.90945312 14.566875 12.34765625 14.34375 C7.00095079 12.36958183 1.70756109 10.7418202 -4 12 C-6.36876426 14.25032605 -7.55847389 16.11694778 -9 19 C-9.99 18.67 -10.98 18.34 -12 18 C-12.73046875 15.93359375 -12.73046875 15.93359375 -13.1875 13.4375 C-13.34605469 12.61121094 -13.50460938 11.78492188 -13.66796875 10.93359375 C-13.77753906 10.29550781 -13.88710937 9.65742188 -14 9 C-13.32453125 8.68546875 -12.6490625 8.3709375 -11.953125 8.046875 C-5.32416431 4.93666114 -5.32416431 4.93666114 0 0 Z " fill="#6FB5EF" transform="translate(121,144)"/>
<path d="M0 0 C2.475 0.495 2.475 0.495 5 1 C5.19335938 1.60328125 5.38671875 2.2065625 5.5859375 2.828125 C5.84632813 3.62734375 6.10671875 4.4265625 6.375 5.25 C6.63023437 6.03890625 6.88546875 6.8278125 7.1484375 7.640625 C7.96546248 9.9043089 8.73990463 11.94784468 10 14 C13.04199472 15.29231642 13.04199472 15.29231642 16 16 C16 16.66 16 17.32 16 18 C16.99 18.33 17.98 18.66 19 19 C19 19.66 19 20.32 19 21 C19.99 21 20.98 21 22 21 C23.38671875 22.390625 23.38671875 22.390625 24.6875 24.25 C25.12449219 24.85328125 25.56148437 25.4565625 26.01171875 26.078125 C27 28 27 28 27 32 C27.66 32.33 28.32 32.66 29 33 C31.17490835 38.62917455 32.13501983 43.79335416 32.0625 49.8125 C32.05347656 50.78832031 32.04445312 51.76414063 32.03515625 52.76953125 C32.02355469 53.50558594 32.01195312 54.24164063 32 55 C31.34 54.67 30.68 54.34 30 54 C29.76086463 52.3602146 29.52832695 50.71921147 29.328125 49.07421875 C28.16085762 41.69542139 24.71346664 35.16473427 21.3046875 28.6015625 C20 26 20 26 19 23 C17.28480253 21.97348627 17.28480253 21.97348627 15 21 C13.25074542 19.98299153 11.51456005 18.94626912 9.78125 17.90234375 C7.8764345 16.93740432 6.08288479 16.44306979 4 16 C2.66666667 10.66666667 1.33333333 5.33333333 0 0 Z " fill="#50586E" transform="translate(161,34)"/>
<path d="M0 0 C4.81480532 1.25247367 9.43543374 1.21988933 14.3828125 1.12109375 C15.25292969 1.11207031 16.12304688 1.10304687 17.01953125 1.09375 C19.1407467 1.07043994 21.26181812 1.03457954 23.3828125 0.99609375 C23.0528125 2.31609375 22.7228125 3.63609375 22.3828125 4.99609375 C20.4028125 5.32609375 18.4228125 5.65609375 16.3828125 5.99609375 C16.67478516 6.86427734 16.67478516 6.86427734 16.97265625 7.75 C17.45757734 10.40552028 17.03076488 11.49735619 15.9453125 13.93359375 C14.6265238 17.15000601 14.18804777 19.49032856 14.3828125 22.99609375 C14.09236336 24.33942103 13.77325456 25.67835179 13.3828125 26.99609375 C12.3928125 26.99609375 11.4028125 26.99609375 10.3828125 26.99609375 C9.93517979 19.38633773 10.93921558 10.88328758 14.3828125 3.99609375 C13.47660156 4.03089844 12.57039063 4.06570312 11.63671875 4.1015625 C4.14071037 4.26814046 -1.67626847 3.86819818 -8.6171875 0.99609375 C-8.7409375 1.80046875 -8.8646875 2.60484375 -8.9921875 3.43359375 C-9.1984375 4.27921875 -9.4046875 5.12484375 -9.6171875 5.99609375 C-10.6071875 6.49109375 -10.6071875 6.49109375 -11.6171875 6.99609375 C-11.9471875 4.68609375 -12.2771875 2.37609375 -12.6171875 -0.00390625 C-8.5408487 -2.04207565 -4.24801921 -1.17898589 0 0 Z " fill="#4B73A6" transform="translate(80.6171875,152.00390625)"/>
<path d="M0 0 C2 0 2 0 4.5 2.0625 C10.18304005 8.74007206 9.66059818 17.66711334 9.19091797 26.01806641 C8.25224036 35.76254823 3.36589648 45.12803541 -3.8671875 51.6953125 C-6.80137455 53.89910106 -9.4376572 55.24717374 -13 56 C-13 54.68 -13 53.36 -13 52 C-12.46375 51.938125 -11.9275 51.87625 -11.375 51.8125 C-4.7562554 49.54819264 -1.09671831 43.93537676 2 38 C3.74707911 33.71965618 4.45008217 29.58264858 5 25 C5.66 25 6.32 25 7 25 C5.05887987 12.4992315 5.05887987 12.4992315 0 1 C0 0.67 0 0.34 0 0 Z " fill="#B2E0F6" transform="translate(180,64)"/>
<path d="M0 0 C0.33 0 0.66 0 1 0 C1.88090518 5.57906617 -0.31677655 9.06607968 -3.23828125 13.6015625 C-8.06765582 20.17636512 -14.09364309 23.96002161 -22 26 C-28.98860555 26.86627562 -34.6902865 26.09950839 -41 23 C-42.36773203 21.70197663 -43.70846102 20.37385684 -45 19 C-44.08476563 19.22816406 -43.16953125 19.45632812 -42.2265625 19.69140625 C-40.44378906 20.12259766 -40.44378906 20.12259766 -38.625 20.5625 C-37.44164062 20.85253906 -36.25828125 21.14257812 -35.0390625 21.44140625 C-32.09408801 22.29768428 -32.09408801 22.29768428 -30 21 C-30 21.66 -30 22.32 -30 23 C-28.24871182 22.71617054 -26.49899997 22.42260471 -24.75 22.125 C-23.77546875 21.96257812 -22.8009375 21.80015625 -21.796875 21.6328125 C-19.01904424 21.12397913 -19.01904424 21.12397913 -16.765625 19.8671875 C-16.18296875 19.58101562 -15.6003125 19.29484375 -15 19 C-14.34 19.33 -13.68 19.66 -13 20 C-12.95875 19.2575 -12.9175 18.515 -12.875 17.75 C-11.65153054 13.90481027 -9.36897018 13.03541948 -6 11 C-5.67 10.34 -5.34 9.68 -5 9 C-4.34 9 -3.68 9 -3 9 C-2.01 6.03 -1.02 3.06 0 0 Z " fill="#AAD9F5" transform="translate(166,120)"/>
<path d="M0 0 C0.33 0.66 0.66 1.32 1 2 C4.25112225 2.77407673 7.03271901 2.99818228 10.375 2.8125 C14.90780707 3.04695554 18.26791101 4.43472504 22 7 C22.99 8.485 22.99 8.485 24 10 C21.13412766 12.86587234 18.54200265 12.71137208 14.60546875 13.03515625 C10.66961482 12.98204878 8.4316239 11.92170938 5 10 C4.21625 9.5875 3.4325 9.175 2.625 8.75 C0.18509111 6.12240581 0.26255192 3.4788129 0 0 Z " fill="#7AC2F6" transform="translate(57,171)"/>
<path d="M0 0 C2.16025414 2.08355873 4.02025133 4.2689679 5.875 6.625 C7.95947921 9.10031906 8.71858747 9.90823504 11.875 10.9375 C12.926875 10.9684375 12.926875 10.9684375 14 11 C14.33 12.32 14.66 13.64 15 15 C16.051875 15.144375 17.10375 15.28875 18.1875 15.4375 C22 16 22 16 24.3515625 16.59765625 C27.54695962 17.08309269 30.02469809 16.62863144 33.1875 16 C38.78956676 14.89478338 38.78956676 14.89478338 41 16 C41 14.02 41 12.04 41 10 C41.66 10.33 42.32 10.66 43 11 C43.625 13.5625 43.625 13.5625 44 16 C34.66158913 20.13045096 26.32526436 21.73583038 16.3125 18.375 C8.07174946 15.02462353 2.76661689 10.44783889 -2 3 C-1.34 2.01 -0.68 1.02 0 0 Z " fill="#AFDEF3" transform="translate(16,123)"/>
<path d="M0 0 C1.20462891 -0.01836914 1.20462891 -0.01836914 2.43359375 -0.03710938 C6.78725649 -0.04786801 10.1599899 0.15683693 14.125 2.1875 C14.125 2.8475 14.125 3.5075 14.125 4.1875 C15.115 3.8575 16.105 3.5275 17.125 3.1875 C19.0625 4.4375 19.0625 4.4375 21.125 6.1875 C21.846875 6.703125 22.56875 7.21875 23.3125 7.75 C25.125 9.1875 25.125 9.1875 26.125 11.1875 C27.115 11.5175 28.105 11.8475 29.125 12.1875 C31.125 15.1875 31.125 15.1875 31.125 18.1875 C32.445 18.8475 33.765 19.5075 35.125 20.1875 C34.465 21.5075 33.805 22.8275 33.125 24.1875 C33.125 23.5275 33.125 22.8675 33.125 22.1875 C32.53203125 21.93613281 31.9390625 21.68476562 31.328125 21.42578125 C28.8470108 20.0312543 27.62882397 18.6013348 25.875 16.375 C20.06965565 9.55680834 12.22402696 4.86639791 3.1796875 4.00146484 C0.26871644 3.80365113 -2.63795221 3.64514333 -5.5546875 3.56542969 C-7.33156679 3.50500898 -9.10490471 3.35397325 -10.875 3.1875 C-11.205 2.5275 -11.535 1.8675 -11.875 1.1875 C-7.87014647 -0.14745118 -4.19297418 0.00333305 0 0 Z " fill="#585B6C" transform="translate(129.875,11.8125)"/>
<path d="M0 0 C2.16874252 0.50603992 3.99967627 0.99983813 6 2 C6 2.66 6 3.32 6 4 C7.32 4.33 8.64 4.66 10 5 C10 5.66 10 6.32 10 7 C13.00820327 8.36736512 15.44344128 9.0591255 18.75 9.5 C19.8225 9.665 20.895 9.83 22 10 C22.33 10.66 22.66 11.32 23 12 C26.27555608 12.47001033 26.27555608 12.47001033 30.0625 12.625 C31.99802734 12.73714844 31.99802734 12.73714844 33.97265625 12.8515625 C35.47119141 12.92503906 35.47119141 12.92503906 37 13 C37.66 12.01 38.32 11.02 39 10 C41.25 9.76953125 41.25 9.76953125 44 9.8125 C51.07404689 9.42001655 55.02688431 5.73578695 60 1 C60.495 1.99 60.495 1.99 61 3 C60.34 3 59.68 3 59 3 C58.67 3.99 58.34 4.98 58 6 C56.0390625 7.5703125 56.0390625 7.5703125 53.625 9.125 C52.83351562 9.64320313 52.04203125 10.16140625 51.2265625 10.6953125 C49 12 49 12 46 13 C45.26676204 15.01508358 45.26676204 15.01508358 45 17 C44.34 16.67 43.68 16.34 43 16 C43.33 15.34 43.66 14.68 44 14 C43.30777344 14.15855469 42.61554688 14.31710938 41.90234375 14.48046875 C30.54827077 16.51289366 18.19615129 15.31368735 8.19140625 9.31640625 C4.4731318 6.55001006 1.85256943 4.31005948 0 0 Z " fill="#ACDAF4" transform="translate(60,139)"/>
<path d="M0 0 C0.66 0.33 1.32 0.66 2 1 C2.38063221 3.3260857 2.71269945 5.66055264 3 8 C3.33 8.66 3.66 9.32 4 10 C3.73046875 12.2421875 3.73046875 12.2421875 3.1875 14.875 C3.01605469 15.73867187 2.84460938 16.60234375 2.66796875 17.4921875 C2.02403788 19.90975251 1.29049123 21.86037514 0 24 C-0.66 24.33 -1.32 24.66 -2 25 C-2.268125 25.9075 -2.53625 26.815 -2.8125 27.75 C-4.20760253 31.56817535 -6.00785613 33.2997726 -9 36 C-9.53625 36.556875 -10.0725 37.11375 -10.625 37.6875 C-13.58679747 40.51467032 -14.83587724 41 -19 41 C-17.89025621 37.67076863 -16.76599724 36.84699819 -13.75 34.875 C-6.28628146 29.79034174 -2.68511842 20.60164927 -1 12 C-0.51708886 8.00414701 -0.20028123 4.0194371 0 0 Z " fill="#6882A1" transform="translate(189,80)"/>
<path d="M0 0 C1.0209375 1.0828125 1.0209375 1.0828125 2.0625 2.1875 C5.93086678 6.06688777 10.45901858 8.97267905 15 12 C11.71303767 12.79953138 10.28976808 13.09658936 7 12 C7 11.34 7 10.68 7 10 C6.401875 9.9175 5.80375 9.835 5.1875 9.75 C2.4033704 8.79544128 1.56688858 7.42867729 0 5 C-1.0725 5.309375 -2.145 5.61875 -3.25 5.9375 C-5.10625 6.4634375 -5.10625 6.4634375 -7 7 C-7.62261719 7.18433594 -8.24523437 7.36867187 -8.88671875 7.55859375 C-11.48296494 8.10087807 -13.91139818 8.13221388 -16.5625 8.125 C-17.51253906 8.12757813 -18.46257813 8.13015625 -19.44140625 8.1328125 C-22 8 -22 8 -25 7 C-25 6.34 -25 5.68 -25 5 C-24.01 5 -23.02 5 -22 5 C-21.67 4.34 -21.34 3.68 -21 3 C-19.98292969 3.05220703 -19.98292969 3.05220703 -18.9453125 3.10546875 C-12.07017503 3.30543812 -6.45432982 2.35212019 0 0 Z " fill="#6285B8" transform="translate(59,139)"/>
<path d="M0 0 C1.74294798 1.59216509 3.45942501 3.21392579 5.14453125 4.8671875 C8.13034638 7.59293163 10.67516922 8.72896266 14.4765625 9.99609375 C14.4765625 9.33609375 14.4765625 8.67609375 14.4765625 7.99609375 C17.4465625 8.32609375 20.4165625 8.65609375 23.4765625 8.99609375 C23.4765625 9.32609375 23.4765625 9.65609375 23.4765625 9.99609375 C22.81269531 10.18945312 22.14882812 10.3828125 21.46484375 10.58203125 C14.87866941 12.52360727 14.87866941 12.52360727 8.4765625 14.99609375 C7.8371875 13.96484375 7.1978125 12.93359375 6.5390625 11.87109375 C0.78231481 3.90517397 -7.19371871 0.98410859 -16.5234375 -1.00390625 C-16.5234375 -1.33390625 -16.5234375 -1.66390625 -16.5234375 -2.00390625 C-5.15327175 -4.09230404 -5.15327175 -4.09230404 0 0 Z " fill="#585969" transform="translate(101.5234375,6.00390625)"/>
<path d="M0 0 C0.66 0 1.32 0 2 0 C2.95024979 3.69541586 2.95024979 6.30458414 2 10 C1.34 10 0.68 10 0 10 C-0.2165625 10.8971875 -0.2165625 10.8971875 -0.4375 11.8125 C-1.22893316 14.89029562 -1.71542726 16.71542726 -4 19 C-4.721875 19.78375 -5.44375 20.5675 -6.1875 21.375 C-9.42508545 24.39674642 -11.95243016 26.19304918 -16 28 C-18.9375 27.25 -18.9375 27.25 -21 26 C-19.42140613 24.94760408 -17.83028028 23.90663606 -16.16796875 22.9921875 C-8.25654152 18.52933112 -3.47214056 11.90713521 -0.875 3.25 C-0.58625 2.1775 -0.2975 1.105 0 0 Z " fill="#5A7399" transform="translate(168,119)"/>
<path d="M0 0 C0.66 0 1.32 0 2 0 C2.33 1.32 2.66 2.64 3 4 C2.34 4 1.68 4 1 4 C1 4.66 1 5.32 1 6 C0.34 6 -0.32 6 -1 6 C-1 6.66 -1 7.32 -1 8 C-3.1171875 9.47265625 -3.1171875 9.47265625 -5.875 11.0625 C-6.77992188 11.58972656 -7.68484375 12.11695313 -8.6171875 12.66015625 C-11.93235024 14.52425595 -13.52172484 15.16806833 -17.3125 14.875 C-18.07175781 14.83117187 -18.83101562 14.78734375 -19.61328125 14.7421875 C-22.98267601 13.69442154 -24.67352928 11.5776472 -27 9 C-25.84242187 9.04640625 -24.68484375 9.0928125 -23.4921875 9.140625 C-21.95315094 9.17816248 -20.4140863 9.21456051 -18.875 9.25 C-18.11445312 9.28351563 -17.35390625 9.31703125 -16.5703125 9.3515625 C-11.20542629 9.44406054 -8.26005973 8.55219482 -4 5 C-2.64843325 3.34808509 -1.31037934 1.68477344 0 0 Z " fill="#739DC0" transform="translate(139,176)"/>
<path d="M0 0 C4.75 1.875 4.75 1.875 7 3 C7.33333333 4.66666667 7.66666667 6.33333333 8 8 C8.66 8.33 9.32 8.66 10 9 C12.17490835 14.62917455 13.13501983 19.79335416 13.0625 25.8125 C13.05347656 26.78832031 13.04445312 27.76414062 13.03515625 28.76953125 C13.02355469 29.50558594 13.01195312 30.24164063 13 31 C12.34 30.67 11.68 30.34 11 30 C10.76086463 28.3602146 10.52832695 26.71921147 10.328125 25.07421875 C9.01343151 16.76347778 4.84114469 9.37177769 1 2 C0.67 1.34 0.34 0.68 0 0 Z " fill="#586376" transform="translate(180,58)"/>
<path d="M0 0 C0.33 0.33 0.66 0.66 1 1 C0.91062197 2.52519276 0.75462854 4.04681929 0.5625 5.5625 C0.46066406 6.38878906 0.35882813 7.21507813 0.25390625 8.06640625 C0.17011719 8.70449219 0.08632812 9.34257813 0 10 C-1.98 10.33 -3.96 10.66 -6 11 C-10 6.25 -10 6.25 -10 4 C-9.34 4 -8.68 4 -8 4 C-8 3.01 -8 2.02 -8 1 C-5.05549278 0.01849759 -3.06481021 -0.1613058 0 0 Z " fill="#4D6D9B" transform="translate(71,94)"/>
<path d="M0 0 C0.33 0 0.66 0 1 0 C2.33885102 7.18111003 2.33885102 7.18111003 0.875 10.71875 C-1 13 -1 13 -3.63671875 13.70703125 C-4.64347656 13.74183594 -5.65023437 13.77664062 -6.6875 13.8125 C-7.75097656 13.85761719 -8.81445312 13.90273437 -9.91015625 13.94921875 C-10.92980469 13.96597656 -11.94945313 13.98273438 -13 14 C-13.82371094 14.02707031 -14.64742187 14.05414063 -15.49609375 14.08203125 C-20.6287478 14.1856261 -20.6287478 14.1856261 -23 13 C-22.67 12.01 -22.34 11.02 -22 10 C-20.80761719 10.02320313 -19.61523438 10.04640625 -18.38671875 10.0703125 C-16.82031876 10.08907178 -15.253912 10.10727181 -13.6875 10.125 C-12.90181641 10.14175781 -12.11613281 10.15851563 -11.30664062 10.17578125 C-10.54931641 10.18222656 -9.79199219 10.18867188 -9.01171875 10.1953125 C-7.96697388 10.21102295 -7.96697388 10.21102295 -6.90112305 10.22705078 C-4.668827 10.10574595 -4.668827 10.10574595 -2 8 C-1.21011855 6.04614933 -1.21011855 6.04614933 -0.8125 3.875 C-0.544375 2.59625 -0.27625 1.3175 0 0 Z " fill="#5076A3" transform="translate(90,174)"/>
<path d="M0 0 C2.16025414 2.08355873 4.02025133 4.2689679 5.875 6.625 C8.46460524 9.71062416 9.97375399 10.44079917 14 11 C15.375 12.875 15.375 12.875 16 15 C15.67 15.99 15.34 16.98 15 18 C8.01608547 13.92749401 2.96661138 9.43819994 -2 3 C-1.34 2.01 -0.68 1.02 0 0 Z " fill="#C2E7F4" transform="translate(16,123)"/>
<path d="M0 0 C0.99 0.66 1.98 1.32 3 2 C2.66226562 2.50789063 2.32453125 3.01578125 1.9765625 3.5390625 C-3.04433236 11.28807364 -4.38141605 17.8514689 -5 27 C-5.33 27 -5.66 27 -6 27 C-7.94327249 18.50474797 -8.73925726 12.57889487 -4 5 C-3.34 5 -2.68 5 -2 5 C-2 3.68 -2 2.36 -2 1 C-1.34 0.67 -0.68 0.34 0 0 Z " fill="#63687B" transform="translate(15,86)"/>
<path d="M0 0 C0.495 0.99 0.495 0.99 1 2 C0.34 2 -0.32 2 -1 2 C-1.33 2.99 -1.66 3.98 -2 5 C-3.9609375 6.5703125 -3.9609375 6.5703125 -6.375 8.125 C-7.16648437 8.64320313 -7.95796875 9.16140625 -8.7734375 9.6953125 C-11 11 -11 11 -14 12 C-14.73323796 14.01508358 -14.73323796 14.01508358 -15 16 C-15.66 15.67 -16.32 15.34 -17 15 C-16.67 14.34 -16.34 13.68 -16 13 C-16.67417969 13.16371094 -17.34835938 13.32742187 -18.04296875 13.49609375 C-21.51367906 14.0875358 -24.79322124 14.09539046 -28.3125 14.0625 C-29.56675781 14.05347656 -30.82101563 14.04445312 -32.11328125 14.03515625 C-33.06589844 14.02355469 -34.01851563 14.01195312 -35 14 C-35 13.67 -35 13.34 -35 13 C-30.71 13 -26.42 13 -22 13 C-21.67 11.68 -21.34 10.36 -21 9 C-20.32195312 9.020625 -19.64390625 9.04125 -18.9453125 9.0625 C-10.45397375 8.87432629 -6.04983718 5.76112478 0 0 Z " fill="#A6D4F1" transform="translate(120,140)"/>
<path d="M0 0 C0.99 0.495 0.99 0.495 2 1 C2.69756807 3.18649489 3.30845324 5.40095281 3.875 7.625 C5.34285415 13.04392022 7.00435767 17.29256206 10 22 C10 22.66 10 23.32 10 24 C8.68 24 7.36 24 6 24 C5.87625 23.360625 5.7525 22.72125 5.625 22.0625 C5.41875 21.381875 5.2125 20.70125 5 20 C4.34 19.67 3.68 19.34 3 19 C-0.59664554 13.07611323 -0.1169666 6.69308871 0 0 Z " fill="#6A829C" transform="translate(7,107)"/>
<path d="M0 0 C0.66 0.33 1.32 0.66 2 1 C2.33278764 7.81598387 2.24201565 12.92122066 -1 19 C-1.66 17.68 -2.32 16.36 -3 15 C-5.64 15 -8.28 15 -11 15 C-11.33 15.66 -11.66 16.32 -12 17 C-12 15.35 -12 13.7 -12 12 C-10.37681021 11.63762737 -8.7513642 11.28534843 -7.125 10.9375 C-6.22007813 10.74027344 -5.31515625 10.54304688 -4.3828125 10.33984375 C-2 10 -2 10 0 11 C0 7.37 0 3.74 0 0 Z " fill="#445B80" transform="translate(126,82)"/>
<path d="M0 0 C3.14531106 2.84255384 3.49369692 4.78080768 4 9 C4.185625 9.886875 4.37125 10.77375 4.5625 11.6875 C5 14 5 14 5 17 C5.66 17 6.32 17 7 17 C7 19.31 7 21.62 7 24 C5.68 23.67 4.36 23.34 3 23 C2.86722656 22.37351563 2.73445312 21.74703125 2.59765625 21.1015625 C2.42105469 20.28429687 2.24445313 19.46703125 2.0625 18.625 C1.88847656 17.81289062 1.71445313 17.00078125 1.53515625 16.1640625 C1.07669307 13.970537 1.07669307 13.970537 0 12 C-0.07065617 9.95944995 -0.08421976 7.91665743 -0.0625 5.875 C-0.05347656 4.77929688 -0.04445312 3.68359375 -0.03515625 2.5546875 C-0.02355469 1.71164063 -0.01195312 0.86859375 0 0 Z " fill="#536C91" transform="translate(137,151)"/>
<path d="M0 0 C0.66 1.98 1.32 3.96 2 6 C0.3125 7.5625 0.3125 7.5625 -2 9 C-4.625 8.875 -4.625 8.875 -7 8 C-9 5 -9 5 -8.75 2.875 C-7.18241294 -1.04396766 -3.67319517 -0.07985207 0 0 Z " fill="#4E75A5" transform="translate(123,96)"/>
<path d="M0 0 C6.65527945 3.61286599 10.75445651 8.25925582 14 15 C13.67 15.99 13.34 16.98 13 18 C10 14.25 10 14.25 10 12 C9.195625 11.71125 8.39125 11.4225 7.5625 11.125 C5 10 5 10 4 8 C1.69034152 6.94647157 -0.6429774 5.94280904 -3 5 C-2 3 -2 3 0 0 Z " fill="#D3EEF5" transform="translate(172,52)"/>
<path d="M0 0 C-0.125 1.75 -0.125 1.75 -1 4 C-2.95309888 5.40113616 -4.95708818 6.73339467 -7 8 C-7.556875 8.5775 -8.11375 9.155 -8.6875 9.75 C-10 11 -10 11 -13 11 C-12.80442984 6.79524165 -12.23756256 5.25413669 -9.3125 2.125 C-5.7529716 -0.15847105 -4.12769407 -0.49139215 0 0 Z " fill="#CEF1F7" transform="translate(71,162)"/>
<path d="M0 0 C0.33 0.99 0.66 1.98 1 3 C1.66 3 2.32 3 3 3 C2.7834375 3.66386719 2.566875 4.32773438 2.34375 5.01171875 C2.0653125 5.89472656 1.786875 6.77773437 1.5 7.6875 C1.2215625 8.55761719 0.943125 9.42773438 0.65625 10.32421875 C-0.0009827 13.00400683 -0.07419 15.25497001 0 18 C-0.29044914 19.34332728 -0.60955794 20.68225804 -1 22 C-1.99 22 -2.98 22 -4 22 C-4.42965805 14.69581313 -2.99019732 8.0224061 -1 1 C-0.67 0.67 -0.34 0.34 0 0 Z " fill="#4F6AA1" transform="translate(95,157)"/>
<path d="M0 0 C2.82631003 0.29750632 4.56696127 0.65655549 6.8125 2.4375 C8 4 8 4 8 6 C6.68 6 5.36 6 4 6 C2.21030974 8.42672567 2.21030974 8.42672567 1 11 C0.01 10.67 -0.98 10.34 -2 10 C-1.85950482 8.52031676 -1.71245174 7.04125484 -1.5625 5.5625 C-1.48128906 4.73878906 -1.40007812 3.91507812 -1.31640625 3.06640625 C-1 1 -1 1 0 0 Z " fill="#555A74" transform="translate(66,75)"/>
<path d="M0 0 C0.81984375 -0.01224609 1.6396875 -0.02449219 2.484375 -0.03710938 C3.27328125 -0.03904297 4.0621875 -0.04097656 4.875 -0.04296875 C5.59429687 -0.04707764 6.31359375 -0.05118652 7.0546875 -0.05541992 C9 0.1875 9 0.1875 12 2.1875 C11.67 2.8475 11.34 3.5075 11 4.1875 C3.74 3.8575 -3.52 3.5275 -11 3.1875 C-11.33 2.5275 -11.66 1.8675 -12 1.1875 C-7.96103843 -0.15882052 -4.2287853 0.00332452 0 0 Z " fill="#423E4C" transform="translate(130,11.8125)"/>
<path d="M0 0 C0.66 0 1.32 0 2 0 C3.53266582 3.06533164 3.10276471 6.26754272 3.0625 9.625 C3.05798828 10.33140625 3.05347656 11.0378125 3.04882812 11.765625 C3.03703875 13.51045275 3.01910324 15.255237 3 17 C2.01 17 1.02 17 0 17 C0 14.69 0 12.38 0 10 C-0.66 10 -1.32 10 -2 10 C-2 9.34 -2 8.68 -2 8 C-1.34 8 -0.68 8 0 8 C-0.2784375 6.2984375 -0.2784375 6.2984375 -0.5625 4.5625 C-0.7790625 2.7990625 -0.7790625 2.7990625 -1 1 C-0.67 0.67 -0.34 0.34 0 0 Z " fill="#5E5D7F" transform="translate(13,55)"/>
<path d="M0 0 C2 0 2 0 4.5 2.0625 C9.57650263 8.02739059 9.2697295 14.55246888 9 22 C7.21417713 18.61851132 5.85511065 15.1361912 4.5 11.5625 C3.03019785 7.69530714 1.54885545 3.83628549 0 0 Z " fill="#C0E5F4" transform="translate(180,64)"/>
<path d="M0 0 C0.66 1.32 1.32 2.64 2 4 C-1.89310056 9.40010722 -6.05980055 12.07519591 -12 15 C-12.33 13.68 -12.66 12.36 -13 11 C-12.46375 10.938125 -11.9275 10.87625 -11.375 10.8125 C-5.96048506 8.96016594 -2.54916687 4.95671335 0 0 Z " fill="#A6D7F1" transform="translate(180,105)"/>
<path d="M0 0 C2.9375 2.5625 2.9375 2.5625 5 5 C4.01 5.66 3.02 6.32 2 7 C0.2675 6.071875 0.2675 6.071875 -1.5 5.125 C-5.60313625 3.05877782 -9.51700017 1.96064282 -14 1 C-14 0.67 -14 0.34 -14 0 C-9.04230911 -0.91059629 -4.91086573 -1.27318741 0 0 Z " fill="#726F7E" transform="translate(99,4)"/>
<path d="M0 0 C0.99 0.66 1.98 1.32 3 2 C2.649375 2.7425 2.29875 3.485 1.9375 4.25 C0.89410644 7.3106211 1.03770836 8.02564402 2 11 C2.3496418 13.33094534 2.68554487 15.66404762 3 18 C2.01 18.66 1.02 19.32 0 20 C-2.03530603 13.53491025 -3.16442541 6.32885081 0 0 Z " fill="#CCECF7" transform="translate(13,104)"/>
<path d="M0 0 C0.33 1.32 0.66 2.64 1 4 C0.26394531 4.04898438 -0.47210938 4.09796875 -1.23046875 4.1484375 C-2.20628906 4.22320312 -3.18210937 4.29796875 -4.1875 4.375 C-5.15042969 4.44460937 -6.11335938 4.51421875 -7.10546875 4.5859375 C-10.01508938 5.00215853 -12.32890774 5.79874096 -15 7 C-15.66 5.68 -16.32 4.36 -17 3 C-11.3297637 1.45357192 -5.852795 0.51482919 0 0 Z " fill="#676479" transform="translate(46,30)"/>
<path d="M0 0 C0 0.66 0 1.32 0 2 C0.99 2.33 1.98 2.66 3 3 C3 3.66 3 4.32 3 5 C3.99 5 4.98 5 6 5 C7.6875 7.5 7.6875 7.5 9 10 C8.34 10.66 7.68 11.32 7 12 C6.2884375 11.195625 6.2884375 11.195625 5.5625 10.375 C2.02351645 7.09496647 -1.94615172 4.59862069 -6 2 C-3 0 -3 0 0 0 Z " fill="#586074" transform="translate(177,50)"/>
<path d="M0 0 C0.33 0.99 0.66 1.98 1 3 C-7.28947368 10 -7.28947368 10 -12 10 C-10.58426179 6.60812721 -8.95769034 4.90302459 -6 2.75 C-5.29875 2.22921875 -4.5975 1.7084375 -3.875 1.171875 C-2 0 -2 0 0 0 Z " fill="#597394" transform="translate(182,111)"/>
<path d="M0 0 C0 0.66 0 1.32 0 2 C-1.43503555 2.36402369 -2.87316506 2.71586591 -4.3125 3.0625 C-5.11300781 3.25972656 -5.91351563 3.45695313 -6.73828125 3.66015625 C-9 4 -9 4 -12 3 C-12 4.65 -12 6.3 -12 8 C-13.0625 6.1875 -13.0625 6.1875 -14 4 C-13 1 -13 1 -10.9375 -0.25 C-6.96390064 -1.26453601 -4.03364941 -0.68366939 0 0 Z " fill="#2E5DC0" transform="translate(152,146)"/>
<path d="M0 0 C-0.25043116 3.38082062 -1.2814127 4.2814127 -3.75 6.75 C-7.01629806 9.01128327 -8.1690781 9.56337087 -12 9 C-11.34 8.01 -10.68 7.02 -10 6 C-9.34 6 -8.68 6 -8 6 C-7.67 5.01 -7.34 4.02 -7 3 C-6.34 3 -5.68 3 -5 3 C-5 2.34 -5 1.68 -5 1 C-3 0 -3 0 0 0 Z " fill="#414151" transform="translate(31,34)"/>
<path d="M0 0 C3.07415159 0.60131756 5.0681097 1.55694176 7.5625 3.4375 C9.68479031 5.020946 11.79287584 6.52858389 14 8 C10.71303767 8.79953138 9.28976808 9.09658936 6 8 C6 7.34 6 6.68 6 6 C5.071875 5.9071875 5.071875 5.9071875 4.125 5.8125 C2 5 2 5 0.75 2.4375 C0.5025 1.633125 0.255 0.82875 0 0 Z " fill="#5E82B6" transform="translate(60,143)"/>
<path d="M0 0 C0.99 0.33 1.98 0.66 3 1 C3 2.32 3 3.64 3 5 C0.33333333 5.66666667 -2.33333333 6.33333333 -5 7 C-5.74765625 7.18691406 -6.4953125 7.37382812 -7.265625 7.56640625 C-7.83796875 7.70949219 -8.4103125 7.85257813 -9 8 C-9 7.01 -9 6.02 -9 5 C-5.66696609 2.50022457 -4.26696398 2 0 2 C0 1.34 0 0.68 0 0 Z " fill="#5F809C" transform="translate(68,157)"/>
<path d="M0 0 C0.66 0 1.32 0 2 0 C2.33 1.32 2.66 2.64 3 4 C2.34 4 1.68 4 1 4 C1 4.66 1 5.32 1 6 C0.34 6 -0.32 6 -1 6 C-1 6.66 -1 7.32 -1 8 C-4 10 -4 10 -8 10 C-8 9.34 -8 8.68 -8 8 C-6.52295788 6.74772516 -5.04172601 5.49833478 -3.5078125 4.31640625 C-1.73237056 2.88235909 -1.73237056 2.88235909 0 0 Z " fill="#5A84AA" transform="translate(139,176)"/>
<path d="M0 0 C2.16874252 0.50603992 3.99967627 0.99983813 6 2 C6 2.66 6 3.32 6 4 C6.928125 4.0928125 6.928125 4.0928125 7.875 4.1875 C10 5 10 5 11.25 7.5625 C11.4975 8.366875 11.745 9.17125 12 10 C7.21626007 8.3598606 3.29276103 6.21616176 0.6875 1.75 C0.3471875 0.88375 0.3471875 0.88375 0 0 Z " fill="#B8E6F6" transform="translate(60,139)"/>
<path d="M0 0 C0.99 0.66 1.98 1.32 3 2 C3 2.66 3 3.32 3 4 C1.58800422 4.39222105 0.17007236 4.76311059 -1.25 5.125 C-2.03890625 5.33382812 -2.8278125 5.54265625 -3.640625 5.7578125 C-6.4203071 6.04314411 -7.65887549 5.44977894 -10 4 C-6.76547659 2.25833355 -3.56503624 0.91022202 0 0 Z " fill="#6F96C4" transform="translate(59,139)"/>
<path d="M0 0 C0.66 0 1.32 0 2 0 C2.66 1.32 3.32 2.64 4 4 C7.93774177 4.36630156 9.56539771 4.30233203 12.875 2 C13.57625 1.34 14.2775 0.68 15 0 C14.75 2.375 14.75 2.375 14 5 C10.90156222 7.40989605 7.81189683 7.39707259 4 7 C1.625 5.75 1.625 5.75 0 4 C0 2.68 0 1.36 0 0 Z " fill="#697281" transform="translate(85,101)"/>
<path d="M0 0 C7.75 -0.125 7.75 -0.125 10 1 C10.86159454 4.23097953 11.30597523 6.22486274 10.0625 9.375 C9.711875 9.91125 9.36125 10.4475 9 11 C8.34 10.67 7.68 10.34 7 10 C7.33 7.69 7.66 5.38 8 3 C5.36 3 2.72 3 0 3 C-0.33 3.99 -0.66 4.98 -1 6 C-0.67 4.02 -0.34 2.04 0 0 Z " fill="#43608C" transform="translate(63,92)"/>
<path d="M0 0 C-2.296537 1.1482685 -3.58313167 1.11561175 -6.1328125 1.09765625 C-6.93847656 1.09443359 -7.74414062 1.09121094 -8.57421875 1.08789062 C-9.41597656 1.07951172 -10.25773437 1.07113281 -11.125 1.0625 C-11.97449219 1.05798828 -12.82398437 1.05347656 -13.69921875 1.04882812 C-15.79950909 1.03702874 -17.8997633 1.01909306 -20 1 C-19.67 0.34 -19.34 -0.32 -19 -1 C-16.52728039 -1.36986397 -14.17464889 -1.60575002 -11.6875 -1.75 C-11.01009766 -1.80542969 -10.33269531 -1.86085937 -9.63476562 -1.91796875 C-5.86148802 -2.16140602 -3.1923288 -2.1336902 0 0 Z " fill="#413E50" transform="translate(94,3)"/>
<path d="M0 0 C0.66 1.32 1.32 2.64 2 4 C-1.38583802 7.13107836 -3.71109462 7.33550778 -8.25 7.1875 C-9.86648437 7.14689453 -9.86648437 7.14689453 -11.515625 7.10546875 C-12.74539062 7.05326172 -12.74539062 7.05326172 -14 7 C-14 6.67 -14 6.34 -14 6 C-13.11248047 5.85304687 -13.11248047 5.85304687 -12.20703125 5.703125 C-7.12957861 4.74230199 -3.82486256 3.7014799 0 0 Z " fill="#79B8EB" transform="translate(87,178)"/>
<path d="M0 0 C0.2475 0.515625 0.495 1.03125 0.75 1.5625 C1.81253882 3.63445071 2.94448454 5.61979821 4.125 7.625 C6 11 6 11 6 13 C4.68 13 3.36 13 2 13 C1.87625 12.360625 1.7525 11.72125 1.625 11.0625 C1.41875 10.381875 1.2125 9.70125 1 9 C0.34 8.67 -0.32 8.34 -1 8 C-0.67 5.36 -0.34 2.72 0 0 Z " fill="#6889AE" transform="translate(11,118)"/>
<path d="M0 0 C0.33 0.99 0.66 1.98 1 3 C1.66 3 2.32 3 3 3 C2.34 5.64 1.68 8.28 1 11 C0.01 11 -0.98 11 -2 11 C-2.28571429 3.57142857 -2.28571429 3.57142857 0 0 Z " fill="#3F588C" transform="translate(95,157)"/>
<path d="M0 0 C-1.09601169 1.00893131 -2.20213918 2.00688225 -3.3125 3 C-4.23482422 3.8353125 -4.23482422 3.8353125 -5.17578125 4.6875 C-7 6 -7 6 -10 6 C-9.67 4.02 -9.34 2.04 -9 0 C-5.5657338 -0.85856655 -3.38317487 -0.97591583 0 0 Z " fill="#ABE3F3" transform="translate(68,167)"/>
<path d="M0 0 C0.66 0.99 1.32 1.98 2 3 C-0.125 5.125 -0.125 5.125 -3 7 C-6.3125 6.25 -6.3125 6.25 -9 5 C-6.08596738 3.05731159 -3.14191424 1.53604696 0 0 Z " fill="#456EAB" transform="translate(156,140)"/>
<path d="M0 0 C0.99 0 1.98 0 3 0 C3 0.66 3 1.32 3 2 C3.99 1.67 4.98 1.34 6 1 C6.99 2.32 7.98 3.64 9 5 C5.69564916 6.12377697 3.9493138 5.89554742 0.75 4.5625 C0.04359375 4.27503906 -0.6628125 3.98757812 -1.390625 3.69140625 C-1.92171875 3.46324219 -2.4528125 3.23507813 -3 3 C-2.01 2.67 -1.02 2.34 0 2 C0 1.34 0 0.68 0 0 Z " fill="#626270" transform="translate(141,14)"/>
<path d="M0 0 C0.66 0 1.32 0 2 0 C2 0.99 2 1.98 2 3 C3.32 3 4.64 3 6 3 C6 4.32 6 5.64 6 7 C5.34 6.67 4.68 6.34 4 6 C4.33 5.34 4.66 4.68 5 4 C4.32582031 4.16371094 3.65164062 4.32742187 2.95703125 4.49609375 C-0.51367906 5.0875358 -3.79322124 5.09539046 -7.3125 5.0625 C-8.56675781 5.05347656 -9.82101563 5.04445312 -11.11328125 5.03515625 C-12.06589844 5.02355469 -13.01851563 5.01195312 -14 5 C-14 4.67 -14 4.34 -14 4 C-9.71 4 -5.42 4 -1 4 C-0.67 2.68 -0.34 1.36 0 0 Z " fill="#91BADD" transform="translate(99,149)"/>
<path d="M0 0 C3.96 0 7.92 0 12 0 C11.01 0.495 11.01 0.495 10 1 C9.31270746 3.11846285 9.31270746 3.11846285 8.875 5.5625 C8.62363281 6.80193359 8.62363281 6.80193359 8.3671875 8.06640625 C8.24601563 8.70449219 8.12484375 9.34257812 8 10 C7.67 10 7.34 10 7 10 C6.875 4.25 6.875 4.25 8 2 C5.69 2 3.38 2 1 2 C0.67 1.34 0.34 0.68 0 0 Z " fill="#4B7AAD" transform="translate(129,146)"/>
<path d="M0 0 C1.98 0 3.96 0 6 0 C6.5625 1.9375 6.5625 1.9375 7 4 C6 5 6 5 3.4375 5.0625 C2.2309375 5.0315625 2.2309375 5.0315625 1 5 C0.67 3.35 0.34 1.7 0 0 Z " fill="#548CCC" transform="translate(64,98)"/>
<path d="M0 0 C-0.33 1.32 -0.66 2.64 -1 4 C-1.969375 4.12375 -2.93875 4.2475 -3.9375 4.375 C-5.4534375 4.684375 -5.4534375 4.684375 -7 5 C-7.33 5.66 -7.66 6.32 -8 7 C-8.33 5.68 -8.66 4.36 -9 3 C-5.92807025 0.26939578 -4.09590633 -0.34132553 0 0 Z " fill="#487099" transform="translate(104,153)"/>
<path d="M0 0 C1.2065625 0.0309375 1.2065625 0.0309375 2.4375 0.0625 C3 2 3 2 3.4375 4.0625 C2.4375 5.0625 2.4375 5.0625 -0.125 5.125 C-1.3315625 5.0940625 -1.3315625 5.0940625 -2.5625 5.0625 C-3.125 3.125 -3.125 3.125 -3.5625 1.0625 C-2.5625 0.0625 -2.5625 0.0625 0 0 Z " fill="#538DD1" transform="translate(119.5625,97.9375)"/>
<path d="M0 0 C3.36591866 1.44253657 5.51047079 3.33264727 8 6 C7.67 6.66 7.34 7.32 7 8 C4 8 4 8 1.3125 5.5 C0.549375 4.675 -0.21375 3.85 -1 3 C-0.67 2.01 -0.34 1.02 0 0 Z " fill="#4B4C5F" transform="translate(103,9)"/>
<path d="M0 0 C2.97 0 5.94 0 9 0 C9 1.32 9 2.64 9 4 C6.03 3.67 3.06 3.34 0 3 C0 2.01 0 1.02 0 0 Z " fill="#435F8A" transform="translate(117,187)"/>
<path d="M0 0 C4 2 8 4 12 6 C7.78892722 7.26332183 5.4543291 7.00441956 1.625 5.0625 C0.40811576 4.39025121 -0.8033603 3.70765749 -2 3 C-1.34 2.67 -0.68 2.34 0 2 C0 1.34 0 0.68 0 0 Z " fill="#5D8CBB" transform="translate(121,140)"/>
<path d="M0 0 C0.66 0 1.32 0 2 0 C1.67 4.95 1.34 9.9 1 15 C0.67 15 0.34 15 0 15 C-0.38863565 12.87745145 -0.76053209 10.75183172 -1.125 8.625 C-1.33382813 7.44164063 -1.54265625 6.25828125 -1.7578125 5.0390625 C-1.83773438 4.03617187 -1.91765625 3.03328125 -2 2 C-1.34 1.34 -0.68 0.68 0 0 Z " fill="#505A74" transform="translate(9,98)"/>
<path d="M0 0 C0.66 0.66 1.32 1.32 2 2 C1.44444444 6.55555556 1.44444444 6.55555556 0 8 C-0.23363881 9.84891946 -0.41303635 11.70488031 -0.5625 13.5625 C-0.64628906 14.57441406 -0.73007813 15.58632812 -0.81640625 16.62890625 C-0.87699219 17.41136719 -0.93757812 18.19382812 -1 19 C-1.33 19 -1.66 19 -2 19 C-2.05451714 16.95863605 -2.09302485 14.91684144 -2.125 12.875 C-2.14820313 11.73804687 -2.17140625 10.60109375 -2.1953125 9.4296875 C-1.99672109 5.94242233 -1.2524801 3.2446138 0 0 Z " fill="#D5E1E9" transform="translate(12,96)"/>
<path d="M0 0 C2.5654594 2.5654594 2.54046087 4.47686668 3 8 C2.34 8 1.68 8 1 8 C0.67 9.32 0.34 10.64 0 12 C-0.33 12 -0.66 12 -1 12 C-1.02712066 10.56260487 -1.04645067 9.12506137 -1.0625 7.6875 C-1.07410156 6.88699219 -1.08570313 6.08648437 -1.09765625 5.26171875 C-1 3 -1 3 0 0 Z " fill="#D2EEF5" transform="translate(162,38)"/>
<path d="M0 0 C0.33 0.66 0.66 1.32 1 2 C1.66 2.33 2.32 2.66 3 3 C0.03 5.475 0.03 5.475 -3 8 C-3.99 7.34 -4.98 6.68 -6 6 C-5.01 5.67 -4.02 5.34 -3 5 C-2.67 4.01 -2.34 3.02 -2 2 C-1.34 2 -0.68 2 0 2 C0 1.34 0 0.68 0 0 Z " fill="#5D5E6D" transform="translate(58,8)"/>
<path d="M0 0 C0.33 0 0.66 0 1 0 C2.05699482 5.28497409 2.05699482 5.28497409 2 8 C0.0625 10.5 0.0625 10.5 -2 12 C-2 7.56486311 -1.13764351 4.26616316 0 0 Z " fill="#5481AC" transform="translate(90,174)"/>
<path d="M0 0 C1.32 0.33 2.64 0.66 4 1 C4 3.31 4 5.62 4 8 C2.68 7.67 1.36 7.34 0 7 C0 4.69 0 2.38 0 0 Z " fill="#364F6B" transform="translate(140,167)"/>
<path d="M0 0 C1.32 0.66 2.64 1.32 4 2 C2.35 3.65 0.7 5.3 -1 7 C-1.66 6.67 -2.32 6.34 -3 6 C-2.42655063 3.13275314 -2.1385485 2.1385485 0 0 Z " fill="#5AA3C2" transform="translate(160,136)"/>
<path d="M0 0 C0.91004613 3.07140568 1.33694826 5.79899154 1 9 C0.01 9.66 -0.98 10.32 -2 11 C-3.35384615 4.6 -3.35384615 4.6 -1.5625 1.5625 C-1.046875 1.046875 -0.53125 0.53125 0 0 Z " fill="#4D556D" transform="translate(64,77)"/>
<path d="M0 0 C0.99 0.33 1.98 0.66 3 1 C1.515 4.96 1.515 4.96 0 9 C-0.66 9 -1.32 9 -2 9 C-1.125 2.25 -1.125 2.25 0 0 Z " fill="#4C526B" transform="translate(114,79)"/>
<path d="M0 0 C0.99 0.33 1.98 0.66 3 1 C3 4.63 3 8.26 3 12 C2.34 11.67 1.68 11.34 1 11 C0.5859375 8.49609375 0.5859375 8.49609375 0.375 5.4375 C0.30023438 4.42558594 0.22546875 3.41367188 0.1484375 2.37109375 C0.09945312 1.58863281 0.05046875 0.80617188 0 0 Z " fill="#2E4365" transform="translate(190,77)"/>
<path d="M0 0 C2.31 0 4.62 0 7 0 C6.71890887 1.64767247 6.42481474 3.29313145 6.125 4.9375 C5.96257812 5.85402344 5.80015625 6.77054688 5.6328125 7.71484375 C5.42398438 8.46894531 5.21515625 9.22304687 5 10 C4.01 10.495 4.01 10.495 3 11 C3.875 4.25 3.875 4.25 5 2 C3.35 1.67 1.7 1.34 0 1 C0 0.67 0 0.34 0 0 Z " fill="#68A0E4" transform="translate(88,156)"/>
<path d="M0 0 C0.99 0.495 0.99 0.495 2 1 C2.38063221 3.3260857 2.71269945 5.66055264 3 8 C3.33 8.66 3.66 9.32 4 10 C3.67 10.66 3.34 11.32 3 12 C2.34 12 1.68 12 1 12 C0.03929566 9.11788698 -0.10581883 7.30149956 -0.0625 4.3125 C-0.05347656 3.50425781 -0.04445312 2.69601563 -0.03515625 1.86328125 C-0.02355469 1.24839844 -0.01195312 0.63351563 0 0 Z " fill="#6D80A4" transform="translate(189,80)"/>
<path d="M0 0 C0.99 0.66 1.98 1.32 3 2 C2.67 3.32 2.34 4.64 2 6 C0.68 6 -0.64 6 -2 6 C-1.125 1.125 -1.125 1.125 0 0 Z " fill="#DCE0E6" transform="translate(66,79)"/>
<path d="M0 0 C1.32 0 2.64 0 4 0 C4.33 1.98 4.66 3.96 5 6 C4.01 6 3.02 6 2 6 C0 3 0 3 0 0 Z " fill="#494C5D" transform="translate(12,72)"/>
<path d="M0 0 C0.66 0.99 1.32 1.98 2 3 C-1.4019487 5.09350689 -4.05272412 5.17942163 -8 5 C-6.37633534 1.75267068 -3.24612161 1.29844864 0 0 Z " fill="#3D3E49" transform="translate(45,27)"/>
<path d="M0 0 C4.95 1.98 4.95 1.98 10 4 C9.01 5.32 8.02 6.64 7 8 C7 7.34 7 6.68 7 6 C6.01 6 5.02 6 4 6 C1.8125 4.125 1.8125 4.125 0 2 C0 1.34 0 0.68 0 0 Z " fill="#5A8EBB" transform="translate(59,179)"/>
<path d="M0 0 C1.32 0.33 2.64 0.66 4 1 C4.33 3.31 4.66 5.62 5 8 C2.5 6.25 2.5 6.25 0 4 C0 2.68 0 1.36 0 0 Z " fill="#72BFF4" transform="translate(79,162)"/>
<path d="M0 0 C0.66 0 1.32 0 2 0 C3.125 4.75 3.125 4.75 2 7 C1.01 7 0.02 7 -1 7 C-1.04254356 5.00045254 -1.04080783 2.99958364 -1 1 C-0.67 0.67 -0.34 0.34 0 0 Z " fill="#5F79B1" transform="translate(168,119)"/>
<path d="M0 0 C1.32 0.33 2.64 0.66 4 1 C3.8125 2.875 3.8125 2.875 3 5 C0.4375 6.25 0.4375 6.25 -2 7 C-1.34 4.69 -0.68 2.38 0 0 Z " fill="#455272" transform="translate(69,80)"/>
<path d="M0 0 C0.66 0 1.32 0 2 0 C2 0.66 2 1.32 2 2 C2.99 2 3.98 2 5 2 C6.6875 4.5 6.6875 4.5 8 7 C7.34 7.66 6.68 8.32 6 9 C0.42857143 3.85714286 0.42857143 3.85714286 0 0 Z " fill="#313955" transform="translate(178,53)"/>
<path d="M0 0 C2.97 0.495 2.97 0.495 6 1 C5.01 1.495 5.01 1.495 4 2 C3.67 2.99 3.34 3.98 3 5 C1.68 5 0.36 5 -1 5 C-0.67 3.35 -0.34 1.7 0 0 Z " fill="#74B3ED" transform="translate(72,153)"/>
<path d="M0 0 C0.99 0 1.98 0 3 0 C3 1.65 3 3.3 3 5 C1.68 5.33 0.36 5.66 -1 6 C-1.042721 4.33388095 -1.04063832 2.66617115 -1 1 C-0.67 0.67 -0.34 0.34 0 0 Z " fill="#EAEEF0" transform="translate(118,79)"/>
<path d="M0 0 C0.99 0.66 1.98 1.32 3 2 C2.34 4.31 1.68 6.62 1 9 C0.34 8.67 -0.32 8.34 -1 8 C-1.75 5.625 -1.75 5.625 -2 3 C-1.34 2.01 -0.68 1.02 0 0 Z " fill="#4E4E6A" transform="translate(47,21)"/>
<path d="M0 0 C2.97 1.98 2.97 1.98 6 4 C5.01 4.99 4.02 5.98 3 7 C1.68 5.68 0.36 4.36 -1 3 C-0.67 2.01 -0.34 1.02 0 0 Z " fill="#60626F" transform="translate(98,4)"/>
<path d="M0 0 C1.95775078 2.93662616 2.56073149 4.5737056 3 8 C2.67 8.66 2.34 9.32 2 10 C1.01 10 0.02 10 -1 10 C-0.67 6.7 -0.34 3.4 0 0 Z " fill="#4A5C7D" transform="translate(189,89)"/>
<path d="M0 0 C0.66 0 1.32 0 2 0 C2.99 1.98 3.98 3.96 5 6 C3.68 6 2.36 6 1 6 C-0.0625 4.125 -0.0625 4.125 -1 2 C-0.67 1.34 -0.34 0.68 0 0 Z " fill="#EDF2F3" transform="translate(105,15)"/>
<path d="M0 0 C1.65 0.99 3.3 1.98 5 3 C4.34 4.32 3.68 5.64 3 7 C3 6.34 3 5.68 3 5 C1.68 4.34 0.36 3.68 -1 3 C-0.67 2.01 -0.34 1.02 0 0 Z " fill="#363E4F" transform="translate(160,29)"/>
<path d="M0 0 C3.65316671 1.24976756 4.78065836 1.67098753 7 5 C3.30581799 5 1.22163822 3.71820705 -2 2 C-1.34 1.34 -0.68 0.68 0 0 Z " fill="#EEF4F4" transform="translate(146,20)"/>
<path d="M0 0 C0.66 0 1.32 0 2 0 C2.33 1.32 2.66 2.64 3 4 C2.34 4 1.68 4 1 4 C1 4.66 1 5.32 1 6 C0.01 6 -0.98 6 -2 6 C-1.125 1.125 -1.125 1.125 0 0 Z " fill="#47698E" transform="translate(139,176)"/>
<path d="M0 0 C0.99 0.33 1.98 0.66 3 1 C3 2.65 3 4.3 3 6 C2.01 6.33 1.02 6.66 0 7 C-0.93423645 3.98968256 -1.04449911 3.13349732 0 0 Z " fill="#436082" transform="translate(105,154)"/>
<path d="M0 0 C-0.3125 1.9375 -0.3125 1.9375 -1 4 C-1.99 4.33 -2.98 4.66 -4 5 C-4.66 4.34 -5.32 3.68 -6 3 C-3.375 0 -3.375 0 0 0 Z " fill="#505161" transform="translate(31,34)"/>
<path d="M0 0 C2.0625 2.3125 2.0625 2.3125 4 5 C3.67 5.99 3.34 6.98 3 8 C0.9375 6.25 0.9375 6.25 -1 4 C-0.75 1.75 -0.75 1.75 0 0 Z " fill="#D3E6EB" transform="translate(158,30)"/>
<path d="M0 0 C0.99 0.99 1.98 1.98 3 3 C2.01 4.485 2.01 4.485 1 6 C-1 4.625 -1 4.625 -3 3 C-3 2.34 -3 1.68 -3 1 C-2.01 0.67 -1.02 0.34 0 0 Z " fill="#504F60" transform="translate(151,18)"/>
<path d="M0 0 C1.64826111 2.96687001 2.44271087 5.65626525 3 9 C2.34 8.67 1.68 8.34 1 8 C1 7.34 1 6.68 1 6 C0.34 6 -0.32 6 -1 6 C-1.33 4.68 -1.66 3.36 -2 2 C-1.34 2 -0.68 2 0 2 C0 1.34 0 0.68 0 0 Z " fill="#5684B0" transform="translate(108,158)"/>
<path d="M0 0 C2.31 0 4.62 0 7 0 C6.67 1.32 6.34 2.64 6 4 C3.69 3.34 1.38 2.68 -1 2 C-0.67 1.34 -0.34 0.68 0 0 Z " fill="#4A7AB9" transform="translate(65,96)"/>
<path d="M0 0 C0.66 0.33 1.32 0.66 2 1 C1.01 2.98 0.02 4.96 -1 7 C-1.66 7 -2.32 7 -3 7 C-3.1875 4.625 -3.1875 4.625 -3 2 C-2.01 1.34 -1.02 0.68 0 0 Z " fill="#F5F8F9" transform="translate(21,49)"/>
<path d="M0 0 C0.33 0.99 0.66 1.98 1 3 C-0.65 3.66 -2.3 4.32 -4 5 C-4.66 3.68 -5.32 2.36 -6 1 C-3.92446352 0.4465236 -2.15634036 0 0 0 Z " fill="#6F6F88" transform="translate(35,32)"/>
<path d="M0 0 C1.32 0.66 2.64 1.32 4 2 C3.34 2 2.68 2 2 2 C1.67 2.99 1.34 3.98 1 5 C-0.32 5 -1.64 5 -3 5 C-2 2 -2 2 0 0 Z " fill="#4A4857" transform="translate(62,5)"/>
<path d="M0 0 C-5.75 3 -5.75 3 -8 3 C-7.67 2.01 -7.34 1.02 -7 0 C-3.86650268 -1.04449911 -3.01031744 -0.93423645 0 0 Z " fill="#5180B1" transform="translate(113,151)"/>
<path d="M0 0 C2.31 0 4.62 0 7 0 C5.68 0.33 4.36 0.66 3 1 C3 1.66 3 2.32 3 3 C2.01 3 1.02 3 0 3 C-0.33 3.99 -0.66 4.98 -1 6 C-0.67 4.02 -0.34 2.04 0 0 Z " fill="#3F5984" transform="translate(63,92)"/>
<path d="M0 0 C0.66 0 1.32 0 2 0 C1.34 2.97 0.68 5.94 0 9 C-2 5 -2 5 -1.125 2.25 C-0.75375 1.5075 -0.3825 0.765 0 0 Z " fill="#4C5988" transform="translate(190,71)"/>
<path d="M0 0 C2.475 0.495 2.475 0.495 5 1 C4.34 2.65 3.68 4.3 3 6 C0.8614515 3.8614515 0.57344937 2.86724686 0 0 Z " fill="#626E8A" transform="translate(186,68)"/>
<path d="M0 0 C2 2 2 2 2.3125 4.5 C2.209375 5.325 2.10625 6.15 2 7 C1.01 7.66 0.02 8.32 -1 9 C-1.125 2.25 -1.125 2.25 0 0 Z " fill="#D7F3F5" transform="translate(19,57)"/>
<path d="M0 0 C3 1 3 1 3 1 Z " fill="#555555" transform="translate(72,188)"/>
<path d="" fill="#555555" transform="translate(0,0)"/>
<path d="M0 0 C2 1 2 1 2 1 Z " fill="#000000" transform="translate(84,188)"/>
<path d="" fill="#00007F" transform="translate(0,0)"/>
<path d="" fill="#00007F" transform="translate(0,0)"/>
<path d="M0 0 C2 1 2 1 2 1 Z " fill="#000000" transform="translate(75,0)"/>
<path d="" fill="#000000" transform="translate(0,0)"/>
<path d="" fill="#0000FF" transform="translate(0,0)"/>
<path d="" fill="#000000" transform="translate(0,0)"/>
<path d="" fill="#000000" transform="translate(0,0)"/>
<path d="" fill="#000000" transform="translate(0,0)"/>
<path d="" fill="#0000FF" transform="translate(0,0)"/>
<path d="" fill="#000000" transform="translate(0,0)"/>
<path d="" fill="#000000" transform="translate(0,0)"/>
</svg>
