<?xml version="1.0" encoding="UTF-8"?>
<svg version="1.1" xmlns="http://www.w3.org/2000/svg" width="209" height="193">
<path d="M0 0 C0.43570313 0.52464844 0.87140625 1.04929687 1.3203125 1.58984375 C4.38013307 4.99409439 6.19275588 5.94954724 10.875 6.2421875 C12.35449762 6.21880606 13.83380947 6.17916859 15.3125 6.125 C25.35015791 5.76904706 31.44461537 7.57315925 39.25 14.1875 C46.02728475 20.75166259 49.97010369 25.53386131 50.8125 35.125 C51.28630524 40.2368639 51.28630524 40.2368639 54.11328125 44.34765625 C56.56754682 46.20541579 56.56754682 46.20541579 59.1015625 47.66796875 C59.72804687 48.10753906 60.35453125 48.54710937 61 49 C61 49.99 61 50.98 61 52 C61.66 52 62.32 52 63 52 C67.54011526 62.99009451 70.51465781 71.28447397 67 83 C65.83268941 85.77295823 64.46654968 88.37625096 63 91 C62.68289062 91.67804688 62.36578125 92.35609375 62.0390625 93.0546875 C60.52978988 95.8803182 58.30904136 97.81248713 56 100 C56.94875 100.86625 57.8975 101.7325 58.875 102.625 C66.94307313 110.70947165 73.40031056 120.58029535 78 131 C78.45826172 131.93392578 78.45826172 131.93392578 78.92578125 132.88671875 C81.01684003 137.29677162 81.75854949 141.17098972 82 146 C81.34 146.99 80.68 147.98 80 149 C77.50688919 148.51646071 75.0348843 148.00869303 72.5703125 147.39453125 C67.05784967 146.08245943 63.41658192 145.83336723 58 148 C57.21625 148.309375 56.4325 148.61875 55.625 148.9375 C53.6612058 149.9814432 53.6612058 149.9814432 53 153 C47.4970899 159.05039351 40.72059769 163.66872999 32.4375 164.25 C31.633125 164.1675 30.82875 164.085 30 164 C30.0825 165.03125 30.165 166.0625 30.25 167.125 C29.95233085 171.7388718 29.09333817 173.58939638 26 177 C21.08393073 178.77943612 16.70747878 179.27151851 11.5 179.25 C10.2521875 179.25515625 9.004375 179.2603125 7.71875 179.265625 C1.42841949 178.81631568 -3.47960846 177.52039154 -8 173 C-10.07345975 169.16409947 -10.41760039 165.28264538 -11 161 C-12.78857422 161.14308594 -12.78857422 161.14308594 -14.61328125 161.2890625 C-16.17964636 161.40161568 -17.74605506 161.51356334 -19.3125 161.625 C-20.09818359 161.68945312 -20.88386719 161.75390625 -21.69335938 161.8203125 C-22.45068359 161.871875 -23.20800781 161.9234375 -23.98828125 161.9765625 C-24.68477783 162.02893066 -25.38127441 162.08129883 -26.09887695 162.13525391 C-28 162 -28 162 -31 160 C-31.19335938 160.74765625 -31.38671875 161.4953125 -31.5859375 162.265625 C-31.84632812 163.25046875 -32.10671875 164.2353125 -32.375 165.25 C-32.63023438 166.22453125 -32.88546875 167.1990625 -33.1484375 168.203125 C-34.46320471 172.52135124 -35.1751147 174.45007647 -39 177 C-41.19615166 177.42318791 -43.40766028 177.76996848 -45.625 178.0625 C-49.63490085 178.27373479 -49.63490085 178.27373479 -53 180 C-58.84514414 180.42769347 -66.0864094 179.4577119 -71 176 C-73.39396806 173.02817758 -74.07154817 171.71548165 -73.6875 167.875 C-73.460625 166.92625 -73.23375 165.9775 -73 165 C-73 164.01 -73 163.02 -73 162 C-74.63080944 160.44923834 -74.63080944 160.44923834 -76.75 159.0625 C-79.77131173 156.90365492 -82.56721804 154.83824561 -85 152 C-85 151.34 -85 150.68 -85 150 C-85.99 150.33 -86.98 150.66 -88 151 C-90 150.66666667 -92 150.33333333 -94 150 C-94.99 150.33 -95.98 150.66 -97 151 C-99.6875 150.5625 -99.6875 150.5625 -102 150 C-103.14272084 146.57183748 -103.00003392 145.00010553 -101.875 141.5 C-99.96844352 137.94109458 -97.90872746 135.75563654 -95 133 C-94.67 132.01 -94.34 131.02 -94 130 C-97.28357163 128.35821419 -99.07742677 128.00507717 -102.8125 128.25 C-107.39845377 128.39793399 -109.86418252 126.40638662 -113.3359375 123.60546875 C-118.0551595 119.05241654 -118.19266014 113.87212622 -118.4375 107.625 C-118.39314791 103.26863906 -118.23539029 100.34427549 -115.5 96.875 C-112.10960526 93.60627014 -108.4713774 92.31057613 -104 91 C-104.495 89.9275 -104.99 88.855 -105.5 87.75 C-108.82556209 78.66865736 -107.48088632 70.33729911 -103.50390625 61.71484375 C-101.39152414 57.90158255 -99.1183755 55.04907827 -96 52 C-95.34 52 -94.68 52 -94 52 C-93.38476521 48.84692171 -92.99874819 46.03192118 -93.125 42.8125 C-92.94807375 37.41624925 -92.24665845 30.42684158 -88.44140625 26.31640625 C-87.96574219 25.88199219 -87.49007812 25.44757812 -87 25 C-86.7525 24.236875 -86.505 23.47375 -86.25 22.6875 C-83.25010561 16.23772707 -76.39167597 12.55176315 -70 10 C-64.58948829 8.14376206 -59.69750863 7.79651755 -54 8 C-53.67 7.01 -53.34 6.02 -53 5 C-52.34 5 -51.68 5 -51 5 C-50.76152344 4.39414063 -50.52304688 3.78828125 -50.27734375 3.1640625 C-48.70914319 0.50723341 -47.29086848 -0.23617532 -44.5625 -1.625 C-41.91431661 -2.99490047 -39.48943944 -4.34037371 -37 -6 C-24.32114597 -8.82557318 -10.49103574 -8.15969446 0 0 Z " fill="#E5F3FA" transform="translate(124,11)"/>
<path d="M0 0 C0.43570313 0.52464844 0.87140625 1.04929687 1.3203125 1.58984375 C4.38013307 4.99409439 6.19275588 5.94954724 10.875 6.2421875 C12.35449762 6.21880606 13.83380947 6.17916859 15.3125 6.125 C25.35015791 5.76904706 31.44461537 7.57315925 39.25 14.1875 C46.02728475 20.75166259 49.97010369 25.53386131 50.8125 35.125 C51.28630524 40.2368639 51.28630524 40.2368639 54.11328125 44.34765625 C56.56754682 46.20541579 56.56754682 46.20541579 59.1015625 47.66796875 C59.72804687 48.10753906 60.35453125 48.54710937 61 49 C61 49.99 61 50.98 61 52 C61.66 52 62.32 52 63 52 C67.54011526 62.99009451 70.51465781 71.28447397 67 83 C65.83268941 85.77295823 64.46654968 88.37625096 63 91 C62.68289062 91.67804688 62.36578125 92.35609375 62.0390625 93.0546875 C60.52978988 95.8803182 58.30904136 97.81248713 56 100 C56.94875 100.86625 57.8975 101.7325 58.875 102.625 C66.94307313 110.70947165 73.40031056 120.58029535 78 131 C78.45826172 131.93392578 78.45826172 131.93392578 78.92578125 132.88671875 C81.01684003 137.29677162 81.75854949 141.17098972 82 146 C81.34 146.99 80.68 147.98 80 149 C77.50688919 148.51646071 75.0348843 148.00869303 72.5703125 147.39453125 C67.05784967 146.08245943 63.41658192 145.83336723 58 148 C57.21625 148.309375 56.4325 148.61875 55.625 148.9375 C53.6612058 149.9814432 53.6612058 149.9814432 53 153 C47.4970899 159.05039351 40.72059769 163.66872999 32.4375 164.25 C31.633125 164.1675 30.82875 164.085 30 164 C30.0825 165.03125 30.165 166.0625 30.25 167.125 C29.95233085 171.7388718 29.09333817 173.58939638 26 177 C21.08393073 178.77943612 16.70747878 179.27151851 11.5 179.25 C10.2521875 179.25515625 9.004375 179.2603125 7.71875 179.265625 C1.42841949 178.81631568 -3.47960846 177.52039154 -8 173 C-10.07345975 169.16409947 -10.41760039 165.28264538 -11 161 C-12.78857422 161.14308594 -12.78857422 161.14308594 -14.61328125 161.2890625 C-16.17964636 161.40161568 -17.74605506 161.51356334 -19.3125 161.625 C-20.09818359 161.68945312 -20.88386719 161.75390625 -21.69335938 161.8203125 C-22.45068359 161.871875 -23.20800781 161.9234375 -23.98828125 161.9765625 C-24.68477783 162.02893066 -25.38127441 162.08129883 -26.09887695 162.13525391 C-28 162 -28 162 -31 160 C-31.19335938 160.74765625 -31.38671875 161.4953125 -31.5859375 162.265625 C-31.84632812 163.25046875 -32.10671875 164.2353125 -32.375 165.25 C-32.63023438 166.22453125 -32.88546875 167.1990625 -33.1484375 168.203125 C-34.46320471 172.52135124 -35.1751147 174.45007647 -39 177 C-41.19615166 177.42318791 -43.40766028 177.76996848 -45.625 178.0625 C-49.63490085 178.27373479 -49.63490085 178.27373479 -53 180 C-58.84514414 180.42769347 -66.0864094 179.4577119 -71 176 C-73.39396806 173.02817758 -74.07154817 171.71548165 -73.6875 167.875 C-73.460625 166.92625 -73.23375 165.9775 -73 165 C-73 164.01 -73 163.02 -73 162 C-74.63080944 160.44923834 -74.63080944 160.44923834 -76.75 159.0625 C-79.77131173 156.90365492 -82.56721804 154.83824561 -85 152 C-85 151.34 -85 150.68 -85 150 C-85.99 150.33 -86.98 150.66 -88 151 C-90 150.66666667 -92 150.33333333 -94 150 C-94.99 150.33 -95.98 150.66 -97 151 C-99.6875 150.5625 -99.6875 150.5625 -102 150 C-103.14272084 146.57183748 -103.00003392 145.00010553 -101.875 141.5 C-99.96844352 137.94109458 -97.90872746 135.75563654 -95 133 C-94.67 132.01 -94.34 131.02 -94 130 C-97.28357163 128.35821419 -99.07742677 128.00507717 -102.8125 128.25 C-107.39845377 128.39793399 -109.86418252 126.40638662 -113.3359375 123.60546875 C-118.0551595 119.05241654 -118.19266014 113.87212622 -118.4375 107.625 C-118.39314791 103.26863906 -118.23539029 100.34427549 -115.5 96.875 C-112.10960526 93.60627014 -108.4713774 92.31057613 -104 91 C-104.495 89.9275 -104.99 88.855 -105.5 87.75 C-108.82556209 78.66865736 -107.48088632 70.33729911 -103.50390625 61.71484375 C-101.39152414 57.90158255 -99.1183755 55.04907827 -96 52 C-95.34 52 -94.68 52 -94 52 C-93.38476521 48.84692171 -92.99874819 46.03192118 -93.125 42.8125 C-92.94807375 37.41624925 -92.24665845 30.42684158 -88.44140625 26.31640625 C-87.96574219 25.88199219 -87.49007812 25.44757812 -87 25 C-86.7525 24.236875 -86.505 23.47375 -86.25 22.6875 C-83.25010561 16.23772707 -76.39167597 12.55176315 -70 10 C-64.58948829 8.14376206 -59.69750863 7.79651755 -54 8 C-53.67 7.01 -53.34 6.02 -53 5 C-52.34 5 -51.68 5 -51 5 C-50.76152344 4.39414063 -50.52304688 3.78828125 -50.27734375 3.1640625 C-48.70914319 0.50723341 -47.29086848 -0.23617532 -44.5625 -1.625 C-41.91431661 -2.99490047 -39.48943944 -4.34037371 -37 -6 C-24.32114597 -8.82557318 -10.49103574 -8.15969446 0 0 Z M-50 7 C-50.56203125 7.86496094 -51.1240625 8.72992188 -51.703125 9.62109375 C-54.78690047 12.81500406 -57.65301187 12.88485022 -61.875 13.125 C-70.21391707 13.6974303 -75.3271166 15.72997098 -81 22 C-81.70125 22.721875 -82.4025 23.44375 -83.125 24.1875 C-87.29895162 30.44842743 -88.07009878 36.84276284 -88.25 44.25 C-88.56270724 50.39103793 -88.56270724 50.39103793 -90.47265625 53.05078125 C-92.24977597 54.51096242 -94.06388256 55.76173588 -96 57 C-101.41359492 62.41359492 -103.12102547 69.63275129 -103.375 77.125 C-103.18300193 82.93979866 -101.38661082 87.35883654 -98.6875 92.5 C-96.97686716 94.32460383 -96.97686716 94.32460383 -93.8125 94.25 C-92.884375 94.1675 -91.95625 94.085 -91 94 C-89.58622659 96.63904371 -88.62759865 99.07120629 -88 102 C-87.01 102 -86.02 102 -85 102 C-84.97421875 102.58007812 -84.9484375 103.16015625 -84.921875 103.7578125 C-84.45652341 110.16697298 -82.72397518 113.82202896 -78.5 118.75 C-74.29170409 122.25691326 -70.34796219 122.46703094 -65 122 C-61.64006581 121.44519605 -58.3262637 120.72623424 -55 120 C-53.00189338 119.65549886 -51.00277585 119.31622777 -49 119 C-49 119.66 -49 120.32 -49 121 C-37.27101332 125.98206174 -25.24981666 129.62737908 -12.8125 124.75 C-10.10645288 123.2190017 -10.10645288 123.2190017 -8.609375 121.5859375 C-6.73503945 119.8157317 -5.45351801 118.85935402 -3 118 C0.87486651 118.3887972 4.56879376 119.22439167 8.34375 120.140625 C16.60215153 122.08170228 22.66071115 121.35268043 30 117 C35.41140525 113.17216489 39.3019825 109.36317523 40.6875 102.6875 C40.8421875 101.3571875 40.8421875 101.3571875 41 100 C41.6290625 99.93683594 42.258125 99.87367187 42.90625 99.80859375 C50.04301358 98.78752065 54.25433099 96.42518744 59 91 C63.58612713 84.73893948 64.19338091 78.69780273 64.25 71.125 C64.270625 70.44308594 64.29125 69.76117188 64.3125 69.05859375 C64.36467934 62.2100553 62.21545897 56.84856529 57.5625 51.75 C56.98628906 51.10546875 56.41007813 50.4609375 55.81640625 49.796875 C52.05834358 45.95390422 52.05834358 45.95390422 47 45 C47.05800781 44.09378906 47.11601562 43.18757813 47.17578125 42.25390625 C47.56591149 31.72038969 45.76905519 25.88625495 38.6875 18.1875 C33.90658765 13.68843183 27.6897815 10.07907617 20.97290039 9.96582031 C20.27156982 10.00288086 19.57023926 10.03994141 18.84765625 10.078125 C17.68266602 10.11679687 17.68266602 10.11679687 16.49414062 10.15625 C14.87626913 10.21862577 13.25892476 10.29669687 11.64257812 10.390625 C7.25448314 10.50696223 5.59895722 10.48860195 2.07421875 7.61328125 C1.04748047 6.31970703 1.04748047 6.31970703 0 5 C-8.60464612 -2.88759228 -17.1861597 -3.78878843 -28.44921875 -3.3828125 C-37.28028204 -2.80863991 -43.94214412 0.59555038 -50 7 Z " fill="#4D7EBA" transform="translate(124,11)"/>
<path d="M0 0 C0.43570313 0.52464844 0.87140625 1.04929687 1.3203125 1.58984375 C4.38013307 4.99409439 6.19275588 5.94954724 10.875 6.2421875 C12.35449762 6.21880606 13.83380947 6.17916859 15.3125 6.125 C25.35015791 5.76904706 31.44461537 7.57315925 39.25 14.1875 C46.02728475 20.75166259 49.97010369 25.53386131 50.8125 35.125 C51.28630524 40.2368639 51.28630524 40.2368639 54.11328125 44.34765625 C56.56754682 46.20541579 56.56754682 46.20541579 59.1015625 47.66796875 C59.72804687 48.10753906 60.35453125 48.54710937 61 49 C61 49.99 61 50.98 61 52 C61.66 52 62.32 52 63 52 C67.54011526 62.99009451 70.51465781 71.28447397 67 83 C65.83268941 85.77295823 64.46654968 88.37625096 63 91 C62.68289062 91.67804688 62.36578125 92.35609375 62.0390625 93.0546875 C60.52978988 95.8803182 58.30904136 97.81248713 56 100 C56.94875 100.86625 57.8975 101.7325 58.875 102.625 C66.94307313 110.70947165 73.40031056 120.58029535 78 131 C78.45826172 131.93392578 78.45826172 131.93392578 78.92578125 132.88671875 C81.01684003 137.29677162 81.75854949 141.17098972 82 146 C81.34 146.99 80.68 147.98 80 149 C77.50688919 148.51646071 75.0348843 148.00869303 72.5703125 147.39453125 C66.05892062 145.84469516 62.06100776 145.96949612 56 149 C57.24976756 145.34683329 57.67098753 144.21934164 61 142 C67.26354058 141.0487325 72.295049 142.51056684 78 145 C74.77286058 131.61752676 68.30002561 120.39577483 59.41015625 109.9296875 C57.80510585 107.73330274 56.98881528 105.52375449 56 103 C55.34 102.34 54.68 101.68 54 101 C54 100.01 54 99.02 54 98 C54.66 98 55.32 98 56 98 C55.77699219 97.41863281 55.55398437 96.83726563 55.32421875 96.23828125 C55 94 55 94 56.14453125 92.10546875 C56.69496094 91.47253906 57.24539062 90.83960937 57.8125 90.1875 C62.69330451 84.56472046 63.34712311 78.22930503 63.3125 71 C63.32861328 70.32710938 63.34472656 69.65421875 63.36132812 68.9609375 C63.36790359 62.14875871 61.17043496 56.82035402 56.6875 51.75 C55.85798828 50.78320312 55.85798828 50.78320312 55.01171875 49.796875 C52.98573469 47.78782345 52.98573469 47.78782345 49.8046875 46.6796875 C48.87914062 46.12539063 47.95359375 45.57109375 47 45 C46.37109375 41.9609375 46.37109375 41.9609375 46.4375 38.375 C46.12151221 29.06772316 43.39108766 24.0338818 36.75 17.625 C28.66213035 11.00165487 21.51952333 10.59928496 11.38305664 11.28515625 C7.06460604 11.47063679 5.57310677 11.46911562 2.09375 8.62109375 C1.4028125 7.75613281 0.711875 6.89117187 0 6 C-8.60421726 -1.88719915 -17.18340982 -2.78516391 -28.4453125 -2.38671875 C-36.83274488 -1.84299358 -43.04014106 1.17874243 -49 7 C-49.71671875 8.01964844 -50.4334375 9.03929688 -51.171875 10.08984375 C-53.44236525 12.83924246 -54.02530753 13.00615023 -57.77734375 13.91796875 C-59.16203278 14.03500325 -60.54930987 14.12434186 -61.9375 14.1875 C-67.25801169 14.52034247 -71.3035608 15.31433254 -76 18 C-77.11375 18.4640625 -77.11375 18.4640625 -78.25 18.9375 C-80.50368142 20.30580658 -80.89100628 21.62904791 -82 24 C-82.34160156 24.64839844 -82.68320313 25.29679687 -83.03515625 25.96484375 C-83.54369141 26.94130859 -83.54369141 26.94130859 -84.0625 27.9375 C-84.40410156 28.58589844 -84.74570313 29.23429687 -85.09765625 29.90234375 C-87.08750738 34.52810156 -87.04934998 38.96080942 -87.125 43.9375 C-87.53312811 50.34711846 -87.53312811 50.34711846 -89.48046875 53.0703125 C-91.25684871 54.51717208 -93.07126961 55.76646034 -95 57 C-100.31028657 62.31028657 -102.08982523 69.45138597 -102.4375 76.8125 C-102.26428313 83.20114569 -100.04358524 88.99696835 -98 95 C-102.62 95 -107.24 95 -112 95 C-109.21040099 92.90780074 -107.06775511 91.42431487 -104 90 C-104.495 89.0925 -104.99 88.185 -105.5 87.25 C-108.63120322 79.76823077 -107.75367269 72.09776066 -104.875 64.6875 C-102.55661964 59.66104002 -99.95499347 55.86710473 -96 52 C-95.34 52 -94.68 52 -94 52 C-93.38476521 48.84692171 -92.99874819 46.03192118 -93.125 42.8125 C-92.94807375 37.41624925 -92.24665845 30.42684158 -88.44140625 26.31640625 C-87.96574219 25.88199219 -87.49007812 25.44757812 -87 25 C-86.7525 24.236875 -86.505 23.47375 -86.25 22.6875 C-83.25010561 16.23772707 -76.39167597 12.55176315 -70 10 C-64.58948829 8.14376206 -59.69750863 7.79651755 -54 8 C-53.67 7.01 -53.34 6.02 -53 5 C-52.34 5 -51.68 5 -51 5 C-50.76152344 4.39414063 -50.52304688 3.78828125 -50.27734375 3.1640625 C-48.70914319 0.50723341 -47.29086848 -0.23617532 -44.5625 -1.625 C-41.91431661 -2.99490047 -39.48943944 -4.34037371 -37 -6 C-24.32114597 -8.82557318 -10.49103574 -8.15969446 0 0 Z " fill="#49516C" transform="translate(124,11)"/>
<path d="M0 0 C3.17332841 0.05542932 4.24726654 1.23008487 6.5859375 3.40625 C7.52631959 4.42775719 8.45553788 5.45962275 9.375 6.5 C9.86178223 7.04245361 10.34856445 7.58490723 10.85009766 8.14379883 C14.69156256 12.4963902 18.03961172 16.99922103 21 22 C21.44988281 22.73863281 21.89976562 23.47726563 22.36328125 24.23828125 C26.01483321 30.47500274 29 36.68347812 29 44 C27.865625 43.67 26.73125 43.34 25.5625 43 C21.06982228 41.91665927 16.57592095 40.9500755 12 42 C9.892315 43.79911573 8.62107563 45.71142264 7 48 C6.01 48 5.02 48 4 48 C3.505 48.99 3.505 48.99 3 50 C2.34 50 1.68 50 1 50 C-0.5194102 51.26569464 -1.99253299 52.58744051 -3.4375 53.9375 C-8.68114917 58.83560392 -12.74942274 59.60947669 -19.84765625 59.5234375 C-25.46365879 58.59091663 -28.74566634 55.53893905 -32 51 C-34.62993448 45.09950598 -35.25702374 39.42559348 -35 33 C-35.2784375 31.6078125 -35.2784375 31.6078125 -35.5625 30.1875 C-36 28 -36 28 -35 26 C-32.78515625 25.3671875 -32.78515625 25.3671875 -30.0625 24.875 C-29.16660156 24.70742187 -28.27070313 24.53984375 -27.34765625 24.3671875 C-25 24 -25 24 -23 24 C-22.96261719 24.88042969 -22.92523438 25.76085937 -22.88671875 26.66796875 C-22.78810547 28.41013672 -22.78810547 28.41013672 -22.6875 30.1875 C-22.62949219 31.33605469 -22.57148438 32.48460937 -22.51171875 33.66796875 C-21.95416113 37.29847756 -21.43505543 39.24228712 -19 42 C-15.76910549 42.93745515 -15.76910549 42.93745515 -12.125 43 C-10.91070312 43.0825 -9.69640625 43.165 -8.4453125 43.25 C-3.43924508 42.88674794 -1.03587563 41.11986555 2.3125 37.5 C4.67719171 32.59545424 4.65522642 28.35367927 4 23 C2.30487219 18.18226833 -0.38551477 15.52180612 -4 12 C-5.3125 9.6875 -5.3125 9.6875 -6 8 C-2.25 2.25 -2.25 2.25 0 0 Z " fill="#70ACEA" transform="translate(173,112)"/>
<path d="M0 0 C7.42461964 1.46058091 7.42461964 1.46058091 10 3.875 C11 6 11 6 11 10 C11.99 10 12.98 10 14 10 C14.15855469 10.72445312 14.31710938 11.44890625 14.48046875 12.1953125 C16.19285066 19.29081764 17.86542288 23.86342425 23.8125 28.375 C29.86644069 30.10469734 35.66998512 28.75711746 41.65625 27.4453125 C44.46853496 26.91097836 47.14535217 26.84975538 50 27 C50 27.66 50 28.32 50 29 C50.639375 29.103125 51.27875 29.20625 51.9375 29.3125 C54.50300084 29.88842876 56.78511505 30.61505882 59.25 31.5 C67.97357678 34.44150357 77.48765597 35.16170354 86.1875 31.75 C88.89354712 30.2190017 88.89354712 30.2190017 90.390625 28.5859375 C92.26496055 26.8157317 93.54648199 25.85935402 96 25 C99.87486651 25.3887972 103.56879376 26.22439167 107.34375 27.140625 C115.64431511 29.09161253 121.59879927 28.29297519 129 24 C135.60110543 19.57050006 138.06747202 14.58145593 140 7 C141.98 7 143.96 7 146 7 C145.36707031 7.23332031 144.73414063 7.46664062 144.08203125 7.70703125 C141.82027027 8.8181411 141.82027027 8.8181411 141.19921875 11.13671875 C141.03035156 11.97847656 140.86148438 12.82023437 140.6875 13.6875 C138.90179892 20.43998713 135.0102198 23.81759064 129.5 27.8125 C121.70845558 31.5134836 112.06600974 32.85860904 103.6796875 30.2890625 C102.1092297 29.54802397 100.55318403 28.77659202 99 28 C95.59674528 28.40283423 93.47018373 29.93650154 90.75 31.9375 C81.92617694 37.88182022 72.31207308 37.84054671 62 37 C57.13582453 35.81748115 53.25596939 34.44626778 49.9375 30.625 C48.1614368 28.74970652 48.1614368 28.74970652 45.98046875 29.16015625 C43.62254859 29.68804882 41.32119335 30.33050209 39 31 C37.00291344 31.35036606 35.00401011 31.69169075 33 32 C33 32.66 33 33.32 33 34 C27.60823579 36.68522645 23.42806726 37.47084908 17.4375 37.375 C16.70853516 37.38660156 15.97957031 37.39820313 15.22851562 37.41015625 C10.27452486 37.38340202 5.69787898 36.69787898 2 33 C0.41798689 32.89453246 -1.16583354 32.81561636 -2.75 32.75 C-6.58056594 32.40027643 -7.78381474 32.16558871 -10.9375 29.75 C-11.618125 28.8425 -12.29875 27.935 -13 27 C-13.8971875 25.9171875 -13.8971875 25.9171875 -14.8125 24.8125 C-17.94174358 17.40113363 -15.77715066 10.17430586 -13 3 C-6.565 2.505 -6.565 2.505 0 2 C0 1.34 0 0.68 0 0 Z " fill="#8FCAF1" transform="translate(25,103)"/>
<path d="M0 0 C-0.875 6.75 -0.875 6.75 -2 9 C-2.76551509 15.86453699 -2.08084492 20.40341268 2 26 C5.6890888 28.45939253 8.20125189 28.35631796 12.52734375 28.55859375 C15.44928128 29.08020345 16.70088848 30.16880942 19 32 C22.78525664 33.84554802 26.12667085 34.34901127 30.3125 34.625 C31.38113281 34.69976562 32.44976562 34.77453125 33.55078125 34.8515625 C34.35902344 34.90054688 35.16726562 34.94953125 36 35 C36 35.33 36 35.66 36 36 C35.154375 35.96777344 34.30875 35.93554688 33.4375 35.90234375 C26.49959867 35.91872438 26.49959867 35.91872438 20.42578125 38.89453125 C17.02678964 42.68305609 14.7278611 46.1994401 13 51 C13.70125 50.95359375 14.4025 50.9071875 15.125 50.859375 C21.68142805 50.60994567 26.63935233 51.00098138 32 55 C33.85175299 56.89741265 35.37352838 58.88998277 37 61 C37.886875 61.53625 38.77375 62.0725 39.6875 62.625 C43.04629556 66.07457382 42.8833281 69.63378725 43.25 74.3203125 C43.72447042 77.1209526 43.72447042 77.1209526 45.96875 78.34765625 C50.17341289 79.25252571 54.21009732 79.32892382 58.5 79.3125 C59.34175781 79.32861328 60.18351562 79.34472656 61.05078125 79.36132812 C65.78764831 79.36505794 69.28659856 79.27779089 73 76 C74.72473452 72.30507229 75.64141863 68.57957978 76.5078125 64.60546875 C76.77207031 63.40341797 77.03632812 62.20136719 77.30859375 60.96289062 C77.57800781 59.71701172 77.84742187 58.47113281 78.125 57.1875 C78.54072266 55.28967773 78.54072266 55.28967773 78.96484375 53.35351562 C79.64705583 50.23651216 80.32403555 47.11836432 81 44 C86.28 44 91.56 44 97 44 C98.11025466 46.93533082 99.21461397 49.87253806 100.3125 52.8125 C100.63718262 53.6802002 100.96186523 54.54790039 101.29638672 55.44189453 C102.9965736 60.05054476 104.49855455 64.58596001 105.625 69.375 C106.93395511 74.55460763 109.26137765 77.34665436 113.86669922 80.12695312 C116.38103739 81.1559384 117.99825397 81.1245653 120.6953125 80.90625 C121.57574219 80.84566406 122.45617187 80.78507812 123.36328125 80.72265625 C124.27464844 80.64917969 125.18601563 80.57570313 126.125 80.5 C127.93935999 80.35495299 129.7544834 80.21907154 131.5703125 80.09375 C132.37227051 80.02865234 133.17422852 79.96355469 134.00048828 79.89648438 C136 80 136 80 138 82 C133.0117749 83.61988753 128.79980704 84.27190003 123.5 84.25 C122.2521875 84.25515625 121.004375 84.2603125 119.71875 84.265625 C113.42841949 83.81631568 108.52039154 82.52039154 104 78 C101.92654025 74.16409947 101.58239961 70.28264538 101 66 C99.80761719 66.09539062 98.61523438 66.19078125 97.38671875 66.2890625 C95.82035364 66.40161568 94.25394494 66.51356334 92.6875 66.625 C91.90181641 66.68945312 91.11613281 66.75390625 90.30664062 66.8203125 C89.54931641 66.871875 88.79199219 66.9234375 88.01171875 66.9765625 C87.31522217 67.02893066 86.61872559 67.08129883 85.90112305 67.13525391 C84 67 84 67 81 65 C80.80664062 65.74765625 80.61328125 66.4953125 80.4140625 67.265625 C80.15367188 68.25046875 79.89328125 69.2353125 79.625 70.25 C79.24214844 71.71179688 79.24214844 71.71179688 78.8515625 73.203125 C77.53679529 77.52135124 76.8248853 79.45007647 73 82 C70.80384834 82.42318791 68.59233972 82.76996848 66.375 83.0625 C62.36509915 83.27373479 62.36509915 83.27373479 59 85 C53.15485586 85.42769347 45.9135906 84.4577119 41 81 C38.60603194 78.02817758 37.92845183 76.71548165 38.3125 72.875 C38.539375 71.92625 38.76625 70.9775 39 70 C39 69.01 39 68.02 39 67 C37.36919056 65.44923834 37.36919056 65.44923834 35.25 64.0625 C32.22868827 61.90365492 29.43278196 59.83824561 27 57 C27 56.34 27 55.68 27 55 C25.515 55.495 25.515 55.495 24 56 C22 55.66666667 20 55.33333333 18 55 C16.515 55.495 16.515 55.495 15 56 C12.3125 55.5625 12.3125 55.5625 10 55 C8.85727916 51.57183748 8.99996608 50.00010553 10.125 46.5 C12.03155648 42.94109458 14.09127254 40.75563654 17 38 C17.33 37.01 17.66 36.02 18 35 C14.71642837 33.35821419 12.92257323 33.00507717 9.1875 33.25 C4.60154623 33.39793399 2.13581748 31.40638662 -1.3359375 28.60546875 C-6.09117153 24.01767254 -6.18238894 18.85199202 -6.375 12.5625 C-6.36058195 8.32359316 -6.31771364 5.50646052 -3.5625 2.1875 C-1 0 -1 0 0 0 Z " fill="#4E7EB8" transform="translate(12,106)"/>
<path d="M0 0 C2.39453125 1.5 2.39453125 1.5 3.51171875 5.23828125 C3.92321282 7.52546914 4.26992107 9.81520352 4.6015625 12.11523438 C5.36116827 16.51298271 5.36116827 16.51298271 7.98144531 19.98193359 C9.20955596 20.80702002 10.45331896 21.60932109 11.7121582 22.38671875 C14.22131091 24.04710714 15.2596131 25.73905365 16.39453125 28.5 C16.77901561 32.87286874 16.52788312 37.09938825 16.39453125 41.5 C8.80453125 41.83 1.21453125 42.16 -6.60546875 42.5 C-6.60546875 41.84 -6.60546875 41.18 -6.60546875 40.5 C-7.71921875 40.4071875 -7.71921875 40.4071875 -8.85546875 40.3125 C-12.56843241 39.21548801 -13.43480399 37.68816386 -15.60546875 34.5 C-16.6562068 31.87591998 -17.54991938 29.3802641 -18.35546875 26.6875 C-18.57589844 26.01396484 -18.79632813 25.34042969 -19.0234375 24.64648438 C-20.52365929 19.77775217 -21.07149028 15.59446261 -20.60546875 10.5 C-19.21484375 8.07421875 -19.21484375 8.07421875 -17.35546875 6.1875 C-16.7521875 5.55199219 -16.14890625 4.91648438 -15.52734375 4.26171875 C-10.31896199 -0.5126312 -7.12621549 -1.3675496 0 0 Z " fill="#92D8F6" transform="translate(133.60546875,145.5)"/>
<path d="M0 0 C1.134375 0.020625 2.26875 0.04125 3.4375 0.0625 C3.4375 0.7225 3.4375 1.3825 3.4375 2.0625 C4.7678125 2.43375 4.7678125 2.43375 6.125 2.8125 C9.63359556 4.13649832 11.79056704 5.41556704 14.4375 8.0625 C15.25 10.8125 15.25 10.8125 15.4375 13.0625 C16.4275 13.3925 17.4175 13.7225 18.4375 14.0625 C17.65192886 27.80999499 17.65192886 27.80999499 15.4375 34.0625 C15.169375 34.97 14.90125 35.8775 14.625 36.8125 C12.99174708 39.90708447 11.63639097 40.60168692 8.4375 42.0625 C5.26193918 42.47061306 2.13452403 42.43619878 -1.0625 42.375 C-1.90425781 42.37822266 -2.74601562 42.38144531 -3.61328125 42.38476562 C-13.32434596 42.30065404 -13.32434596 42.30065404 -16.5625 39.0625 C-17.03427341 34.42339485 -17.3089188 31.41004483 -14.3125 27.6875 C-11.5625 25.0625 -11.5625 25.0625 -9.45385742 24.20922852 C-7.34103476 23.21123482 -7.34103476 23.21123482 -6.84887695 20.83178711 C-6.75050537 19.9269458 -6.65213379 19.02210449 -6.55078125 18.08984375 C-6.43283203 17.10822266 -6.31488281 16.12660156 -6.19335938 15.11523438 C-6.08830078 14.08720703 -5.98324219 13.05917969 -5.875 12 C-5.64516943 9.96707874 -5.41226513 7.9345018 -5.17578125 5.90234375 C-5.08079346 4.99863037 -4.98580566 4.09491699 -4.88793945 3.16381836 C-4.33182029 -0.42696757 -3.84758153 0.06750143 0 0 Z " fill="#99DAF6" transform="translate(71.5625,143.9375)"/>
<path d="M0 0 C0.84327359 2.88872127 1.08146191 5.30115591 0.9140625 8.30078125 C0.87023437 9.11353516 0.82640625 9.92628906 0.78125 10.76367188 C0.7296875 11.60478516 0.678125 12.44589844 0.625 13.3125 C0.58117187 14.14201172 0.53734375 14.97152344 0.4921875 15.82617188 C-0.05459695 25.4480594 -0.05459695 25.4480594 -1 30 C-3.7850249 32.4685448 -5.72552694 33.84119984 -9.4453125 34.3046875 C-12.66178556 33.92107145 -13.79371015 32.89536862 -16.125 30.6875 C-16.78757812 30.07261719 -17.45015625 29.45773438 -18.1328125 28.82421875 C-19.26710022 27.71603388 -20.37508328 26.57879992 -21.4296875 25.39453125 C-25.02392967 22.20262962 -29.16381858 21.71104926 -33.8125 21.375 C-34.78832031 21.30023438 -35.76414062 21.22546875 -36.76953125 21.1484375 C-37.50558594 21.09945312 -38.24164063 21.05046875 -39 21 C-38.26261565 15.80144033 -36.35060395 12.73272825 -32.84375 8.8828125 C-27.94476493 5.6392537 -22.73189413 6.12022588 -17.015625 6.09375 C-10.44040043 6.05738931 -5.4692513 3.58919617 0 0 Z " fill="#8FC5F3" transform="translate(64,136)"/>
<path d="M0 0 C3.17332841 0.05542932 4.24726654 1.23008487 6.5859375 3.40625 C7.52631959 4.42775719 8.45553788 5.45962275 9.375 6.5 C9.86178223 7.04245361 10.34856445 7.58490723 10.85009766 8.14379883 C14.69156256 12.4963902 18.03961172 16.99922103 21 22 C21.44988281 22.73863281 21.89976562 23.47726563 22.36328125 24.23828125 C26.01483321 30.47500274 29 36.68347812 29 44 C27.865625 43.67 26.73125 43.34 25.5625 43 C21.0812145 41.88366553 16.5992313 41.38314057 12 42 C11.01 42.66 10.02 43.32 9 44 C7.68 44 6.36 44 5 44 C3.87398759 38.08843485 4.03218412 32.40804041 4.2578125 26.40234375 C3.76133922 19.85040086 0.53721359 16.42087478 -4 12 C-5.3125 9.6875 -5.3125 9.6875 -6 8 C-2.25 2.25 -2.25 2.25 0 0 Z " fill="#7EC4F2" transform="translate(173,112)"/>
<path d="M0 0 C1.16015625 0.42925781 1.16015625 0.42925781 2.34375 0.8671875 C2.83875 5.8171875 2.83875 5.8171875 3.34375 10.8671875 C1.85875 10.7228125 0.37375 10.5784375 -1.15625 10.4296875 C-6.69681529 10.39820702 -9.19251198 12.26021407 -13.0625 16.04296875 C-15.87234532 19.25913974 -16.65625 20.47063661 -16.65625 24.8671875 C-17.31625 24.8671875 -17.97625 24.8671875 -18.65625 24.8671875 C-21.65625 18.2421875 -21.65625 18.2421875 -21.65625 14.8671875 C-26.93625 14.8671875 -32.21625 14.8671875 -37.65625 14.8671875 C-37.78 16.1665625 -37.90375 17.4659375 -38.03125 18.8046875 C-38.55488328 23.58568702 -39.51938835 28.19832851 -40.65625 32.8671875 C-40.98625 32.8671875 -41.31625 32.8671875 -41.65625 32.8671875 C-41.65625 29.5671875 -41.65625 26.2671875 -41.65625 22.8671875 C-42.31625 22.5371875 -42.97625 22.2071875 -43.65625 21.8671875 C-43.78 21.0628125 -43.90375 20.2584375 -44.03125 19.4296875 C-44.36499176 16.79338767 -44.36499176 16.79338767 -46.28125 15.8046875 C-47.456875 15.340625 -47.456875 15.340625 -48.65625 14.8671875 C-49.91434995 14.17334268 -51.163945 13.4639315 -52.40625 12.7421875 C-53.47875 12.1234375 -54.55125 11.5046875 -55.65625 10.8671875 C-55.65625 10.2071875 -55.65625 9.5471875 -55.65625 8.8671875 C-57.96625 8.8671875 -60.27625 8.8671875 -62.65625 8.8671875 C-62.65625 5.5671875 -62.65625 2.2671875 -62.65625 -1.1328125 C-56.88920584 -1.1328125 -56.83170321 -0.5490924 -52.65625 2.8671875 C-43.63962347 8.58222273 -33.40640701 7.87986287 -23.28125 5.7421875 C-19.2011481 4.64411258 -16.76079188 3.32843564 -13.65625 0.4921875 C-9.15578914 -3.39804137 -5.28409236 -1.68724731 0 0 Z " fill="#6EB3EE" transform="translate(130.65625,135.1328125)"/>
<path d="M0 0 C7.42461964 1.46058091 7.42461964 1.46058091 10 3.875 C11 6 11 6 11 10 C11.99 10 12.98 10 14 10 C14.15855469 10.72445312 14.31710938 11.44890625 14.48046875 12.1953125 C16.19285066 19.29081764 17.86542288 23.86342425 23.8125 28.375 C29.86644069 30.10469734 35.66998512 28.75711746 41.65625 27.4453125 C44.46853496 26.91097836 47.14535217 26.84975538 50 27 C50 27.66 50 28.32 50 29 C50.639375 29.103125 51.27875 29.20625 51.9375 29.3125 C54.50300084 29.88842876 56.78511505 30.61505882 59.25 31.5 C67.97357678 34.44150357 77.48765597 35.16170354 86.1875 31.75 C88.89354712 30.2190017 88.89354712 30.2190017 90.390625 28.5859375 C92.26496055 26.8157317 93.54648199 25.85935402 96 25 C99.87486651 25.3887972 103.56879376 26.22439167 107.34375 27.140625 C115.64431511 29.09161253 121.59879927 28.29297519 129 24 C135.60110543 19.57050006 138.06747202 14.58145593 140 7 C141.98 7 143.96 7 146 7 C145.36707031 7.23332031 144.73414063 7.46664062 144.08203125 7.70703125 C141.82027027 8.8181411 141.82027027 8.8181411 141.19921875 11.13671875 C141.03035156 11.97847656 140.86148438 12.82023437 140.6875 13.6875 C138.90179892 20.43998713 135.0102198 23.81759064 129.5 27.8125 C121.70845558 31.5134836 112.06600974 32.85860904 103.6796875 30.2890625 C102.1092297 29.54802397 100.55318403 28.77659202 99 28 C95.59674528 28.40283423 93.47018373 29.93650154 90.75 31.9375 C81.92617694 37.88182022 72.31207308 37.84054671 62 37 C57.13582453 35.81748115 53.25596939 34.44626778 49.9375 30.625 C48.1614368 28.74970652 48.1614368 28.74970652 45.98046875 29.16015625 C43.62254859 29.68804882 41.32119335 30.33050209 39 31 C37.00291344 31.35036606 35.00401011 31.69169075 33 32 C33 32.66 33 33.32 33 34 C30.525 34.495 30.525 34.495 28 35 C28 34.34 28 33.68 28 33 C27.40832031 32.87625 26.81664062 32.7525 26.20703125 32.625 C21.44400118 31.38179476 18.63783797 30.24561808 15.9375 26 C14.41536179 23.29397652 14 22.17612362 14 19 C12.02 19.33 10.04 19.66 8 20 C8 19.01 8 18.02 8 17 C7.34 17.33 6.68 17.66 6 18 C5.32215008 20.33010909 4.65583207 22.66359824 4 25 C3.34 25.66 2.68 26.32 2 27 C1.01 27 0.02 27 -1 27 C-1 26.34 -1 25.68 -1 25 C-0.34 24.67 0.32 24.34 1 24 C1 21.69 1 19.38 1 17 C-0.32 16.67 -1.64 16.34 -3 16 C-3 15.34 -3 14.68 -3 14 C-2.34 14 -1.68 14 -1 14 C-1 12.68 -1 11.36 -1 10 C-2.32 9.34 -3.64 8.68 -5 8 C-3.68 8 -2.36 8 -1 8 C-1 6.68 -1 5.36 -1 4 C-2.43836751 4.11458693 -3.87570966 4.24209116 -5.3125 4.375 C-6.51326172 4.47941406 -6.51326172 4.47941406 -7.73828125 4.5859375 C-10.27224441 4.89564426 -10.27224441 4.89564426 -13 7 C-13 5.68 -13 4.36 -13 3 C-6.565 2.505 -6.565 2.505 0 2 C0 1.34 0 0.68 0 0 Z " fill="#739DC1" transform="translate(25,103)"/>
<path d="M0 0 C1.95703125 0.58203125 1.95703125 0.58203125 4 2 C4.51171875 5.01171875 4.51171875 5.01171875 4.6875 8.6875 C5.21993703 14.03670048 5.21993703 14.03670048 8.12109375 18.375 C10.57235023 20.20513874 10.57235023 20.20513874 13.1015625 21.66796875 C13.72804687 22.10753906 14.35453125 22.54710938 15 23 C15 23.99 15 24.98 15 26 C15.66 26 16.32 26 17 26 C21.54011526 36.99009451 24.51465781 45.28447397 21 57 C19.83268941 59.77295823 18.46654968 62.37625096 17 65 C16.68289062 65.67804688 16.36578125 66.35609375 16.0390625 67.0546875 C14.52978988 69.8803182 12.30904136 71.81248713 10 74 C10.94875 74.86625 11.8975 75.7325 12.875 76.625 C20.94307313 84.70947165 27.40031056 94.58029535 32 105 C32.30550781 105.62261719 32.61101562 106.24523437 32.92578125 106.88671875 C35.01684003 111.29677162 35.75854949 115.17098972 36 120 C35.34 120.99 34.68 121.98 34 123 C31.50688919 122.51646071 29.0348843 122.00869303 26.5703125 121.39453125 C20.05892062 119.84469516 16.06100776 119.96949612 10 123 C11.24976756 119.34683329 11.67098753 118.21934164 15 116 C21.26354058 115.0487325 26.295049 116.51056684 32 119 C28.77286058 105.61752676 22.30002561 94.39577483 13.41015625 83.9296875 C11.80510585 81.73330274 10.98881528 79.52375449 10 77 C9.34 76.34 8.68 75.68 8 75 C8 74.01 8 73.02 8 72 C8.66 72 9.32 72 10 72 C9.77699219 71.41863281 9.55398437 70.83726563 9.32421875 70.23828125 C9 68 9 68 10.14453125 66.10546875 C10.69496094 65.47253906 11.24539062 64.83960937 11.8125 64.1875 C16.69330451 58.56472046 17.34712311 52.22930503 17.3125 45 C17.32861328 44.32710937 17.34472656 43.65421875 17.36132812 42.9609375 C17.36790359 36.14875871 15.17043496 30.82035402 10.6875 25.75 C10.13449219 25.10546875 9.58148438 24.4609375 9.01171875 23.796875 C6.9890555 21.78879 6.9890555 21.78879 3.8203125 20.69921875 C2.42425781 19.85810547 2.42425781 19.85810547 1 19 C0.23046875 15.78515625 0.23046875 15.78515625 0.1875 12.0625 C0.10164574 8.17452848 -0.01409291 4.75368296 -1 1 C-0.67 0.67 -0.34 0.34 0 0 Z " fill="#647B98" transform="translate(170,37)"/>
<path d="M0 0 C-0.875 6.75 -0.875 6.75 -2 9 C-2.76551509 15.86453699 -2.08084492 20.40341268 2 26 C5.6890888 28.45939253 8.20125189 28.35631796 12.52734375 28.55859375 C15.44928128 29.08020345 16.70088848 30.16880942 19 32 C22.78525664 33.84554802 26.12667085 34.34901127 30.3125 34.625 C31.38113281 34.69976562 32.44976562 34.77453125 33.55078125 34.8515625 C34.35902344 34.90054688 35.16726562 34.94953125 36 35 C36 35.33 36 35.66 36 36 C35.154375 35.96777344 34.30875 35.93554688 33.4375 35.90234375 C26.49959867 35.91872438 26.49959867 35.91872438 20.42578125 38.89453125 C17.02678964 42.68305609 14.7278611 46.1994401 13 51 C13.70125 50.95359375 14.4025 50.9071875 15.125 50.859375 C21.68142805 50.60994567 26.63935233 51.00098138 32 55 C33.85175299 56.89741265 35.37352838 58.88998277 37 61 C37.886875 61.53625 38.77375 62.0725 39.6875 62.625 C43.04629556 66.07457382 42.8833281 69.63378725 43.25 74.3203125 C43.72482579 77.1216614 43.72482579 77.1216614 45.97265625 78.3515625 C50.15837828 79.24811715 54.16861645 79.28943541 58.4375 79.25 C59.27087891 79.25773437 60.10425781 79.26546875 60.96289062 79.2734375 C65.66605658 79.25856583 69.63416653 78.96497101 74 77 C74.33 76.34 74.66 75.68 75 75 C75.66 75 76.32 75 77 75 C77.33 74.34 77.66 73.68 78 73 C77.51219512 78.48780488 77.51219512 78.48780488 75.37109375 80.62890625 C72.35023234 82.37573056 69.76651961 82.69953286 66.3125 83.125 C62.33479523 83.30257776 62.33479523 83.30257776 59 85 C53.15485586 85.42769347 45.9135906 84.4577119 41 81 C38.60603194 78.02817758 37.92845183 76.71548165 38.3125 72.875 C38.539375 71.92625 38.76625 70.9775 39 70 C39 69.01 39 68.02 39 67 C37.36919056 65.44923834 37.36919056 65.44923834 35.25 64.0625 C32.22868827 61.90365492 29.43278196 59.83824561 27 57 C27 56.34 27 55.68 27 55 C25.515 55.495 25.515 55.495 24 56 C22 55.66666667 20 55.33333333 18 55 C16.515 55.495 16.515 55.495 15 56 C12.3125 55.5625 12.3125 55.5625 10 55 C8.85727916 51.57183748 8.99996608 50.00010553 10.125 46.5 C12.03155648 42.94109458 14.09127254 40.75563654 17 38 C17.33 37.01 17.66 36.02 18 35 C14.71642837 33.35821419 12.92257323 33.00507717 9.1875 33.25 C4.60154623 33.39793399 2.13581748 31.40638662 -1.3359375 28.60546875 C-6.09117153 24.01767254 -6.18238894 18.85199202 -6.375 12.5625 C-6.36058195 8.32359316 -6.31771364 5.50646052 -3.5625 2.1875 C-1 0 -1 0 0 0 Z " fill="#5E7C9C" transform="translate(12,106)"/>
<path d="M0 0 C3.38818502 1.43605193 5.3186598 3.20466579 7.6875 6 C8.28949219 6.70125 8.89148438 7.4025 9.51171875 8.125 C12.40128512 11.76539858 12.44553581 14.83926462 12.42578125 19.3828125 C11.72719485 23.6768757 9.24618718 26.24999169 6 29 C2.63339132 30.68330434 -0.56195539 30.42852152 -4.13671875 29.36328125 C-9.67507102 27.32492898 -9.67507102 27.32492898 -11 26 C-11.07332608 23.89700816 -11.08356505 21.79166436 -11.0625 19.6875 C-11.05347656 18.53636719 -11.04445312 17.38523438 -11.03515625 16.19921875 C-11.02355469 15.14347656 -11.01195312 14.08773437 -11 13 C-11 11.68 -11 10.36 -11 9 C-9.35546875 7.40234375 -9.35546875 7.40234375 -7.1875 5.9375 C-4.53754708 4.11776912 -2.20612913 2.34531708 0 0 Z " fill="#93D6F3" transform="translate(164,124)"/>
<path d="M0 0 C2.31640625 0.80078125 2.31640625 0.80078125 3.62890625 2.86328125 C3.85578125 3.50265625 4.08265625 4.14203125 4.31640625 4.80078125 C3.32640625 4.51203125 2.33640625 4.22328125 1.31640625 3.92578125 C-1.23932506 3.548288 -2.3034108 3.55818056 -4.5078125 4.96484375 C-5.12269531 5.48820313 -5.73757812 6.0115625 -6.37109375 6.55078125 C-13.86797215 12.73822407 -23.76061522 13.47515973 -33.19921875 13.296875 C-39.67238136 12.37524759 -46.03088745 9.45348755 -50.68359375 4.80078125 C-53.25420686 4.15310332 -53.25420686 4.15310332 -55.68359375 3.80078125 C-55.67199219 4.46360107 -55.66039062 5.1264209 -55.6484375 5.80932617 C-55.58132885 12.64302414 -55.90266758 19.32486882 -56.68359375 26.11328125 C-56.75964844 27.06267578 -56.83570312 28.01207031 -56.9140625 28.99023438 C-57.72075238 35.79015556 -57.72075238 35.79015556 -60.5234375 38.73193359 C-62.51985968 40.22157862 -64.55321005 41.51450661 -66.68359375 42.80078125 C-67.34359375 43.46078125 -68.00359375 44.12078125 -68.68359375 44.80078125 C-69.34359375 43.48078125 -70.00359375 42.16078125 -70.68359375 40.80078125 C-69.39546033 39.9619967 -68.10296119 39.12991342 -66.80859375 38.30078125 C-66.08929688 37.83671875 -65.37 37.37265625 -64.62890625 36.89453125 C-62.68359375 35.80078125 -62.68359375 35.80078125 -60.68359375 35.80078125 C-60.35359375 26.23078125 -60.02359375 16.66078125 -59.68359375 6.80078125 C-61.33359375 7.79078125 -62.98359375 8.78078125 -64.68359375 9.80078125 C-72.4397179 13.75201431 -80.18976355 13.0790985 -88.68359375 12.80078125 C-88.35359375 11.81078125 -88.02359375 10.82078125 -87.68359375 9.80078125 C-86.6471875 9.75179687 -85.61078125 9.7028125 -84.54296875 9.65234375 C-83.17315167 9.57728528 -81.80336127 9.50173878 -80.43359375 9.42578125 C-79.75167969 9.39484375 -79.06976563 9.36390625 -78.3671875 9.33203125 C-74.63304151 9.11450818 -71.9324621 8.63385835 -68.68359375 6.80078125 C-67.69359375 6.80078125 -66.70359375 6.80078125 -65.68359375 6.80078125 C-65.68359375 6.14078125 -65.68359375 5.48078125 -65.68359375 4.80078125 C-67.33359375 4.80078125 -68.98359375 4.80078125 -70.68359375 4.80078125 C-70.68359375 4.47078125 -70.68359375 4.14078125 -70.68359375 3.80078125 C-69.65878906 3.66800781 -68.63398437 3.53523437 -67.578125 3.3984375 C-66.21743635 3.22014037 -64.8567599 3.04175002 -63.49609375 2.86328125 C-62.82255859 2.77626953 -62.14902344 2.68925781 -61.45507812 2.59960938 C-58.54635082 2.21650871 -55.71884062 1.80964192 -52.87109375 1.09375 C-52.14921875 0.99707031 -51.42734375 0.90039062 -50.68359375 0.80078125 C-49.20094626 1.98689925 -47.7239798 3.18314694 -46.3125 4.453125 C-39.15633051 10.37369688 -29.39775209 9.43840259 -20.68359375 8.80078125 C-14.37880832 7.71374928 -9.8291181 4.80285574 -4.82421875 0.91015625 C-2.68359375 -0.19921875 -2.68359375 -0.19921875 0 0 Z " fill="#5B8ABE" transform="translate(123.68359375,130.19921875)"/>
<path d="M0 0 C0.66 0 1.32 0 2 0 C1.79503906 0.59167969 1.59007813 1.18335938 1.37890625 1.79296875 C1.10949219 2.58316406 0.84007813 3.37335937 0.5625 4.1875 C0.29566406 4.96480469 0.02882813 5.74210937 -0.24609375 6.54296875 C-1.74719415 11.43515606 -2.04729908 15.82588923 -2.125 20.9375 C-2.53312811 27.34711846 -2.53312811 27.34711846 -4.48046875 30.0703125 C-6.25684871 31.51717208 -8.07126961 32.76646034 -10 34 C-15.31028657 39.31028657 -17.08982523 46.45138597 -17.4375 53.8125 C-17.26428313 60.20114569 -15.04358524 65.99696835 -13 72 C-17.62 72 -22.24 72 -27 72 C-24.21040099 69.90780074 -22.06775511 68.42431487 -19 67 C-19.495 66.0925 -19.99 65.185 -20.5 64.25 C-23.63120322 56.76823077 -22.75367269 49.09776066 -19.875 41.6875 C-17.55661964 36.66104002 -14.95499347 32.86710473 -11 29 C-10.34 29 -9.68 29 -9 29 C-8.38476521 25.84692171 -7.99874819 23.03192118 -8.125 19.8125 C-7.93994576 14.16834576 -7.12171215 7.12171215 -3 3 C-2.01 3 -1.02 3 0 3 C0 2.01 0 1.02 0 0 Z " fill="#5E6F90" transform="translate(39,34)"/>
<path d="M0 0 C3 0.625 3 0.625 5.15234375 2.76953125 C8.37170673 7.7449104 7.79001636 12.90940338 7 18.625 C5.86373634 21.87423055 4.57742976 24.31605251 2 26.625 C-1.125 27.4375 -1.125 27.4375 -4 26.625 C-7.27649235 22.55843149 -7.48857955 18.65865702 -7.4375 13.625 C-7.45748047 12.92632812 -7.47746094 12.22765625 -7.49804688 11.5078125 C-7.49461624 7.87133562 -7.09160292 5.77242041 -5.16015625 2.6640625 C-3 0.625 -3 0.625 0 0 Z " fill="#506182" transform="translate(121,66.375)"/>
<path d="M0 0 C2.5625 0.3125 2.5625 0.3125 4.20214844 1.57202148 C5.87776619 3.71586192 5.92531365 4.77920247 5.890625 7.47265625 C5.88546875 8.26607422 5.8803125 9.05949219 5.875 9.87695312 C5.854375 10.70130859 5.83375 11.52566406 5.8125 12.375 C5.80734375 13.20322266 5.8021875 14.03144531 5.796875 14.88476562 C5.71722274 21.00305451 5.71722274 21.00305451 4.5625 23.3125 C3.9025 23.3125 3.2425 23.3125 2.5625 23.3125 C2.2325 24.3025 1.9025 25.2925 1.5625 26.3125 C-2.92779126 26.67657767 -2.92779126 26.67657767 -5.1875 25.0625 C-8.37369526 20.60182663 -7.90408286 14.54949032 -7.4375 9.3125 C-6.24292661 5.06943737 -4.81327571 0.61708663 0 0 Z " fill="#465678" transform="translate(73.4375,65.6875)"/>
<path d="M0 0 C1.98 0 3.96 0 6 0 C5.36707031 0.23332031 4.73414063 0.46664062 4.08203125 0.70703125 C1.82027027 1.8181411 1.82027027 1.8181411 1.19921875 4.13671875 C1.03035156 4.97847656 0.86148438 5.82023437 0.6875 6.6875 C-1.09820108 13.43998713 -4.9897802 16.81759064 -10.5 20.8125 C-18.29154442 24.5134836 -27.93399026 25.85860904 -36.3203125 23.2890625 C-37.8907703 22.54802397 -39.44681597 21.77659202 -41 21 C-44.40325472 21.40283423 -46.52981627 22.93650154 -49.25 24.9375 C-58.07382306 30.88182022 -67.68792692 30.84054671 -78 30 C-84.03352348 28.53320357 -87.64992127 26.35007873 -92 22 C-94.31492671 22.21053391 -94.31492671 22.21053391 -97 23 C-100.00168629 23.10612022 -102.99739366 23.05887463 -106 23 C-102.47844036 20.65229357 -100.49228157 20.62330386 -96.3125 20.375 C-95.13300781 20.30023438 -93.95351562 20.22546875 -92.73828125 20.1484375 C-91.83464844 20.09945312 -90.93101563 20.05046875 -90 20 C-90 20.66 -90 21.32 -90 22 C-89.360625 22.103125 -88.72125 22.20625 -88.0625 22.3125 C-85.49699916 22.88842876 -83.21488495 23.61505882 -80.75 24.5 C-72.02642322 27.44150357 -62.51234403 28.16170354 -53.8125 24.75 C-51.10645288 23.2190017 -51.10645288 23.2190017 -49.609375 21.5859375 C-47.73503945 19.8157317 -46.45351801 18.85935402 -44 18 C-40.12513349 18.3887972 -36.43120624 19.22439167 -32.65625 20.140625 C-24.35568489 22.09161253 -18.40120073 21.29297519 -11 17 C-4.39889457 12.57050006 -1.93252798 7.58145593 0 0 Z " fill="#AFDAF3" transform="translate(165,110)"/>
<path d="M0 0 C1.77007714 -0.08114106 3.54122098 -0.13925505 5.3125 -0.1875 C6.29863281 -0.22230469 7.28476563 -0.25710937 8.30078125 -0.29296875 C11 0 11 0 12.78125 1.3359375 C15.84962051 5.52544339 16.24055106 9.94842778 16 15 C11.66617445 17.46106383 7.88992452 17.58273712 3 17 C-0.5625 15.5 -0.5625 15.5 -3 14 C-2.40380045 9.13103697 -1.43023178 4.67209049 0 0 Z " fill="#7AB2EC" transform="translate(95,153)"/>
<path d="M0 0 C0 1.32 0 2.64 0 4 C-0.99 4.495 -0.99 4.495 -2 5 C-1.34 5.33 -0.68 5.66 0 6 C0 7.32 0 8.64 0 10 C-0.66 10 -1.32 10 -2 10 C-2 10.66 -2 11.32 -2 12 C-0.68 12 0.64 12 2 12 C2 12.99 2 13.98 2 15 C1.01 15.495 1.01 15.495 0 16 C-0.4125 16.825 -0.825 17.65 -1.25 18.5 C-3 21 -3 21 -6.0625 21.875 C-9 22 -9 22 -11 21 C-11 20.34 -11 19.68 -11 19 C-11.66 19 -12.32 19 -13 19 C-14.99002934 15.01994132 -14.51739049 10.32781931 -14 6 C-11.41432396 -0.64707938 -6.26207834 -0.7367151 0 0 Z " fill="#C3EAF6" transform="translate(24,107)"/>
<path d="M0 0 C0 0.99 0 1.98 0 3 C-0.66 3 -1.32 3 -2 3 C-1.525625 3.7425 -1.05125 4.485 -0.5625 5.25 C0.77869327 7.61050015 1.512312 9.36648477 2 12 C0.63875 10.7315625 0.63875 10.7315625 -0.75 9.4375 C-3.13590964 7.42494674 -3.13590964 7.42494674 -6.125 6.8125 C-8.96922525 8.61384266 -10.30157927 11.14907948 -12 14 C-10.8724682 16.76757806 -9.73717318 18.25608767 -7.5625 20.375 C-3.32642306 24.71439589 -1.80260492 28.36736445 -1.4375 34.375 C-1.57521294 40.30475715 -3.79521451 43.92593323 -8 48 C-8.99 48.495 -8.99 48.495 -10 49 C-10.66 48.34 -11.32 47.68 -12 47 C-11.21625 46.401875 -10.4325 45.80375 -9.625 45.1875 C-6.89482319 42.91235266 -5.19603907 41.32440351 -4.6640625 37.73046875 C-4.5471848 30.12173042 -6.454548 26.66115436 -11.75 21.125 C-12.4925 20.42375 -13.235 19.7225 -14 19 C-17.91086359 20.65459614 -20.76482202 23.29301434 -24 26 C-25.64418383 27.03655068 -27.30330285 28.05184571 -29 29 C-29 28.34 -29 27.68 -29 27 C-30.98 27.33 -32.96 27.66 -35 28 C-32 26 -32 26 -28.8125 24.8125 C-24.1184082 22.79932263 -20.21480925 19.98874481 -17 16 C-16.20342624 13.53226195 -16.20342624 13.53226195 -15.75 10.9375 C-14.92622405 7.26693367 -14.35845639 6.25531802 -11.23046875 4.02734375 C-3.20434397 0 -3.20434397 0 0 0 Z " fill="#5B8DC0" transform="translate(180,106)"/>
<path d="M0 0 C3.00341199 1.31919589 4.5968798 2.64500928 6.6875 5.125 C10.54588533 8.59921709 14.38503536 8.31546177 19.3125 8.125 C29.47332978 7.76242431 35.52702264 9.62049989 43.375 16.375 C46.84202919 19.67303878 49.651546 22.83683155 52 27 C51.67 27.66 51.34 28.32 51 29 C50.01 29 49.02 29 48 29 C47.08108595 27.604612 46.16736574 26.20550508 45.28125 24.7890625 C41.44647966 19.43441367 36.20164305 15.30259771 29.890625 13.3828125 C27.3446287 13.04564002 25.21940939 13.03476788 22.671875 13.1796875 C10.07927313 13.88568154 10.07927313 13.88568154 6.38671875 10.85546875 C4.68353984 8.30617097 3.36821783 5.73643565 2 3 C1.01 2.34 0.02 1.68 -1 1 C-0.67 0.67 -0.34 0.34 0 0 Z " fill="#4E586F" transform="translate(120,9)"/>
<path d="M0 0 C0.66 0.33 1.32 0.66 2 1 C1.62746094 1.55429688 1.25492188 2.10859375 0.87109375 2.6796875 C0.39800781 3.40414062 -0.07507812 4.12859375 -0.5625 4.875 C-1.03816406 5.59429687 -1.51382812 6.31359375 -2.00390625 7.0546875 C-2.49697266 8.01761719 -2.49697266 8.01761719 -3 9 C-2.67 9.66 -2.34 10.32 -2 11 C-2.03712653 12.77350585 -2.15233024 14.54585147 -2.3125 16.3125 C-2.43044922 17.72982422 -2.43044922 17.72982422 -2.55078125 19.17578125 C-3.00523098 22.03288694 -3.82452304 24.36597205 -5 27 C-5.33 27 -5.66 27 -6 27 C-6.33 24.69 -6.66 22.38 -7 20 C-8.50552778 25.72100557 -7.29798872 30.39019943 -6 36 C-5.66176748 37.66567934 -5.3270417 39.33208735 -5 41 C-5.99 40.67 -6.98 40.34 -8 40 C-12.454018 30.74934723 -13.45950271 22.40250838 -10.265625 12.5390625 C-7.80936693 7.61138428 -3.88972625 3.83264431 0 0 Z M-6 16 C-5 19 -5 19 -5 19 Z " fill="#CBE9F2" transform="translate(33,63)"/>
<path d="M0 0 C0.99 0 1.98 0 3 0 C3 0.66 3 1.32 3 2 C3.99 2 4.98 2 6 2 C11.87277176 15.0024467 11.87277176 15.0024467 12 22 C11.34 22.99 10.68 23.98 10 25 C7.50688919 24.51646071 5.0348843 24.00869303 2.5703125 23.39453125 C-3.94107938 21.84469516 -7.93899224 21.96949612 -14 25 C-12.75023244 21.34683329 -12.32901247 20.21934164 -9 18 C-2.73645942 17.0487325 2.295049 18.51056684 8 21 C5.22308806 10.91857808 5.22308806 10.91857808 0 2 C0 1.34 0 0.68 0 0 Z " fill="#597E9E" transform="translate(194,135)"/>
<path d="M0 0 C1.32 0 2.64 0 4 0 C5.97096088 23.49172293 5.97096088 23.49172293 3 32 C0.63544487 34.71948835 -1.8593736 36.29882736 -5 38 C-5.66 38.66 -6.32 39.32 -7 40 C-7.66 38.68 -8.32 37.36 -9 36 C-7.71186658 35.16121545 -6.41936744 34.32913217 -5.125 33.5 C-4.40570313 33.0359375 -3.68640625 32.571875 -2.9453125 32.09375 C-1 31 -1 31 1 31 C1.33 21.43 1.66 11.86 2 2 C0.35 2.99 -1.3 3.98 -3 5 C-10.75612415 8.95123306 -18.5061698 8.27831725 -27 8 C-26.67 7.01 -26.34 6.02 -26 5 C-24.98679688 4.95101562 -23.97359375 4.90203125 -22.9296875 4.8515625 C-21.57810089 4.77647436 -20.22653962 4.70092919 -18.875 4.625 C-18.20984375 4.5940625 -17.5446875 4.563125 -16.859375 4.53125 C-12.59160915 4.28020495 -8.99362764 3.49981598 -5 2 C-4.236875 1.814375 -3.47375 1.62875 -2.6875 1.4375 C-0.97728972 1.14629643 -0.97728972 1.14629643 0 0 Z " fill="#618EC0" transform="translate(62,135)"/>
<path d="M0 0 C1.051875 0.185625 1.051875 0.185625 2.125 0.375 C1.135 0.87 1.135 0.87 0.125 1.375 C-0.205 2.365 -0.535 3.355 -0.875 4.375 C-6.3779101 10.42539351 -13.15440231 15.04372999 -21.4375 15.625 C-22.241875 15.5425 -23.04625 15.46 -23.875 15.375 C-23.7821875 16.9528125 -23.7821875 16.9528125 -23.6875 18.5625 C-23.8827786 22.53316493 -24.57825068 24.21696969 -26.875 27.375 C-28.875 25.375 -28.875 25.375 -29.0703125 22.1171875 C-29.04710937 20.84101563 -29.02390625 19.56484375 -29 18.25 C-28.98195312 16.96867187 -28.96390625 15.68734375 -28.9453125 14.3671875 C-28.92210937 13.37976563 -28.89890625 12.39234375 -28.875 11.375 C-27.58916016 11.33632812 -27.58916016 11.33632812 -26.27734375 11.296875 C-17.24141151 10.84864386 -12.05475439 9.84266022 -5.75 3.125 C-2.875 0.375 -2.875 0.375 0 0 Z " fill="#5C7EA7" transform="translate(177.875,159.625)"/>
<path d="M0 0 C0.99 0 1.98 0 3 0 C3.15855469 0.73605469 3.31710938 1.47210938 3.48046875 2.23046875 C4.89401342 8.1423655 5.95448383 12.18509753 11 16 C14.09458258 17.86824394 16.10826191 18.19660633 19.6953125 17.90625 C20.57574219 17.84566406 21.45617187 17.78507812 22.36328125 17.72265625 C23.27464844 17.64917969 24.18601563 17.57570312 25.125 17.5 C26.93935999 17.35495299 28.7544834 17.21907154 30.5703125 17.09375 C31.77324951 16.99610352 31.77324951 16.99610352 33.00048828 16.89648438 C35 17 35 17 37 19 C32.0117749 20.61988753 27.79980704 21.27190003 22.5 21.25 C21.2521875 21.25515625 20.004375 21.2603125 18.71875 21.265625 C12.42841949 20.81631568 7.52039154 19.52039154 3 15 C0.80430655 10.93796712 0.68859634 7.82017439 0 3 C-8.415 3.495 -8.415 3.495 -17 4 C-16.67 3.34 -16.34 2.68 -16 2 C-10.72 2 -5.44 2 0 2 C0 1.34 0 0.68 0 0 Z " fill="#406379" transform="translate(113,169)"/>
<path d="M0 0 C1.98 0 3.96 0 6 0 C5.36707031 0.23332031 4.73414063 0.46664062 4.08203125 0.70703125 C1.82027027 1.8181411 1.82027027 1.8181411 1.19921875 4.13671875 C1.03035156 4.97847656 0.86148438 5.82023437 0.6875 6.6875 C-1.09820108 13.43998713 -4.9897802 16.81759064 -10.5 20.8125 C-18.26187675 24.49939146 -27.93453211 25.88703445 -36.28515625 23.2890625 C-37.86069934 22.53418691 -39.43077318 21.76791951 -41 21 C-43.83073081 21.19513752 -43.83073081 21.19513752 -46 22 C-45.34 20.68 -44.68 19.36 -44 18 C-43.02160156 18.2165625 -42.04320313 18.433125 -41.03515625 18.65625 C-25.58818355 21.99432578 -25.58818355 21.99432578 -11 17 C-4.39889457 12.57050006 -1.93252798 7.58145593 0 0 Z " fill="#A4D0F1" transform="translate(165,110)"/>
<path d="M0 0 C0.66 0 1.32 0 2 0 C1.79503906 0.59167969 1.59007812 1.18335938 1.37890625 1.79296875 C1.10949219 2.58316406 0.84007812 3.37335937 0.5625 4.1875 C0.29566406 4.96480469 0.02882813 5.74210937 -0.24609375 6.54296875 C-2.11741002 12.64171453 -2.23301304 18.56991207 -2.42578125 24.91796875 C-3 28 -3 28 -5.04296875 29.42578125 C-5.68878906 29.61527344 -6.33460937 29.80476563 -7 30 C-9.37758576 21.58257945 -8.06050093 13.08646118 -5 5 C-4.34 4.34 -3.68 3.68 -3 3 C-2.01 3 -1.02 3 0 3 C0 2.01 0 1.02 0 0 Z " fill="#6D778F" transform="translate(39,34)"/>
<path d="M0 0 C1 3 1 3 0.25 5.0625 C-1 7 -1 7 -4 9 C-6.19615166 9.42318791 -8.40766028 9.76996848 -10.625 10.0625 C-14.63490085 10.27373479 -14.63490085 10.27373479 -18 12 C-23.87927465 12.43019083 -31.03631203 11.43639936 -36 8 C-37.25 5.875 -37.25 5.875 -38 4 C-37.01 4.33 -36.02 4.66 -35 5 C-35 5.66 -35 6.32 -35 7 C-18.62238139 7.98312913 -18.62238139 7.98312913 -3 4 C-2.67 3.34 -2.34 2.68 -2 2 C-1.34 2 -0.68 2 0 2 C0 1.34 0 0.68 0 0 Z " fill="#47728C" transform="translate(89,179)"/>
<path d="M0 0 C0.33 0.99 0.66 1.98 1 3 C-0.65 4.65 -2.3 6.3 -4 8 C-3.05125 8.86625 -2.1025 9.7325 -1.125 10.625 C2.438348 14.18106099 5.38605493 18.04587435 8.3125 22.125 C8.960979 23.0214624 8.960979 23.0214624 9.62255859 23.93603516 C11.90457432 27.17180952 13.7186591 30.24800731 15 34 C10.13315223 32.6070153 8.26416081 30.18571056 5.375 26.125 C4.61960938 25.07570312 3.86421875 24.02640625 3.0859375 22.9453125 C2.39757812 21.97335938 1.70921875 21.00140625 1 20 C0.43667969 19.2678125 -0.12664062 18.535625 -0.70703125 17.78125 C-2.25333929 15.65098877 -3.03678894 13.44013469 -4 11 C-4.66 10.34 -5.32 9.68 -6 9 C-6 8.01 -6 7.02 -6 6 C-5.34 6 -4.68 6 -4 6 C-4.33 4.68 -4.66 3.36 -5 2 C-3.35 2 -1.7 2 0 2 C0 1.34 0 0.68 0 0 Z " fill="#4A617E" transform="translate(184,103)"/>
<path d="M0 0 C3.16115776 1.36983503 3.9927092 1.9890638 6 5 C4.72485508 7.55028983 3.59658703 7.93081711 1 9 C0.01 9 -0.98 9 -2 9 C-2.33 9.99 -2.66 10.98 -3 12 C-6.5625 13.6875 -6.5625 13.6875 -10 15 C-10.66 13.35 -11.32 11.7 -12 10 C-11.38511719 9.52949219 -10.77023438 9.05898437 -10.13671875 8.57421875 C-9.32847656 7.95160156 -8.52023438 7.32898438 -7.6875 6.6875 C-6.88699219 6.07261719 -6.08648437 5.45773438 -5.26171875 4.82421875 C-3.37298626 3.30083693 -1.66922364 1.75565593 0 0 Z " fill="#76C0F1" transform="translate(164,124)"/>
<path d="M0 0 C0.33 0 0.66 0 1 0 C1.02689449 2.95839355 1.04678741 5.91654427 1.0625 8.875 C1.07087891 9.71675781 1.07925781 10.55851562 1.08789062 11.42578125 C1.09111328 12.23144531 1.09433594 13.03710938 1.09765625 13.8671875 C1.10289307 14.61081543 1.10812988 15.35444336 1.11352539 16.12060547 C1 18 1 18 0 20 C-0.66 20 -1.32 20 -2 20 C-2.33 20.99 -2.66 21.98 -3 23 C-7.49029126 23.36407767 -7.49029126 23.36407767 -9.75 21.75 C-12.17909165 18.34927169 -12.11608736 14.82263899 -12.0625 10.75 C-12.05347656 9.85796875 -12.04445313 8.9659375 -12.03515625 8.046875 C-12.02355469 7.37140625 -12.01195313 6.6959375 -12 6 C-11.67 6 -11.34 6 -11 6 C-11 8.97 -11 11.94 -11 15 C-10.34 14.67 -9.68 14.34 -9 14 C-5.4375 13.875 -5.4375 13.875 -2 14 C-1.67 14.33 -1.34 14.66 -1 15 C-0.67 10.05 -0.34 5.1 0 0 Z " fill="#667EA3" transform="translate(78,69)"/>
<path d="M0 0 C6.96117796 -0.39989746 13.70931471 -0.30873707 20 3 C23.01225046 5.75796958 25.5510917 8.73706911 28 12 C27.67 12.66 27.34 13.32 27 14 C26.195625 13.2575 25.39125 12.515 24.5625 11.75 C15.23216543 4.19993617 5.54659176 4.24911741 -6 4 C-6 3.67 -6 3.34 -6 3 C-4.35 3 -2.7 3 -1 3 C-0.67 2.01 -0.34 1.02 0 0 Z " fill="#727387" transform="translate(98,4)"/>
<path d="M0 0 C3.00341199 1.31919589 4.5968798 2.64500928 6.6875 5.125 C10.6420616 8.69964738 14.50465918 8.40410062 19.5625 8.25 C20.6611438 8.19030029 20.6611438 8.19030029 21.78198242 8.12939453 C26.34065762 7.88922012 29.68182939 8.22634383 34 10 C30.41425934 11.06771434 26.91257208 11.27399346 23.1875 11.5 C18.40762524 11.81400637 13.72354926 12.21274179 9 13 C8.52949219 12.30132812 8.05898437 11.60265625 7.57421875 10.8828125 C6.95160156 9.97273438 6.32898438 9.06265625 5.6875 8.125 C5.07261719 7.22007813 4.45773438 6.31515625 3.82421875 5.3828125 C2.05086051 2.80028615 2.05086051 2.80028615 -1 1 C-0.67 0.67 -0.34 0.34 0 0 Z " fill="#474B5E" transform="translate(120,9)"/>
<path d="M0 0 C0.99 0 1.98 0 3 0 C3.15855469 0.72445312 3.31710938 1.44890625 3.48046875 2.1953125 C5.10871842 8.9422034 6.61805863 14.19358811 12.73828125 18.11328125 C15.7537351 19.29550582 18.52346274 19.43140776 21.75 19.625 C22.92046875 19.69976562 24.0909375 19.77453125 25.296875 19.8515625 C26.63492188 19.92503906 26.63492188 19.92503906 28 20 C28 20.33 28 20.66 28 21 C26.02 21.33 24.04 21.66 22 22 C22 22.66 22 23.32 22 24 C20.35 24.33 18.7 24.66 17 25 C17 24.34 17 23.68 17 23 C16.40832031 22.87625 15.81664062 22.7525 15.20703125 22.625 C10.44400118 21.38179476 7.63783797 20.24561808 4.9375 16 C3.41536179 13.29397652 3 12.17612362 3 9 C2.34 8.67 1.68 8.34 1 8 C1.66 8 2.32 8 3 8 C2.67 7.34 2.34 6.68 2 6 C1.34 6 0.68 6 0 6 C0 4.02 0 2.04 0 0 Z " fill="#6B95BF" transform="translate(36,113)"/>
<path d="M0 0 C0 0.66 0 1.32 0 2 C-0.78375 2.2475 -1.5675 2.495 -2.375 2.75 C-11.45715153 5.61154903 -11.45715153 5.61154903 -19.3125 10.75 C-22 13 -22 13 -24.875 13.3125 C-25.926875 13.1578125 -25.926875 13.1578125 -27 13 C-26.67 12.34 -26.34 11.68 -26 11 C-25.34 11 -24.68 11 -24 11 C-23.76152344 10.39414063 -23.52304688 9.78828125 -23.27734375 9.1640625 C-21.70914319 6.50723341 -20.29086848 5.76382468 -17.5625 4.375 C-14.91431661 3.00509953 -12.48943944 1.65962629 -10 0 C-6.33469563 -0.85783719 -3.58826313 -1.24209108 0 0 Z " fill="#525567" transform="translate(97,5)"/>
<path d="M0 0 C-1.30898007 5.42291742 -2.88909207 8.09990786 -7 12 C-5.35 12 -3.7 12 -2 12 C-1.67 12.66 -1.34 13.32 -1 14 C-4.96 14 -8.92 14 -13 14 C-12.00581546 9.02907731 -11.39751919 7.77867174 -8.1875 4.1875 C-7.50042969 3.39730469 -6.81335938 2.60710937 -6.10546875 1.79296875 C-4 0 -4 0 0 0 Z " fill="#AFDDEF" transform="translate(38,143)"/>
<path d="M0 0 C2.57751935 2.24132117 3.41042881 3.65542326 4 7 C4.63192662 18.11947811 4.88318506 27.75046779 -2.6875 36.5625 C-3.77830683 37.72105881 -4.8778856 38.87173703 -6 40 C-6.495 38.515 -6.495 38.515 -7 37 C-6.195625 36.2575 -5.39125 35.515 -4.5625 34.75 C-2.23011409 32.24695171 -1.36465606 31.2819045 -1 28 C-0.34 28 0.32 28 1 28 C0.814375 27.360625 0.62875 26.72125 0.4375 26.0625 C0.293125 25.381875 0.14875 24.70125 0 24 C0.33 23.67 0.66 23.34 1 23 C1.481069 16.73491541 1.03928155 10.91744551 -0.66015625 4.875 C-1 3 -1 3 0 0 Z " fill="#AFDDF2" transform="translate(184,67)"/>
<path d="M0 0 C0.33 0 0.66 0 1 0 C1.33 3.63 1.66 7.26 2 11 C2.66 11 3.32 11 4 11 C4 11.66 4 12.32 4 13 C8.06572629 12.8129369 8.06572629 12.8129369 12 12 C13.91744593 9.55690423 13.91744593 9.55690423 15 7 C15.66 7 16.32 7 17 7 C17.33 6.34 17.66 5.68 18 5 C18.1875 8.375 18.1875 8.375 18 12 C15 14 15 14 12 14 C11.34 15.32 10.68 16.64 10 18 C7.75 18.3125 7.75 18.3125 5 18 C0.93113251 13.81810841 -0.13678629 10.53254395 -0.0625 4.8125 C-0.05347656 3.91144531 -0.04445313 3.01039062 -0.03515625 2.08203125 C-0.02355469 1.39496094 -0.01195312 0.70789063 0 0 Z " fill="#9FD9F4" transform="translate(9,115)"/>
<path d="M0 0 C0.33 0 0.66 0 1 0 C1.19335938 0.94101563 1.38671875 1.88203125 1.5859375 2.8515625 C1.84632812 4.09679687 2.10671875 5.34203125 2.375 6.625 C2.63023438 7.85476562 2.88546875 9.08453125 3.1484375 10.3515625 C4.0421327 14.43412904 4.0421327 14.43412904 6 20 C1.38 20 -3.24 20 -8 20 C-5.21040099 17.90780074 -3.06775511 16.42431487 0 15 C-0.99 12.36 -1.98 9.72 -3 7 C-2.34 6.67 -1.68 6.34 -1 6 C-0.34227572 2.97065509 -0.34227572 2.97065509 0 0 Z " fill="#617493" transform="translate(20,86)"/>
<path d="M0 0 C2.375 -0.125 2.375 -0.125 5 0 C5.66 0.66 6.32 1.32 7 2 C6.53846154 8.46153846 6.53846154 8.46153846 4 11 C0.46428571 10.46428571 0.46428571 10.46428571 -1 9 C-1.23728814 2.47457627 -1.23728814 2.47457627 0 0 Z " fill="#D0EBF0" transform="translate(27,108)"/>
<path d="M0 0 C4.77777778 3.33333333 4.77777778 3.33333333 6 7 C5.01 7 4.02 7 3 7 C2.443125 6.319375 1.88625 5.63875 1.3125 4.9375 C-0.99339799 2.5604465 -0.99339799 2.5604465 -4.875 3.1875 C-6.25389579 3.43774405 -7.62937874 3.7078133 -9 4 C-13.0822063 4.73479713 -16.84710845 5.09887837 -21 5 C-21.33 4.34 -21.66 3.68 -22 3 C-20.95199219 2.79503906 -19.90398438 2.59007813 -18.82421875 2.37890625 C-17.44529231 2.10687314 -16.06638717 1.83473209 -14.6875 1.5625 C-13.65206055 1.36043945 -13.65206055 1.36043945 -12.59570312 1.15429688 C-2.30953947 -0.88305921 -2.30953947 -0.88305921 0 0 Z " fill="#C3EBFB" transform="translate(74,119)"/>
<path d="M0 0 C0.33 0 0.66 0 1 0 C2.15275146 3.49543992 2.63602306 6.35149565 2 10 C-1.2196154 13.9642519 -4.85227602 17.0008765 -9 20 C-9.33 20 -9.66 20 -10 20 C-10.375 17.3125 -10.375 17.3125 -10 14 C-7.1776078 11.24032763 -4.2771135 9.18474233 -1 7 C-0.26393501 3.43230448 -0.26393501 3.43230448 0 0 Z " fill="#C6EBF2" transform="translate(66,159)"/>
<path d="M0 0 C0.99 0 1.98 0 3 0 C3.20496094 0.75925781 3.40992187 1.51851562 3.62109375 2.30078125 C3.89050781 3.29464844 4.15992187 4.28851563 4.4375 5.3125 C4.70433594 6.29863281 4.97117187 7.28476563 5.24609375 8.30078125 C5.78079425 10.21517526 6.37144538 12.11433615 7 14 C4.525 13.505 4.525 13.505 2 13 C1.34 9.7 0.68 6.4 0 3 C-8.415 3.495 -8.415 3.495 -17 4 C-16.67 3.34 -16.34 2.68 -16 2 C-10.72 2 -5.44 2 0 2 C0 1.34 0 0.68 0 0 Z " fill="#4C7692" transform="translate(113,169)"/>
<path d="M0 0 C1.64826111 2.96687001 2.44271087 5.65626525 3 9 C2.34 9 1.68 9 1 9 C1 9.66 1 10.32 1 11 C-7.415 11.495 -7.415 11.495 -16 12 C-16 11.34 -16 10.68 -16 10 C-17.65 10 -19.3 10 -21 10 C-20.67 9.01 -20.34 8.02 -20 7 C-18.7934375 7.495 -18.7934375 7.495 -17.5625 8 C-11.97658258 9.56797682 -6.59149461 9.58130504 -1 8 C-0.67 5.36 -0.34 2.72 0 0 Z " fill="#6C95BA" transform="translate(112,160)"/>
<path d="M0 0 C0.66 0 1.32 0 2 0 C1.67 1.98 1.34 3.96 1 6 C2.65 6 4.3 6 6 6 C5.67 6.66 5.34 7.32 5 8 C4.34 7.67 3.68 7.34 3 7 C2.34 9.64 1.68 12.28 1 15 C0.34 15 -0.32 15 -1 15 C-1 15.66 -1 16.32 -1 17 C-1.66 17 -2.32 17 -3 17 C-3.33 17.99 -3.66 18.98 -4 20 C-4.66 19.67 -5.32 19.34 -6 19 C-5.566875 18.278125 -5.13375 17.55625 -4.6875 16.8125 C-2.03810061 11.60201454 -1.18764034 5.6770893 0 0 Z " fill="#547DA2" transform="translate(90,164)"/>
<path d="M0 0 C0 0.66 0 1.32 0 2 C0.680625 2.103125 1.36125 2.20625 2.0625 2.3125 C5.62915989 3.14725019 8.66222194 4.49472754 12 6 C12 6.99 12 7.98 12 9 C6.07639384 8.43584703 2.18653966 6.18653966 -2 2 C-3.67225729 2.30404678 -5.33753959 2.64628502 -7 3 C-10.00188475 3.09569767 -12.99750402 3.05887247 -16 3 C-11.0933184 -0.27112106 -5.77368192 -0.14082151 0 0 Z " fill="#A3D0E9" transform="translate(75,130)"/>
<path d="M0 0 C-0.875 6.75 -0.875 6.75 -2 9 C-2.22858114 11.0374763 -2.41024278 13.08040303 -2.5625 15.125 C-2.64628906 16.22070312 -2.73007813 17.31640625 -2.81640625 18.4453125 C-2.87699219 19.28835937 -2.93757812 20.13140625 -3 21 C-3.66 21 -4.32 21 -5 21 C-7.21555783 16.56888433 -6.54211409 10.80907658 -6 6 C-4.86579236 3.70292242 -2.93432459 0 0 0 Z " fill="#62738B" transform="translate(12,106)"/>
<path d="M0 0 C0.86625 0.4640625 0.86625 0.4640625 1.75 0.9375 C3.84904107 1.92871384 5.75074138 2.47548801 8 3 C8.07347656 3.92232422 8.07347656 3.92232422 8.1484375 4.86328125 C8.22320312 5.67152344 8.29796875 6.47976562 8.375 7.3125 C8.44460937 8.11300781 8.51421875 8.91351563 8.5859375 9.73828125 C8.89564426 12.27224441 8.89564426 12.27224441 11 15 C11.39387788 17.32387947 11.73486085 19.65793749 12 22 C7.4329423 18.4985891 6.7955246 14.42212817 6 9 C6 8.34 6 7.68 6 7 C5.01 7 4.02 7 3 7 C2.690625 6.21625 2.38125 5.4325 2.0625 4.625 C1.07124962 2.07669872 1.07124962 2.07669872 0 0 Z " fill="#B8E2F3" transform="translate(33,106)"/>
<path d="M0 0 C-0.99 0.33 -1.98 0.66 -3 1 C-2.97679688 1.77085937 -2.95359375 2.54171875 -2.9296875 3.3359375 C-2.90261719 4.84027344 -2.90261719 4.84027344 -2.875 6.375 C-2.85179688 7.37273437 -2.82859375 8.37046875 -2.8046875 9.3984375 C-3 12 -3 12 -5 14 C-5 10.04 -5 6.08 -5 2 C-6.65 2.66 -8.3 3.32 -10 4 C-11.32676508 4.35858516 -12.65835921 4.7018576 -14 5 C-13.67 4.01 -13.34 3.02 -13 2 C-14.65 2 -16.3 2 -18 2 C-18 1.67 -18 1.34 -18 1 C-15.56348622 0.63737003 -13.12623023 0.28461036 -10.6875 -0.0625 C-9.99720703 -0.16626953 -9.30691406 -0.27003906 -8.59570312 -0.37695312 C-5.30415164 -0.83808836 -3.19783876 -1.06594625 0 0 Z " fill="#4B74AB" transform="translate(71,133)"/>
<path d="M0 0 C0.33 0.66 0.66 1.32 1 2 C0.01 2 -0.98 2 -2 2 C-1.979375 2.94875 -1.95875 3.8975 -1.9375 4.875 C-2 8 -2 8 -3 10 C-5.97 9.505 -5.97 9.505 -9 9 C-8.4 3.6 -8.4 3.6 -6.75 1.125 C-4.41786614 -0.37422891 -2.71628175 -0.22023906 0 0 Z " fill="#696F81" transform="translate(76,66)"/>
<path d="M0 0 C1.9609375 1.171875 1.9609375 1.171875 4 3 C4.5390625 5.453125 4.5390625 5.453125 4.625 8.25 C4.87458507 12.83384289 5.55177513 16.65532539 7 21 C6.01 20.67 5.02 20.34 4 20 C1.51329437 14.83530368 -0.13682645 10.53563649 -0.0625 4.8125 C-0.05347656 3.91144531 -0.04445313 3.01039062 -0.03515625 2.08203125 C-0.02355469 1.39496094 -0.01195313 0.70789063 0 0 Z " fill="#BCE2EE" transform="translate(21,83)"/>
<path d="M0 0 C8.91 0 17.82 0 27 0 C27.33 0.99 27.66 1.98 28 3 C20.41 3.33 12.82 3.66 5 4 C5 3.34 5 2.68 5 2 C3.35 1.67 1.7 1.34 0 1 C0 0.67 0 0.34 0 0 Z " fill="#7DB1D5" transform="translate(122,184)"/>
<path d="M0 0 C2.64 0.66 5.28 1.32 8 2 C7.67 3.32 7.34 4.64 7 6 C4.525 5.505 4.525 5.505 2 5 C1.67 5.66 1.34 6.32 1 7 C0.01 7.495 0.01 7.495 -1 8 C-1 6.68 -1 5.36 -1 4 C-2.43836751 4.11458693 -3.87570966 4.24209116 -5.3125 4.375 C-6.51326172 4.47941406 -6.51326172 4.47941406 -7.73828125 4.5859375 C-10.27224441 4.89564426 -10.27224441 4.89564426 -13 7 C-13 5.68 -13 4.36 -13 3 C-6.565 2.505 -6.565 2.505 0 2 C0 1.34 0 0.68 0 0 Z " fill="#809FBC" transform="translate(25,103)"/>
<path d="M0 0 C0.66 0.33 1.32 0.66 2 1 C1.62746094 1.55429688 1.25492188 2.10859375 0.87109375 2.6796875 C0.39800781 3.40414062 -0.07507812 4.12859375 -0.5625 4.875 C-1.03816406 5.59429687 -1.51382812 6.31359375 -2.00390625 7.0546875 C-2.49697266 8.01761719 -2.49697266 8.01761719 -3 9 C-2.67 9.66 -2.34 10.32 -2 11 C-2.08744368 12.87862875 -2.24175542 14.75455181 -2.4375 16.625 C-2.53933594 17.62789062 -2.64117188 18.63078125 -2.74609375 19.6640625 C-2.82988281 20.43492188 -2.91367187 21.20578125 -3 22 C-3.33 22 -3.66 22 -4 22 C-4.33 19.03 -4.66 16.06 -5 13 C-5.99 13.33 -6.98 13.66 -8 14 C-7.84036991 7.61479646 -4.21875117 4.33991635 0 0 Z " fill="#DDF6FA" transform="translate(33,63)"/>
<path d="M0 0 C0.66 0 1.32 0 2 0 C2.33 2.31 2.66 4.62 3 7 C7.13418591 8.94456928 10.769997 9.37028021 15.3125 9.625 C16.56675781 9.69976562 17.82101563 9.77453125 19.11328125 9.8515625 C20.06589844 9.90054688 21.01851562 9.94953125 22 10 C22 10.33 22 10.66 22 11 C19.62492145 11.02719556 17.25016036 11.04693247 14.875 11.0625 C13.87726563 11.07506836 13.87726563 11.07506836 12.859375 11.08789062 C2.3671875 11.13932292 2.3671875 11.13932292 -0.875 8.4375 C-1.24625 7.963125 -1.6175 7.48875 -2 7 C-1.34 4.69 -0.68 2.38 0 0 Z " fill="#7AA7C8" transform="translate(53,176)"/>
<path d="M0 0 C0.77601562 0.16371094 1.55203125 0.32742187 2.3515625 0.49609375 C7.0492078 1.144912 11.64013661 1.10640387 16.375 1.0625 C17.76525391 1.05573242 17.76525391 1.05573242 19.18359375 1.04882812 C21.45579709 1.03711574 23.72786388 1.02071372 26 1 C26 1.66 26 2.32 26 3 C23.29315955 3.39185886 20.58596184 3.76383568 17.875 4.125 C16.73417969 4.29322266 16.73417969 4.29322266 15.5703125 4.46484375 C10.83203702 5.07755179 7.475474 5.01942119 3 3 C1.125 1.375 1.125 1.375 0 0 Z " fill="#4873AE" transform="translate(125,132)"/>
<path d="M0 0 C5.92224911 2.50704282 8.79361921 7.937478 11.9375 13.3125 C13 16 13 16 12 19 C11.55269531 18.26394531 11.10539063 17.52789062 10.64453125 16.76953125 C6.87370599 10.47844198 6.87370599 10.47844198 2.0625 5 C1.381875 4.34 0.70125 3.68 0 3 C0 2.01 0 1.02 0 0 Z " fill="#A3D9EC" transform="translate(182,121)"/>
<path d="M0 0 C0.5671875 0.32484375 1.134375 0.6496875 1.71875 0.984375 C4.18710174 2.08329872 5.81603219 2.26838334 8.5 2.25 C9.2528125 2.25515625 10.005625 2.2603125 10.78125 2.265625 C13.2296721 1.97250404 14.87304054 1.21816769 17 0 C15.63016497 3.16115776 15.0109362 3.9927092 12 6 C4.90140845 6.67605634 4.90140845 6.67605634 1.5 4.125 C0 2 0 2 0 0 Z " fill="#8A90A0" transform="translate(86,93)"/>
<path d="M0 0 C3.71599191 -0.20086443 4.77208445 -0.1519437 8 2 C8.99 1.67 9.98 1.34 11 1 C11.99 1.33 12.98 1.66 14 2 C16.35188447 1.40206327 18.68925595 0.74118205 21 0 C19 3 19 3 16 4 C10.95063533 4.29098034 5.91385603 4.31036161 1 3 C0.67 2.01 0.34 1.02 0 0 Z " fill="#BBE8FB" transform="translate(83,128)"/>
<path d="M0 0 C0.33 0.66 0.66 1.32 1 2 C1.721875 2.061875 2.44375 2.12375 3.1875 2.1875 C7.44731642 3.41811363 9.38483325 6.55804514 12 10 C10.54096742 9.69078116 9.08279278 9.37751201 7.625 9.0625 C6.81289062 8.88847656 6.00078125 8.71445312 5.1640625 8.53515625 C3 8 3 8 1 7 C0.59270772 4.67843403 0.25561323 2.3431213 0 0 Z " fill="#C4E6EF" transform="translate(170,54)"/>
<path d="M0 0 C2.15174626 3.22761938 2.5477199 4.25336282 2 8 C0.3203125 9.73046875 0.3203125 9.73046875 -1.875 11.1875 C-4.13665984 12.7236453 -6.06075062 14.06075062 -8 16 C-8.66 14.68 -9.32 13.36 -10 12 C-8.71186658 11.16121545 -7.41936744 10.32913217 -6.125 9.5 C-5.40570313 9.0359375 -4.68640625 8.571875 -3.9453125 8.09375 C-2 7 -2 7 0 7 C0 4.69 0 2.38 0 0 Z " fill="#7194B7" transform="translate(63,159)"/>
<path d="M0 0 C0.66 0 1.32 0 2 0 C0.55049545 3.7910119 -1.15172566 7.3874638 -3 11 C-1.68 11.33 -0.36 11.66 1 12 C-1.31 12 -3.62 12 -6 12 C-6.125 6.25 -6.125 6.25 -5 4 C-4.01 3.67 -3.02 3.34 -2 3 C-1.34 2.01 -0.68 1.02 0 0 Z " fill="#6D8DAD" transform="translate(28,146)"/>
<path d="M0 0 C1.57554035 2.88628401 2.46276373 5.53342384 3.125 8.75 C3.29257812 9.54921875 3.46015625 10.3484375 3.6328125 11.171875 C3.81457031 12.07679687 3.81457031 12.07679687 4 13 C3.01 13 2.02 13 1 13 C0.34 14.32 -0.32 15.64 -1 17 C-1.02699725 14.72923158 -1.04639453 12.45837179 -1.0625 10.1875 C-1.07990234 8.29064453 -1.07990234 8.29064453 -1.09765625 6.35546875 C-1 3 -1 3 0 0 Z " fill="#C9ECFA" transform="translate(42,104)"/>
<path d="M0 0 C2.31 0 4.62 0 7 0 C6.67 2.31 6.34 4.62 6 7 C4.02 7 2.04 7 0 7 C0 4.66666667 0 2.33333333 0 0 Z " fill="#4C7EC1" transform="translate(117,86)"/>
<path d="M0 0 C2.92710398 1.33810468 5.16754924 2.85686733 7.5625 5 C9.66995197 6.87746278 11.63332529 8.42221686 14 10 C11 12 11 12 8 12 C6.5 10.1015625 6.5 10.1015625 5 7.625 C3.09207508 4.49481067 2.11437014 3.07624676 -1 1 C-0.67 0.67 -0.34 0.34 0 0 Z " fill="#353C4E" transform="translate(120,9)"/>
<path d="M0 0 C0.33 0.66 0.66 1.32 1 2 C5.29 2 9.58 2 14 2 C13.67 2.66 13.34 3.32 13 4 C9.37 3.67 5.74 3.34 2 3 C1.71125 4.629375 1.4225 6.25875 1.125 7.9375 C0.6328125 10.71484375 0.6328125 10.71484375 0 13 C-0.99 13.495 -0.99 13.495 -2 14 C-1.85795259 12.41632253 -1.71119847 10.83306682 -1.5625 9.25 C-1.48128906 8.36828125 -1.40007812 7.4865625 -1.31640625 6.578125 C-1.03761535 4.30649548 -0.61209423 2.20148177 0 0 Z " fill="#5788C4" transform="translate(93,150)"/>
<path d="M0 0 C0.33 0 0.66 0 1 0 C1.94351599 7.53537771 2.07726572 13.66847392 0 21 C-0.33 21 -0.66 21 -1 21 C-1.0269501 18.06243881 -1.04681474 15.12512445 -1.0625 12.1875 C-1.07087891 11.35412109 -1.07925781 10.52074219 -1.08789062 9.66210938 C-1.09111328 8.85966797 -1.09433594 8.05722656 -1.09765625 7.23046875 C-1.10289307 6.49207764 -1.10812988 5.75368652 -1.11352539 4.99291992 C-1 3 -1 3 0 0 Z " fill="#5C86B7" transform="translate(65,141)"/>
<path d="M0 0 C0.66 0.33 1.32 0.66 2 1 C1.27683594 1.68835938 1.27683594 1.68835938 0.5390625 2.390625 C-0.09257812 3.00421875 -0.72421875 3.6178125 -1.375 4.25 C-2.00148437 4.85328125 -2.62796875 5.4565625 -3.2734375 6.078125 C-5.07984371 7.91809429 -5.07984371 7.91809429 -6.09375 10.1875 C-7 12 -7 12 -9.125 12.75 C-10.053125 12.87375 -10.053125 12.87375 -11 13 C-11 11.68 -11 10.36 -11 9 C-9.35546875 7.40234375 -9.35546875 7.40234375 -7.1875 5.9375 C-4.53754708 4.11776912 -2.20612913 2.34531708 0 0 Z " fill="#68A8E6" transform="translate(164,124)"/>
<path d="M0 0 C1 3 1 3 0.25 5.0625 C-1 7 -1 7 -4 9 C-6.76020996 9.37167184 -9.18852476 9.17850636 -12 9 C-12.66 8.34 -13.32 7.68 -14 7 C-13.21753906 6.80664062 -12.43507813 6.61328125 -11.62890625 6.4140625 C-10.61699219 6.15367187 -9.60507813 5.89328125 -8.5625 5.625 C-7.55316406 5.36976563 -6.54382813 5.11453125 -5.50390625 4.8515625 C-2.84429676 4.27426046 -2.84429676 4.27426046 -2 2 C-1.34 2 -0.68 2 0 2 C0 1.34 0 0.68 0 0 Z " fill="#577D9A" transform="translate(89,179)"/>
<path d="M0 0 C3.3 0.99 6.6 1.98 10 3 C10.33 4.98 10.66 6.96 11 9 C10.01 9.495 10.01 9.495 9 10 C8.27840576 11.64363134 7.60648579 13.31050386 7 15 C5.74458443 11.23375329 6.62938042 9.62811066 8 6 C7.4225 5.7525 6.845 5.505 6.25 5.25 C3.6997003 3.83316683 1.98214299 2.12372463 0 0 Z " fill="#475885" transform="translate(44,167)"/>
<path d="M0 0 C4.455 0.99 4.455 0.99 9 2 C9 2.66 9 3.32 9 4 C13.95 4.33 18.9 4.66 24 5 C24 5.33 24 5.66 24 6 C10.17368173 6.51776781 10.17368173 6.51776781 5.9375 4.4375 C2.67061457 2.83881139 1.3876076 2.87079747 -2 4 C-1.34 2.68 -0.68 1.36 0 0 Z " fill="#8FBBDD" transform="translate(121,128)"/>
<path d="M0 0 C4 5 4 5 8 10 C5.25 10.3125 5.25 10.3125 2 10 C-0.375 7.6875 -0.375 7.6875 -2 5 C-2 4.01 -2 3.02 -2 2 C-1.34 2 -0.68 2 0 2 C0 1.34 0 0.68 0 0 Z " fill="#6B7F9D" transform="translate(9,125)"/>
<path d="M0 0 C3.13615492 -0.51202529 5.87999737 -0.67139297 9 0 C11.82281136 2.33188764 13.91801508 5.0008706 16 8 C15.67 8.66 15.34 9.32 15 10 C14.195625 9.2575 13.39125 8.515 12.5625 7.75 C8.78717071 4.57220484 4.55184084 2.81062113 0 1 C0 0.67 0 0.34 0 0 Z " fill="#6F7B8F" transform="translate(110,8)"/>
<path d="M0 0 C0 2 0 2 -2.5 4.625 C-3.325 5.40875 -4.15 6.1925 -5 7 C-3.35 7 -1.7 7 0 7 C0.33 7.66 0.66 8.32 1 9 C-2.96 9 -6.92 9 -11 9 C-10.67 8.01 -10.34 7.02 -10 6 C-9.34 6 -8.68 6 -8 6 C-6.49985609 4.66710346 -6.49985609 4.66710346 -5 3 C-2.22222222 0 -2.22222222 0 0 0 Z " fill="#A0D1ED" transform="translate(36,148)"/>
<path d="M0 0 C2.78513167 0.4126121 4.05068684 1.04223903 6.25 2.875 C9.69614761 5.53793225 12.88568142 6.60531574 17 8 C15.24609375 9.1015625 15.24609375 9.1015625 13 10 C8.1738439 8.67592536 3.60466945 5.37937761 0 2 C0 1.34 0 0.68 0 0 Z " fill="#5582B3" transform="translate(70,131)"/>
<path d="M0 0 C0 0.99 0 1.98 0 3 C-0.66 3 -1.32 3 -2 3 C-1.525625 3.7425 -1.05125 4.485 -0.5625 5.25 C0.79646914 7.64178568 1.42045741 9.36673854 2 12 C1.51789063 11.57847656 1.03578125 11.15695313 0.5390625 10.72265625 C-0.09257812 10.17480469 -0.72421875 9.62695312 -1.375 9.0625 C-2.00148437 8.51722656 -2.62796875 7.97195312 -3.2734375 7.41015625 C-4.95632334 5.93041376 -4.95632334 5.93041376 -7 5 C-7 4.34 -7 3.68 -7 3 C-2.61538462 0 -2.61538462 0 0 0 Z " fill="#587AA4" transform="translate(180,106)"/>
<path d="M0 0 C1.32 0 2.64 0 4 0 C4.32613618 4.67461851 3.70582788 7.16674383 1 11 C0.34 10.34 -0.32 9.68 -1 9 C-0.9765625 6.8359375 -0.9765625 6.8359375 -0.625 4.375 C-0.51414063 3.55773437 -0.40328125 2.74046875 -0.2890625 1.8984375 C-0.19367188 1.27195313 -0.09828125 0.64546875 0 0 Z " fill="#6387AC" transform="translate(150,176)"/>
<path d="M0 0 C1.23485118 3.75168526 1.02908752 7.21007844 0.8125 11.125 C0.75707031 12.36507812 0.70164062 13.60515625 0.64453125 14.8828125 C0 18 0 18 -2.05078125 19.4296875 C-2.69402344 19.61789063 -3.33726563 19.80609375 -4 20 C-4.33 18.68 -4.66 17.36 -5 16 C-3.68 15.34 -2.36 14.68 -1 14 C-1.01160156 13.24074219 -1.02320313 12.48148438 -1.03515625 11.69921875 C-1.04417969 10.70535156 -1.05320313 9.71148437 -1.0625 8.6875 C-1.07410156 7.70136719 -1.08570313 6.71523438 -1.09765625 5.69921875 C-1 3 -1 3 0 0 Z " fill="#8A9DB9" transform="translate(36,44)"/>
<path d="M0 0 C0.66 1.32 1.32 2.64 2 4 C0.35 5.98 -1.3 7.96 -3 10 C-4.32 9.34 -5.64 8.68 -7 8 C-5.38405168 5.95880212 -3.7143618 3.95927063 -2 2 C-1.34 2 -0.68 2 0 2 C0 1.34 0 0.68 0 0 Z " fill="#57667C" transform="translate(30,61)"/>
<path d="M0 0 C3.3 0 6.6 0 10 0 C6 2 6 2 3 2 C3.20625 3.258125 3.4125 4.51625 3.625 5.8125 C4.21335669 9.4014758 4.16617415 9.75073878 2 13 C1.66127487 11.58461283 1.32925376 10.16762037 1 8.75 C0.814375 7.96109375 0.62875 7.1721875 0.4375 6.359375 C0 4 0 4 0 0 Z " fill="#578FD5" transform="translate(135,136)"/>
<path d="M0 0 C1.88361553 2.82542329 2.31902686 3.81059318 2.6875 7 C2.77386719 7.680625 2.86023438 8.36125 2.94921875 9.0625 C3 11 3 11 2 14 C-1.07229068 10.92770932 -0.97870799 8.62811424 -1.125 4.3125 C-1 1 -1 1 0 0 Z " fill="#445367" transform="translate(190,73)"/>
<path d="M0 0 C3.47162014 1.15720671 4.13156927 1.9425679 6 5 C6.6875 7.75 6.6875 7.75 7 10 C6.01 10.495 6.01 10.495 5 11 C4.401875 10.0925 3.80375 9.185 3.1875 8.25 C1.51893234 5.77098519 -0.17936855 3.36682089 -2 1 C-1.34 0.67 -0.68 0.34 0 0 Z " fill="#5A90C4" transform="translate(170,125)"/>
<path d="M0 0 C0.99 0 1.98 0 3 0 C3.55582752 1.95436127 4.09428713 3.91366982 4.625 5.875 C4.92664062 6.96554688 5.22828125 8.05609375 5.5390625 9.1796875 C5.69117188 10.11039063 5.84328125 11.04109375 6 12 C5.34 12.66 4.68 13.32 4 14 C3.87625 13.195625 3.7525 12.39125 3.625 11.5625 C3.315625 10.2940625 3.315625 10.2940625 3 9 C2.34 8.67 1.68 8.34 1 8 C1.66 8 2.32 8 3 8 C2.67 7.34 2.34 6.68 2 6 C1.34 6 0.68 6 0 6 C0 4.02 0 2.04 0 0 Z " fill="#89B2CF" transform="translate(36,113)"/>
<path d="M0 0 C0 0.99 0 1.98 0 3 C-1.6396875 2.5359375 -1.6396875 2.5359375 -3.3125 2.0625 C-8.48276323 0.7536901 -13.69261392 0.37073653 -19 0 C-19 -0.33 -19 -0.66 -19 -1 C-16.95999027 -1.22397733 -14.91783811 -1.42848537 -12.875 -1.625 C-11.73804688 -1.74101562 -10.60109375 -1.85703125 -9.4296875 -1.9765625 C-5.83488201 -2.00112837 -3.319329 -1.32167811 0 0 Z " fill="#85899B" transform="translate(155,21)"/>
<path d="M0 0 C-0.33 1.98 -0.66 3.96 -1 6 C-1.99 6.33 -2.98 6.66 -4 7 C-4.66 6.34 -5.32 5.68 -6 5 C-6 3.68 -6 2.36 -6 1 C-4 0 -4 0 0 0 Z " fill="#5084C5" transform="translate(76,84)"/>
<path d="M0 0 C2.0343459 1.41519715 2.90410393 2.54982123 3.421875 4.98046875 C3.66273952 6.98176954 3.83532741 8.9909944 4 11 C3.01 11.33 2.02 11.66 1 12 C0.63597631 10.56496445 0.28413409 9.12683494 -0.0625 7.6875 C-0.25972656 6.88699219 -0.45695313 6.08648437 -0.66015625 5.26171875 C-1 3 -1 3 0 0 Z " fill="#B0D7E7" transform="translate(184,67)"/>
<path d="M0 0 C1.32 0 2.64 0 4 0 C3.67 2.31 3.34 4.62 3 7 C1.68 7 0.36 7 -1 7 C-1.04254356 5.00045254 -1.04080783 2.99958364 -1 1 C-0.67 0.67 -0.34 0.34 0 0 Z " fill="#D1D5D9" transform="translate(118,70)"/>
<path d="M0 0 C1.32 0 2.64 0 4 0 C2.84826645 2.46800047 1.95216435 4.04783565 0 6 C-2.56916657 6.30599063 -5.04758384 6.51087087 -7.625 6.625 C-8.68460938 6.68300781 -8.68460938 6.68300781 -9.765625 6.7421875 C-11.50998524 6.83647724 -13.25495691 6.91932891 -15 7 C-12.31907309 4.31907309 -10.60832637 4.61329743 -6.875 4.375 C-5.77929688 4.30023437 -4.68359375 4.22546875 -3.5546875 4.1484375 C-2.71164063 4.09945313 -1.86859375 4.05046875 -1 4 C-0.67 2.68 -0.34 1.36 0 0 Z " fill="#7E8399" transform="translate(70,18)"/>
<path d="M0 0 C0.66 0.33 1.32 0.66 2 1 C0.09797311 3.03660426 -1.81938491 5.05331336 -3.75 7.0625 C-4.55824219 7.93358398 -4.55824219 7.93358398 -5.3828125 8.82226562 C-6.984375 10.47265625 -6.984375 10.47265625 -10 13 C-12.18847656 12.65795898 -12.18847656 12.65795898 -14 12 C-13.2575 11.608125 -12.515 11.21625 -11.75 10.8125 C-8.77050448 8.84874159 -7.18343081 6.79752073 -5 4 C-3.36643049 2.62631655 -1.7074998 1.28062485 0 0 Z " fill="#CFD1D9" transform="translate(81,12)"/>
<path d="M0 0 C0.33 0.66 0.66 1.32 1 2 C0.175 1.938125 -0.65 1.87625 -1.5 1.8125 C-5.88193696 2.04724662 -8.95495082 3.32618654 -13 5 C-12.25 2.5625 -12.25 2.5625 -11 0 C-7.50816647 -1.81058035 -3.71127049 -0.77026369 0 0 Z " fill="#37566C" transform="translate(193,155)"/>
<path d="M0 0 C-2.33214148 1.20628008 -4.49642139 2.1654738 -7 3 C-7 2.34 -7 1.68 -7 1 C-11.95 1 -16.9 1 -22 1 C-22 0.67 -22 0.34 -22 0 C-19.27119539 -0.19555932 -16.54228931 -0.38170447 -13.8125 -0.5625 C-13.04357422 -0.61857422 -12.27464844 -0.67464844 -11.48242188 -0.73242188 C-7.45938647 -0.99141557 -3.93927628 -1.06573607 0 0 Z " fill="#5A88A7" transform="translate(150,187)"/>
<path d="M0 0 C0.33 0 0.66 0 1 0 C1.08086376 2.93804996 1.1404283 5.87388075 1.1875 8.8125 C1.21263672 9.64587891 1.23777344 10.47925781 1.26367188 11.33789062 C1.27333984 12.14033203 1.28300781 12.94277344 1.29296875 13.76953125 C1.3086792 14.50792236 1.32438965 15.24631348 1.34057617 16.00708008 C0.91074167 18.52230522 -0.07463062 19.39441516 -2 21 C-2.33 20.34 -2.66 19.68 -3 19 C-2.70351562 18.45859375 -2.40703125 17.9171875 -2.1015625 17.359375 C-0.56788446 14.07447595 -0.53668429 10.81379123 -0.375 7.25 C-0.33632812 6.55261719 -0.29765625 5.85523437 -0.2578125 5.13671875 C-0.16401376 3.42489182 -0.08093826 1.71248318 0 0 Z " fill="#6F7E97" transform="translate(78,69)"/>
<path d="M0 0 C0.33 0.99 0.66 1.98 1 3 C1.66 3 2.32 3 3 3 C3.99 5.97 4.98 8.94 6 12 C5.01 12 4.02 12 3 12 C0.60926555 8.17482487 0.44033448 4.40334476 0 0 Z " fill="#3F4D6E" transform="translate(184,60)"/>
<path d="M0 0 C4.43458973 1.3937282 6.87378374 3.60582235 10 7 C6.6875 6.8125 6.6875 6.8125 3 6 C0 2.12903226 0 2.12903226 0 0 Z " fill="#414861" transform="translate(154,20)"/>
<path d="M0 0 C1.64826111 2.96687001 2.44271087 5.65626525 3 9 C2.34 9 1.68 9 1 9 C1 9.66 1 10.32 1 11 C0.34 11 -0.32 11 -1 11 C-1 10.34 -1 9.68 -1 9 C-1.66 8.67 -2.32 8.34 -3 8 C-2.34 8 -1.68 8 -1 8 C-0.67 5.36 -0.34 2.72 0 0 Z " fill="#6F9BC8" transform="translate(112,160)"/>
<path d="M0 0 C3.59634744 3.49359465 6.83451967 7.11098131 10 11 C7 11 7 11 5.0625 9.1875 C4.0415625 8.1046875 4.0415625 8.1046875 3 7 C1.68441297 5.97676564 0.35622245 4.96873032 -1 4 C-0.67 2.68 -0.34 1.36 0 0 Z " fill="#5A86B1" transform="translate(140,160)"/>
<path d="M0 0 C0.125 2.875 0.125 2.875 0 6 C-0.66 6.66 -1.32 7.32 -2 8 C-2 6.02 -2 4.04 -2 2 C-2.721875 2.474375 -3.44375 2.94875 -4.1875 3.4375 C-6.89475226 4.94152903 -8.96194275 5.56599182 -12 6 C-10.66666667 5 -9.33333333 4 -8 3 C-7.01 2.1646875 -7.01 2.1646875 -6 1.3125 C-4 0 -4 0 0 0 Z " fill="#6296D8" transform="translate(66,135)"/>
<path d="M0 0 C4.82360189 -0.19294408 8.49646738 0.24252386 13 2 C13 2.33 13 2.66 13 3 C5.73846154 4.47692308 5.73846154 4.47692308 2 2.0625 C1.34 1.381875 0.68 0.70125 0 0 Z " fill="#486F89" transform="translate(12,135)"/>
<path d="M0 0 C0.33 0.99 0.66 1.98 1 3 C-0.65 4.65 -2.3 6.3 -4 8 C-2.68 9.65 -1.36 11.3 0 13 C-2.46800047 11.84826645 -4.04783565 10.95216435 -6 9 C-6 8.01 -6 7.02 -6 6 C-5.34 6 -4.68 6 -4 6 C-4.33 4.68 -4.66 3.36 -5 2 C-3.35 2 -1.7 2 0 2 C0 1.34 0 0.68 0 0 Z " fill="#334155" transform="translate(184,103)"/>
<path d="M0 0 C0.66 1.98 1.32 3.96 2 6 C1.01 6.495 1.01 6.495 0 7 C0 5.68 0 4.36 0 3 C-2.97 3 -5.94 3 -9 3 C-9 2.34 -9 1.68 -9 1 C-2.25 0 -2.25 0 0 0 Z " fill="#405C8A" transform="translate(125,81)"/>
<path d="M0 0 C0.79148438 -0.01417969 1.58296875 -0.02835938 2.3984375 -0.04296875 C4.625 0.1875 4.625 0.1875 7.625 2.1875 C7.625 2.8475 7.625 3.5075 7.625 4.1875 C5.83267663 3.87878878 4.04115679 3.56540936 2.25 3.25 C1.25226563 3.07597656 0.25453125 2.90195313 -0.7734375 2.72265625 C-3.375 2.1875 -3.375 2.1875 -5.375 1.1875 C-3.79539731 -0.39210269 -2.17963184 0.01763456 0 0 Z " fill="#638FB9" transform="translate(189.375,152.8125)"/>
<path d="M0 0 C0.66 0 1.32 0 2 0 C2 2.97 2 5.94 2 9 C0.68 8.34 -0.64 7.68 -2 7 C-1.34 4.69 -0.68 2.38 0 0 Z " fill="#678CAF" transform="translate(53,176)"/>
<path d="M0 0 C0.33 0 0.66 0 1 0 C2.125 7.75 2.125 7.75 1 10 C0.34 10 -0.32 10 -1 10 C-1.33 10.99 -1.66 11.98 -2 13 C-2.66 12.67 -3.32 12.34 -4 12 C-3.525625 11.13375 -3.05125 10.2675 -2.5625 9.375 C-1.06765105 6.14612626 -0.41781687 3.50966174 0 0 Z " fill="#71A1C6" transform="translate(88,171)"/>
<path d="M0 0 C-0.99 0.495 -0.99 0.495 -2 1 C-2.33 1.99 -2.66 2.98 -3 4 C-4.62332967 5.38576923 -6.28724465 6.72641268 -8 8 C-8.36075949 3.55063291 -8.36075949 3.55063291 -6.8125 1.1875 C-4.44017475 -0.36678206 -2.77958655 -0.22537188 0 0 Z " fill="#4A6486" transform="translate(180,160)"/>
<path d="M0 0 C1.9375 0.6875 1.9375 0.6875 4 2 C4.75 4.625 4.75 4.625 5 7 C4.01 7.495 4.01 7.495 3 8 C1.02 4.535 1.02 4.535 -1 1 C-0.67 0.67 -0.34 0.34 0 0 Z " fill="#566C8E" transform="translate(188,123)"/>
<path d="M0 0 C0.33 1.32 0.66 2.64 1 4 C2.32 4.33 3.64 4.66 5 5 C5 5.66 5 6.32 5 7 C4.05125 6.814375 3.1025 6.62875 2.125 6.4375 C-0.89868793 5.71313368 -0.89868793 5.71313368 -3 7 C-2.38722388 4.03824877 -1.74627478 2.61941217 0 0 Z " fill="#4B81B8" transform="translate(165,119)"/>
<path d="M0 0 C0.33 0 0.66 0 1 0 C1.66 3.96 2.32 7.92 3 12 C2.01 12 1.02 12 0 12 C-1.6875 9.5 -1.6875 9.5 -3 7 C-2.34 6.67 -1.68 6.34 -1 6 C-0.34227572 2.97065509 -0.34227572 2.97065509 0 0 Z " fill="#7A93B1" transform="translate(20,86)"/>
<path d="M0 0 C0.99 0 1.98 0 3 0 C2.67 2.31 2.34 4.62 2 7 C1.01 7 0.02 7 -1 7 C-1.04254356 5.00045254 -1.04080783 2.99958364 -1 1 C-0.67 0.67 -0.34 0.34 0 0 Z " fill="#C9CFD4" transform="translate(71,69)"/>
<path d="M0 0 C0.33 0.66 0.66 1.32 1 2 C-0.125 4.625 -0.125 4.625 -2 7 C-4.6875 7.3125 -4.6875 7.3125 -7 7 C-6.67 6.34 -6.34 5.68 -6 5 C-5.34 5 -4.68 5 -4 5 C-3.71125 4.360625 -3.4225 3.72125 -3.125 3.0625 C-2 1 -2 1 0 0 Z " fill="#3D4855" transform="translate(77,11)"/>
<path d="M0 0 C0.33 0.66 0.66 1.32 1 2 C1.99 2.33 2.98 2.66 4 3 C1.03 5.475 1.03 5.475 -2 8 C-2.125 5.125 -2.125 5.125 -2 2 C-1.34 1.34 -0.68 0.68 0 0 Z " fill="#B7E3EF" transform="translate(58,171)"/>
<path d="M0 0 C2.10827055 3.16240582 2.33817465 4.50657469 2.625 8.1875 C2.69976562 9.08855469 2.77453125 9.98960937 2.8515625 10.91796875 C2.90054688 11.60503906 2.94953125 12.29210937 3 13 C0.59932894 10.59932894 0.44215079 9.22778045 -0.1875 5.9375 C-0.36667969 5.03902344 -0.54585937 4.14054688 -0.73046875 3.21484375 C-0.81941406 2.48394531 -0.90835938 1.75304687 -1 1 C-0.67 0.67 -0.34 0.34 0 0 Z " fill="#4C7BAE" transform="translate(137,149)"/>
<path d="M0 0 C0.33 0.66 0.66 1.32 1 2 C-2.99560608 4.83022097 -6.42737323 3.76210446 -11 3 C-11 2.67 -11 2.34 -11 2 C-9.54494642 1.47007308 -8.08581873 0.9513211 -6.625 0.4375 C-5.81289062 0.14746094 -5.00078125 -0.14257812 -4.1640625 -0.44140625 C-2 -1 -2 -1 0 0 Z " fill="#6897C5" transform="translate(114,137)"/>
<path d="M0 0 C0 1.32 0 2.64 0 4 C-0.66 4 -1.32 4 -2 4 C-2 4.66 -2 5.32 -2 6 C-0.68 6.33 0.64 6.66 2 7 C0.02 7 -1.96 7 -4 7 C-4 5.02 -4 3.04 -4 1 C-2 0 -2 0 0 0 Z " fill="#B2DAE9" transform="translate(24,113)"/>
<path d="M0 0 C0.598125 0.309375 1.19625 0.61875 1.8125 0.9375 C4.08956772 2.10209704 4.08956772 2.10209704 7 3 C7 4.98 7 6.96 7 9 C6.67 8.34 6.34 7.68 6 7 C5.01 7 4.02 7 3 7 C2.690625 6.21625 2.38125 5.4325 2.0625 4.625 C1.07124962 2.07669872 1.07124962 2.07669872 0 0 Z " fill="#9BCAE8" transform="translate(33,106)"/>
<path d="M0 0 C0.99 0.66 1.98 1.32 3 2 C2.01 4.97 1.02 7.94 0 11 C-2 8 -2 8 -1.7578125 5.95703125 C-1.171875 3.97135417 -0.5859375 1.98567708 0 0 Z " fill="#496079" transform="translate(189,88)"/>
<path d="M0 0 C3.81684226 1.55500981 6.19195732 4.03595495 9 7 C6.23723823 6.47731534 3.6739124 5.89130413 1 5 C0.67 3.35 0.34 1.7 0 0 Z " fill="#779BC2" transform="translate(42,162)"/>
<path d="M0 0 C3.69900008 0.88776002 7.34550461 1.94581864 11 3 C11 3.66 11 4.32 11 5 C6.1948447 5.56531239 3.75696103 3.88324916 0 1 C0 0.67 0 0.34 0 0 Z " fill="#ABD7EE" transform="translate(45,128)"/>
<path d="M0 0 C2.97526665 2.55022856 4.50122302 5.40293526 6 9 C5.67 9.99 5.34 10.98 5 12 C3.96951963 10.3811004 2.95085322 8.75467511 1.9375 7.125 C1.36902344 6.22007812 0.80054688 5.31515625 0.21484375 4.3828125 C-0.18605469 3.59648437 -0.58695313 2.81015625 -1 2 C-0.67 1.34 -0.34 0.68 0 0 Z " fill="#98D0EA" transform="translate(189,128)"/>
<path d="M0 0 C0.33 0 0.66 0 1 0 C1.33 3.63 1.66 7.26 2 11 C2.66 11 3.32 11 4 11 C4 11.66 4 12.32 4 13 C4.66 13.33 5.32 13.66 6 14 C5.01 14.33 4.02 14.66 3 15 C-0.77755334 10.27805833 -0.30096975 5.74071928 0 0 Z " fill="#AAD3E5" transform="translate(9,115)"/>
<path d="M0 0 C4.62 0.99 9.24 1.98 14 3 C14 3.33 14 3.66 14 4 C8.0819503 5.32854177 5.22270869 4.66464729 0 2 C0 1.34 0 0.68 0 0 Z " fill="#B2E0FA" transform="translate(125,120)"/>
<path d="M0 0 C0.66 0.33 1.32 0.66 2 1 C-0.97 4.96 -0.97 4.96 -4 9 C-4.99 8.67 -5.98 8.34 -7 8 C-4.69 5.36 -2.38 2.72 0 0 Z " fill="#D6E1E8" transform="translate(33,63)"/>
<path d="M0 0 C0.66 0 1.32 0 2 0 C2 2.31 2 4.62 2 7 C1.01 7.33 0.02 7.66 -1 8 C-1.625 5.6875 -1.625 5.6875 -2 3 C-1.34 2.01 -0.68 1.02 0 0 Z " fill="#67749E" transform="translate(33,51)"/>
<path d="M0 0 C2.05859375 0.171875 2.05859375 0.171875 4.4375 0.75 C5.21996094 0.93046875 6.00242187 1.1109375 6.80859375 1.296875 C9 2 9 2 12 4 C9.36 4 6.72 4 4 4 C4 3.67 4 3.34 4 3 C1.03 2.505 1.03 2.505 -2 2 C-1.34 1.34 -0.68 0.68 0 0 Z " fill="#2A2F43" transform="translate(106,4)"/>
<path d="M0 0 C0 0.66 0 1.32 0 2 C-4.455 2.495 -4.455 2.495 -9 3 C-8.67 2.01 -8.34 1.02 -8 0 C-5.04215769 -1.22393475 -3.00272755 -0.96516243 0 0 Z " fill="#313946" transform="translate(97,5)"/>
<path d="M0 0 C2.97 0.495 2.97 0.495 6 1 C6 4 6 4 5 7 C3.5 5.625 3.5 5.625 2 4 C2 3.34 2 2.68 2 2 C1.34 2 0.68 2 0 2 C0 1.34 0 0.68 0 0 Z " fill="#57769B" transform="translate(37,159)"/>
<path d="M0 0 C0.33 0 0.66 0 1 0 C1 2.97 1 5.94 1 9 C0.34 9 -0.32 9 -1 9 C-1 7.35 -1 5.7 -1 4 C-2.32 3.34 -3.64 2.68 -5 2 C-3.35 2 -1.7 2 0 2 C0 1.34 0 0.68 0 0 Z " fill="#718FAE" transform="translate(25,109)"/>
<path d="M0 0 C2.97 0.495 2.97 0.495 6 1 C6 2.32 6 3.64 6 5 C6.66 5.33 7.32 5.66 8 6 C7.34 6.66 6.68 7.32 6 8 C4.02 5.36 2.04 2.72 0 0 Z " fill="#647892" transform="translate(178,59)"/>
<path d="M0 0 C-0.33 0.99 -0.66 1.98 -1 3 C-3.31 2.67 -5.62 2.34 -8 2 C-8 1.34 -8 0.68 -8 0 C-5.13822943 -1.43088528 -3.06624227 -0.59991697 0 0 Z " fill="#405D8D" transform="translate(77,81)"/>
<path d="M0 0 C1.65 0 3.3 0 5 0 C4.01 0.495 4.01 0.495 3 1 C2.31527335 2.88764903 2.31527335 2.88764903 1.875 5.0625 C1.70742187 5.79597656 1.53984375 6.52945313 1.3671875 7.28515625 C1.24601562 7.85105469 1.12484375 8.41695312 1 9 C0.67 9 0.34 9 0 9 C0 6.03 0 3.06 0 0 Z " fill="#6BA5DF" transform="translate(68,134)"/>
<path d="M0 0 C1.485 0.99 1.485 0.99 3 2 C3.3125 5.5 3.3125 5.5 3 9 C2.34 9.66 1.68 10.32 1 11 C0.67 7.37 0.34 3.74 0 0 Z " fill="#6D8DB0" transform="translate(33,107)"/>
<path d="M0 0 C0.66 0 1.32 0 2 0 C0.25 3.875 0.25 3.875 -2 5 C-4.6723621 5.13415472 -7.32250488 5.04318541 -10 5 C-10 4.67 -10 4.34 -10 4 C-7.98177083 3.54427083 -5.96354167 3.08854167 -3.9453125 2.6328125 C-1.79280036 2.09525572 -1.79280036 2.09525572 0 0 Z " fill="#676E82" transform="translate(101,93)"/>
<path d="M0 0 C1.98 0.495 1.98 0.495 4 1 C4.33 2.32 4.66 3.64 5 5 C3.02 5 1.04 5 -1 5 C-0.67 3.35 -0.34 1.7 0 0 Z " fill="#5E8DC7" transform="translate(118,88)"/>
<path d="M0 0 C2 3 2 3 2 7 C1.34 7 0.68 7 0 7 C-0.33 7.99 -0.66 8.98 -1 10 C-2.46726798 6.18510326 -1.43336419 3.70988378 0 0 Z " fill="#464F76" transform="translate(33,44)"/>
<path d="M0 0 C0.66 0.66 1.32 1.32 2 2 C4.20250992 2.46006346 4.20250992 2.46006346 6.625 2.625 C7.85089844 2.73714844 7.85089844 2.73714844 9.1015625 2.8515625 C9.72804687 2.90054688 10.35453125 2.94953125 11 3 C11 3.33 11 3.66 11 4 C8.03 4.66 5.06 5.32 2 6 C0 3 0 3 0 0 Z " fill="#37507D" transform="translate(149,171)"/>
<path d="M0 0 C2.29633824 3.44450737 2.54016485 5.93812283 3 10 C0.11192273 7.61419704 -0.61954948 5.70939253 -1 2 C-0.67 1.34 -0.34 0.68 0 0 Z " fill="#5585BB" transform="translate(109,153)"/>
<path d="M0 0 C1.16959987 0.97566112 2.33561177 1.955625 3.5 2.9375 C4.1496875 3.48277344 4.799375 4.02804688 5.46875 4.58984375 C5.9740625 5.05519531 6.479375 5.52054688 7 6 C7 6.33 7 6.66 7 7 C4.625 7.1875 4.625 7.1875 2 7 C0 4 0 4 0 0 Z " fill="#739ABE" transform="translate(10,128)"/>
<path d="M0 0 C1.65 1.65 3.3 3.3 5 5 C4.67 5.66 4.34 6.32 4 7 C4.66 7.33 5.32 7.66 6 8 C5.01 8 4.02 8 3 8 C0.89229241 5.11165997 0 3.61537605 0 0 Z " fill="#75A5CD" transform="translate(41,125)"/>
<path d="M0 0 C0.99 0 1.98 0 3 0 C3 2.97 3 5.94 3 9 C0.23776722 6.23776722 0.42143709 3.79293383 0 0 Z " fill="#5B7A9A" transform="translate(113,169)"/>
<path d="M0 0 C2.31 0.33 4.62 0.66 7 1 C6.01 1.495 6.01 1.495 5 2 C4.67 2.99 4.34 3.98 4 5 C2.64567325 3.68799596 1.31266518 2.35368596 0 1 C0 0.67 0 0.34 0 0 Z " fill="#7B98B4" transform="translate(32,157)"/>
<path d="M0 0 C1.9375 0.75 1.9375 0.75 4 2 C4.75 4.125 4.75 4.125 5 6 C2.525 5.01 2.525 5.01 0 4 C0 2.68 0 1.36 0 0 Z " fill="#6386B6" transform="translate(199,143)"/>
<path d="M0 0 C2.97 0.33 5.94 0.66 9 1 C9 1.66 9 2.32 9 3 C7.35 3.33 5.7 3.66 4 4 C4 3.34 4 2.68 4 2 C2.68 1.34 1.36 0.68 0 0 Z " fill="#699AD4" transform="translate(49,134)"/>
<path d="M0 0 C0.66 0.33 1.32 0.66 2 1 C1 4 1 4 -2 6 C-2.99 5.67 -3.98 5.34 -5 5 C-3.35 3.35 -1.7 1.7 0 0 Z " fill="#5C8BBA" transform="translate(118,132)"/>
<path d="M0 0 C2.88575819 0.39803561 3.82189513 0.79009069 5.75 3.0625 C6.1625 3.701875 6.575 4.34125 7 5 C3.47967572 5 2.5614657 4.29648649 0 2 C0 1.34 0 0.68 0 0 Z " fill="#5C86BA" transform="translate(70,131)"/>
<path d="M0 0 C-2.375 1.5625 -2.375 1.5625 -5 3 C-5.66 2.67 -6.32 2.34 -7 2 C-7 1.34 -7 0.68 -7 0 C-3.86650268 -1.04449911 -3.01031744 -0.93423645 0 0 Z " fill="#6CB4ED" transform="translate(159,134)"/>
<path d="M0 0 C1.98 0 3.96 0 6 0 C6 0.99 6 1.98 6 3 C4.02 3 2.04 3 0 3 C0 2.01 0 1.02 0 0 Z " fill="#D7F3F7" transform="translate(17,107)"/>
<path d="M0 0 C0.928125 0.474375 1.85625 0.94875 2.8125 1.4375 C5.91196237 3.04488875 5.91196237 3.04488875 9 4 C8 5 8 5 5.625 5.25 C3 5 3 5 1.1875 3.625 C0 2 0 2 0 0 Z " fill="#6D88A9" transform="translate(67,87)"/>
<path d="M0 0 C-2.64 0.99 -5.28 1.98 -8 3 C-8 1.68 -8 0.36 -8 -1 C-4.59745511 -2.2151946 -3.06748874 -1.86240388 0 0 Z " fill="#5A8ABF" transform="translate(175,112)"/>
<path d="M0 0 C6.875 3.75 6.875 3.75 8 6 C5.03 5.505 5.03 5.505 2 5 C2 4.01 2 3.02 2 2 C1.34 2 0.68 2 0 2 C0 1.34 0 0.68 0 0 Z " fill="#2B3343" transform="translate(176,54)"/>
<path d="M0 0 C1.98 0 3.96 0 6 0 C6 0.33 6 0.66 6 1 C4.02 1 2.04 1 0 1 C0 0.67 0 0.34 0 0 Z " fill="#00152B" transform="translate(100,173)"/>
<path d="M0 0 C4 1 4 1 4 1 Z " fill="#001282" transform="translate(21,139)"/>
<path d="M0 0 C2 1 2 1 2 1 Z " fill="#004182" transform="translate(79,189)"/>
<path d="" fill="#6F6F6F" transform="translate(0,0)"/>
<path d="" fill="#000037" transform="translate(0,0)"/>
<path d="" fill="#484848" transform="translate(0,0)"/>
<path d="" fill="#004B93" transform="translate(0,0)"/>
</svg>
