<?xml version="1.0" encoding="UTF-8"?>
<svg version="1.1" xmlns="http://www.w3.org/2000/svg" width="206" height="190">
<path d="M0 0 C3.78611227 0.54087318 5.55400767 2.11722332 8 5 C8 5.66 8 6.32 8 7 C8.99 7.33 9.98 7.66 11 8 C11.495 10.475 11.495 10.475 12 13 C14.61660888 13.38479542 16.36387423 13.42926825 18.59765625 11.921875 C20.09137862 10.64468732 21.54725541 9.32361174 23 8 C26.04983996 6.47508002 28.6423369 6.76437452 32 7 C34.07169703 8.53583082 34.88448644 9.43687138 35.40625 11.98046875 C35.45265625 13.07294922 35.45265625 13.07294922 35.5 14.1875 C35.86383037 18.92503593 37.22726825 22.60670828 39 27 C39 27.66 39 28.32 39 29 C39.70125 28.938125 40.4025 28.87625 41.125 28.8125 C44.67113016 29.04376936 46.91665073 30.28702818 50 32 C50.66 32.33 51.32 32.66 52 33 C52 33.66 52 34.32 52 35 C53.32 35.33 54.64 35.66 56 36 C56 36.66 56 37.32 56 38 C56.99 38.33 57.98 38.66 59 39 C59.3721042 40.32303717 59.70630173 41.65737935 60 43 C60.66 43.33 61.32 43.66 62 44 C67.32311353 51.40607099 68.43328417 59.10965077 68 68 C68 71.21879014 68.36530967 72.30276096 70 75 C70.66 75.556875 71.32 76.11375 72 76.6875 C74.57418325 79.66389938 74.93783235 82.26182769 75.60546875 86.07421875 C75.81563605 87.99923707 75.81563605 87.99923707 77 89 C77.04320247 91.33293334 77.04022391 93.6670134 77 96 C77 96.99 77 97.98 77 99 C76.34964186 100.34136367 75.6837045 101.67532254 75 103 C75 103.66 75 104.32 75 105 C74.34 105 73.68 105 73 105 C72.731875 105.94875 72.46375 106.8975 72.1875 107.875 C71 111 71 111 68 113 C68.32735189 118.40130615 71.54034563 121.2043687 75 125 C76.01800576 126.31963709 77.02248365 127.65009646 78 129 C78.556875 129.680625 79.11375 130.36125 79.6875 131.0625 C81 133 81 133 81 136 C81.66 136 82.32 136 83 136 C86.125 145.375 86.125 145.375 85.5625 149.6875 C85.46066406 150.49574219 85.35882813 151.30398437 85.25390625 152.13671875 C85.17011719 152.75160156 85.08632812 153.36648437 85 154 C81.72814447 155.07310858 79.57052408 154.89263102 76.25 154.0625 C75.05117188 153.77052734 75.05117188 153.77052734 73.828125 153.47265625 C73.22484375 153.31667969 72.6215625 153.16070312 72 153 C72 153.66 72 154.32 72 155 C71.38640625 155.23976562 70.7728125 155.47953125 70.140625 155.7265625 C67.4980855 157.29858417 66.9870727 158.59620237 65.75 161.375 C63.54374567 165.53938887 61.61015707 167.60949451 57.25 169.41796875 C51.14923139 170.99611896 45.72148282 170.54288125 40 168 C35.87629745 167.6701038 34.50662485 167.6622501 31 170 C30.01 169.67 29.02 169.34 28 169 C28.09539062 169.61488281 28.19078125 170.22976562 28.2890625 170.86328125 C28.39992187 171.67152344 28.51078125 172.47976562 28.625 173.3125 C28.74101562 174.11300781 28.85703125 174.91351563 28.9765625 175.73828125 C29 178 29 178 27 181 C26.34 181 25.68 181 25 181 C24.67 181.99 24.34 182.98 24 184 C20.10441912 184.11643304 16.20928742 184.18732909 12.3125 184.25 C11.20970703 184.28351563 10.10691406 184.31703125 8.97070312 184.3515625 C0.76329969 184.45074562 0.76329969 184.45074562 -3.21484375 182.1015625 C-5.11022416 179.87023939 -5.82940195 178.90016688 -6 176 C-5.72949547 173.99053778 -5.40632091 171.98645776 -5 170 C-6.98 170.33 -8.96 170.66 -11 171 C-11 171.66 -11 172.32 -11 173 C-12.11375 172.79375 -13.2275 172.5875 -14.375 172.375 C-16.169375 172.189375 -16.169375 172.189375 -18 172 C-20.3141556 173.95407388 -20.3141556 173.95407388 -20.75 177.4375 C-22 181 -22 181 -24.2734375 182.7109375 C-29.7994359 184.62244638 -35.07570351 184.31513689 -40.875 184.1875 C-42.0403125 184.17396484 -43.205625 184.16042969 -44.40625 184.14648438 C-47.27131118 184.11125821 -50.13541377 184.06199715 -53 184 C-53.33 183.01 -53.66 182.02 -54 181 C-54.99 180.67 -55.98 180.34 -57 180 C-58.4375 177.9375 -58.4375 177.9375 -59 175 C-57.96154594 172.15347617 -56.55748941 169.59367039 -55 167 C-57.64 167.33 -60.28 167.66 -63 168 C-63 168.66 -63 169.32 -63 170 C-73.99545455 172.14545455 -73.99545455 172.14545455 -78.1875 169.75 C-78.785625 169.1725 -79.38375 168.595 -80 168 C-80.721875 167.4225 -81.44375 166.845 -82.1875 166.25 C-84.58021195 163.27973689 -84.5779809 160.72783537 -85 157 C-85.66 156.67 -86.32 156.34 -87 156 C-87.639375 155.67 -88.27875 155.34 -88.9375 155 C-92.7363166 153.15814953 -94.86632781 152.96153318 -98.9375 153.8125 C-100.21947266 154.06966797 -100.21947266 154.06966797 -101.52734375 154.33203125 C-103.89873501 154.97264406 -105.85368826 155.81977754 -108 157 C-109.5625 155.4375 -109.5625 155.4375 -111 153 C-110.67272727 146.67272727 -110.67272727 146.67272727 -108 144 C-107.71125 143.236875 -107.4225 142.47375 -107.125 141.6875 C-105.83813482 138.61332207 -104.24334792 136.45366179 -102 134 C-101.34 134 -100.68 134 -100 134 C-99.67 133.01 -99.34 132.02 -99 131 C-98.34 131 -97.68 131 -97 131 C-96.67 130.01 -96.34 129.02 -96 128 C-95.34 128 -94.68 128 -94 128 C-93.67 126.68 -93.34 125.36 -93 124 C-92.34 124 -91.68 124 -91 124 C-90.7525 123.2575 -90.505 122.515 -90.25 121.75 C-88.89505081 118.76911179 -87.33030215 117.25748021 -85 115 C-83.76487921 112.86690808 -83.76487921 112.86690808 -83 111 C-82.34 111 -81.68 111 -81 111 C-81 110.01 -81 109.02 -81 108 C-80.34 108 -79.68 108 -79 108 C-79 106.35 -79 104.7 -79 103 C-79.66 102.67 -80.32 102.34 -81 102 C-85.08126103 93.6742275 -86.75158182 84.34693396 -83.8125 75.375 C-78.09615385 64.73076923 -78.09615385 64.73076923 -74.1875 62.125 C-71.78969391 60.26981772 -71.78969391 60.26981772 -71.86328125 57.9609375 C-71.90839844 57.14882813 -71.95351562 56.33671875 -72 55.5 C-72.34772419 48.59665207 -70.13400857 41.47091449 -65.4375 36.26953125 C-64.01154107 35.11093962 -62.50825407 34.04922022 -61 33 C-60.484375 32.29875 -59.96875 31.5975 -59.4375 30.875 C-57.58563674 28.45952618 -55.72414847 27.32885291 -53 26 C-51.68 26 -50.36 26 -49 26 C-48.34 25.34 -47.68 24.68 -47 24 C-46.01 24 -45.02 24 -44 24 C-43.2884375 23.98839844 -42.576875 23.97679688 -41.84375 23.96484375 C-41.0703125 23.95582031 -40.296875 23.94679688 -39.5 23.9375 C-38.7265625 23.92589844 -37.953125 23.91429688 -37.15625 23.90234375 C-35 24 -35 24 -32 25 C-31.67 23.02 -31.34 21.04 -31 19 C-30.34 19 -29.68 19 -29 19 C-29.061875 17.9275 -29.12375 16.855 -29.1875 15.75 C-28.99552747 11.91054943 -28.71836779 10.61381519 -26 8 C-25.34 8 -24.68 8 -24 8 C-23.67 7.34 -23.34 6.68 -23 6 C-22.01 6.495 -22.01 6.495 -21 7 C-21 7.66 -21 8.32 -21 9 C-20.21625 9.12375 -19.4325 9.2475 -18.625 9.375 C-16 10 -16 10 -14 12 C-11.91666667 11.83333333 -11.91666667 11.83333333 -10 11 C-9.67 10.34 -9.34 9.68 -9 9 C-8.34 9 -7.68 9 -7 9 C-6.67 8.01 -6.34 7.02 -6 6 C-4.35360035 4.64172029 -2.68704193 3.30745749 -1 2 C-0.67 1.34 -0.34 0.68 0 0 Z " fill="#E5F3FA" transform="translate(116,3)"/>
<path d="M0 0 C3.78611227 0.54087318 5.55400767 2.11722332 8 5 C8 5.66 8 6.32 8 7 C8.99 7.33 9.98 7.66 11 8 C11.495 10.475 11.495 10.475 12 13 C14.61660888 13.38479542 16.36387423 13.42926825 18.59765625 11.921875 C20.09137862 10.64468732 21.54725541 9.32361174 23 8 C26.04983996 6.47508002 28.6423369 6.76437452 32 7 C34.07169703 8.53583082 34.88448644 9.43687138 35.40625 11.98046875 C35.45265625 13.07294922 35.45265625 13.07294922 35.5 14.1875 C35.86383037 18.92503593 37.22726825 22.60670828 39 27 C39 27.66 39 28.32 39 29 C39.70125 28.938125 40.4025 28.87625 41.125 28.8125 C44.67113016 29.04376936 46.91665073 30.28702818 50 32 C50.66 32.33 51.32 32.66 52 33 C52 33.66 52 34.32 52 35 C53.32 35.33 54.64 35.66 56 36 C56 36.66 56 37.32 56 38 C56.99 38.33 57.98 38.66 59 39 C59.3721042 40.32303717 59.70630173 41.65737935 60 43 C60.66 43.33 61.32 43.66 62 44 C67.32311353 51.40607099 68.43328417 59.10965077 68 68 C68 71.21879014 68.36530967 72.30276096 70 75 C70.66 75.556875 71.32 76.11375 72 76.6875 C74.57418325 79.66389938 74.93783235 82.26182769 75.60546875 86.07421875 C75.81563605 87.99923707 75.81563605 87.99923707 77 89 C77.04320247 91.33293334 77.04022391 93.6670134 77 96 C77 96.99 77 97.98 77 99 C76.34964186 100.34136367 75.6837045 101.67532254 75 103 C75 103.66 75 104.32 75 105 C74.34 105 73.68 105 73 105 C72.731875 105.94875 72.46375 106.8975 72.1875 107.875 C71 111 71 111 68 113 C68.32735189 118.40130615 71.54034563 121.2043687 75 125 C76.01800576 126.31963709 77.02248365 127.65009646 78 129 C78.556875 129.680625 79.11375 130.36125 79.6875 131.0625 C81 133 81 133 81 136 C81.66 136 82.32 136 83 136 C86.125 145.375 86.125 145.375 85.5625 149.6875 C85.46066406 150.49574219 85.35882813 151.30398437 85.25390625 152.13671875 C85.17011719 152.75160156 85.08632812 153.36648437 85 154 C81.72814447 155.07310858 79.57052408 154.89263102 76.25 154.0625 C75.05117188 153.77052734 75.05117188 153.77052734 73.828125 153.47265625 C73.22484375 153.31667969 72.6215625 153.16070312 72 153 C72 153.66 72 154.32 72 155 C71.38640625 155.23976562 70.7728125 155.47953125 70.140625 155.7265625 C67.4980855 157.29858417 66.9870727 158.59620237 65.75 161.375 C63.54374567 165.53938887 61.61015707 167.60949451 57.25 169.41796875 C51.14923139 170.99611896 45.72148282 170.54288125 40 168 C35.87629745 167.6701038 34.50662485 167.6622501 31 170 C30.01 169.67 29.02 169.34 28 169 C28.09539062 169.61488281 28.19078125 170.22976562 28.2890625 170.86328125 C28.39992187 171.67152344 28.51078125 172.47976562 28.625 173.3125 C28.74101562 174.11300781 28.85703125 174.91351563 28.9765625 175.73828125 C29 178 29 178 27 181 C26.34 181 25.68 181 25 181 C24.67 181.99 24.34 182.98 24 184 C20.10441912 184.11643304 16.20928742 184.18732909 12.3125 184.25 C11.20970703 184.28351563 10.10691406 184.31703125 8.97070312 184.3515625 C0.76329969 184.45074562 0.76329969 184.45074562 -3.21484375 182.1015625 C-5.11022416 179.87023939 -5.82940195 178.90016688 -6 176 C-5.72949547 173.99053778 -5.40632091 171.98645776 -5 170 C-6.98 170.33 -8.96 170.66 -11 171 C-11 171.66 -11 172.32 -11 173 C-12.11375 172.79375 -13.2275 172.5875 -14.375 172.375 C-16.169375 172.189375 -16.169375 172.189375 -18 172 C-20.3141556 173.95407388 -20.3141556 173.95407388 -20.75 177.4375 C-22 181 -22 181 -24.2734375 182.7109375 C-29.7994359 184.62244638 -35.07570351 184.31513689 -40.875 184.1875 C-42.0403125 184.17396484 -43.205625 184.16042969 -44.40625 184.14648438 C-47.27131118 184.11125821 -50.13541377 184.06199715 -53 184 C-53.33 183.01 -53.66 182.02 -54 181 C-54.99 180.67 -55.98 180.34 -57 180 C-58.4375 177.9375 -58.4375 177.9375 -59 175 C-57.96154594 172.15347617 -56.55748941 169.59367039 -55 167 C-57.64 167.33 -60.28 167.66 -63 168 C-63 168.66 -63 169.32 -63 170 C-73.99545455 172.14545455 -73.99545455 172.14545455 -78.1875 169.75 C-78.785625 169.1725 -79.38375 168.595 -80 168 C-80.721875 167.4225 -81.44375 166.845 -82.1875 166.25 C-84.58021195 163.27973689 -84.5779809 160.72783537 -85 157 C-85.66 156.67 -86.32 156.34 -87 156 C-87.639375 155.67 -88.27875 155.34 -88.9375 155 C-92.7363166 153.15814953 -94.86632781 152.96153318 -98.9375 153.8125 C-100.21947266 154.06966797 -100.21947266 154.06966797 -101.52734375 154.33203125 C-103.89873501 154.97264406 -105.85368826 155.81977754 -108 157 C-109.5625 155.4375 -109.5625 155.4375 -111 153 C-110.67272727 146.67272727 -110.67272727 146.67272727 -108 144 C-107.71125 143.236875 -107.4225 142.47375 -107.125 141.6875 C-105.83813482 138.61332207 -104.24334792 136.45366179 -102 134 C-101.34 134 -100.68 134 -100 134 C-99.67 133.01 -99.34 132.02 -99 131 C-98.34 131 -97.68 131 -97 131 C-96.67 130.01 -96.34 129.02 -96 128 C-95.34 128 -94.68 128 -94 128 C-93.67 126.68 -93.34 125.36 -93 124 C-92.34 124 -91.68 124 -91 124 C-90.7525 123.2575 -90.505 122.515 -90.25 121.75 C-88.89505081 118.76911179 -87.33030215 117.25748021 -85 115 C-83.76487921 112.86690808 -83.76487921 112.86690808 -83 111 C-82.34 111 -81.68 111 -81 111 C-81 110.01 -81 109.02 -81 108 C-80.34 108 -79.68 108 -79 108 C-79 106.35 -79 104.7 -79 103 C-79.66 102.67 -80.32 102.34 -81 102 C-85.08126103 93.6742275 -86.75158182 84.34693396 -83.8125 75.375 C-78.09615385 64.73076923 -78.09615385 64.73076923 -74.1875 62.125 C-71.78969391 60.26981772 -71.78969391 60.26981772 -71.86328125 57.9609375 C-71.90839844 57.14882813 -71.95351562 56.33671875 -72 55.5 C-72.34772419 48.59665207 -70.13400857 41.47091449 -65.4375 36.26953125 C-64.01154107 35.11093962 -62.50825407 34.04922022 -61 33 C-60.484375 32.29875 -59.96875 31.5975 -59.4375 30.875 C-57.58563674 28.45952618 -55.72414847 27.32885291 -53 26 C-51.68 26 -50.36 26 -49 26 C-48.34 25.34 -47.68 24.68 -47 24 C-46.01 24 -45.02 24 -44 24 C-43.2884375 23.98839844 -42.576875 23.97679688 -41.84375 23.96484375 C-41.0703125 23.95582031 -40.296875 23.94679688 -39.5 23.9375 C-38.7265625 23.92589844 -37.953125 23.91429688 -37.15625 23.90234375 C-35 24 -35 24 -32 25 C-31.67 23.02 -31.34 21.04 -31 19 C-30.34 19 -29.68 19 -29 19 C-29.061875 17.9275 -29.12375 16.855 -29.1875 15.75 C-28.99552747 11.91054943 -28.71836779 10.61381519 -26 8 C-25.34 8 -24.68 8 -24 8 C-23.67 7.34 -23.34 6.68 -23 6 C-22.01 6.495 -22.01 6.495 -21 7 C-21 7.66 -21 8.32 -21 9 C-20.21625 9.12375 -19.4325 9.2475 -18.625 9.375 C-16 10 -16 10 -14 12 C-11.91666667 11.83333333 -11.91666667 11.83333333 -10 11 C-9.67 10.34 -9.34 9.68 -9 9 C-8.34 9 -7.68 9 -7 9 C-6.67 8.01 -6.34 7.02 -6 6 C-4.35360035 4.64172029 -2.68704193 3.30745749 -1 2 C-0.67 1.34 -0.34 0.68 0 0 Z M-64 40 C-67.32390645 45.10386819 -68.15078054 49.06792046 -67.75 55.125 C-67.52915657 60.39178108 -67.52915657 60.39178108 -69.66015625 63.14453125 C-71.07862907 64.32616287 -72.53508206 65.4638252 -74.02734375 66.55078125 C-77.87473426 69.37728002 -79.4875712 73.59908012 -81 78 C-82.06398945 88.24399143 -80.86899512 96.19252216 -74.5625 104.375 C-72.12313843 106.87385819 -70.16111691 108.54102296 -67 110 C-65.68 110 -64.36 110 -63 110 C-63.06960937 110.97839844 -63.06960937 110.97839844 -63.140625 111.9765625 C-63.38648109 117.92979211 -63.11042429 121.36259823 -59 126 C-53.2731545 131.53161213 -49.51324532 133.22626088 -41.50390625 133.16796875 C-38.43449513 132.96206442 -35.86400369 132.09104902 -33 131 C-29 131 -29 131 -26.6875 133.25 C-25.800625 134.1575 -24.91375 135.065 -24 136 C-15.30013861 142.07990313 -4.49141014 142.26283771 5.734375 140.5390625 C10.63425729 139.1028901 13.86132267 136.77344315 17.39453125 133.109375 C19 132 19 132 21 132.26171875 C21.66 132.50535156 22.32 132.74898438 23 133 C29.91811572 135.30603857 36.34981583 136.47792063 43.1875 133.4375 C48.89731575 130.19587154 52.55824055 125.88801604 54.5 119.625 C55.2425 117.830625 55.2425 117.830625 56 116 C58.8125 115.3125 58.8125 115.3125 62 115 C67.78735614 111.33861142 70.88774885 106.49923431 73 100 C74.10256689 92.01159086 73.25968851 83.95103632 68.7578125 77.11328125 C67.33336849 75.23764158 67.33336849 75.23764158 65 73 C64.34 73 63.68 73 63 73 C63.15984375 72.44699219 63.3196875 71.89398438 63.484375 71.32421875 C65.6423107 61.59716012 63.4020398 52.12274066 58.296875 43.69921875 C54.56919322 38.81505739 49.90859765 34.81669913 44 33 C37.53792833 32.39905855 31.2052658 32.22997097 25.125 34.6875 C21.77793881 36.02508022 20.12330062 36.06044578 16.75 34.75 C16.14671875 34.45609375 15.5434375 34.1621875 14.921875 33.859375 C9.36612383 31.37509602 3.26633469 31.81648783 -2.6875 31.8125 C-3.63044922 31.80025391 -4.57339844 31.78800781 -5.54492188 31.77539062 C-11.25090587 31.76362571 -16.29575206 32.31116122 -21.80126953 33.84985352 C-24.79153847 34.05405243 -25.91383558 32.98716339 -28.1875 31.125 C-33.34462791 27.14036298 -38.04459473 27.20446217 -44.40625 27.484375 C-52.6578259 28.66829676 -58.93640517 33.50652995 -64 40 Z " fill="#627CA1" transform="translate(116,3)"/>
<path d="M0 0 C3.78611227 0.54087318 5.55400767 2.11722332 8 5 C8 5.66 8 6.32 8 7 C8.99 7.33 9.98 7.66 11 8 C11.495 10.475 11.495 10.475 12 13 C14.61660888 13.38479542 16.36387423 13.42926825 18.59765625 11.921875 C20.09137862 10.64468732 21.54725541 9.32361174 23 8 C26.04983996 6.47508002 28.6423369 6.76437452 32 7 C34.07169703 8.53583082 34.88448644 9.43687138 35.40625 11.98046875 C35.4371875 12.70878906 35.468125 13.43710937 35.5 14.1875 C35.86383037 18.92503593 37.22726825 22.60670828 39 27 C39 27.66 39 28.32 39 29 C39.70125 28.938125 40.4025 28.87625 41.125 28.8125 C44.67113016 29.04376936 46.91665073 30.28702818 50 32 C50.66 32.33 51.32 32.66 52 33 C52 33.66 52 34.32 52 35 C53.32 35.33 54.64 35.66 56 36 C56 36.66 56 37.32 56 38 C56.99 38.33 57.98 38.66 59 39 C59.3721042 40.32303717 59.70630173 41.65737935 60 43 C60.66 43.33 61.32 43.66 62 44 C67.32311353 51.40607099 68.43328417 59.10965077 68 68 C68 71.21879014 68.36530967 72.30276096 70 75 C70.66 75.556875 71.32 76.11375 72 76.6875 C74.57418325 79.66389938 74.93783235 82.26182769 75.60546875 86.07421875 C75.81563605 87.99923707 75.81563605 87.99923707 77 89 C77.04320247 91.33293334 77.04022391 93.6670134 77 96 C77 96.99 77 97.98 77 99 C76.34964186 100.34136367 75.6837045 101.67532254 75 103 C75 103.66 75 104.32 75 105 C74.34 105 73.68 105 73 105 C72.731875 105.94875 72.46375 106.8975 72.1875 107.875 C71 111 71 111 68 113 C68.32735189 118.40130615 71.54034563 121.2043687 75 125 C76.01800576 126.31963709 77.02248365 127.65009646 78 129 C78.556875 129.680625 79.11375 130.36125 79.6875 131.0625 C81 133 81 133 81 136 C81.66 136 82.32 136 83 136 C86.125 145.375 86.125 145.375 85.5625 149.6875 C85.46066406 150.49574219 85.35882813 151.30398437 85.25390625 152.13671875 C85.17011719 152.75160156 85.08632812 153.36648437 85 154 C81.72814447 155.07310858 79.57052408 154.89263102 76.25 154.0625 C75.05117188 153.77052734 75.05117188 153.77052734 73.828125 153.47265625 C73.22484375 153.31667969 72.6215625 153.16070312 72 153 C72 153.66 72 154.32 72 155 C71.38640625 155.23976562 70.7728125 155.47953125 70.140625 155.7265625 C67.4980855 157.29858417 66.9870727 158.59620237 65.75 161.375 C63.54374567 165.53938887 61.61015707 167.60949451 57.25 169.41796875 C51.14923139 170.99611896 45.72148282 170.54288125 40 168 C35.87629745 167.6701038 34.50662485 167.6622501 31 170 C30.01 169.67 29.02 169.34 28 169 C28.08378906 169.62648437 28.16757813 170.25296875 28.25390625 170.8984375 C28.40666016 172.12433594 28.40666016 172.12433594 28.5625 173.375 C28.71912109 174.59316406 28.71912109 174.59316406 28.87890625 175.8359375 C29 178 29 178 28 180 C27.01 180 26.02 180 25 180 C24.81824219 178.86111328 24.81824219 178.86111328 24.6328125 177.69921875 C24.46523437 176.70535156 24.29765625 175.71148437 24.125 174.6875 C23.96257812 173.70136719 23.80015625 172.71523437 23.6328125 171.69921875 C23.11914546 168.79940173 23.11914546 168.79940173 21 166 C20.82854185 163.38590855 20.76766568 160.88130326 20.8046875 158.26953125 C20.8075174 157.51911057 20.81034729 156.76868988 20.81326294 155.99552917 C20.82444938 153.60102325 20.84955072 151.20689269 20.875 148.8125 C20.88503181 147.18815645 20.89415731 145.56380703 20.90234375 143.93945312 C20.92438363 139.959491 20.9589026 135.97980912 21 132 C21.59675537 132.14002441 22.19351074 132.28004883 22.80834961 132.42431641 C23.60249268 132.60655762 24.39663574 132.78879883 25.21484375 132.9765625 C25.99722412 133.15783691 26.77960449 133.33911133 27.58569336 133.52587891 C34.07210436 134.7996791 39.41269085 134.58736512 45.21484375 131.2421875 C52.28671987 126.32127589 53.38500315 120.11437443 55 112 C55.33 113.32 55.66 114.64 56 116 C63.25199507 113.29827635 67.95838039 109.50938371 71.2734375 102.3671875 C73.63576036 94.67058723 72.47535615 86.17067155 69 79 C66.53657345 75.37519838 66.53657345 75.37519838 63 73 C63.03480469 72.02160156 63.06960937 71.04320313 63.10546875 70.03515625 C63.26050383 62.52702885 63.26619922 55.91251646 60 49 C59.58234375 48.06607422 59.58234375 48.06607422 59.15625 47.11328125 C56.4014282 41.63926035 52.17828458 37.58644426 46.69921875 34.8515625 C39.89842129 32.70601424 31.72161037 33.0212742 25.125 35.6875 C21.77793881 37.02508022 20.12330062 37.06044578 16.75 35.75 C16.14671875 35.45609375 15.5434375 35.1621875 14.921875 34.859375 C9.36612383 32.37509602 3.26633469 32.81648783 -2.6875 32.8125 C-3.63044922 32.80025391 -4.57339844 32.78800781 -5.54492188 32.77539062 C-11.25090587 32.76362571 -16.29575206 33.31116122 -21.80126953 34.84985352 C-24.79153847 35.05405243 -25.91383558 33.98716339 -28.1875 32.125 C-33.34563244 28.13958683 -38.0469053 28.19977037 -44.41015625 28.4921875 C-52.95248498 29.70056915 -58.02649995 34.30089954 -63.40234375 40.8203125 C-66.11115219 44.51594846 -67.11736443 47.1782999 -66.8203125 51.7890625 C-66.30467577 60.10112653 -66.30467577 60.10112653 -68.66796875 63.15625 C-70.08470984 64.33299669 -71.53868324 65.46644829 -73.02734375 66.55078125 C-76.87473426 69.37728002 -78.4875712 73.59908012 -80 78 C-81.2197086 89.74324089 -78.73299289 97.62190276 -72 107 C-73.32 107 -74.64 107 -76 107 C-76.25523438 107.55171875 -76.51046875 108.1034375 -76.7734375 108.671875 C-78.19302074 111.36637058 -79.86132254 113.76778728 -81.625 116.25 C-82.25664063 117.14203125 -82.88828125 118.0340625 -83.5390625 118.953125 C-84.02117187 119.62859375 -84.50328125 120.3040625 -85 121 C-86.32 120.34 -87.64 119.68 -89 119 C-88.38125 118.4225 -87.7625 117.845 -87.125 117.25 C-85.18652947 115.19750179 -84.09985751 113.56633418 -83 111 C-82.34 111 -81.68 111 -81 111 C-81 110.01 -81 109.02 -81 108 C-80.34 108 -79.68 108 -79 108 C-79 106.35 -79 104.7 -79 103 C-79.66 102.67 -80.32 102.34 -81 102 C-85.08126103 93.6742275 -86.75158182 84.34693396 -83.8125 75.375 C-78.09615385 64.73076923 -78.09615385 64.73076923 -74.1875 62.125 C-71.78969391 60.26981772 -71.78969391 60.26981772 -71.86328125 57.9609375 C-71.90839844 57.14882813 -71.95351562 56.33671875 -72 55.5 C-72.34772419 48.59665207 -70.13400857 41.47091449 -65.4375 36.26953125 C-64.01154107 35.11093962 -62.50825407 34.04922022 -61 33 C-60.484375 32.29875 -59.96875 31.5975 -59.4375 30.875 C-57.58563674 28.45952618 -55.72414847 27.32885291 -53 26 C-51.68 26 -50.36 26 -49 26 C-48.34 25.34 -47.68 24.68 -47 24 C-46.01 24 -45.02 24 -44 24 C-43.2884375 23.98839844 -42.576875 23.97679688 -41.84375 23.96484375 C-41.0703125 23.95582031 -40.296875 23.94679688 -39.5 23.9375 C-38.7265625 23.92589844 -37.953125 23.91429688 -37.15625 23.90234375 C-35 24 -35 24 -32 25 C-31.67 23.02 -31.34 21.04 -31 19 C-30.34 19 -29.68 19 -29 19 C-29.061875 17.9275 -29.12375 16.855 -29.1875 15.75 C-28.99552747 11.91054943 -28.71836779 10.61381519 -26 8 C-25.34 8 -24.68 8 -24 8 C-23.67 7.34 -23.34 6.68 -23 6 C-22.01 6.495 -22.01 6.495 -21 7 C-21 7.66 -21 8.32 -21 9 C-20.21625 9.12375 -19.4325 9.2475 -18.625 9.375 C-16 10 -16 10 -14 12 C-11.91666667 11.83333333 -11.91666667 11.83333333 -10 11 C-9.67 10.34 -9.34 9.68 -9 9 C-8.34 9 -7.68 9 -7 9 C-6.67 8.01 -6.34 7.02 -6 6 C-4.35360035 4.64172029 -2.68704193 3.30745749 -1 2 C-0.67 1.34 -0.34 0.68 0 0 Z " fill="#5B6888" transform="translate(116,3)"/>
<path d="M0 0 C4.19360449 0.67097672 7.40334352 2.8558394 11 5 C11 6.65 11 8.3 11 10 C9.9275 10.5775 8.855 11.155 7.75 11.75 C4.03524948 13.87056609 0.95287528 16.09424943 -1 20 C-1.49756886 25.44878691 -1.76085647 30.35655002 0.5625 35.375 C6.30073176 41.88841061 6.30073176 41.88841061 13.953125 45.23828125 C19.58650782 45.42031233 22.42581194 44.570098 27 41 C27.66 41 28.32 41 29 41 C28.67 45.62 28.34 50.24 28 55 C26.700625 55.268125 25.40125 55.53625 24.0625 55.8125 C20.77239537 56.5270696 17.71066462 57.43881654 14.5625 58.625 C8.69779527 60.62783261 2.82811906 61.35257868 -2.875 58.625 C-5.49124875 55.39316331 -6.59351831 52.192157 -7.8125 48.2421875 C-8.83535393 45.82828854 -8.83535393 45.82828854 -11.25 44.7109375 C-14.26959295 43.93030409 -16.88241095 43.73409393 -20 43.75 C-21.010625 43.74484375 -22.02125 43.7396875 -23.0625 43.734375 C-26.0703976 44.00636574 -28.27306793 44.73678882 -31 46 C-30.82568105 36.41245764 -25.38929154 31.53751235 -19.08129883 24.80151367 C-18.39136841 24.0644519 -18.39136841 24.0644519 -17.6875 23.3125 C-16.990802 22.57060425 -16.990802 22.57060425 -16.2800293 21.8137207 C-10.09932559 15.11255905 -5.04733358 7.57100037 0 0 Z " fill="#8DCEF4" transform="translate(40,110)"/>
<path d="M0 0 C8.1659292 6.86948271 15.07114464 15.66286345 18 26 C18.1875 29.5 18.1875 29.5 18 32 C17.33613281 31.89300781 16.67226562 31.78601563 15.98828125 31.67578125 C10.47335099 30.89020709 10.47335099 30.89020709 5.125 32.0625 C2.52846999 34.42992442 0.80251111 36.99581481 -1 40 C-0.01 40.33 0.98 40.66 2 41 C-0.9413977 46.39256245 -4.04580962 49.20865383 -10 51 C-15.53308063 51.67373889 -19.89717105 51.26792398 -25 49 C-29.12370255 48.6701038 -30.49337515 48.6622501 -34 51 C-36.625 50.3125 -36.625 50.3125 -39 49 C-39.495 47.515 -39.495 47.515 -40 46 C-40.66 46 -41.32 46 -42 46 C-42 36.1 -42 26.2 -42 16 C-38.37 16.66 -34.74 17.32 -31 18 C-30 23 -30 23 -31 25 C-31.1421988 28.83936768 -31.17754676 32.32016639 -30 36 C-28.865625 36.144375 -27.73125 36.28875 -26.5625 36.4375 C-23 37 -23 37 -22 38 C-17.271937 38.53409601 -13.27742723 38.70666187 -9.0625 36.375 C-3.73836981 30.24418342 -3.38430492 24.5006413 -3.4921875 16.640625 C-4.12942156 12.07214694 -5.66110325 9.90258887 -8.7109375 6.578125 C-10 5 -10 5 -10.1875 2.125 C-9 0 -9 0 -6.6875 -1.4375 C-3.44730223 -2.11568093 -2.76911729 -1.67714463 0 0 Z " fill="#6EA5E5" transform="translate(181,122)"/>
<path d="M0 0 C1.66666667 1.66666667 3.33333333 3.33333333 5 5 C8.16645474 6.79320824 8.16645474 6.79320824 11 8 C11.28329174 16.10587449 10.44572757 23.91806962 9.3125 31.9375 C9.08916992 33.7637793 9.08916992 33.7637793 8.86132812 35.62695312 C8.69697266 36.79033203 8.53261719 37.95371094 8.36328125 39.15234375 C8.22188721 40.20413818 8.08049316 41.25593262 7.93481445 42.33959961 C7 45 7 45 4.60229492 46.80297852 C-0.7379008 49.2593984 -5.22512042 49.18343318 -11 49.1875 C-11.91523437 49.19974609 -12.83046875 49.21199219 -13.7734375 49.22460938 C-15.09214844 49.22750977 -15.09214844 49.22750977 -16.4375 49.23046875 C-17.24058594 49.23457764 -18.04367188 49.23868652 -18.87109375 49.24291992 C-21 49 -21 49 -24 47 C-24.57769335 42.70856371 -24.2780229 40.50811082 -22.1875 36.6875 C-20 34 -20 34 -17 32 C-16.33948584 29.69132664 -16.33948584 29.69132664 -16.12109375 26.984375 C-16.00443359 25.98019531 -15.88777344 24.97601563 -15.76757812 23.94140625 C-15.65865234 22.88824219 -15.54972656 21.83507812 -15.4375 20.75 C-13.9288458 6.87038138 -13.9288458 6.87038138 -12 3 C-9.94140625 1.7578125 -9.94140625 1.7578125 -7.5625 1.125 C-6.78003906 0.90070313 -5.99757813 0.67640625 -5.19140625 0.4453125 C-3 0 -3 0 0 0 Z " fill="#93D8F7" transform="translate(86,135)"/>
<path d="M0 0 C3.93313346 1.31104449 5.36757006 3.82495822 7.6875 7.0625 C8.10322266 7.63033203 8.51894531 8.19816406 8.94726562 8.78320312 C9.97140082 10.18403173 10.98657535 11.59140348 12 13 C16.49503684 12.17799095 19.78237316 9.72635885 23.5625 7.27734375 C26 6 26 6 30 6 C30.67218507 8.74875682 31.33792435 11.49880726 32 14.25 C32.19078125 15.02730469 32.3815625 15.80460937 32.578125 16.60546875 C32.75859375 17.35957031 32.9390625 18.11367188 33.125 18.890625 C33.37636719 19.92751465 33.37636719 19.92751465 33.6328125 20.98535156 C34 23 34 23 34 27 C31.36 27 28.72 27 26 27 C26 27.66 26 28.32 26 29 C23.22899606 30.38550197 21.0665294 30.1877467 18 30 C17.01 29.34 16.02 28.68 15 28 C9.07335794 26.97771895 3.25305945 26.84445741 -2.75 26.875 C-3.62599854 26.8747583 -4.50199707 26.8745166 -5.40454102 26.87426758 C-11.19362636 26.90150656 -16.85363021 27.23786361 -22.58984375 28.07421875 C-25.73469165 27.97737578 -27.4544693 26.77139793 -30 25 C-29.0122936 18.57409836 -27.86390108 12.85797948 -25 7 C-20.02790438 8.76429199 -15.56561939 11.3939166 -11 14 C-10.76539062 13.44828125 -10.53078125 12.8965625 -10.2890625 12.328125 C-8.67151842 9.40674236 -6.63549805 7.20425503 -4.375 4.75 C-3.14910156 3.41195313 -3.14910156 3.41195313 -1.8984375 2.046875 C-1.27195312 1.37140625 -0.64546875 0.6959375 0 0 Z " fill="#BCE7FA" transform="translate(117,7)"/>
<path d="M0 0 C0.66 0 1.32 0 2 0 C2.01458252 0.96824707 2.02916504 1.93649414 2.04418945 2.93408203 C2.10241567 6.54626324 2.17964536 10.15783683 2.26245117 13.76953125 C2.29558667 15.32900081 2.3236537 16.88858702 2.34643555 18.44824219 C2.38019281 20.69776852 2.43251504 22.94623687 2.48828125 25.1953125 C2.49467117 25.8861795 2.5010611 26.57704651 2.50764465 27.28884888 C2.64650515 31.92052297 3.78557075 34.97422635 6 39 C6.61032422 44.18775588 6.61032422 44.18775588 4.75952148 46.65087891 C2.52594704 48.36348226 1.26709835 48.3865691 -1.52734375 48.3984375 C-2.40197266 48.40230469 -3.27660156 48.40617187 -4.17773438 48.41015625 C-5.08845703 48.39855469 -5.99917969 48.38695312 -6.9375 48.375 C-7.84435547 48.38660156 -8.75121094 48.39820313 -9.68554688 48.41015625 C-10.56146484 48.40628906 -11.43738281 48.40242188 -12.33984375 48.3984375 C-13.13769287 48.39505371 -13.93554199 48.39166992 -14.75756836 48.38818359 C-17.74521188 47.87099762 -18.98155548 47.29651731 -21 45 C-21.35599078 42.21427646 -21.46710804 39.82963409 -21.390625 37.05078125 C-21.38496521 36.27816452 -21.37930542 35.50554779 -21.37347412 34.70951843 C-21.35109327 32.24321371 -21.30089703 29.77836508 -21.25 27.3125 C-21.22993706 25.63999495 -21.21168592 23.96746711 -21.1953125 22.29492188 C-21.15122331 18.19605404 -21.08218675 14.09827383 -21 10 C-19.86872681 9.81606689 -19.86872681 9.81606689 -18.71459961 9.62841797 C-17.72468018 9.45971191 -16.73476074 9.29100586 -15.71484375 9.1171875 C-14.73378662 8.95331543 -13.75272949 8.78944336 -12.74194336 8.62060547 C-8.03849646 7.55603757 -5.09220678 5.09220678 -1.75 1.75 C-1.1725 1.1725 -0.595 0.595 0 0 Z " fill="#92D5F6" transform="translate(135,136)"/>
<path d="M0 0 C1.68816933 1.64488294 3.35353315 3.31337542 5 5 C13.61199648 10.02366462 24.04861438 10.171805 33.734375 8.5390625 C38.64362721 7.10014375 41.91353015 4.73989695 45.4921875 1.109375 C45.98976562 0.74328125 46.48734375 0.3771875 47 0 C47.99 0.33 48.98 0.66 50 1 C49.01 1.33 48.02 1.66 47 2 C46.67 2.99 46.34 3.98 46 5 C41.33795035 9.38781144 36.25529087 12.21254489 29.76953125 12.078125 C28.52558594 12.05234375 27.28164062 12.0265625 26 12 C26.0687386 16.94842001 26.15663469 21.89598371 26.26245117 26.84375 C26.29574435 28.52757285 26.32376256 30.21150848 26.34643555 31.89550781 C26.37990205 34.31364086 26.43221036 36.73073624 26.48828125 39.1484375 C26.49467117 39.9036972 26.5010611 40.65895691 26.50764465 41.43710327 C26.53980318 43.78645901 26.53980318 43.78645901 27 47 C30.15672682 49.10448454 30.9518109 49.25548261 34.5625 49.265625 C35.44164062 49.26820313 36.32078125 49.27078125 37.2265625 49.2734375 C38.59941406 49.26183594 38.59941406 49.26183594 40 49.25 C40.91523438 49.25773437 41.83046875 49.26546875 42.7734375 49.2734375 C44.09214844 49.26957031 44.09214844 49.26957031 45.4375 49.265625 C46.64212891 49.26224121 46.64212891 49.26224121 47.87109375 49.25878906 C50.29913454 49.12575183 50.29913454 49.12575183 53 47 C53 47.66 53 48.32 53 49 C53.66 49.33 54.32 49.66 55 50 C54.34 50 53.68 50 53 50 C52.67 50.99 52.34 51.98 52 53 C48.10441912 53.11643304 44.20928742 53.18732909 40.3125 53.25 C39.20970703 53.28351563 38.10691406 53.31703125 36.97070312 53.3515625 C28.76329969 53.45074562 28.76329969 53.45074562 24.78515625 51.1015625 C22.88977584 48.87023939 22.17059805 47.90016688 22 45 C22.27050453 42.99053778 22.59367909 40.98645776 23 39 C20.03 39.495 20.03 39.495 17 40 C17 40.66 17 41.32 17 42 C15.53401486 41.65612694 14.07708201 41.27352093 12.625 40.875 C11.81289062 40.66617188 11.00078125 40.45734375 10.1640625 40.2421875 C8 39 8 39 6.625 36.65625 C5.68737257 31.17112954 6.57582112 26.0967973 7.375 20.625 C7.52710937 19.50738281 7.67921875 18.38976562 7.8359375 17.23828125 C8.21173684 14.4902486 8.60010178 11.74461147 9 9 C8.21214111 8.85812256 7.42428223 8.71624512 6.61254883 8.57006836 C2.66022488 7.70765584 0.9054125 5.77027704 -2 3 C-2 2.34 -2 1.68 -2 1 C-4.31 1.66 -6.62 2.32 -9 3 C-9.66 2.34 -10.32 1.68 -11 1 C-6.93172177 -0.60838907 -4.17202467 -1.60462487 0 0 Z " fill="#4C71A8" transform="translate(88,134)"/>
<path d="M0 0 C0.36351562 0.77923828 0.36351562 0.77923828 0.734375 1.57421875 C2.77136078 5.81271608 4.87828828 9.43232946 8 13 C7.34 13 6.68 13 6 13 C6 13.66 6 14.32 6 15 C6.928125 15.103125 7.85625 15.20625 8.8125 15.3125 C12 16 12 16 13.875 17.1875 C15.59372152 19.95655134 15.44749962 21.80357412 15 25 C12.84793176 28.38182152 10.85895837 30.75151347 7 32 C2.60319041 32.81801109 0.06046904 31.70687749 -3.625 29.4375 C-7.67083086 26.50376093 -10.5891139 23.88240847 -12 19 C-12.67695526 14.53469895 -13.11312984 10.14128793 -10.9765625 6.03125 C-7.73179614 2.01953886 -5.20125868 0 0 0 Z " fill="#9EDDF6" transform="translate(52,122)"/>
<path d="M0 0 C0.33 0 0.66 0 1 0 C1.02578125 0.65226563 1.0515625 1.30453125 1.078125 1.9765625 C1.5872399 9.82156025 3.68721317 14.07982536 9.625 19.3125 C13.71891925 22.71814025 16.38666001 23.32633256 21.67578125 23.30078125 C25.12429535 22.85450296 27.30671036 21.10207972 30 19 C30.66 19 31.32 19 32 19 C31.67 23.62 31.34 28.24 31 33 C29.700625 33.268125 28.40125 33.53625 27.0625 33.8125 C23.77239537 34.5270696 20.71066462 35.43881654 17.5625 36.625 C12.69582749 38.28699849 8.10082095 38.77582417 3 38 C-0.17615409 36.41192296 -1.52827141 35.30786127 -2.73828125 31.953125 C-3.24988243 29.99024702 -3.63421321 27.99520068 -4 26 C-3.01 25.67 -2.02 25.34 -1 25 C-0.67 16.75 -0.34 8.5 0 0 Z " fill="#83B3E8" transform="translate(37,132)"/>
<path d="M0 0 C4.22174589 1.74723517 5.39948115 3.8109584 7.234375 7.859375 C9.03846104 12.90345229 8.24409625 16.8624514 6.3125 21.6875 C4.45295211 25.48434691 2.84717372 27.98897737 -1 30 C-3.9124631 30.49112123 -5.98605297 30.34028434 -9 30 C-10.75 28.5 -10.75 28.5 -12 27 C-13.32 27 -14.64 27 -16 27 C-18.49310643 23.26034036 -18.0603261 21.70929359 -17.625 17.3125 C-17.51414063 16.13300781 -17.40328125 14.95351562 -17.2890625 13.73828125 C-17.19367188 12.83464844 -17.09828125 11.93101562 -17 11 C-16.14728516 10.77957031 -16.14728516 10.77957031 -15.27734375 10.5546875 C-9.3907805 8.84473424 -5.20837751 6.49645097 -1 2 C-0.67 1.34 -0.34 0.68 0 0 Z " fill="#95D7F5" transform="translate(169,129)"/>
<path d="M0 0 C0.99 0 1.98 0 3 0 C1.9611908 6.1112924 0.84269722 12.07704464 -1 18 C-0.01 18.33 0.98 18.66 2 19 C1.01 19.33 0.02 19.66 -1 20 C-1.57363281 19.69964844 -2.14726563 19.39929688 -2.73828125 19.08984375 C-8.31031434 16.40487444 -16.85714175 17.06440925 -22.703125 18.8046875 C-29.48885555 22.24500543 -34.9414267 28.14017505 -38.5 34.8125 C-39.10675818 37.9235466 -39.10675818 37.9235466 -38.8203125 40.7890625 C-38.30467577 49.10112653 -38.30467577 49.10112653 -40.66796875 52.15625 C-42.08470984 53.33299669 -43.53868324 54.46644829 -45.02734375 55.55078125 C-48.87473426 58.37728002 -50.4875712 62.59908012 -52 67 C-53.2197086 78.74324089 -50.73299289 86.62190276 -44 96 C-45.32 96 -46.64 96 -48 96 C-48.25523438 96.55171875 -48.51046875 97.1034375 -48.7734375 97.671875 C-50.19302074 100.36637058 -51.86132254 102.76778728 -53.625 105.25 C-54.25664063 106.14203125 -54.88828125 107.0340625 -55.5390625 107.953125 C-56.02117188 108.62859375 -56.50328125 109.3040625 -57 110 C-58.32 109.34 -59.64 108.68 -61 108 C-60.38125 107.4225 -59.7625 106.845 -59.125 106.25 C-57.18652947 104.19750179 -56.09985751 102.56633418 -55 100 C-54.34 100 -53.68 100 -53 100 C-53 99.01 -53 98.02 -53 97 C-52.34 97 -51.68 97 -51 97 C-51 95.35 -51 93.7 -51 92 C-51.66 91.67 -52.32 91.34 -53 91 C-57.08126103 82.6742275 -58.75158182 73.34693396 -55.8125 64.375 C-50.09615385 53.73076923 -50.09615385 53.73076923 -46.1875 51.125 C-43.78969391 49.26981772 -43.78969391 49.26981772 -43.86328125 46.9609375 C-43.90839844 46.14882813 -43.95351563 45.33671875 -44 44.5 C-44.34772419 37.59665207 -42.13400857 30.47091449 -37.4375 25.26953125 C-36.01154107 24.11093962 -34.50825407 23.04922022 -33 22 C-32.484375 21.29875 -31.96875 20.5975 -31.4375 19.875 C-29.58563674 17.45952618 -27.72414847 16.32885291 -25 15 C-23.68 15 -22.36 15 -21 15 C-20.34 14.34 -19.68 13.68 -19 13 C-18.01 13 -17.02 13 -16 13 C-15.2884375 12.98839844 -14.576875 12.97679687 -13.84375 12.96484375 C-13.0703125 12.95582031 -12.296875 12.94679688 -11.5 12.9375 C-10.7265625 12.92589844 -9.953125 12.91429687 -9.15625 12.90234375 C-7 13 -7 13 -4 14 C-3.67 12.02 -3.34 10.04 -3 8 C-2.34 8 -1.68 8 -1 8 C-1.020625 6.865625 -1.04125 5.73125 -1.0625 4.5625 C-1 1 -1 1 0 0 Z " fill="#5C6886" transform="translate(88,14)"/>
<path d="M0 0 C8.1659292 6.86948271 15.07114464 15.66286345 18 26 C18.1875 29.5 18.1875 29.5 18 32 C17.35933594 31.88140625 16.71867187 31.7628125 16.05859375 31.640625 C9.53984968 30.66912812 6.36903246 31.1483028 1 35 C-1.32592534 30.55040369 -2.16259055 27.15846039 -2.375 22.125 C-2.78107902 15.24757659 -5.11108226 9.88891774 -10 5 C-9.9375 2.5 -9.9375 2.5 -9 0 C-5.27750084 -2.31398596 -3.64085993 -2.2051246 0 0 Z " fill="#76BAF1" transform="translate(181,122)"/>
<path d="M0 0 C0.495 1.98 0.495 1.98 1 4 C3.97 3.01 6.94 2.02 10 1 C10 1.99 10 2.98 10 4 C9.43410156 4.15855469 8.86820313 4.31710938 8.28515625 4.48046875 C3.64790984 5.80672744 3.64790984 5.80672744 0.75 9.375 C1.0897701 12.94258602 2.60519292 14.39992374 5 17 C8.51565526 22.27348288 7.63084995 28.87629493 7 35 C5.20866409 39.86015839 2.40348413 43.2640117 -2 46 C-8.43282147 47.1158976 -14.23737298 45.88131351 -20 43 C-22.76318145 39.7762883 -22.20775783 36.08590393 -22 32 C-21.70307988 29.66175408 -21.37979153 27.32622311 -21 25 C-21.93972656 24.90912109 -21.93972656 24.90912109 -22.8984375 24.81640625 C-23.71570313 24.73261719 -24.53296875 24.64882812 -25.375 24.5625 C-26.59316406 24.44068359 -26.59316406 24.44068359 -27.8359375 24.31640625 C-30 24 -30 24 -32 23 C-32 32.9 -32 42.8 -32 53 C-31.34 53 -30.68 53 -30 53 C-29.67 54.32 -29.34 55.64 -29 57 C-28.34 57 -27.68 57 -27 57 C-26.80508548 58.45736087 -26.61930642 59.91594593 -26.4375 61.375 C-26.33308594 62.18710938 -26.22867188 62.99921875 -26.12109375 63.8359375 C-26 66 -26 66 -27 68 C-27.99 68 -28.98 68 -30 68 C-30.12117187 67.24074219 -30.24234375 66.48148437 -30.3671875 65.69921875 C-30.53476563 64.70535156 -30.70234375 63.71148437 -30.875 62.6875 C-31.03742188 61.70136719 -31.19984375 60.71523437 -31.3671875 59.69921875 C-31.88085454 56.79940173 -31.88085454 56.79940173 -34 54 C-34.17145815 51.38590855 -34.23233432 48.88130326 -34.1953125 46.26953125 C-34.1924826 45.51911057 -34.18965271 44.76868988 -34.18673706 43.99552917 C-34.17555062 41.60102325 -34.15044928 39.20689269 -34.125 36.8125 C-34.11496819 35.18815645 -34.10584269 33.56380703 -34.09765625 31.93945312 C-34.07561637 27.959491 -34.0410974 23.97980912 -34 20 C-33.40324463 20.14002441 -32.80648926 20.28004883 -32.19165039 20.42431641 C-31.39750732 20.60655762 -30.60336426 20.78879883 -29.78515625 20.9765625 C-29.00277588 21.15783691 -28.22039551 21.33911133 -27.41430664 21.52587891 C-20.92789564 22.7996791 -15.58730915 22.58736512 -9.78515625 19.2421875 C-2.71328013 14.32127589 -1.61499685 8.11437443 0 0 Z M-2 14 C-2.36351562 14.47050781 -2.72703125 14.94101563 -3.1015625 15.42578125 C-7.58947442 20.98388755 -11.77136062 23.9369648 -19 25 C-18.9690625 26.2684375 -18.9690625 26.2684375 -18.9375 27.5625 C-19 31 -19 31 -19.6875 34.625 C-20.28907562 37.94212643 -20.28907562 37.94212643 -18.8125 40.4375 C-16.89389731 42.43529308 -16.89389731 42.43529308 -13 42 C-12.34 42.66 -11.68 43.32 -11 44 C-6.63684087 44.42916319 -4.1400918 44.59595708 -0.25 42.5625 C3.68180237 38.08461397 5.67392807 33.32326248 6.5 27.4375 C5.87737178 23.15693099 4.60065215 19.49161632 2 16 C-0.05116287 14.75975613 -0.05116287 14.75975613 -2 14 Z " fill="#537FB1" transform="translate(171,115)"/>
<path d="M0 0 C4.29 0.33 8.58 0.66 13 1 C13.134608 4.77201525 13.23393762 8.53926123 13.3125 12.3125 C13.35439453 13.38435547 13.39628906 14.45621094 13.43945312 15.56054688 C13.45556641 16.58857422 13.47167969 17.61660156 13.48828125 18.67578125 C13.51446533 19.62364502 13.54064941 20.57150879 13.56762695 21.5480957 C13 24 13 24 10.6027832 25.81005859 C6.726596 27.58217532 4.24015116 27.34194767 0 27 C-0.99 26.34 -1.98 25.68 -3 25 C-2.01 16.75 -1.02 8.5 0 0 Z " fill="#6FA3E3" transform="translate(99,145)"/>
<path d="M0 0 C1.6328125 1.08984375 1.6328125 1.08984375 3 3 C3.43359375 6.36328125 3.43359375 6.36328125 3.4375 10.3125 C3.45683594 11.60800781 3.47617188 12.90351562 3.49609375 14.23828125 C2.92884227 18.53956606 1.78545227 20.70673062 -1 24 C-4.0625 24.625 -4.0625 24.625 -7 24 C-9.59134024 21.54279973 -9.98957108 20.09150862 -10.3984375 16.50390625 C-10.39070313 15.20324219 -10.38296875 13.90257813 -10.375 12.5625 C-10.38273437 11.26441406 -10.39046875 9.96632813 -10.3984375 8.62890625 C-9.98610626 4.87345796 -9.27722306 2.97149839 -7 0 C-4.26634878 -1.36682561 -2.89333621 -0.84683011 0 0 Z " fill="#445A7E" transform="translate(133,73)"/>
<path d="M0 0 C3.55780196 0.60990891 6.6828589 1.5783681 10 3 C10.03867187 3.97839844 10.03867187 3.97839844 10.078125 4.9765625 C10.50464316 11.54881964 11.58499753 15.71015469 16.4921875 20.4375 C20.97482559 24.36259604 24.37890334 25.1252938 30.1875 25.5625 C31.27417969 25.64628906 32.36085937 25.73007813 33.48046875 25.81640625 C34.72763672 25.90728516 34.72763672 25.90728516 36 26 C35.67 26.66 35.34 27.32 35 28 C33.68 28.33 32.36 28.66 31 29 C30.34 31.97 29.68 34.94 29 38 C28.67 38 28.34 38 28 38 C28 34.7 28 31.4 28 28 C26.68 28 25.36 28 24 28 C24.33 28.66 24.66 29.32 25 30 C25.35017306 35.3401391 25.46830225 38.66462219 22 43 C19.52637463 45.75904368 17.3357745 46.29141052 13.75 46.5625 C8.17896865 46.38811846 4.9735774 43.65821411 1 40 C-0.175625 38.948125 -0.175625 38.948125 -1.375 37.875 C-4.65634095 34.08883737 -5.29363458 31.04925916 -5.3125 26.0625 C-5.32925781 25.04285156 -5.34601562 24.02320313 -5.36328125 22.97265625 C-4.8556541 18.81884697 -3.3478404 16.24062582 -0.28125 13.41796875 C0.3065625 13.01191406 0.894375 12.60585937 1.5 12.1875 C2.0878125 11.76855469 2.675625 11.34960938 3.28125 10.91796875 C5 10 5 10 8 10 C8 8.35 8 6.7 8 5 C7.05125 4.731875 6.1025 4.46375 5.125 4.1875 C2 3 2 3 0 0 Z M-1 17 C-4.0100539 21.51508085 -3.79751203 25.71383619 -3 31 C-0.28915183 37.37676384 3.6361385 41.38627117 10 44 C14.08218134 44.66647859 15.61129234 44.21677927 19.25 42.1875 C22.43199232 39.65636974 23.83318025 38.12007549 24.4375 34.0625 C24.27748876 30.83451989 24.27748876 30.83451989 21.75 28.625 C18.95842116 26.66084713 18.95842116 26.66084713 15 27 C15 26.34 15 25.68 15 25 C15.66 24.67 16.32 24.34 17 24 C16.59007813 23.55269531 16.18015625 23.10539062 15.7578125 22.64453125 C12.74359926 19.26255515 10.33949455 16.420332 9 12 C3.88980204 12 2.6518914 13.58627543 -1 17 Z " fill="#4E709B" transform="translate(43,110)"/>
<path d="M0 0 C2.66147722 1.16439628 3.4974001 2.394451 5 4.875 C5.98577708 11.72711717 5.406061 17.84889208 2 23.875 C0 25.875 0 25.875 -2.4375 25.9375 C-5 24.875 -5 24.875 -6.8125 21.8125 C-9.40180383 14.56244927 -8.1471596 8.63556507 -5 1.875 C-2 -0.125 -2 -0.125 0 0 Z " fill="#4A5876" transform="translate(85,69.125)"/>
<path d="M0 0 C0.99 0 1.98 0 3 0 C1.9611908 6.1112924 0.84269722 12.07704464 -1 18 C-0.01 18.33 0.98 18.66 2 19 C1.01 19.33 0.02 19.66 -1 20 C-1.57363281 19.69964844 -2.14726563 19.39929688 -2.73828125 19.08984375 C-8.31031434 16.40487444 -16.85714175 17.06440925 -22.703125 18.8046875 C-29.74829717 22.37654052 -35.4566053 28.13499187 -38.38671875 35.47265625 C-39.36664257 38.63248079 -40.24353287 41.78003794 -41 45 C-41.66 45 -42.32 45 -43 45 C-43.33 45.66 -43.66 46.32 -44 47 C-44.72061946 39.50555766 -42.63369817 33.55768966 -39 27 C-37.12178776 24.91048888 -35.33490308 23.6242804 -33 22 C-32.484375 21.29875 -31.96875 20.5975 -31.4375 19.875 C-29.58563674 17.45952618 -27.72414847 16.32885291 -25 15 C-23.68 15 -22.36 15 -21 15 C-20.34 14.34 -19.68 13.68 -19 13 C-18.01 13 -17.02 13 -16 13 C-15.2884375 12.98839844 -14.576875 12.97679687 -13.84375 12.96484375 C-13.0703125 12.95582031 -12.296875 12.94679688 -11.5 12.9375 C-10.7265625 12.92589844 -9.953125 12.91429687 -9.15625 12.90234375 C-7 13 -7 13 -4 14 C-3.67 12.02 -3.34 10.04 -3 8 C-2.34 8 -1.68 8 -1 8 C-1.020625 6.865625 -1.04125 5.73125 -1.0625 4.5625 C-1 1 -1 1 0 0 Z " fill="#52637E" transform="translate(88,14)"/>
<path d="M0 0 C6.44464384 6.09628471 9.66208032 11.90054981 10.15625 20.8203125 C10.20141078 25.05413563 10.19366567 28.91288875 9 33 C9.90685547 33.37705078 9.90685547 33.37705078 10.83203125 33.76171875 C13.31110615 35.17769487 14.21878123 36.38934568 15.6875 38.8125 C16.10386719 39.47894531 16.52023438 40.14539063 16.94921875 40.83203125 C20.09368889 47.3196927 20.20418532 55.97667053 18.1640625 62.79296875 C15.51353253 68.67216442 11.87435409 73.12705545 6 76 C4.68 76 3.36 76 2 76 C2.33 74.68 2.66 73.36 3 72 C3 72.99 3 73.98 3 75 C3.66 75 4.32 75 5 75 C5 74.34 5 73.68 5 73 C6.485 72.505 6.485 72.505 8 72 C8.66 71.01 9.32 70.02 10 69 C10.66 69 11.32 69 12 69 C12.48108275 67.58398286 12.95978141 66.16715563 13.4375 64.75 C13.70433594 63.96109375 13.97117188 63.1721875 14.24609375 62.359375 C14.49488281 61.58078125 14.74367187 60.8021875 15 60 C15.20882812 59.360625 15.41765625 58.72125 15.6328125 58.0625 C16.59784378 52.64189874 15.35124504 46.27655414 12.5625 41.578125 C11.53011288 40.25786071 10.45889974 38.96640166 9.33984375 37.71875 C7.85222525 35.81043472 7.55541315 34.31995581 7 32 C6.34 31.67 5.68 31.34 5 31 C5 30.34 5 29.68 5 29 C5.99 29 6.98 29 8 29 C7.54809906 26.43621536 7.08872754 23.87414878 6.625 21.3125 C6.49867188 20.59126953 6.37234375 19.87003906 6.2421875 19.12695312 C5.52507241 15.200748 4.660678 11.66071195 3 8 C2.34 8 1.68 8 1 8 C0.34 5.69 -0.32 3.38 -1 1 C-0.67 0.67 -0.34 0.34 0 0 Z " fill="#C1E3F2" transform="translate(170,43)"/>
<path d="M0 0 C0.99 0.33 1.98 0.66 3 1 C2.01 1.33 1.02 1.66 0 2 C-0.33 2.99 -0.66 3.98 -1 5 C-5.66204965 9.38781144 -10.74470913 12.21254489 -17.23046875 12.078125 C-18.47441406 12.05234375 -19.71835938 12.0265625 -21 12 C-20.9312614 16.94842001 -20.84336531 21.89598371 -20.73754883 26.84375 C-20.70425565 28.52757285 -20.67623744 30.21150848 -20.65356445 31.89550781 C-20.62009795 34.31364086 -20.56778964 36.73073624 -20.51171875 39.1484375 C-20.50532883 39.9036972 -20.4989389 40.65895691 -20.49235535 41.43710327 C-20.46019682 43.78645901 -20.46019682 43.78645901 -20 47 C-16.84327318 49.10448454 -16.0481891 49.25548261 -12.4375 49.265625 C-11.55835937 49.26820313 -10.67921875 49.27078125 -9.7734375 49.2734375 C-8.40058594 49.26183594 -8.40058594 49.26183594 -7 49.25 C-6.08476562 49.25773437 -5.16953125 49.26546875 -4.2265625 49.2734375 C-2.90785156 49.26957031 -2.90785156 49.26957031 -1.5625 49.265625 C-0.35787109 49.26224121 -0.35787109 49.26224121 0.87109375 49.25878906 C3.29913454 49.12575183 3.29913454 49.12575183 6 47 C6 47.66 6 48.32 6 49 C6.99 49.495 6.99 49.495 8 50 C7.34 50 6.68 50 6 50 C5.67 50.99 5.34 51.98 5 53 C1.10441912 53.11643304 -2.79071258 53.18732909 -6.6875 53.25 C-7.79029297 53.28351563 -8.89308594 53.31703125 -10.02929688 53.3515625 C-18.2682306 53.45112665 -18.2682306 53.45112665 -22.26953125 50.984375 C-22.84058594 50.32953125 -23.41164063 49.6746875 -24 49 C-23.67 48.01 -23.34 47.02 -23 46 C-22.91505272 43.34105893 -22.88405204 40.70914623 -22.90234375 38.05078125 C-22.90446617 36.89185616 -22.90446617 36.89185616 -22.90663147 35.70951843 C-22.91222534 33.24380611 -22.92477667 30.77818485 -22.9375 28.3125 C-22.94251579 26.63997527 -22.94707856 24.96744912 -22.95117188 23.29492188 C-22.96219276 19.19657954 -22.97945316 15.09830521 -23 11 C-24.65 11 -26.3 11 -28 11 C-28 10.67 -28 10.34 -28 10 C-26.9378125 9.90203125 -25.875625 9.8040625 -24.78125 9.703125 C-10.93161196 8.30764557 -10.93161196 8.30764557 0 0 Z " fill="#5C87B4" transform="translate(135,134)"/>
<path d="M0 0 C1.66666667 1.66666667 3.33333333 3.33333333 5 5 C8.16645474 6.79320824 8.16645474 6.79320824 11 8 C11.12086218 14.43255401 10.82351864 20.61773055 10 27 C9.67 27 9.34 27 9 27 C8.835 25.700625 8.67 24.40125 8.5 23.0625 C7.17929534 17.05756946 3.61626478 12.93422205 -1 9 C-5.37541068 6.78520234 -8.20253774 7.05932113 -13 8 C-12.67 6.35 -12.34 4.7 -12 3 C-10.56445975 2.49440092 -9.1264798 1.9957251 -7.6875 1.5 C-6.88699219 1.2215625 -6.08648437 0.943125 -5.26171875 0.65625 C-3 0 -3 0 0 0 Z " fill="#6EB2EB" transform="translate(86,135)"/>
<path d="M0 0 C0.58515381 0.13712402 1.17030762 0.27424805 1.77319336 0.41552734 C6.03515743 1.39256457 10.1968639 2.25607301 14.5625 2.625 C15.40941406 2.69976562 16.25632813 2.77453125 17.12890625 2.8515625 C18.05509766 2.92503906 18.05509766 2.92503906 19 3 C18.67 3.66 18.34 4.32 18 5 C16.45874525 5.05482724 14.91690094 5.09316134 13.375 5.125 C12.51648438 5.14820313 11.65796875 5.17140625 10.7734375 5.1953125 C8 5 8 5 2 3 C2 12.9 2 22.8 2 33 C2.66 33 3.32 33 4 33 C4.33 34.32 4.66 35.64 5 37 C5.66 37 6.32 37 7 37 C7.19491452 38.45736087 7.38069358 39.91594593 7.5625 41.375 C7.66691406 42.18710938 7.77132812 42.99921875 7.87890625 43.8359375 C8 46 8 46 7 48 C6.01 48 5.02 48 4 48 C3.87882813 47.24074219 3.75765625 46.48148438 3.6328125 45.69921875 C3.46523437 44.70535156 3.29765625 43.71148437 3.125 42.6875 C2.96257812 41.70136719 2.80015625 40.71523437 2.6328125 39.69921875 C2.11914546 36.79940173 2.11914546 36.79940173 0 34 C-0.17145815 31.38590855 -0.23233432 28.88130326 -0.1953125 26.26953125 C-0.1924826 25.51911057 -0.18965271 24.76868988 -0.18673706 23.99552917 C-0.17555062 21.60102325 -0.15044928 19.20689269 -0.125 16.8125 C-0.11496819 15.18815645 -0.10584269 13.56380703 -0.09765625 11.93945312 C-0.07561637 7.959491 -0.0410974 3.97980912 0 0 Z " fill="#41689D" transform="translate(137,135)"/>
<path d="M0 0 C0.85529297 -0.00386719 1.71058594 -0.00773437 2.59179688 -0.01171875 C16.38899441 0.00932961 16.38899441 0.00932961 21.0625 3.125 C23.11959596 3.36555468 23.11959596 3.36555468 25.25 3.25 C26.508125 3.20875 27.76625 3.1675 29.0625 3.125 C29.0625 2.465 29.0625 1.805 29.0625 1.125 C35.9925 1.62 35.9925 1.62 43.0625 2.125 C43.0625 2.455 43.0625 2.785 43.0625 3.125 C42.02802734 3.18107422 42.02802734 3.18107422 40.97265625 3.23828125 C36.11235071 3.57830263 31.90754721 4.02870017 27.375 5.875 C23.97340285 7.14071057 22.20507689 7.19398316 18.8125 5.875 C18.20921875 5.58109375 17.6059375 5.2871875 16.984375 4.984375 C11.42862383 2.50009602 5.32883469 2.94148783 -0.625 2.9375 C-1.56794922 2.92525391 -2.51089844 2.91300781 -3.48242188 2.90039062 C-9.20514704 2.88859119 -14.34376761 3.44296974 -19.89135742 4.87719727 C-21.9375 5.125 -21.9375 5.125 -24.5625 3.25 C-25.01625 2.54875 -25.47 1.8475 -25.9375 1.125 C-25.36902344 1.13660156 -24.80054687 1.14820313 -24.21484375 1.16015625 C-23.44269531 1.16917969 -22.67054687 1.17820313 -21.875 1.1875 C-20.74384766 1.20490234 -20.74384766 1.20490234 -19.58984375 1.22265625 C-16.83731297 1.17324612 -16.83731297 1.17324612 -13.75 0.62890625 C-9.1379418 0.01932069 -4.64547917 -0.02090988 0 0 Z " fill="#75A5C8" transform="translate(113.9375,32.875)"/>
<path d="M0 0 C2.78336189 0.90459261 3.75649149 1.49117167 5.5 3.8125 C5.79296875 6.51171875 5.79296875 6.51171875 5.6875 9.5 C5.66042969 10.49386719 5.63335937 11.48773438 5.60546875 12.51171875 C5.57066406 13.27097656 5.53585938 14.03023437 5.5 14.8125 C3.19 14.8125 0.88 14.8125 -1.5 14.8125 C-1.768125 14.02875 -2.03625 13.245 -2.3125 12.4375 C-3.34814432 9.53135077 -3.34814432 9.53135077 -6.5 7.8125 C-6.1875 4.9375 -6.1875 4.9375 -5.5 1.8125 C-2.5 -0.1875 -2.5 -0.1875 0 0 Z " fill="#4A546E" transform="translate(130.5,72.1875)"/>
<path d="M0 0 C0.69140625 1.6640625 0.69140625 1.6640625 1 4 C-2.84966232 12.37333959 -9.45735323 18.67730712 -15.9777832 24.9777832 C-21.82736721 30.67466563 -26.07763169 36.33542493 -29 44 C-29.33 44 -29.66 44 -30 44 C-29.82567224 34.41197341 -24.38872755 29.53773774 -18.08105469 22.80102539 C-17.62118164 22.30981201 -17.16130859 21.81859863 -16.6875 21.3125 C-16.22375977 20.81935303 -15.76001953 20.32620605 -15.28222656 19.81811523 C-10.65522557 14.8065923 -6.76853888 9.34311834 -2.8984375 3.73828125 C-1 1 -1 1 0 0 Z " fill="#BAE4F0" transform="translate(39,112)"/>
<path d="M0 0 C2 0 2 0 3.66015625 1.6015625 C6.31516707 6.35426409 4.27595382 11.9590396 3 17 C0.21323897 22.57352207 -3.91157312 26.24710907 -9.3125 29.3125 C-15.70975831 30.94900794 -21.86678498 30.29995563 -28 28 C-28.33 27.34 -28.66 26.68 -29 26 C-26 25 -26 25 -23.5 26 C-18.51973825 27.42293193 -14.02971742 27.20559639 -9 26 C-5.95524698 23.79086457 -5.95524698 23.79086457 -4 21 C-3.48953125 20.60554688 -2.9790625 20.21109375 -2.453125 19.8046875 C-0.22555159 17.03818504 -0.12797885 13.9213603 0.25 10.5 C0.34023437 9.82324219 0.43046875 9.14648438 0.5234375 8.44921875 C0.91766333 5.22546878 1.03978992 3.11936975 0 0 Z " fill="#B0DAF3" transform="translate(167,108)"/>
<path d="M0 0 C0.66 1.32 1.32 2.64 2 4 C1.49210937 4.35191406 0.98421875 4.70382813 0.4609375 5.06640625 C-9.38900549 12.13106573 -12.97033635 18.14866865 -16 30 C-16.66 30 -17.32 30 -18 30 C-18.33 30.66 -18.66 31.32 -19 32 C-19.72061946 24.50555766 -17.63369817 18.55768966 -14 12 C-12.12178776 9.91048888 -10.33490308 8.6242804 -8 7 C-7.484375 6.29875 -6.96875 5.5975 -6.4375 4.875 C-4.63107598 2.51879475 -2.58985809 1.39992329 0 0 Z " fill="#596077" transform="translate(63,29)"/>
<path d="M0 0 C0.66 0 1.32 0 2 0 C2.495 1.485 2.495 1.485 3 3 C-0.55334162 6.96334258 -3.99334102 9.68630364 -9.43359375 10.25390625 C-14.17500086 10.35958397 -17.63917209 9.93814574 -22 8 C-26.12370255 7.6701038 -27.49337515 7.6622501 -31 10 C-31 9.34 -31 8.68 -31 8 C-31.99 7.67 -32.98 7.34 -34 7 C-30.70426338 5.01780969 -28.38275766 4.81006745 -24.5703125 4.98046875 C-23.52746094 5.00947266 -22.48460937 5.03847656 -21.41015625 5.06835938 C-19.22739697 5.14752009 -17.04503569 5.23858813 -14.86328125 5.34179688 C-8.09190225 5.63687256 -8.09190225 5.63687256 -2.3671875 2.48828125 C-1.58601563 1.66714844 -0.80484375 0.84601563 0 0 Z " fill="#55739F" transform="translate(178,163)"/>
<path d="M0 0 C0.99 0.33 1.98 0.66 3 1 C3.6875 3.0625 3.6875 3.0625 4 5 C3.26523438 5.39703125 2.53046875 5.7940625 1.7734375 6.203125 C-1.15876866 8.1028642 -3.07104664 10.13829836 -5.375 12.75 C-9.49880397 16.94903091 -9.49880397 16.94903091 -13.6875 17.375 C-17.61432595 15.74499678 -19.9304516 13.91981433 -23 11 C-22.67 10.34 -22.34 9.68 -22 9 C-18.2089881 10.44950455 -14.6125362 12.15172566 -11 14 C-10.64808594 13.17242188 -10.64808594 13.17242188 -10.2890625 12.328125 C-8.67151842 9.40674236 -6.63549805 7.20425503 -4.375 4.75 C-3.14910156 3.41195313 -3.14910156 3.41195313 -1.8984375 2.046875 C-1.27195312 1.37140625 -0.64546875 0.6959375 0 0 Z " fill="#E2F0F3" transform="translate(117,7)"/>
<path d="M0 0 C0.33 0 0.66 0 1 0 C1 5.94 1 11.88 1 18 C1.99 18 2.98 18 4 18 C4 18.66 4 19.32 4 20 C4.66 20.33 5.32 20.66 6 21 C5 22 5 22 1.9375 22.0625 C0.968125 22.041875 -0.00125 22.02125 -1 22 C-1.66 23.32 -2.32 24.64 -3 26 C-3.66 26 -4.32 26 -5 26 C-5 26.66 -5 27.32 -5 28 C-6.32 28 -7.64 28 -9 28 C-9.33 28.66 -9.66 29.32 -10 30 C-9.49697411 25.59852343 -7.97554199 23.24604581 -5 20 C-4.34 19.67 -3.68 19.34 -3 19 C-2.54666156 16.54367601 -2.20400519 14.16483953 -1.9375 11.6875 C-0.980558 3.37554921 -0.980558 3.37554921 0 0 Z " fill="#C7EEF6" transform="translate(72,148)"/>
<path d="M0 0 C3.55780196 0.60990891 6.6828589 1.5783681 10 3 C10.03867187 3.97839844 10.03867187 3.97839844 10.078125 4.9765625 C10.64266426 13.67559931 13.66738843 18.01920018 20 24 C19.34 24 18.68 24 18 24 C18 24.99 18 25.98 18 27 C17.01 27 16.02 27 15 27 C15 25.68 15 24.36 15 23 C13.33752986 20.99651034 11.67067133 18.99665598 10 17 C9.1875 14.125 9.1875 14.125 9 12 C3.99051302 13.83038947 0.72816476 15.17324696 -2 20 C-2.59410163 22.99568195 -2.86715707 25.95125481 -3 29 C-3.33 29 -3.66 29 -4 29 C-5.41906148 21.15241906 -5.41906148 21.15241906 -4 17.25 C-1.37601806 14.29802032 1.50452018 11.86690399 5 10 C5.99 10 6.98 10 8 10 C8 8.35 8 6.7 8 5 C7.05125 4.731875 6.1025 4.46375 5.125 4.1875 C2 3 2 3 0 0 Z " fill="#537CAA" transform="translate(43,110)"/>
<path d="M0 0 C1.65 0.33 3.3 0.66 5 1 C5.85228021 8.47472775 6.22462613 15.65328782 5.375 23.125 C5.23835938 24.34445313 5.10171875 25.56390625 4.9609375 26.8203125 C3.79272664 30.68585575 2.39241735 31.90192035 -1 34 C-1.66 34 -2.32 34 -3 34 C-3 32.68 -3 31.36 -3 30 C-3.66 29.34 -4.32 28.68 -5 28 C-2.69 28 -0.38 28 2 28 C2.33 23.38 2.66 18.76 3 14 C2.34 14 1.68 14 1 14 C1.01160156 13.24074219 1.02320312 12.48148438 1.03515625 11.69921875 C1.04417969 10.70535156 1.05320312 9.71148437 1.0625 8.6875 C1.07410156 7.70136719 1.08570312 6.71523437 1.09765625 5.69921875 C1.12329862 2.90036151 1.12329862 2.90036151 0 0 Z " fill="#567AA8" transform="translate(66,137)"/>
<path d="M0 0 C3.10324707 2.50261861 3.9404473 3.68058098 4.6875 7.6875 C4.790625 8.780625 4.89375 9.87375 5 11 C5.33 11.33 5.66 11.66 6 12 C6.04320247 14.33293334 6.04022391 16.6670134 6 19 C6 19.99 6 20.98 6 22 C5.34964186 23.34136367 4.6837045 24.67532254 4 26 C4 26.66 4 27.32 4 28 C3.34 28 2.68 28 2 28 C1.01 30.475 1.01 30.475 0 33 C-0.99 32.34 -1.98 31.68 -3 31 C-2.34 29.9275 -1.68 28.855 -1 27.75 C2.91160564 19.89904683 1.34751733 11.09080633 -0.66015625 2.86328125 C-0.77230469 2.24839844 -0.88445312 1.63351563 -1 1 C-0.67 0.67 -0.34 0.34 0 0 Z " fill="#687497" transform="translate(187,80)"/>
<path d="M0 0 C1.32 0 2.64 0 4 0 C4.25394531 0.53109375 4.50789063 1.0621875 4.76953125 1.609375 C6.58349524 5.3324172 8.3313518 8.79762215 11 12 C9.68 12 8.36 12 7 12 C6.74476562 12.55171875 6.48953125 13.1034375 6.2265625 13.671875 C4.80697926 16.36637058 3.13867746 18.76778728 1.375 21.25 C0.74335937 22.14203125 0.11171875 23.0340625 -0.5390625 23.953125 C-1.02117188 24.62859375 -1.50328125 25.3040625 -2 26 C-3.32 25.34 -4.64 24.68 -6 24 C-5.38125 23.4225 -4.7625 22.845 -4.125 22.25 C-2.18652947 20.19750179 -1.09985751 18.56633418 0 16 C0.66 16 1.32 16 2 16 C2 15.01 2 14.02 2 13 C2.66 13 3.32 13 4 13 C4 11.35 4 9.7 4 8 C3.34 7.67 2.68 7.34 2 7 C1.26924352 4.6859378 0.59861742 2.35171131 0 0 Z " fill="#5A75A1" transform="translate(33,98)"/>
<path d="M0 0 C0.33 0.66 0.66 1.32 1 2 C1.99 1.67 2.98 1.34 4 1 C4 5.95 4 10.9 4 16 C4.66 16 5.32 16 6 16 C6 17.98 6 19.96 6 22 C6.99 22.33 7.98 22.66 9 23 C9.309375 23.804375 9.61875 24.60875 9.9375 25.4375 C11.19771932 28.47685248 12.06823893 28.77055181 15 30 C15.33 30.66 15.66 31.32 16 32 C10.83002903 30.32736233 6.6328977 27.64570766 3.765625 23 C0.93916467 17.42900572 -0.12045501 13.12959621 -0.0625 6.8125 C-0.05347656 5.54019531 -0.04445312 4.26789063 -0.03515625 2.95703125 C-0.02355469 1.98121094 -0.01195312 1.00539063 0 0 Z " fill="#D2EFF6" transform="translate(35,81)"/>
<path d="M0 0 C0.99 0.33 1.98 0.66 3 1 C3 1.66 3 2.32 3 3 C4.175625 3.185625 4.175625 3.185625 5.375 3.375 C8 4 8 4 10 6 C13.29279709 5.68134222 14.86535088 4.45484649 17 2 C17.99 2.33 18.98 2.66 20 3 C18.47291037 6.43595166 16.40072955 9.11912454 14 12 C10.84667171 11.38197575 8.70849328 10.30241918 6.0625 8.5 C3.04828293 6.54498444 0.64530118 5.34174699 -3 5 C-2.67 4.01 -2.34 3.02 -2 2 C-1.34 2 -0.68 2 0 2 C0 1.34 0 0.68 0 0 Z " fill="#5A7694" transform="translate(92,9)"/>
<path d="M0 0 C2.475 0.495 2.475 0.495 5 1 C5 1.99 5 2.98 5 4 C6.65 4.33 8.3 4.66 10 5 C8.125 9.875 8.125 9.875 7 11 C6.95919217 12.99958364 6.95745644 15.00045254 7 17 C7.66 16.67 8.32 16.34 9 16 C9 19.33333333 9 22.66666667 9 26 C10.43750191 27.68798827 10.43750191 27.68798827 12 29 C11.67 29.99 11.34 30.98 11 32 C6.82479545 27.07539977 4.93238637 24.63169648 4.375 18.0625 C4.27960937 17.00160156 4.18421875 15.94070312 4.0859375 14.84765625 C4 12 4 12 5 9 C4.84311576 6.87183587 4.84311576 6.87183587 4 5 C3.01 4.67 2.02 4.34 1 4 C0.3125 1.9375 0.3125 1.9375 0 0 Z " fill="#BCE0F0" transform="translate(48,99)"/>
<path d="M0 0 C3.875 1.75 3.875 1.75 5 4 C1.0211737 8.62057248 -3.18053941 11.13164686 -9 13 C-12.5625 13.25 -12.5625 13.25 -15 13 C-15.33 13.66 -15.66 14.32 -16 15 C-16.33 13.68 -16.66 12.36 -17 11 C-16.14728516 10.77957031 -16.14728516 10.77957031 -15.27734375 10.5546875 C-9.3907805 8.84473424 -5.20837751 6.49645097 -1 2 C-0.67 1.34 -0.34 0.68 0 0 Z " fill="#7ABCEF" transform="translate(169,129)"/>
<path d="M0 0 C0.33 0 0.66 0 1 0 C2.94921178 8.771453 3.14344066 16.82248374 -1.37109375 24.796875 C-3.97575837 28.31973074 -7.05150006 31.06892448 -11 33 C-12.32 33 -13.64 33 -15 33 C-14.67 31.68 -14.34 30.36 -14 29 C-14 29.99 -14 30.98 -14 32 C-13.34 32 -12.68 32 -12 32 C-12 31.34 -12 30.68 -12 30 C-11.01 29.67 -10.02 29.34 -9 29 C-8.34 28.01 -7.68 27.02 -7 26 C-6.34 26 -5.68 26 -5 26 C-2.73234474 19.9671813 -1.53001243 14.40525655 -1 8 C-0.81992853 6.47826923 -0.63283247 4.9573472 -0.4375 3.4375 C-0.293125 2.303125 -0.14875 1.16875 0 0 Z " fill="#B9DDEF" transform="translate(187,86)"/>
<path d="M0 0 C0.99 0.33 1.98 0.66 3 1 C3.99017457 3.9705237 4.10393262 5.90636414 4.0625 9 C4.05347656 9.86625 4.04445312 10.7325 4.03515625 11.625 C4.02355469 12.40875 4.01195312 13.1925 4 14 C4 17.15084005 4.45473667 18.33871316 6 21 C6.66 21.66 7.32 22.32 8 23 C7.01 23.66 6.02 24.32 5 25 C4.38125 24.195625 3.7625 23.39125 3.125 22.5625 C1.25835959 19.96125481 1.25835959 19.96125481 -1 19 C-0.67 12.73 -0.34 6.46 0 0 Z " fill="#65718A" transform="translate(180,57)"/>
<path d="M0 0 C0.66 0.33 1.32 0.66 2 1 C2.34717213 4.73210035 2.2922789 6.54070458 0.25 9.75 C-2.85806268 12.85806268 -4.6225167 13.85651216 -9 14.3125 C-12.30074854 13.96867203 -13.59688219 13.21826259 -16 11 C-11 10 -11 10 -8.4375 9.75 C-5.1108201 8.72640618 -4.03433738 6.73583303 -2 4 C-1.34 4 -0.68 4 0 4 C0 2.68 0 1.36 0 0 Z " fill="#8ECCEE" transform="translate(65,140)"/>
<path d="M0 0 C1.96550734 1.64492994 2.90650835 2.58388552 3.4765625 5.12109375 C3.55003906 6.26771484 3.55003906 6.26771484 3.625 7.4375 C3.90961166 13.28756791 3.90961166 13.28756791 7 18 C0.375 17.25 0.375 17.25 -3 15 C-2.68917128 13.24970238 -2.37626821 11.49977306 -2.0625 9.75 C-1.88847656 8.77546875 -1.71445313 7.8009375 -1.53515625 6.796875 C-1.09620271 4.50278205 -0.59651408 2.25708029 0 0 Z " fill="#B1DDEF" transform="translate(90,17)"/>
<path d="M0 0 C0.99 0 1.98 0 3 0 C3.33 0.66 3.66 1.32 4 2 C5.66072849 2.68132451 7.327767 3.34742127 9 4 C9.66 4.66 10.32 5.32 11 6 C13.05780676 6.71717773 13.05780676 6.71717773 15.375 7.1875 C16.14585938 7.36667969 16.91671875 7.54585937 17.7109375 7.73046875 C20.12545582 8.0147721 21.68614141 7.65616885 24 7 C24.639375 7.165 25.27875 7.33 25.9375 7.5 C28.08898138 8.17952683 28.08898138 8.17952683 30.625 7.4375 C31.40875 7.293125 32.1925 7.14875 33 7 C33.66 7.66 34.32 8.32 35 9 C26.43504256 11.67520081 15.00267993 11.08990081 7 7 C4.43145021 5.47895934 2.31421132 3.92030301 0 2 C0 1.34 0 0.68 0 0 Z " fill="#ABD7F0" transform="translate(88,134)"/>
<path d="M0 0 C5.94 0.66 11.88 1.32 18 2 C17.67 2.66 17.34 3.32 17 4 C15.68 4.33 14.36 4.66 13 5 C12.34 7.97 11.68 10.94 11 14 C10.67 14 10.34 14 10 14 C10 10.7 10 7.4 10 4 C8.68 4 7.36 4 6 4 C6.33 4.66 6.66 5.32 7 6 C7.16796875 7.875 7.16796875 7.875 7.1875 10 C7.20167969 10.70125 7.21585937 11.4025 7.23046875 12.125 C7 14 7 14 5 16 C5.05800781 15.39671875 5.11601563 14.7934375 5.17578125 14.171875 C5.31548956 11.69704201 5.36104706 9.45512003 5 7 C2.62157423 4.59593616 2.62157423 4.59593616 0 3 C0 2.01 0 1.02 0 0 Z " fill="#476BA0" transform="translate(61,134)"/>
<path d="M0 0 C0.99 0.33 1.98 0.66 3 1 C2.484375 1.391875 1.96875 1.78375 1.4375 2.1875 C-0.2224071 3.90851622 -0.2224071 3.90851622 -0.0625 6.25 C1.2331167 9.60336088 3.11075224 11.727156 5.52734375 14.3515625 C7 16 7 16 9 19 C4.37433645 18.53168238 2.37473941 16.86602343 -0.8125 13.5625 C-1.60269531 12.75941406 -2.39289063 11.95632812 -3.20703125 11.12890625 C-5 9 -5 9 -5 7 C-4.34 7 -3.68 7 -3 7 C-2.87625 6.21625 -2.7525 5.4325 -2.625 4.625 C-2 2 -2 2 0 0 Z " fill="#465470" transform="translate(184,112)"/>
<path d="M0 0 C0.99 0.33 1.98 0.66 3 1 C2.90460938 1.83144531 2.80921875 2.66289062 2.7109375 3.51953125 C2.60007813 4.60621094 2.48921875 5.69289062 2.375 6.8125 C2.25898438 7.89144531 2.14296875 8.97039062 2.0234375 10.08203125 C1.72539844 13.19624332 1.72539844 13.19624332 4 16 C4.5775 15.7525 5.155 15.505 5.75 15.25 C6.86375 15.12625 6.86375 15.12625 8 15 C9.35500919 16.31129922 10.68671343 17.64691687 12 19 C14.64184541 19.79681318 14.64184541 19.79681318 17 20 C17 20.33 17 20.66 17 21 C11.08825533 21.31670061 6.25801414 20.91832364 1 18 C-1.76318145 14.7762883 -1.20775783 11.08590393 -1 7 C-0.70307988 4.66175408 -0.37979153 2.32622311 0 0 Z " fill="#4875AC" transform="translate(150,140)"/>
<path d="M0 0 C0.75 1.75 0.75 1.75 1 4 C0.3503125 4.5671875 -0.299375 5.134375 -0.96875 5.71875 C-3.71887629 8.80735338 -3.41260747 10.68481336 -3.25 14.75 C-3.21390625 15.92046875 -3.1778125 17.0909375 -3.140625 18.296875 C-3.09421875 19.18890625 -3.0478125 20.0809375 -3 21 C-3.66 21 -4.32 21 -5 21 C-7.7916586 16.22390938 -7.78533578 11.38849201 -7 6 C-5.46612855 3.00638473 -3.66298931 0 0 0 Z " fill="#B6E5F3" transform="translate(47,124)"/>
<path d="M0 0 C2.64 0 5.28 0 8 0 C8.625 2.875 8.625 2.875 9 6 C7 8 7 8 4.0625 8.375 C1 8 1 8 -0.875 6.125 C-2 4 -2 4 -2 2 C-1.34 2 -0.68 2 0 2 C0 1.34 0 0.68 0 0 Z " fill="#4D6B97" transform="translate(125,89)"/>
<path d="M0 0 C1.32 0.66 2.64 1.32 4 2 C4 2.99 4 3.98 4 5 C4.99 6.485 4.99 6.485 6 8 C5.01 8.66 4.02 9.32 3 10 C3.54723683 13.37462715 4.0549 15.08235 6 18 C6.99 18 7.98 18 9 18 C9 18.66 9 19.32 9 20 C7.02 20 5.04 20 3 20 C0.96834048 15.66579301 0.47939368 11.71403788 0 7 C-0.33 7 -0.66 7 -1 7 C-1.04254356 5.00045254 -1.04080783 2.99958364 -1 1 C-0.67 0.67 -0.34 0.34 0 0 Z " fill="#CDEDF7" transform="translate(92,14)"/>
<path d="M0 0 C0.33 0.66 0.66 1.32 1 2 C1.66 2.33 2.32 2.66 3 3 C2.34 3 1.68 3 1 3 C0.67 3.99 0.34 4.98 0 6 C-6.6 6 -13.2 6 -20 6 C-19.67 5.01 -19.34 4.02 -19 3 C-17.79601562 2.95101562 -16.59203125 2.90203125 -15.3515625 2.8515625 C-13.77601802 2.77653657 -12.20049834 2.70098867 -10.625 2.625 C-9.8309375 2.5940625 -9.036875 2.563125 -8.21875 2.53125 C-3.63332625 2.48183579 -3.63332625 2.48183579 0 0 Z " fill="#6891B4" transform="translate(140,181)"/>
<path d="M0 0 C2 0 2 0 3.6640625 1.59765625 C5.48706917 4.87587 5.00969093 6.77744899 4.375 10.4375 C4.19710937 11.54996094 4.01921875 12.66242188 3.8359375 13.80859375 C2.99724487 17.01051842 1.84555393 19.27245483 0 22 C-1.32 21.67 -2.64 21.34 -4 21 C-3.29617187 20.48953125 -3.29617187 20.48953125 -2.578125 19.96875 C-0.28153056 17.1036916 -0.14081012 14.03750538 0.25 10.5 C0.34023437 9.82324219 0.43046875 9.14648438 0.5234375 8.44921875 C0.91766333 5.22546878 1.03978992 3.11936975 0 0 Z " fill="#ACDAF6" transform="translate(167,108)"/>
<path d="M0 0 C2.31 0 4.62 0 7 0 C8.32841008 5.43440487 8.32841008 5.43440487 6.875 7.9375 C5 9 5 9 2.375 8.8125 C0 8 0 8 -1 6 C-0.71887936 3.99199544 -0.38932033 1.98985949 0 0 Z " fill="#557AAD" transform="translate(80,86)"/>
<path d="M0 0 C1.68816933 1.64488294 3.35353315 3.31337542 5 5 C8.62988523 7.11743305 11.84335842 8.38872918 16 9 C16 9.33 16 9.66 16 10 C14.02 10 12.04 10 10 10 C10 11.65 10 13.3 10 15 C9.67 15 9.34 15 9 15 C9 13.02 9 11.04 9 9 C8.29875 8.938125 7.5975 8.87625 6.875 8.8125 C2.91084133 7.69219429 0.97783887 5.83933474 -2 3 C-2 2.34 -2 1.68 -2 1 C-4.31 1.66 -6.62 2.32 -9 3 C-9.66 2.34 -10.32 1.68 -11 1 C-6.93172177 -0.60838907 -4.17202467 -1.60462487 0 0 Z " fill="#507AAC" transform="translate(88,134)"/>
<path d="M0 0 C0.66 0.33 1.32 0.66 2 1 C2.66 0.67 3.32 0.34 4 0 C6.09375 -0.203125 6.09375 -0.203125 8.5 -0.25 C9.69109375 -0.28867187 9.69109375 -0.28867187 10.90625 -0.328125 C11.5971875 -0.21984375 12.288125 -0.1115625 13 0 C13.66 0.99 14.32 1.98 15 3 C12.58440932 3.36354039 10.16805703 3.71610551 7.75 4.0625 C7.06808594 4.16626953 6.38617188 4.27003906 5.68359375 4.37695312 C2.2150075 4.86524925 -0.66911113 5.22762141 -4 4 C-3.67 3.34 -3.34 2.68 -3 2 C-2.34 2 -1.68 2 -1 2 C-0.67 1.34 -0.34 0.68 0 0 Z " fill="#7B8495" transform="translate(68,27)"/>
<path d="M0 0 C1.98 0.66 3.96 1.32 6 2 C6 2.66 6 3.32 6 4 C6.66 4.33 7.32 4.66 8 5 C10.54049656 8.55669518 11.8090868 11.60899644 12 16 C10.5078125 17.6796875 10.5078125 17.6796875 9 19 C8.82984375 18.43152344 8.6596875 17.86304687 8.484375 17.27734375 C6.45912146 10.82454126 3.757998 5.63699699 0 0 Z " fill="#6A7C9E" transform="translate(170,42)"/>
<path d="M0 0 C0.66 1.32 1.32 2.64 2 4 C2.70125 3.855625 3.4025 3.71125 4.125 3.5625 C5.07375 3.376875 6.0225 3.19125 7 3 C8.03125 2.79375 9.0625 2.5875 10.125 2.375 C13 2 13 2 16 3 C18.35188447 2.40206327 20.68925595 1.74118205 23 1 C23.33 1.66 23.66 2.32 24 3 C16.02236829 5.85157899 8.4654445 7.84777014 0.375 4.5 C-0.40875 4.005 -1.1925 3.51 -2 3 C-1.34 2.01 -0.68 1.02 0 0 Z " fill="#ABD8F2" transform="translate(63,130)"/>
<path d="M0 0 C0.66 0.66 1.32 1.32 2 2 C-0.97 2.66 -3.94 3.32 -7 4 C-7 4.66 -7 5.32 -7 6 C-7.639375 6.28875 -8.27875 6.5775 -8.9375 6.875 C-11.15206079 7.82823451 -11.15206079 7.82823451 -12 10 C-12.99 10 -13.98 10 -15 10 C-12.11749453 2.92475931 -7.47527737 -0.46720484 0 0 Z " fill="#5E80A6" transform="translate(195,152)"/>
<path d="M0 0 C2 3 2 3 2 5 C2.66 5.33 3.32 5.66 4 6 C3.34 6.66 2.68 7.32 2 8 C1.7525 9.155 1.505 10.31 1.25 11.5 C0.8375 12.655 0.425 13.81 0 15 C-3.125 16.4375 -3.125 16.4375 -6 17 C-6.99 16.01 -7.98 15.02 -9 14 C-7.329375 13.5978125 -7.329375 13.5978125 -5.625 13.1875 C-3.62099794 12.48202525 -3.62099794 12.48202525 -2 11 C-0.75786403 7.38554425 -0.3160098 3.7985668 0 0 Z " fill="#4D8FAE" transform="translate(94,169)"/>
<path d="M0 0 C0 10.89 0 21.78 0 33 C-0.33 33 -0.66 33 -1 33 C-1.33 24.42 -1.66 15.84 -2 7 C-4.11785113 5.88214887 -4.11785113 5.88214887 -7 5 C-2.25 0 -2.25 0 0 0 Z " fill="#83BDE2" transform="translate(137,136)"/>
<path d="M0 0 C-0.66 0 -1.32 0 -2 0 C-2.22945312 0.59167969 -2.45890625 1.18335938 -2.6953125 1.79296875 C-4.34847221 4.58948143 -6.0985628 5.65240476 -8.875 7.3125 C-10.17050781 8.11107422 -10.17050781 8.11107422 -11.4921875 8.92578125 C-14.25237791 10.1081058 -15.26136178 10.08908636 -18 9 C-14.81514226 6.23978996 -11.43863797 3.92258873 -7.875 1.6875 C-7.02679688 1.15511719 -6.17859375 0.62273438 -5.3046875 0.07421875 C-3 -1 -3 -1 0 0 Z " fill="#D6EEF3" transform="translate(146,14)"/>
<path d="M0 0 C0.99 0.33 1.98 0.66 3 1 C2.01 1.33 1.02 1.66 0 2 C-0.33 2.99 -0.66 3.98 -1 5 C-4.60856433 8.39629584 -8.32408594 10.38468423 -13 12 C-15.4375 11.6875 -15.4375 11.6875 -17 11 C-16 9 -16 9 -14.1796875 8.359375 C-13.03886719 8.05773437 -13.03886719 8.05773437 -11.875 7.75 C-7.42433882 6.3892883 -4.74974467 4.39829169 -1.5078125 1.109375 C-0.76144531 0.56023437 -0.76144531 0.56023437 0 0 Z " fill="#5987BA" transform="translate(135,134)"/>
<path d="M0 0 C0.99 0.33 1.98 0.66 3 1 C2.67 2.32 2.34 3.64 2 5 C0.68 5.33 -0.64 5.66 -2 6 C-2.33 9.3 -2.66 12.6 -3 16 C-5 14 -5 14 -5.25 10.125 C-5.16357075 6.94440374 -4.92623463 4.63590001 -3 2 C-2.01 1.34 -1.02 0.68 0 0 Z " fill="#5E647A" transform="translate(82,73)"/>
<path d="M0 0 C0 0.33 0 0.66 0 1 C-0.61520508 1.05534912 -1.23041016 1.11069824 -1.86425781 1.16772461 C-4.65980996 1.42107482 -7.45489762 1.67923694 -10.25 1.9375 C-11.70212891 2.06801758 -11.70212891 2.06801758 -13.18359375 2.20117188 C-14.58544922 2.33168945 -14.58544922 2.33168945 -16.015625 2.46484375 C-16.87446289 2.543396 -17.73330078 2.62194824 -18.61816406 2.70288086 C-20.99197946 2.93129589 -20.99197946 2.93129589 -23.17089844 3.65454102 C-23.77450195 3.76854248 -24.37810547 3.88254395 -25 4 C-27.25 2.0625 -27.25 2.0625 -29 0 C-28.43152344 0.01160156 -27.86304687 0.02320313 -27.27734375 0.03515625 C-23.66650879 0.07735299 -20.3189074 0.05519551 -16.75 -0.5625 C-11.11940805 -1.21940239 -5.62521814 -0.54983335 0 0 Z " fill="#8DB1CF" transform="translate(117,34)"/>
<path d="M0 0 C0.33 0.99 0.66 1.98 1 3 C-2.01887244 6.48331435 -4.56909529 7.79157144 -9 9 C-9 8.34 -9 7.68 -9 7 C-11.64 7 -14.28 7 -17 7 C-17 6.67 -17 6.34 -17 6 C-16.41992188 5.98582031 -15.83984375 5.97164062 -15.2421875 5.95703125 C-9.2377467 5.59042348 -4.60966827 0 0 0 Z " fill="#6693B4" transform="translate(180,163)"/>
<path d="M0 0 C0.99 0.33 1.98 0.66 3 1 C4.28317892 4.84953676 4.06643637 7.94738135 4 12 C3.01 12 2.02 12 1 12 C0.67 12.99 0.34 13.98 0 15 C0 10.05 0 5.1 0 0 Z " fill="#3D4D73" transform="translate(180,57)"/>
<path d="M0 0 C4 5 4 5 8 10 C7.34 10 6.68 10 6 10 C6 10.66 6 11.32 6 12 C5.34 12 4.68 12 4 12 C3.67 11.01 3.34 10.02 3 9 C2.154375 8.175 1.30875 7.35 0.4375 6.5 C-2 4 -2 4 -2 1 C-1.34 0.67 -0.68 0.34 0 0 Z " fill="#7CC0F0" transform="translate(52,125)"/>
<path d="M0 0 C0.33 0 0.66 0 1 0 C1 5.94 1 11.88 1 18 C1.99 18.33 2.98 18.66 4 19 C2.35 19 0.7 19 -1 19 C-2.05268874 12.18597425 -1.93833398 6.63198569 0 0 Z " fill="#ADDFEE" transform="translate(72,148)"/>
<path d="M0 0 C0.66 0.33 1.32 0.66 2 1 C1.54300722 6.02692063 -0.99241748 9.14896261 -4 13 C-5.32 12.34 -6.64 11.68 -8 11 C-7.38125 10.4225 -6.7625 9.845 -6.125 9.25 C-4.18652947 7.19750179 -3.09985751 5.56633418 -2 3 C-1.34 3 -0.68 3 0 3 C0 2.01 0 1.02 0 0 Z " fill="#527A90" transform="translate(35,111)"/>
<path d="M0 0 C0.99 0.33 1.98 0.66 3 1 C3.06058594 1.59167969 3.12117188 2.18335937 3.18359375 2.79296875 C3.62012371 6.90978208 4.08671346 10.95544533 5 15 C3.68 15 2.36 15 1 15 C-0.03590199 9.94997778 -0.10251672 5.12583611 0 0 Z " fill="#506883" transform="translate(31,83)"/>
<path d="M0 0 C1.32 0 2.64 0 4 0 C3.690625 0.680625 3.38125 1.36125 3.0625 2.0625 C0.8874001 8.07601148 0.67503991 14.66611491 0 21 C-0.66 21 -1.32 21 -2 21 C-1.49656013 13.97326485 -0.95812032 6.98059091 0 0 Z " fill="#6694D8" transform="translate(99,145)"/>
<path d="M0 0 C1.65 0 3.3 0 5 0 C5 0.66 5 1.32 5 2 C5.7425 2.7115625 5.7425 2.7115625 6.5 3.4375 C8 5 8 5 8 8 C8.66 8 9.32 8 10 8 C9.67 9.98 9.34 11.96 9 14 C6.94125541 11.94125541 5.87431063 10.1141926 4.5 7.5625 C3.08358213 4.94126326 1.65619203 2.48428804 0 0 Z " fill="#4F6886" transform="translate(189,131)"/>
<path d="M0 0 C2.86724686 0.57344937 3.8614515 0.8614515 6 3 C3.66420057 4.55719962 1.50676957 5.78459657 -1 7 C-1.7425 7.37125 -2.485 7.7425 -3.25 8.125 C-3.8275 8.41375 -4.405 8.7025 -5 9 C-5.66 8.34 -6.32 7.68 -7 7 C-5.47005208 5.76302083 -3.94010417 4.52604167 -2.41015625 3.2890625 C-0.86733563 2.0333609 -0.86733563 2.0333609 0 0 Z " fill="#546279" transform="translate(116,3)"/>
<path d="M0 0 C0.66 0.33 1.32 0.66 2 1 C2 1.66 2 2.32 2 3 C0.33779419 4.00739746 -1.33020674 5.00522955 -3 6 C-5.39307104 7.9332454 -7.7027145 9.95429043 -10 12 C-10.33 11.34 -10.66 10.68 -11 10 C-4.68882603 2.08392268 -4.68882603 2.08392268 0 0 Z " fill="#C4EBFC" transform="translate(132,121)"/>
<path d="M0 0 C0.99 0.33 1.98 0.66 3 1 C3 1.66 3 2.32 3 3 C4.41623216 3.05447047 5.83308191 3.09300508 7.25 3.125 C8.43335937 3.15980469 8.43335937 3.15980469 9.640625 3.1953125 C12.20731941 2.9828378 13.7916067 2.28654105 16 1 C16 1.99 16 2.98 16 4 C11.99764065 6.66823957 8.70618084 6.71357255 4 6 C1.4375 4.125 1.4375 4.125 0 2 C0 1.34 0 0.68 0 0 Z " fill="#656B80" transform="translate(96,94)"/>
<path d="M0 0 C3.82669043 3.42388092 5.72278474 6.00724943 7 11 C6.34 11.66 5.68 12.32 5 13 C4.34 11.35 3.68 9.7 3 8 C2.34 8 1.68 8 1 8 C0.34 5.69 -0.32 3.38 -1 1 C-0.67 0.67 -0.34 0.34 0 0 Z " fill="#CCE9F4" transform="translate(170,43)"/>
<path d="M0 0 C2.475 0.495 2.475 0.495 5 1 C4.67 5.62 4.34 10.24 4 15 C3.01 14.67 2.02 14.34 1 14 C1.01160156 13.24074219 1.02320312 12.48148438 1.03515625 11.69921875 C1.04417969 10.70535156 1.05320312 9.71148437 1.0625 8.6875 C1.07990234 7.20830078 1.07990234 7.20830078 1.09765625 5.69921875 C1.12329862 2.90036151 1.12329862 2.90036151 0 0 Z " fill="#6795D6" transform="translate(66,137)"/>
<path d="M0 0 C0.99 0 1.98 0 3 0 C3.19491452 1.45736087 3.38069358 2.91594593 3.5625 4.375 C3.66691406 5.18710938 3.77132812 5.99921875 3.87890625 6.8359375 C4 9 4 9 3 11 C2.01 11 1.02 11 0 11 C0 7.37 0 3.74 0 0 Z " fill="#4A6381" transform="translate(141,172)"/>
<path d="M0 0 C0.33 0 0.66 0 1 0 C1 10.89 1 21.78 1 33 C-0.485 33.495 -0.485 33.495 -2 34 C-1.84152588 33.4834082 -1.68305176 32.96681641 -1.51977539 32.43457031 C-0.84791934 29.28767106 -0.77900563 26.26361848 -0.68359375 23.046875 C-0.66281265 22.38665344 -0.64203156 21.72643188 -0.62062073 21.04620361 C-0.55549853 18.94756985 -0.49641498 16.84881628 -0.4375 14.75 C-0.39427921 13.32290453 -0.3506638 11.89582095 -0.30664062 10.46875 C-0.19985589 6.97929278 -0.09848434 3.48970247 0 0 Z " fill="#436C9C" transform="translate(112,147)"/>
<path d="M0 0 C0.66 0.99 1.32 1.98 2 3 C-2.69978858 7.82029598 -2.69978858 7.82029598 -6.40234375 8.33203125 C-8.62065332 8.31450906 -10.79311543 8.22068846 -13 8 C-13.33 7.01 -13.66 6.02 -14 5 C-12.783125 5.061875 -11.56625 5.12375 -10.3125 5.1875 C-6.41750797 5.19440601 -4.12309875 4.46062325 -1 2 C-0.67 1.34 -0.34 0.68 0 0 Z " fill="#4E76AD" transform="translate(65,148)"/>
<path d="M0 0 C0.6640625 1.7421875 0.6640625 1.7421875 1 4 C-0.0390625 6.0703125 -0.0390625 6.0703125 -1.625 8.125 C-2.13289063 8.80820313 -2.64078125 9.49140625 -3.1640625 10.1953125 C-5.28641811 12.28154291 -7.19663391 13.07192317 -10 14 C-6.84577733 9.17403931 -3.71080883 4.42442592 0 0 Z " fill="#AEE1F0" transform="translate(39,112)"/>
<path d="M0 0 C0.33 0.66 0.66 1.32 1 2 C1.66 2.28875 2.32 2.5775 3 2.875 C5 4 5 4 5.75 6.125 C5.8325 6.74375 5.915 7.3625 6 8 C5.071875 8.12375 5.071875 8.12375 4.125 8.25 C1.46510021 8.91214206 1.46510021 8.91214206 0 13 C0 8.71 0 4.42 0 0 Z " fill="#44526E" transform="translate(123,78)"/>
<path d="M0 0 C-3.44898681 3.17306787 -6.36281224 3.76421079 -11 4 C-13.44960092 3.52342395 -15.63141429 2.82175423 -18 2 C-14.61779859 -0.25480094 -11.804543 -0.11616671 -7.8984375 0 C0 0 0 0 0 0 Z " fill="#B9E6FB" transform="translate(81,125)"/>
<path d="M0 0 C0.99 0.33 1.98 0.66 3 1 C1.47291037 4.43595166 -0.59927045 7.11912454 -3 10 C-4.32 9.67 -5.64 9.34 -7 9 C-6.21448343 7.68381002 -5.4213763 6.37214772 -4.625 5.0625 C-4.18414062 4.33160156 -3.74328125 3.60070312 -3.2890625 2.84765625 C-2 1 -2 1 0 0 Z " fill="#728199" transform="translate(109,11)"/>
<path d="M0 0 C1.875 0.625 1.875 0.625 4 2 C5.88364104 6.03637365 6.25659559 8.72757499 5 13 C4.34 12.67 3.68 12.34 3 12 C2.66666667 9.66666667 2.33333333 7.33333333 2 5 C1.34 4.67 0.68 4.34 0 4 C0 2.68 0 1.36 0 0 Z " fill="#698DAB" transform="translate(29,155)"/>
<path d="M0 0 C2.475 0.495 2.475 0.495 5 1 C5 1.99 5 2.98 5 4 C6.65 4.33 8.3 4.66 10 5 C9.34 6.65 8.68 8.3 8 10 C7.01 9.67 6.02 9.34 5 9 C4.66666667 7.66666667 4.33333333 6.33333333 4 5 C3.01 4.67 2.02 4.34 1 4 C0.3125 1.9375 0.3125 1.9375 0 0 Z " fill="#C9E6F7" transform="translate(48,99)"/>
<path d="M0 0 C0 0.66 0 1.32 0 2 C1.32 2.33 2.64 2.66 4 3 C4 3.66 4 4.32 4 5 C4.99 5.33 5.98 5.66 7 6 C4 7 4 7 1.51953125 6.00390625 C0.62621094 5.52824219 -0.26710937 5.05257812 -1.1875 4.5625 C-2.08855469 4.08941406 -2.98960937 3.61632813 -3.91796875 3.12890625 C-4.60503906 2.75636719 -5.29210937 2.38382813 -6 2 C-6 1.34 -6 0.68 -6 0 C-2.25 -1.125 -2.25 -1.125 0 0 Z " fill="#465166" transform="translate(168,36)"/>
<path d="M0 0 C0.33 0.99 0.66 1.98 1 3 C0.34 3 -0.32 3 -1 3 C-1.268125 3.61875 -1.53625 4.2375 -1.8125 4.875 C-3 7 -3 7 -6 9 C-8.6875 8.625 -8.6875 8.625 -11 8 C-9.23134365 6.23134365 -7.53069916 4.87878012 -5.5 3.4375 C-4.8915625 3.00308594 -4.283125 2.56867187 -3.65625 2.12109375 C-2 1 -2 1 0 0 Z " fill="#4B5779" transform="translate(141,10)"/>
<path d="M0 0 C-0.99 0.495 -0.99 0.495 -2 1 C-1.690625 2.423125 -1.690625 2.423125 -1.375 3.875 C-1.25125 4.90625 -1.1275 5.9375 -1 7 C-1.66 7.66 -2.32 8.32 -3 9 C-3 8.01 -3 7.02 -3 6 C-5.0745356 4.7763932 -5.0745356 4.7763932 -8 5 C-8.33 3.68 -8.66 2.36 -9 1 C-5.8035914 -0.06546953 -3.34252724 -0.07427838 0 0 Z " fill="#526A95" transform="translate(65,166)"/>
<path d="M0 0 C6.93 0.495 6.93 0.495 14 1 C14 1.33 14 1.66 14 2 C12.96552734 2.05607422 12.96552734 2.05607422 11.91015625 2.11328125 C5.51353535 2.56078148 -0.03070248 3.65649801 -6 6 C-6 5.34 -6 4.68 -6 4 C-4.02 3.34 -2.04 2.68 0 2 C0 1.34 0 0.68 0 0 Z " fill="#6F92B8" transform="translate(143,34)"/>
<path d="M0 0 C0.33 1.32 0.66 2.64 1 4 C3.97 3.01 6.94 2.02 10 1 C10 1.99 10 2.98 10 4 C9.43410156 4.19335938 8.86820313 4.38671875 8.28515625 4.5859375 C7.55167969 4.84632812 6.81820312 5.10671875 6.0625 5.375 C5.33160156 5.63023438 4.60070312 5.88546875 3.84765625 6.1484375 C1.81317884 6.85271413 1.81317884 6.85271413 1 9 C0.34 9 -0.32 9 -1 9 C-0.67 6.03 -0.34 3.06 0 0 Z " fill="#5F86B7" transform="translate(171,115)"/>
<path d="M0 0 C0.625 2.375 0.625 2.375 1 5 C0.34 5.66 -0.32 6.32 -1 7 C-1 5.35 -1 3.7 -1 2 C-3.31 2 -5.62 2 -8 2 C-8 3.98 -8 5.96 -8 8 C-8.66 7.67 -9.32 7.34 -10 7 C-9.40138258 4.64828869 -8.73075648 2.3140622 -8 0 C-5.13822943 -1.43088528 -3.06624227 -0.59991697 0 0 Z " fill="#475F8D" transform="translate(88,84)"/>
<path d="M0 0 C0.33 0 0.66 0 1 0 C1.33820166 1.5823006 1.67035939 3.16589375 2 4.75 C2.185625 5.63171875 2.37125 6.5134375 2.5625 7.421875 C3 10 3 10 3 14 C1.35 13.67 -0.3 13.34 -2 13 C-1.34 8.71 -0.68 4.42 0 0 Z " fill="#A2D3E9" transform="translate(148,20)"/>
<path d="M0 0 C0.66 0.33 1.32 0.66 2 1 C1.56042969 1.38800781 1.12085938 1.77601562 0.66796875 2.17578125 C-1.3192589 4.34916605 -2.41369452 6.53660751 -3.6875 9.1875 C-4.12449219 10.08855469 -4.56148437 10.98960938 -5.01171875 11.91796875 C-5.33785156 12.60503906 -5.66398437 13.29210937 -6 14 C-6.66 13.67 -7.32 13.34 -8 13 C-7.48118887 8.8275894 -6.28848726 6.74583179 -3.4375 3.6875 C-2.79683594 2.99011719 -2.15617187 2.29273437 -1.49609375 1.57421875 C-1.00238281 1.05472656 -0.50867187 0.53523438 0 0 Z " fill="#E1ECEF" transform="translate(45,66)"/>
<path d="M0 0 C1.258125 -0.020625 2.51625 -0.04125 3.8125 -0.0625 C4.52019531 -0.07410156 5.22789063 -0.08570313 5.95703125 -0.09765625 C8 0 8 0 11 1 C10.67 2.32 10.34 3.64 10 5 C8.6078125 4.505 8.6078125 4.505 7.1875 4 C4.07970709 2.85032996 4.07970709 2.85032996 1 3 C0.67 2.01 0.34 1.02 0 0 Z " fill="#506D8C" transform="translate(18,153)"/>
<path d="M0 0 C0.556875 0.28875 1.11375 0.5775 1.6875 0.875 C4.08494645 2.0413253 6.51596939 3.0339881 9 4 C9 4.66 9 5.32 9 6 C6.8125 6.75 6.8125 6.75 4 7 C1.1875 5.0625 1.1875 5.0625 -1 3 C-0.67 2.01 -0.34 1.02 0 0 Z " fill="#5878A3" transform="translate(112,180)"/>
<path d="M0 0 C0.598125 0.20625 1.19625 0.4125 1.8125 0.625 C1.8125 1.615 1.8125 2.605 1.8125 3.625 C0.86375 3.91375 -0.085 4.2025 -1.0625 4.5 C-4.23961578 5.39325109 -4.23961578 5.39325109 -6.1875 7.625 C-5.875 4.75 -5.875 4.75 -5.1875 1.625 C-2.1875 -0.375 -2.1875 -0.375 0 0 Z " fill="#5A5C74" transform="translate(85.1875,69.375)"/>
<path d="M0 0 C0.33 0 0.66 0 1 0 C1.35288435 3.7935068 1.28393415 5.55941253 -0.8125 8.8125 C-3 11 -3 11 -6 12 C-6.33 11.01 -6.66 10.02 -7 9 C-6.030625 8.2575 -5.06125 7.515 -4.0625 6.75 C-1.97612639 5.02690085 -1.09887521 4.26131306 -0.125 1.6875 C-0.08375 1.130625 -0.0425 0.57375 0 0 Z " fill="#7DB6E2" transform="translate(66,141)"/>
<path d="M0 0 C1.1725131 0.95117134 2.33787015 1.91117009 3.5 2.875 C4.47453125 3.67550781 4.47453125 3.67550781 5.46875 4.4921875 C5.9740625 4.98976563 6.479375 5.48734375 7 6 C7 6.66 7 7.32 7 8 C7.66 8.66 8.32 9.32 9 10 C6.6875 9.8125 6.6875 9.8125 4 9 C1.80599663 6.10078126 0.80567708 3.49872732 0 0 Z " fill="#394D65" transform="translate(184,121)"/>
<path d="M0 0 C0.99 0.33 1.98 0.66 3 1 C3.309375 1.804375 3.61875 2.60875 3.9375 3.4375 C5.19771932 6.47685248 6.06823893 6.77055181 9 8 C9.33 8.66 9.66 9.32 10 10 C5.40693504 8.5140084 2.56430755 6.14985318 -1 3 C-0.67 2.01 -0.34 1.02 0 0 Z " fill="#B7DEEF" transform="translate(41,103)"/>
<path d="M0 0 C0.33 0 0.66 0 1 0 C1 4.29 1 8.58 1 13 C1.66 13 2.32 13 3 13 C3.625 14.8125 3.625 14.8125 4 17 C3.34 17.99 2.68 18.98 2 20 C-0.56780471 16.1584024 -0.22688882 12.1860825 -0.125 7.75 C-0.11597656 7.00492188 -0.10695312 6.25984375 -0.09765625 5.4921875 C-0.07418358 3.66131941 -0.03831525 1.83061762 0 0 Z " fill="#5880B0" transform="translate(138,155)"/>
<path d="M0 0 C0.33 0 0.66 0 1 0 C1.25 2.3125 1.25 2.3125 1 5 C-1.04424538 6.97610386 -2.1176825 8 -5 8 C-5 6.68 -5 5.36 -5 4 C-5.66 3.34 -6.32 2.68 -7 2 C-4.69 2 -2.38 2 0 2 C0 1.34 0 0.68 0 0 Z " fill="#617DA3" transform="translate(68,163)"/>
<path d="M0 0 C1.88579937 3.21284338 3 5.24633583 3 9 C0 7 0 7 -0.6875 4.375 C-0.790625 3.59125 -0.89375 2.8075 -1 2 C-3.31 2 -5.62 2 -8 2 C-5.14066998 -0.85933002 -3.8625627 -1.2875209 0 0 Z " fill="#C3E9FA" transform="translate(89,122)"/>
<path d="M0 0 C0.99 0.33 1.98 0.66 3 1 C3 2.65 3 4.3 3 6 C1.68 6.33 0.36 6.66 -1 7 C-1.625 4.625 -1.625 4.625 -2 2 C-1.34 1.34 -0.68 0.68 0 0 Z " fill="#E3E5E9" transform="translate(128,75)"/>
<path d="M0 0 C0 0.66 0 1.32 0 2 C-3.78187881 3.83691257 -5.94568308 4.15837626 -10 3 C-6.46873184 -0.69178035 -5.02635024 -1.19045137 0 0 Z " fill="#6286A5" transform="translate(19,154)"/>
<path d="M0 0 C1.051875 0.185625 2.10375 0.37125 3.1875 0.5625 C6.61914506 0.95629533 8.70212589 0.65957482 12 0 C12.66 0.66 13.32 1.32 14 2 C10.53777385 3.06723961 7.35960734 3.10173486 3.75 3.0625 C2.67234375 3.05347656 1.5946875 3.04445312 0.484375 3.03515625 C-0.33546875 3.02355469 -1.1553125 3.01195312 -2 3 C-1.34 2.67 -0.68 2.34 0 2 C0 1.34 0 0.68 0 0 Z " fill="#B3E1F7" transform="translate(109,141)"/>
<path d="M0 0 C1.32 0.33 2.64 0.66 4 1 C2.75945552 2.01170618 1.5071298 3.00897797 0.25 4 C-0.44609375 4.556875 -1.1421875 5.11375 -1.859375 5.6875 C-4 7 -4 7 -8 7 C-7.67 5.68 -7.34 4.36 -7 3 C-7 3.99 -7 4.98 -7 6 C-6.34 6 -5.68 6 -5 6 C-5 5.34 -5 4.68 -5 4 C-4.01 3.67 -3.02 3.34 -2 3 C-1.34 2.01 -0.68 1.02 0 0 Z " fill="#A9D1EA" transform="translate(180,112)"/>
<path d="M0 0 C1.65 0 3.3 0 5 0 C5.33 1.32 5.66 2.64 6 4 C4.35 4.33 2.7 4.66 1 5 C0.67 3.35 0.34 1.7 0 0 Z " fill="#5487C8" transform="translate(126,91)"/>
<path d="M0 0 C1.27875 0.28875 2.5575 0.5775 3.875 0.875 C4.95394531 1.11863281 4.95394531 1.11863281 6.0546875 1.3671875 C8 2 8 2 10 4 C8.3125 5.1875 8.3125 5.1875 6 6 C3.3125 4.8125 3.3125 4.8125 1 3 C0.67 2.01 0.34 1.02 0 0 Z " fill="#C3ECF5" transform="translate(127,36)"/>
<path d="M0 0 C3.59634744 3.49359465 6.83451967 7.11098131 10 11 C6 11 6 11 4.3125 9.6875 C3 8 3 8 2 5 C0.50014391 3.33289654 0.50014391 3.33289654 -1 2 C-0.67 1.34 -0.34 0.68 0 0 Z " fill="#C6E2EB" transform="translate(121,11)"/>
<path d="M0 0 C-0.33 0.99 -0.66 1.98 -1 3 C-1.66 3 -2.32 3 -3 3 C-3.33 3.66 -3.66 4.32 -4 5 C-4.66 4.67 -5.32 4.34 -6 4 C-7.53668865 3.77532169 -9.07968054 3.59203195 -10.625 3.4375 C-11.44226562 3.35371094 -12.25953125 3.26992187 -13.1015625 3.18359375 C-13.72804687 3.12300781 -14.35453125 3.06242188 -15 3 C-15 2.67 -15 2.34 -15 2 C-12.87528825 1.6648342 -10.75022095 1.33192171 -8.625 1 C-7.44164062 0.814375 -6.25828125 0.62875 -5.0390625 0.4375 C-2 0 -2 0 0 0 Z " fill="#638EB0" transform="translate(56,168)"/>
<path d="M0 0 C0.99 0.33 1.98 0.66 3 1 C2 3 1 5 0 7 C-1.32 6.67 -2.64 6.34 -4 6 C-1.125 1.125 -1.125 1.125 0 0 Z " fill="#52648E" transform="translate(14,137)"/>
<path d="M0 0 C1.32 0 2.64 0 4 0 C4 0.66 4 1.32 4 2 C4.66 2 5.32 2 6 2 C7.625 4 7.625 4 9 6 C7.68 6.33 6.36 6.66 5 7 C0 1.125 0 1.125 0 0 Z " fill="#606C89" transform="translate(124,14)"/>
<path d="M0 0 C0.33 0.99 0.66 1.98 1 3 C0.32453125 2.91621094 -0.3509375 2.83242187 -1.046875 2.74609375 C-1.93890625 2.64425781 -2.8309375 2.54242188 -3.75 2.4375 C-4.63171875 2.33308594 -5.5134375 2.22867188 -6.421875 2.12109375 C-8.88432451 2.00543324 -10.66538064 2.26361305 -13 3 C-13 2.34 -13 1.68 -13 1 C-11.58622218 0.63447197 -10.16879424 0.28304505 -8.75 -0.0625 C-7.96109375 -0.25972656 -7.1721875 -0.45695313 -6.359375 -0.66015625 C-3.84356698 -1.02253257 -2.33996286 -0.98878961 0 0 Z " fill="#8AC3EF" transform="translate(198,151)"/>
<path d="M0 0 C0.99 0 1.98 0 3 0 C2.67 2.31 2.34 4.62 2 7 C1.34 7 0.68 7 0 7 C-0.33 7.66 -0.66 8.32 -1 9 C-1.09765625 2.84765625 -1.09765625 2.84765625 -1 1 C-0.67 0.67 -0.34 0.34 0 0 Z " fill="#435881" transform="translate(45,52)"/>
<path d="M0 0 C0 0.99 0 1.98 0 3 C-0.99 3.33 -1.98 3.66 -3 4 C-3 4.66 -3 5.32 -3 6 C-4.32 6 -5.64 6 -7 6 C-7.33 6.66 -7.66 7.32 -8 8 C-7.25 3.25 -7.25 3.25 -5 1 C-4.67 1.66 -4.34 2.32 -4 3 C-2.68 2.01 -1.36 1.02 0 0 Z " fill="#B3E6F3" transform="translate(70,170)"/>
<path d="M0 0 C0.66 0 1.32 0 2 0 C2 2.31 2 4.62 2 7 C-0.31 6.67 -2.62 6.34 -5 6 C-3.38405168 3.95880212 -1.7143618 1.95927063 0 0 Z " fill="#6CA7E6" transform="translate(135,136)"/>
<path d="M0 0 C0.33 1.32 0.66 2.64 1 4 C-0.65 5.32 -2.3 6.64 -4 8 C-4.6875 5.6875 -4.6875 5.6875 -5 3 C-3.40083326 0.79162689 -2.76966516 0 0 0 Z " fill="#AFE2F3" transform="translate(47,124)"/>
<path d="M0 0 C1.98 0.495 1.98 0.495 4 1 C4 1.99 4 2.98 4 4 C1.5 6.1875 1.5 6.1875 -1 8 C-0.67 5.36 -0.34 2.72 0 0 Z " fill="#80C2ED" transform="translate(40,110)"/>
<path d="M0 0 C0.33 0 0.66 0 1 0 C1.33 2.64 1.66 5.28 2 8 C1.01 8.66 0.02 9.32 -1 10 C-1 9.01 -1 8.02 -1 7 C-1.66 7 -2.32 7 -3 7 C-2.67 5.68 -2.34 4.36 -2 3 C-1.34 3 -0.68 3 0 3 C0 2.01 0 1.02 0 0 Z " fill="#787F9E" transform="translate(47,56)"/>
<path d="M0 0 C0.99 0.33 1.98 0.66 3 1 C2.1875 3.9375 2.1875 3.9375 1 7 C0.01 7.33 -0.98 7.66 -2 8 C-2 4.23312136 -1.76462683 3.08809695 0 0 Z " fill="#636980" transform="translate(48,45)"/>
<path d="M0 0 C1.98 0.66 3.96 1.32 6 2 C6 2.66 6 3.32 6 4 C6.66 4.33 7.32 4.66 8 5 C8 5.66 8 6.32 8 7 C6.25 6.875 6.25 6.875 4 6 C1.75 2.9375 1.75 2.9375 0 0 Z " fill="#5D6B85" transform="translate(170,42)"/>
<path d="M0 0 C0.103125 0.639375 0.20625 1.27875 0.3125 1.9375 C0.539375 2.618125 0.76625 3.29875 1 4 C1.99 4.33 2.98 4.66 4 5 C0.59068103 6.13643966 -0.00335456 5.86747764 -3.1875 4.5625 C-3.90292969 4.27503906 -4.61835937 3.98757812 -5.35546875 3.69140625 C-5.89816406 3.46324219 -6.44085938 3.23507813 -7 3 C-4.66785852 1.79371992 -2.50357861 0.8345262 0 0 Z " fill="#5D6A84" transform="translate(86,28)"/>
<path d="M0 0 C0.20367187 0.64453125 0.40734375 1.2890625 0.6171875 1.953125 C1.8667935 4.31153872 1.8667935 4.31153872 4.8203125 4.609375 C5.91085938 4.65578125 7.00140625 4.7021875 8.125 4.75 C9.76855469 4.83507812 9.76855469 4.83507812 11.4453125 4.921875 C12.28835937 4.94765625 13.13140625 4.9734375 14 5 C14 5.33 14 5.66 14 6 C7.86946489 6.32712342 3.37330889 6.39366878 -2 3 C-1.34 2.01 -0.68 1.02 0 0 Z " fill="#A7CFE9" transform="translate(63,130)"/>
<path d="M0 0 C1.32 0 2.64 0 4 0 C3.1875 2.4375 3.1875 2.4375 2 5 C1.01 5.33 0.02 5.66 -1 6 C-1.66 5.34 -2.32 4.68 -3 4 C-2.34 4 -1.68 4 -1 4 C-0.67 2.68 -0.34 1.36 0 0 Z " fill="#5B85AA" transform="translate(26,123)"/>
<path d="M0 0 C0.66 0 1.32 0 2 0 C2 2.64 2 5.28 2 8 C1.01 8 0.02 8 -1 8 C-2.2077558 4.37673261 -1.54311128 3.35853631 0 0 Z " fill="#496B8E" transform="translate(59,173)"/>
<path d="M0 0 C1.32 0 2.64 0 4 0 C4 1.32 4 2.64 4 4 C2.02 4.99 2.02 4.99 0 6 C-0.38218767 4.34385343 -0.71395102 2.67542976 -1 1 C-0.67 0.67 -0.34 0.34 0 0 Z " fill="#96D0F0" transform="translate(48,122)"/>
<path d="M0 0 C0.33 0.99 0.66 1.98 1 3 C-1.5654594 5.5654594 -3.47686668 5.54046087 -7 6 C-3.375 1.125 -3.375 1.125 0 0 Z " fill="#4D576B" transform="translate(45,63)"/>
<path d="M0 0 C0 0.66 0 1.32 0 2 C-1.98 2.66 -3.96 3.32 -6 4 C-6.99 3.01 -7.98 2.02 -9 1 C-5.8035914 -0.06546953 -3.34252724 -0.07427838 0 0 Z " fill="#6393B2" transform="translate(94,182)"/>
<path d="M0 0 C-0.99 1.485 -0.99 1.485 -2 3 C-2 2.34 -2 1.68 -2 1 C-4.31 1.66 -6.62 2.32 -9 3 C-9.66 2.34 -10.32 1.68 -11 1 C-6.87831311 -0.62950412 -4.29299643 -1.26264601 0 0 Z " fill="#5B87B7" transform="translate(88,134)"/>
<path d="M0 0 C0.66 0.33 1.32 0.66 2 1 C1.01 4.3 0.02 7.6 -1 11 C-1.33 11 -1.66 11 -2 11 C-2.05399736 9.54207116 -2.09279177 8.08357288 -2.125 6.625 C-2.15980469 5.40683594 -2.15980469 5.40683594 -2.1953125 4.1640625 C-2 2 -2 2 0 0 Z " fill="#C0E9F7" transform="translate(42,128)"/>
<path d="M0 0 C4.62 0 9.24 0 14 0 C14 0.33 14 0.66 14 1 C13.25234375 1.06058594 12.5046875 1.12117187 11.734375 1.18359375 C10.74953125 1.26738281 9.7646875 1.35117188 8.75 1.4375 C7.28820312 1.55931641 7.28820312 1.55931641 5.796875 1.68359375 C3.43538247 1.95074584 1.28098935 2.35371968 -1 3 C-0.67 2.01 -0.34 1.02 0 0 Z " fill="#81AECC" transform="translate(121,184)"/>
<path d="M0 0 C0 2.64 0 5.28 0 8 C-0.33 6.68 -0.66 5.36 -1 4 C-2.65 4.33 -4.3 4.66 -6 5 C-5 2 -5 2 -3 0.8125 C-1 0 -1 0 0 0 Z " fill="#6886AC" transform="translate(112,169)"/>
<path d="M0 0 C0 0.99 0 1.98 0 3 C-2.97 3 -5.94 3 -9 3 C-9 2.34 -9 1.68 -9 1 C-5.8035914 -0.06546953 -3.34252724 -0.07427838 0 0 Z " fill="#475A87" transform="translate(171,170)"/>
<path d="M0 0 C1.65 0 3.3 0 5 0 C5 0.66 5 1.32 5 2 C5.66 2.33 6.32 2.66 7 3 C7 3.66 7 4.32 7 5 C6.01 5.33 5.02 5.66 4 6 C2.68 4.02 1.36 2.04 0 0 Z " fill="#4A6499" transform="translate(189,131)"/>
<path d="M0 0 C0.5625 1.9375 0.5625 1.9375 1 4 C0.67 4.33 0.34 4.66 0 5 C-0.23192865 6.51469448 -0.41215238 8.03754562 -0.5625 9.5625 C-0.64628906 10.38878906 -0.73007812 11.21507812 -0.81640625 12.06640625 C-0.87699219 12.70449219 -0.93757813 13.34257812 -1 14 C-1.33 14 -1.66 14 -2 14 C-3.45295405 5.96498906 -3.45295405 5.96498906 -1.5625 1.9375 C-1.046875 1.298125 -0.53125 0.65875 0 0 Z " fill="#688EAF" transform="translate(41,125)"/>
<path d="M0 0 C-0.66 0.66 -1.32 1.32 -2 2 C-4.125 1.625 -4.125 1.625 -6 1 C-6.66 2.65 -7.32 4.3 -8 6 C-8.33 5.01 -8.66 4.02 -9 3 C-7 0 -7 0 -5.0625 -0.75 C-3 -1 -3 -1 0 0 Z " fill="#659DE2" transform="translate(180,121)"/>
<path d="M0 0 C0.99 0 1.98 0 3 0 C5.1875 3 5.1875 3 7 6 C6.67 6.66 6.34 7.32 6 8 C4.99403703 7.0479279 3.99538437 6.08812654 3 5.125 C2.443125 4.59132813 1.88625 4.05765625 1.3125 3.5078125 C0 2 0 2 0 0 Z " fill="#496C97" transform="translate(179,119)"/>
<path d="M0 0 C2 0 2 0 3.6875 1.4375 C5.67865666 5.32499634 4.74343586 8.80809662 4 13 C3.67 13 3.34 13 3 13 C2.86722656 12.31292969 2.73445312 11.62585938 2.59765625 10.91796875 C2.42105469 10.01691406 2.24445313 9.11585937 2.0625 8.1875 C1.88847656 7.29417969 1.71445313 6.40085937 1.53515625 5.48046875 C1.02258847 2.88602829 1.02258847 2.88602829 0 0 Z " fill="#9CC8E7" transform="translate(167,108)"/>
<path d="M0 0 C0.66 0 1.32 0 2 0 C2 0.99 2 1.98 2 3 C-1.8503105 5.56687367 -3.58569763 4.83288724 -8 4 C-8 3.67 -8 3.34 -8 3 C-6.865625 2.690625 -5.73125 2.38125 -4.5625 2.0625 C-1.21224901 1.37075469 -1.21224901 1.37075469 0 0 Z " fill="#72788D" transform="translate(110,95)"/>
<path d="M0 0 C2 3 2 3 2 5 C1.34 5 0.68 5 0 5 C0 5.99 0 6.98 0 8 C-0.99 7.67 -1.98 7.34 -3 7 C-1.125 1.125 -1.125 1.125 0 0 Z " fill="#475983" transform="translate(153,27)"/>
<path d="M0 0 C2.475 0.99 2.475 0.99 5 2 C4.67 3.32 4.34 4.64 4 6 C2.35 4.35 0.7 2.7 -1 1 C-0.67 0.67 -0.34 0.34 0 0 Z " fill="#ECF5F6" transform="translate(95,16)"/>
<path d="M0 0 C0.33 0 0.66 0 1 0 C1.33 3.63 1.66 7.26 2 11 C1.01 10.67 0.02 10.34 -1 10 C-0.67 6.7 -0.34 3.4 0 0 Z " fill="#5E8BCB" transform="translate(68,141)"/>
<path d="M0 0 C0 0.66 0 1.32 0 2 C-5.47619048 7 -5.47619048 7 -8 7 C-6.76759083 3.3027725 -4.20634615 0 0 0 Z " fill="#A5D2F0" transform="translate(137,132)"/>
<path d="M0 0 C0.66 0.33 1.32 0.66 2 1 C1.6875 3.375 1.6875 3.375 1 6 C0.01 6.66 -0.98 7.32 -2 8 C-2 6.35 -2 4.7 -2 3 C-1.34 3 -0.68 3 0 3 C0 2.01 0 1.02 0 0 Z " fill="#4C647B" transform="translate(35,111)"/>
<path d="M0 0 C1.65 0 3.3 0 5 0 C4.67 1.32 4.34 2.64 4 4 C2.68 4 1.36 4 0 4 C0 2.68 0 1.36 0 0 Z " fill="#578ED3" transform="translate(81,89)"/>
<path d="M0 0 C0 4.29 0 8.58 0 13 C-0.33 13 -0.66 13 -1 13 C-1 10.03 -1 7.06 -1 4 C-1.99 3.67 -2.98 3.34 -4 3 C-1.125 0 -1.125 0 0 0 Z " fill="#6F90AE" transform="translate(35,80)"/>
<path d="M0 0 C2.0245738 1.93254772 3.42105792 3.63158688 5 6 C4.01 6.66 3.02 7.32 2 8 C-0.1519437 4.77208445 -0.20086443 3.71599191 0 0 Z " fill="#3D4758" transform="translate(183,74)"/>
<path d="M0 0 C3.3 0.33 6.6 0.66 10 1 C8.68 1.99 7.36 2.98 6 4 C3.53199953 2.84826645 1.95216435 1.95216435 0 0 Z " fill="#7897B6" transform="translate(88,34)"/>
<path d="M0 0 C0.33 0.66 0.66 1.32 1 2 C1.99 2 2.98 2 4 2 C4 2.66 4 3.32 4 4 C1.69 4.33 -0.62 4.66 -3 5 C-3 4.01 -3 3.02 -3 2 C-2.34 2 -1.68 2 -1 2 C-0.67 1.34 -0.34 0.68 0 0 Z " fill="#464E63" transform="translate(68,27)"/>
<path d="M0 0 C2.86724686 0.57344937 3.8614515 0.8614515 6 3 C5.01 3.66 4.02 4.32 3 5 C2.01 4.67 1.02 4.34 0 4 C0 2.68 0 1.36 0 0 Z " fill="#414C60" transform="translate(116,3)"/>
<path d="M0 0 C6.0546875 -0.1953125 6.0546875 -0.1953125 8 0 C8.66 0.66 9.32 1.32 10 2 C5.94568308 3.15837626 3.78187881 2.83691257 0 1 C0 0.67 0 0.34 0 0 Z " fill="#4D6296" transform="translate(42,171)"/>
<path d="M0 0 C0.66 0 1.32 0 2 0 C2.33 0.99 2.66 1.98 3 3 C2.01 4.485 2.01 4.485 1 6 C-0.32 5.34 -1.64 4.68 -3 4 C-1.625 2 -1.625 2 0 0 Z " fill="#44628B" transform="translate(178,163)"/>
<path d="M0 0 C1.65 1.65 3.3 3.3 5 5 C4.34 5 3.68 5 3 5 C3 5.66 3 6.32 3 7 C2.34 7 1.68 7 1 7 C0.67 4.69 0.34 2.38 0 0 Z " fill="#78AFE6" transform="translate(55,130)"/>
<path d="M0 0 C0.66 0.33 1.32 0.66 2 1 C0.35 2.98 -1.3 4.96 -3 7 C-3.33 5.68 -3.66 4.36 -4 3 C-2.68 2.01 -1.36 1.02 0 0 Z " fill="#C0EDF6" transform="translate(32,124)"/>
<path d="M0 0 C0.99 0.33 1.98 0.66 3 1 C2.67 2.32 2.34 3.64 2 5 C1.01 5 0.02 5 -1 5 C-0.67 3.35 -0.34 1.7 0 0 Z " fill="#E7EBEE" transform="translate(82,73)"/>
<path d="M0 0 C2.625 0.75 2.625 0.75 5 2 C5.33 2.66 5.66 3.32 6 4 C1.545 3.01 1.545 3.01 -3 2 C-2.01 1.34 -1.02 0.68 0 0 Z " fill="#DBEFF4" transform="translate(164,39)"/>
<path d="M0 0 C1.5625 1.25 1.5625 1.25 3 3 C2.6875 5.1875 2.6875 5.1875 2 7 C1.01 6.67 0.02 6.34 -1 6 C-0.67 4.02 -0.34 2.04 0 0 Z " fill="#3A467B" transform="translate(85,22)"/>
<path d="M0 0 C2.0625 0.4375 2.0625 0.4375 4 1 C2.1875 3 2.1875 3 0 5 C-0.99 5 -1.98 5 -3 5 C-1.125 1.125 -1.125 1.125 0 0 Z " fill="#516987" transform="translate(183,157)"/>
<path d="M0 0 C-0.33 0.66 -0.66 1.32 -1 2 C-1.66 2 -2.32 2 -3 2 C-3.33 2.66 -3.66 3.32 -4 4 C-5.32 3.34 -6.64 2.68 -8 2 C-4.77208445 -0.1519437 -3.71599191 -0.20086443 0 0 Z " fill="#7991AC" transform="translate(191,154)"/>
<path d="M0 0 C0.66 0.66 1.32 1.32 2 2 C-1.93670488 3.31223496 -4.12488144 2.24296256 -8 1 C-4.9553071 -0.84856355 -3.35670253 -1.34268101 0 0 Z " fill="#3A437D" transform="translate(198,155)"/>
<path d="M0 0 C0.99 0.33 1.98 0.66 3 1 C2.67 3.31 2.34 5.62 2 8 C1.34 7.67 0.68 7.34 0 7 C0 4.69 0 2.38 0 0 Z " fill="#4B7BB4" transform="translate(150,140)"/>
<path d="M0 0 C2.64 0 5.28 0 8 0 C6.75 1.5 6.75 1.5 5 3 C3.68 3 2.36 3 1 3 C0.67 2.01 0.34 1.02 0 0 Z " fill="#262A34" transform="translate(72,27)"/>
<path d="M0 0 C2.64 0 5.28 0 8 0 C7.01 0.33 6.02 0.66 5 1 C5 1.66 5 2.32 5 3 C2.525 2.01 2.525 2.01 0 1 C0 0.67 0 0.34 0 0 Z " fill="#5691AF" transform="translate(100,0)"/>
<path d="M0 0 C2.31 0 4.62 0 7 0 C7 0.33 7 0.66 7 1 C4.69 1 2.38 1 0 1 C0 0.67 0 0.34 0 0 Z " fill="#0048B6" transform="translate(62,0)"/>
<path d="M0 0 C1.65 0 3.3 0 5 0 C5 0.33 5 0.66 5 1 C3.35 1 1.7 1 0 1 C0 0.67 0 0.34 0 0 Z " fill="#3333CC" transform="translate(80,187)"/>
<path d="M0 0 C1.65 0 3.3 0 5 0 C5 0.33 5 0.66 5 1 C3.35 1 1.7 1 0 1 C0 0.67 0 0.34 0 0 Z " fill="#000066" transform="translate(151,171)"/>
<path d="M0 0 C4 1 4 1 4 1 Z " fill="#003FBF" transform="translate(65,187)"/>
<path d="M0 0 C3 1 3 1 3 1 Z " fill="#55AAFF" transform="translate(117,187)"/>
<path d="M0 0 C3 1 3 1 3 1 Z " fill="#000000" transform="translate(144,8)"/>
<path d="M0 0 C2 1 2 1 2 1 Z " fill="#00007F" transform="translate(136,187)"/>
<path d="" fill="#007F7F" transform="translate(0,0)"/>
<path d="M0 0 C2 1 2 1 2 1 Z " fill="#000000" transform="translate(65,28)"/>
<path d="M0 0 C2 1 2 1 2 1 Z " fill="#7F7FFF" transform="translate(98,1)"/>
<path d="" fill="#FFFFFF" transform="translate(0,0)"/>
<path d="" fill="#000000" transform="translate(0,0)"/>
<path d="" fill="#000000" transform="translate(0,0)"/>
<path d="" fill="#000000" transform="translate(0,0)"/>
<path d="" fill="#000000" transform="translate(0,0)"/>
<path d="" fill="#000000" transform="translate(0,0)"/>
<path d="" fill="#000000" transform="translate(0,0)"/>
<path d="" fill="#000000" transform="translate(0,0)"/>
<path d="" fill="#000000" transform="translate(0,0)"/>
<path d="" fill="#0000FF" transform="translate(0,0)"/>
<path d="" fill="#000000" transform="translate(0,0)"/>
<path d="" fill="#00FFFF" transform="translate(0,0)"/>
<path d="" fill="#000000" transform="translate(0,0)"/>
<path d="" fill="#000000" transform="translate(0,0)"/>
</svg>
