<?xml version="1.0" encoding="UTF-8"?>
<svg version="1.1" xmlns="http://www.w3.org/2000/svg" width="395" height="299">
<path d="M0 0 C4.64358203 1.82203649 4.64358203 1.82203649 9.47265625 1.4140625 C10.11460937 1.12402344 10.7565625 0.83398438 11.41796875 0.53515625 C19.49140364 -2.37613246 28.98017209 -2.34434131 37.04296875 0.59765625 C42.51883693 3.18044074 47.23363433 6.35398741 49.98046875 11.84765625 C50.16609375 12.54890625 50.35171875 13.25015625 50.54296875 13.97265625 C51.53296875 13.39515625 52.52296875 12.81765625 53.54296875 12.22265625 C56.17157333 10.73117438 58.80638964 9.25618109 61.48046875 7.84765625 C62.36025391 7.37972656 62.36025391 7.37972656 63.2578125 6.90234375 C76.7372365 1.41840715 92.18999844 2.96721755 105.54296875 7.97265625 C111.3973839 10.77326114 116.24075916 14.07291755 120.54296875 18.97265625 C121.0225 19.46121094 121.50203125 19.94976562 121.99609375 20.453125 C130.91091781 29.93075361 133.86519568 42.11114806 133.51928711 54.85595703 C132.77294303 69.98785848 127.90891771 84.7275004 116.6328125 95.24609375 C108.49093255 101.97265625 108.49093255 101.97265625 103.54296875 101.97265625 C103.54296875 102.63265625 103.54296875 103.29265625 103.54296875 103.97265625 C104.26484375 104.19953125 104.98671875 104.42640625 105.73046875 104.66015625 C110.87814957 107.0624073 114.46264952 111.17481115 116.82421875 116.3425293 C120.24569329 128.86275524 116.7180729 143.83931107 114.71704102 156.35913086 C114.22762386 159.42799496 113.75988394 162.49961078 113.29492188 165.57226562 C112.98693504 167.55878919 112.67773328 169.54512486 112.3671875 171.53125 C112.1607386 172.8831266 112.1607386 172.8831266 111.95011902 174.26231384 C110.31782044 184.35728196 108.41062785 194.84420952 99.73828125 201.3203125 C91.48013687 206.26456632 81.96220196 206.02167249 72.79296875 203.84765625 C68.9015577 202.71196547 66.49557692 201.28043787 63.48046875 198.59765625 C61.61816668 196.95964153 61.61816668 196.95964153 59.54296875 195.97265625 C57.02288691 196.30742727 54.94995606 197.15807991 52.58203125 198.078125 C44.88614253 200.34336731 34.80913015 200.39295405 27.35546875 197.28515625 C23.24705485 195.04347798 18.6774125 192.24154375 16.54296875 187.97265625 C14.04926748 189.1235953 11.9342139 190.39613789 9.66796875 191.97265625 C1.62052333 197.12302132 -8.07747689 197.25559693 -17.29296875 195.40234375 C-20.56167183 194.37069327 -23.02798971 193.29733633 -25.76953125 191.22265625 C-27.35011846 189.78067905 -27.35011846 189.78067905 -29.26953125 190.03515625 C-31.68317932 191.00504283 -31.68317932 191.00504283 -34.58203125 192.91015625 C-41.1843672 196.789734 -49.89896226 198.03453371 -57.45703125 196.97265625 C-60.33338395 196.0958646 -63.09505663 195.08083011 -65.87890625 193.9453125 C-68.44131858 192.97858421 -70.73346055 192.27476661 -73.45703125 191.97265625 C-75.1697866 193.24624357 -76.83370158 194.58688702 -78.45703125 195.97265625 C-87.01245661 199.5064189 -96.90795055 200.53841753 -105.64453125 197.28515625 C-109.92781164 195.42082672 -113.07637196 193.17538611 -116.45703125 189.97265625 C-116.62203125 190.67390625 -116.78703125 191.37515625 -116.95703125 192.09765625 C-119.86235534 197.66619409 -126.02830628 201.53808126 -131.92578125 203.50390625 C-139.45096774 204.8974593 -149.65403159 205.51616052 -156.71875 202.2109375 C-164.64083068 196.56756767 -169.03094593 188.7994255 -170.63549805 179.27978516 C-170.741604 178.58030762 -170.84770996 177.88083008 -170.95703125 177.16015625 C-171.07667236 176.39880371 -171.19631348 175.63745117 -171.31958008 174.85302734 C-179.32967408 122.19147367 -179.32967408 122.19147367 -168.70703125 106.84765625 C-167.96453125 105.89890625 -167.22203125 104.95015625 -166.45703125 103.97265625 C-167.17890625 103.74578125 -167.90078125 103.51890625 -168.64453125 103.28515625 C-174.45442856 100.57387084 -177.06444612 96.3808272 -179.50253296 90.70953369 C-181.3439855 85.42945099 -182.04210009 79.94931909 -182.8515625 74.43359375 C-183.04803879 73.15336334 -183.24451508 71.87313293 -183.44694519 70.55410767 C-183.85912884 67.86079949 -184.26238741 65.16635657 -184.65893555 62.47070312 C-185.16549145 59.03099884 -185.69253714 55.59481493 -186.22604847 52.15920067 C-186.73646708 48.85635564 -187.23093967 45.55119202 -187.7265625 42.24609375 C-188.01077812 40.40680801 -188.01077812 40.40680801 -188.30073547 38.53036499 C-190.25608003 25.07446449 -190.25608003 25.07446449 -186.64453125 18.84765625 C-178.43900784 10.22956463 -164.19263325 9.27887627 -153.05859375 7.54345703 C-150.40642843 7.12312335 -147.75982813 6.68702205 -145.11328125 6.23388672 C-141.17047126 5.55950139 -137.22351294 4.91664212 -133.27249146 4.29223633 C-131.69260107 4.03838656 -130.11414753 3.77541955 -128.537323 3.50317383 C-126.30428683 3.12077372 -124.06830466 2.77515547 -121.828125 2.4375 C-120.5280249 2.22730225 -119.2279248 2.01710449 -117.88842773 1.80053711 C-114.45703125 1.97265625 -114.45703125 1.97265625 -111.57836914 4.26782227 C-109.57809697 6.81829014 -108.42339735 8.89785503 -107.45703125 11.97265625 C-106.34908203 11.06773438 -106.34908203 11.06773438 -105.21875 10.14453125 C-93.96208802 1.27651292 -83.60150363 -2.19654334 -69.26953125 -2.27734375 C-68.37427734 -2.29796875 -67.47902344 -2.31859375 -66.55664062 -2.33984375 C-57.93027439 -2.38967114 -50.46611069 -0.37500002 -42.83203125 3.66015625 C-41.99414062 4.09714844 -41.15625 4.53414062 -40.29296875 4.984375 C-39.38417969 5.47357422 -39.38417969 5.47357422 -38.45703125 5.97265625 C-37.93496094 5.57433594 -37.41289062 5.17601562 -36.875 4.765625 C-25.31420495 -3.55571785 -13.17228877 -5.42846169 0 0 Z M-37.45703125 88.97265625 C-39.10703125 90.29265625 -40.75703125 91.61265625 -42.45703125 92.97265625 C-41.76996094 93.359375 -41.08289063 93.74609375 -40.375 94.14453125 C-39.47394531 94.6653125 -38.57289063 95.18609375 -37.64453125 95.72265625 C-36.30455078 96.48835938 -36.30455078 96.48835938 -34.9375 97.26953125 C-32.47772514 98.95844753 -31.07868291 100.49438461 -29.45703125 102.97265625 C-26.04544869 101.83546206 -25.33848524 100.92922681 -23.45703125 97.97265625 C-23.45703125 97.31265625 -23.45703125 96.65265625 -23.45703125 95.97265625 C-24.04871094 95.71871094 -24.64039063 95.46476562 -25.25 95.203125 C-29.49343419 93.3548429 -33.55596654 91.4894722 -37.45703125 88.97265625 Z M45.54296875 91.97265625 C44.55296875 93.45765625 44.55296875 93.45765625 43.54296875 94.97265625 C45.85296875 94.97265625 48.16296875 94.97265625 50.54296875 94.97265625 C49.16811343 93.43098983 49.16811343 93.43098983 47.54296875 91.97265625 C46.88296875 91.97265625 46.22296875 91.97265625 45.54296875 91.97265625 Z M-82.45703125 97.97265625 C-81.13703125 99.62265625 -79.81703125 101.27265625 -78.45703125 102.97265625 C-75.33505647 101.66369905 -75.33505647 101.66369905 -73.45703125 98.97265625 C-76.42703125 98.64265625 -79.39703125 98.31265625 -82.45703125 97.97265625 Z M17.54296875 98.97265625 C18.86296875 100.29265625 20.18296875 101.61265625 21.54296875 102.97265625 C22.53296875 101.65265625 23.52296875 100.33265625 24.54296875 98.97265625 C22.23296875 98.97265625 19.92296875 98.97265625 17.54296875 98.97265625 Z M-127.45703125 102.97265625 C-127.45703125 103.96265625 -127.45703125 104.95265625 -127.45703125 105.97265625 C-125.4816638 105.62478917 -125.4816638 105.62478917 -123.45703125 104.97265625 C-123.12703125 104.31265625 -122.79703125 103.65265625 -122.45703125 102.97265625 C-124.10703125 102.97265625 -125.75703125 102.97265625 -127.45703125 102.97265625 Z M65.54296875 102.97265625 C66.53296875 104.62265625 67.52296875 106.27265625 68.54296875 107.97265625 C69.53296875 107.31265625 70.52296875 106.65265625 71.54296875 105.97265625 C71.54296875 105.31265625 71.54296875 104.65265625 71.54296875 103.97265625 C68.57296875 103.47765625 68.57296875 103.47765625 65.54296875 102.97265625 Z " fill="#8BAAD7" transform="translate(222.45703125,38.02734375)"/>
<path d="M0 0 C4.64358203 1.82203649 4.64358203 1.82203649 9.47265625 1.4140625 C10.11460937 1.12402344 10.7565625 0.83398438 11.41796875 0.53515625 C19.49140364 -2.37613246 28.98017209 -2.34434131 37.04296875 0.59765625 C42.51883693 3.18044074 47.23363433 6.35398741 49.98046875 11.84765625 C50.16609375 12.54890625 50.35171875 13.25015625 50.54296875 13.97265625 C51.53296875 13.39515625 52.52296875 12.81765625 53.54296875 12.22265625 C56.17157333 10.73117438 58.80638964 9.25618109 61.48046875 7.84765625 C62.36025391 7.37972656 62.36025391 7.37972656 63.2578125 6.90234375 C76.7372365 1.41840715 92.18999844 2.96721755 105.54296875 7.97265625 C111.3973839 10.77326114 116.24075916 14.07291755 120.54296875 18.97265625 C121.0225 19.46121094 121.50203125 19.94976562 121.99609375 20.453125 C130.91091781 29.93075361 133.86519568 42.11114806 133.51928711 54.85595703 C132.76531722 70.14246941 127.82880288 84.79967706 116.42578125 95.37890625 C113.21367921 98.09786399 110.99222159 99.87603939 106.73046875 100.16015625 C106.00859375 100.09828125 105.28671875 100.03640625 104.54296875 99.97265625 C104.87296875 98.65265625 105.20296875 97.33265625 105.54296875 95.97265625 C101.11235927 93.69022106 98.38174713 94.247819 93.54296875 94.97265625 C79.66080327 95.98762202 66.9310486 94.77133512 55.54296875 85.97265625 C53.83968556 84.34342885 52.16135594 82.68624268 50.54296875 80.97265625 C49.88296875 80.64265625 49.22296875 80.31265625 48.54296875 79.97265625 C48.54296875 79.31265625 48.54296875 78.65265625 48.54296875 77.97265625 C47.55296875 77.97265625 46.56296875 77.97265625 45.54296875 77.97265625 C45.21296875 77.31265625 44.88296875 76.65265625 44.54296875 75.97265625 C43.88296875 76.63265625 43.22296875 77.29265625 42.54296875 77.97265625 C42.21296875 77.64265625 41.88296875 77.31265625 41.54296875 76.97265625 C41.57390625 78.58140625 41.57390625 78.58140625 41.60546875 80.22265625 C40.54296875 83.97265625 40.54296875 83.97265625 39.03515625 85.328125 C34.01762934 87.9704348 28.94609339 88.34406715 23.35546875 88.41015625 C22.67863037 88.42038818 22.00179199 88.43062012 21.30444336 88.44116211 C15.52020993 88.33978383 11.86938556 86.55954984 7.18359375 83.36328125 C4.63840044 79.654571 5.11502316 76.10285537 5.29296875 71.72265625 C5.31101563 70.8821875 5.3290625 70.04171875 5.34765625 69.17578125 C5.39466077 67.1075823 5.46640151 65.03997184 5.54296875 62.97265625 C8.18296875 62.97265625 10.82296875 62.97265625 13.54296875 62.97265625 C13.54296875 61.98265625 13.54296875 60.99265625 13.54296875 59.97265625 C7.60296875 59.97265625 1.66296875 59.97265625 -4.45703125 59.97265625 C-4.12703125 60.63265625 -3.79703125 61.29265625 -3.45703125 61.97265625 C-0.48703125 62.46765625 -0.48703125 62.46765625 2.54296875 62.97265625 C2.54296875 69.57265625 2.54296875 76.17265625 2.54296875 82.97265625 C-8.73461237 87.5993562 -17.90350587 88.64404838 -29.45703125 83.97265625 C-31.89945149 81.91357551 -33.15322011 79.88115802 -34.45703125 76.97265625 C-39.7329008 77.67484033 -43.05589053 80.1996738 -47.34765625 83.18359375 C-54.65982465 87.39084642 -61.53458823 88.50286719 -69.89453125 88.41015625 C-70.81886963 88.4054834 -71.74320801 88.40081055 -72.69555664 88.39599609 C-79.35207952 88.25122511 -84.57793902 87.19508756 -90.45703125 83.97265625 C-94.31359069 82.5173508 -97.3250741 81.62832649 -101.45703125 81.97265625 C-102.44703125 82.46765625 -102.44703125 82.46765625 -103.45703125 82.97265625 C-103.45703125 83.63265625 -103.45703125 84.29265625 -103.45703125 84.97265625 C-104.11703125 84.97265625 -104.77703125 84.97265625 -105.45703125 84.97265625 C-105.78703125 86.62265625 -106.11703125 88.27265625 -106.45703125 89.97265625 C-112.57553302 90.97764231 -118.69531659 91.97427695 -124.81640625 92.96337891 C-126.89620154 93.30063427 -128.97563611 93.64012234 -131.0546875 93.98193359 C-134.05245147 94.47438237 -137.0514441 94.95864352 -140.05078125 95.44140625 C-140.97193726 95.59452271 -141.89309326 95.74763916 -142.84216309 95.90539551 C-157.24952431 98.199049 -157.24952431 98.199049 -163.95703125 94.47265625 C-164.81296875 94.00859375 -165.66890625 93.54453125 -166.55078125 93.06640625 C-167.17984375 92.70546875 -167.80890625 92.34453125 -168.45703125 91.97265625 C-168.88628906 92.6275 -169.31554687 93.28234375 -169.7578125 93.95703125 C-170.31855469 94.6221875 -170.87929687 95.28734375 -171.45703125 95.97265625 C-174.64453125 96.22265625 -174.64453125 96.22265625 -177.45703125 95.97265625 C-180.46102539 88.97469078 -181.62536207 82.03768257 -182.75390625 74.53125 C-182.95179749 73.24960464 -183.14968872 71.96795929 -183.35357666 70.6474762 C-183.76928324 67.94786961 -184.17861922 65.24739383 -184.58349609 62.54614258 C-185.10078901 59.09901751 -185.63505023 55.65477263 -186.1742363 52.21101284 C-186.6896132 48.90254557 -187.18975062 45.59182572 -187.69140625 42.28125 C-187.88402039 41.05192245 -188.07663452 39.82259491 -188.27508545 38.55601501 C-190.26427413 25.08859225 -190.26427413 25.08859225 -186.64453125 18.84765625 C-178.43900784 10.22956463 -164.19263325 9.27887627 -153.05859375 7.54345703 C-150.40642843 7.12312335 -147.75982813 6.68702205 -145.11328125 6.23388672 C-141.17047126 5.55950139 -137.22351294 4.91664212 -133.27249146 4.29223633 C-131.69260107 4.03838656 -130.11414753 3.77541955 -128.537323 3.50317383 C-126.30428683 3.12077372 -124.06830466 2.77515547 -121.828125 2.4375 C-120.5280249 2.22730225 -119.2279248 2.01710449 -117.88842773 1.80053711 C-114.45703125 1.97265625 -114.45703125 1.97265625 -111.57836914 4.26782227 C-109.57809697 6.81829014 -108.42339735 8.89785503 -107.45703125 11.97265625 C-106.34908203 11.06773438 -106.34908203 11.06773438 -105.21875 10.14453125 C-93.96208802 1.27651292 -83.60150363 -2.19654334 -69.26953125 -2.27734375 C-68.37427734 -2.29796875 -67.47902344 -2.31859375 -66.55664062 -2.33984375 C-57.93027439 -2.38967114 -50.46611069 -0.37500002 -42.83203125 3.66015625 C-41.99414062 4.09714844 -41.15625 4.53414062 -40.29296875 4.984375 C-39.38417969 5.47357422 -39.38417969 5.47357422 -38.45703125 5.97265625 C-37.93496094 5.57433594 -37.41289062 5.17601562 -36.875 4.765625 C-25.31420495 -3.55571785 -13.17228877 -5.42846169 0 0 Z " fill="#90B1E2" transform="translate(222.45703125,38.02734375)"/>
<path d="M0 0 C6.95378231 4.96698737 9.45474823 10.97047265 11.07821655 19.16171265 C11.43616045 21.51447864 11.73652594 23.86661488 12.01171875 26.23046875 C12.17182182 27.52661858 12.17182182 27.52661858 12.3351593 28.84895325 C12.55719707 30.66608301 12.77460153 32.48378447 12.98754883 34.30200195 C13.30981806 37.03971659 13.65086263 39.77461517 13.99414062 42.50976562 C17.4626588 70.88268214 17.4626588 70.88268214 13.03125 78.2578125 C8.81479492 83.10673584 3.38721762 85.4660633 -2.890625 86.1484375 C-8.76750561 86.36672164 -12.90014751 85.9474278 -17.71484375 82.41796875 C-21.83283437 78.59065982 -23.57602922 74.87438783 -23.875 69.25 C-23.69370021 64.971325 -22.27649586 63.04026821 -19.375 59.875 C-18.58553391 57.18992671 -18.58553391 57.18992671 -18.375 54.875 C-19.035 54.875 -19.695 54.875 -20.375 54.875 C-20.4678125 56.2671875 -20.4678125 56.2671875 -20.5625 57.6875 C-21.375 60.875 -21.375 60.875 -23.4375 62.75 C-27.21744914 64.1976401 -30.37950432 64.61610001 -34.375 63.875 C-37.375 62.0625 -37.375 62.0625 -39.375 59.875 C-39.375 58.885 -39.375 57.895 -39.375 56.875 C-40.035 56.875 -40.695 56.875 -41.375 56.875 C-39.39236453 61.57071559 -37.79221704 63.43390637 -33.375 65.875 C-31.64234538 71.07296387 -31.92980649 75.4157546 -33.5 80.5625 C-36.30470082 85.51747145 -40.0793321 88.66455248 -45.375 90.875 C-52.26298884 92.16877568 -58.43970067 92.75434261 -64.69140625 89.2734375 C-74.37276858 81.23184188 -74.13324462 66.02479946 -75.5625 54.375 C-75.64871613 53.68166565 -75.73493225 52.9883313 -75.82376099 52.27398682 C-76.90581855 43.44586773 -77.75826834 34.65370584 -77.8125 25.75 C-77.82240967 24.92306641 -77.83231934 24.09613281 -77.8425293 23.24414062 C-77.76132442 17.70585089 -76.71290292 13.49968568 -72.91015625 9.23046875 C-65.92637005 3.69160383 -57.97060374 3.94262563 -49.375 4.875 C-43.3922569 7.25001752 -39.3487717 11.16535834 -36.375 16.875 C-34.70699177 21.22043841 -34.03400737 25.11121299 -33.75 29.75 C-33.67523438 30.90242188 -33.60046875 32.05484375 -33.5234375 33.2421875 C-33.47445312 34.11101562 -33.42546875 34.97984375 -33.375 35.875 C-32.715 35.875 -32.055 35.875 -31.375 35.875 C-31.53508545 35.2984668 -31.6951709 34.72193359 -31.86010742 34.12792969 C-32.69427874 30.47798519 -32.64177759 26.85594891 -32.6875 23.125 C-32.71650391 22.3515625 -32.74550781 21.578125 -32.77539062 20.78125 C-32.83797151 15.04306463 -31.68185058 10.62451853 -28.375 5.875 C-20.79687818 -1.30827862 -9.85244474 -3.28414825 0 0 Z " fill="#F9FBFC" transform="translate(133.375,142.125)"/>
<path d="M0 0 C4.67191539 2.36054673 7.42334264 6.23057664 9.375 11 C9.93871515 14.86388462 9.85357325 18.60622096 9.6875 22.5 C9.66494141 23.51320312 9.64238281 24.52640625 9.61914062 25.5703125 C9.5606939 28.04845367 9.47882997 30.52341566 9.375 33 C10.035 33 10.695 33 11.375 33 C11.33375 31.88625 11.2925 30.7725 11.25 29.625 C11.29587089 20.95540273 13.11848669 13.03740853 18.375 6 C24.32156558 0.59131472 30.96512495 0.57284341 38.625 0.72265625 C43.34370262 1.07164363 46.73408525 1.9408809 50.375 5 C59.74435449 16.53151322 55.4778677 36.55148921 54.68228149 50.51086426 C54.60336094 51.90380708 54.52805603 53.29696017 54.45663452 54.69030762 C53.37638984 75.29528492 53.37638984 75.29528492 48.25 82.5 C42.90305766 87.14951507 37.70229629 88.3235652 30.6875 87.875 C24.74051532 87.08704526 20.56636864 85.57098884 16.5625 81 C13.46192379 76.74778119 13.25727034 73.94885856 13.3125 68.8125 C13.32152344 67.72582031 13.33054688 66.63914062 13.33984375 65.51953125 C13.35144531 64.68808594 13.36304688 63.85664063 13.375 63 C13.98859375 62.74476563 14.6021875 62.48953125 15.234375 62.2265625 C17.65161336 60.84150257 18.35958231 59.8154484 19.625 57.375 C20.2025 56.26125 20.78 55.1475 21.375 54 C20.715 54 20.055 54 19.375 54 C19.106875 54.78375 18.83875 55.5675 18.5625 56.375 C17.375 59 17.375 59 14.375 61 C12.03515625 61.30078125 12.03515625 61.30078125 9.4375 61.3125 C8.58285156 61.32925781 7.72820312 61.34601563 6.84765625 61.36328125 C3.86837571 60.92556705 2.52404802 60.08598341 0.375 58 C-0.375 54.8125 -0.375 54.8125 -0.625 52 C-1.285 52 -1.945 52 -2.625 52 C-0.84767668 57.00538707 -0.84767668 57.00538707 2.625 60.8125 C4.79528727 63.52535909 4.57045045 64.48118137 4.3125 67.875 C3.4039037 73.88232119 1.91790111 78.04923654 -3 81.8125 C-5.88715292 83.69306725 -8.13695278 84.74477703 -11.625 85 C-12.841875 85.103125 -14.05875 85.20625 -15.3125 85.3125 C-21.13614232 85.20220374 -27.08143611 83.45064832 -31.3359375 79.3515625 C-36.04845224 73.11360947 -35.78327653 66.72463503 -35.75 59.1875 C-35.75386719 58.32318359 -35.75773438 57.45886719 -35.76171875 56.56835938 C-35.75482577 52.00175748 -35.50705576 47.62392772 -34.86572266 43.09301758 C-34.48280166 39.7636244 -34.43135604 36.43029353 -34.33520508 33.08227539 C-33.61770812 9.2321831 -33.61770812 9.2321831 -26.22265625 1.3046875 C-19.32993741 -4.32408534 -7.78659898 -3.48286129 0 0 Z " fill="#F9FBFC" transform="translate(230.625,141)"/>
<path d="M0 0 C7.28779553 4.09938498 7.28779553 4.09938498 9 8.6875 C9.13997227 11.47574758 9.1888913 14.15577116 9.125 16.9375 C9.11597656 17.68257812 9.10695312 18.42765625 9.09765625 19.1953125 C9.07418358 21.02618059 9.03831525 22.85688238 9 24.6875 C10.98 24.6875 12.96 24.6875 15 24.6875 C15 23.6975 15 22.7075 15 21.6875 C14.01 21.6875 13.02 21.6875 12 21.6875 C10.78087866 7.27816308 10.78087866 7.27816308 13.640625 3.546875 C19.26090898 0.09144115 25.46215731 -0.97696314 32 -0.3125 C37.5808464 1.08528105 42.82730464 3.43224214 46.12109375 8.3671875 C47.34839657 11.60726695 47.22567464 14.41498957 47.1875 17.875 C47.18032959 18.58712646 47.17315918 19.29925293 47.16577148 20.03295898 C47.08559361 25.4452626 46.79238409 30.8361374 46.42871094 36.23681641 C45.91393966 44.23377021 45.68572816 52.24132813 45.4375 60.25 C45.41535431 60.96278107 45.39320862 61.67556213 45.37039185 62.40994263 C45.2438875 66.50237289 45.1206332 70.59489274 45 74.6875 C39.14894774 77.67973747 34.39505151 79.32408205 27.8125 79.125 C27.14025391 79.13208984 26.46800781 79.13917969 25.77539062 79.14648438 C19.9857137 79.07319733 16.32677 77.2746345 11.640625 74.078125 C9.09543169 70.36941475 9.57205441 66.81769912 9.75 62.4375 C9.76804688 61.59703125 9.78609375 60.7565625 9.8046875 59.890625 C9.85169202 57.82242605 9.92343276 55.75481559 10 53.6875 C12.64 53.6875 15.28 53.6875 18 53.6875 C18 52.6975 18 51.7075 18 50.6875 C12.06 50.6875 6.12 50.6875 0 50.6875 C0.33 51.3475 0.66 52.0075 1 52.6875 C2.98 53.0175 4.96 53.3475 7 53.6875 C7 60.2875 7 66.8875 7 73.6875 C-3.02993547 77.80234532 -10.45288889 79.10331989 -20.89453125 75.9296875 C-24.20048715 73.97923485 -26.39284983 72.16316398 -28 68.6875 C-28.69055497 63.89729133 -28.56641159 59.13761901 -28.4375 54.3125 C-28.41524222 52.90203392 -28.39401861 51.49155118 -28.3737793 50.08105469 C-28.30908862 46.37389556 -28.20195839 42.66931894 -28.07678223 38.96374512 C-27.99985922 36.6833266 -27.9310094 34.4027494 -27.86230469 32.12207031 C-27.74488728 28.43055449 -27.59295852 24.74190748 -27.41311646 21.05291748 C-27.34634014 19.64897426 -27.2864411 18.24468612 -27.23361206 16.84014893 C-27.15533964 14.87668624 -27.04132477 12.91474728 -26.92578125 10.953125 C-26.86817627 9.83711914 -26.81057129 8.72111328 -26.7512207 7.57128906 C-25.77315049 3.81666921 -24.19988966 2.76566712 -21 0.6875 C-14.74602936 -2.45946606 -6.50207621 -2.67401402 0 0 Z " fill="#FCFDFE" transform="translate(218,47.3125)"/>
<path d="M0 0 C7.65556804 6.01508918 13.86752676 13.2865551 15.625 23.0625 C16.60224785 37.84337377 15.13102088 51.35998038 5.76953125 63.4609375 C-0.50016092 70.19366083 -8.12278943 73.74211516 -17.28125 74.30078125 C-26.66738143 74.52718761 -34.70563846 74.09754846 -43.375 70.0625 C-44.12136719 69.72347656 -44.86773437 69.38445312 -45.63671875 69.03515625 C-54.13488007 64.48661657 -59.43065081 54.99652705 -62.375 46.0625 C-62.90386258 42.60325181 -62.94868248 39.24415121 -62.875 35.75 C-62.86291504 34.82936768 -62.85083008 33.90873535 -62.83837891 32.96020508 C-62.45378397 19.72431191 -58.1427711 10.38892284 -48.625 1.3125 C-34.82735688 -9.93669784 -14.85081718 -8.52546912 0 0 Z " fill="#FCFDFE" transform="translate(329.375,58.9375)"/>
<path d="M0 0 C5.94 0 11.88 0 18 0 C18 0.99 18 1.98 18 3 C15.36 3 12.72 3 10 3 C10.06005854 5.91884528 10.14708616 8.83261639 10.25 11.75 C10.26417969 12.575 10.27835938 13.4 10.29296875 14.25 C10.48137381 19.17063269 10.48137381 19.17063269 12.734375 23.453125 C17.64637714 26.8068368 21.94619851 27.35640123 27.8125 27.3125 C28.87500977 27.31056641 28.87500977 27.31056641 29.95898438 27.30859375 C35.29951642 27.21033189 39.25494263 26.37252869 44 24 C44.33 19.38 44.66 14.76 45 10 C45.33 10 45.66 10 46 10 C46.33 12.31 46.66 14.62 47 17 C47.99 16.01 48.98 15.02 50 14 C50 15.32 50 16.64 50 18 C50.99 18 51.98 18 53 18 C53 18.66 53 19.32 53 20 C53.78375 20.2475 54.5675 20.495 55.375 20.75 C58.46493987 22.22139994 58.53659227 23.07318455 60 26 C62.21433941 27.08742694 62.21433941 27.08742694 65 28 C66.9294247 28.97281917 68.83740258 29.97986414 70.7421875 31 C76.87566176 33.71655608 82.41231005 34.29250513 89 34.1875 C90.15242187 34.1865332 90.15242187 34.1865332 91.328125 34.18554688 C94.93499613 34.15794327 98.27070758 33.95767618 101.84765625 33.3984375 C105.78976082 32.90017893 107.6643076 33.96604122 111 36 C110.34 37.32 109.68 38.64 109 40 C110.32 40.33 111.64 40.66 113 41 C112.21625 41.0825 111.4325 41.165 110.625 41.25 C107.89126491 41.72459068 107.89126491 41.72459068 106.75 43.875 C106.14919925 45.57726879 105.57084854 47.28745438 105 49 C103.85402344 49.03738281 102.70804687 49.07476562 101.52734375 49.11328125 C99.99736554 49.17898584 98.46741903 49.24543159 96.9375 49.3125 C96.18533203 49.33505859 95.43316406 49.35761719 94.65820312 49.38085938 C89.45164616 49.62879066 85.67532163 50.68407043 81 53 C81 52.34 81 51.68 81 51 C80.34 51 79.68 51 79 51 C79 51.66 79 52.32 79 53 C78.34 53 77.68 53 77 53 C77 53.66 77 54.32 77 55 C76.01 55 75.02 55 74 55 C74.33 53.35 74.66 51.7 75 50 C73.68 49.67 72.36 49.34 71 49 C72.66666667 47.33333333 74.33333333 45.66666667 76 44 C73.69 43.67 71.38 43.34 69 43 C68.67 44.65 68.34 46.3 68 48 C64.37903769 48 63.28554837 47.81987859 60.1875 46.5 C52.6049859 43.87624926 42.89597712 43.32635576 35.375 46.4375 C30.23316416 49.62320264 27.8802589 54.87072797 26.2890625 60.52734375 C25.76032261 63.01395383 25.34649653 65.48185662 25 68 C24.88914063 68.79535156 24.77828125 69.59070313 24.6640625 70.41015625 C24.42123232 72.2707605 24.20721188 74.13509305 24 76 C23.34 76 22.68 76 22 76 C21.9906543 75.3702124 21.98130859 74.7404248 21.97167969 74.09155273 C21.91761238 71.20610782 21.83403875 68.32222136 21.75 65.4375 C21.73582031 64.44685547 21.72164062 63.45621094 21.70703125 62.43554688 C21.49748555 56.12822128 20.81615258 52.09714581 17 47 C10.7637835 41.59527904 3.51620834 41.50958668 -4.38671875 41.7265625 C-7.9591134 41.99690588 -11.46136518 42.44581072 -15 43 C-15.474375 42.0925 -15.94875 41.185 -16.4375 40.25 C-18.85246126 36.5844338 -21.8250156 35.43796449 -25.82421875 33.88671875 C-28 33 -28 33 -30.75 31.125 C-33.01156306 29.69688256 -33.01156306 29.69688256 -35.75 30.625 C-38.31074335 31.85790128 -38.31074335 31.85790128 -39 35 C-39.99 35.495 -39.99 35.495 -41 36 C-41.65213292 38.02463255 -41.65213292 38.02463255 -42 40 C-43.07378906 40.06058594 -44.14757812 40.12117188 -45.25390625 40.18359375 C-46.69011315 40.26807651 -48.12631058 40.35272054 -49.5625 40.4375 C-50.26697266 40.47681641 -50.97144531 40.51613281 -51.69726562 40.55664062 C-55.14336861 40.76308919 -58.41515494 41.07116942 -61.828125 41.65625 C-65.61394769 42.0665362 -66.82143145 40.97425676 -69.890625 38.92578125 C-74.275306 37.00139348 -79.30938191 37.72272208 -84 38 C-84 37.34 -84 36.68 -84 36 C-84.66 36 -85.32 36 -86 36 C-86.66 35.34 -87.32 34.68 -88 34 C-90.57061311 33.35232207 -90.57061311 33.35232207 -93 33 C-92.505 34.98 -92.505 34.98 -92 37 C-93.98 36.505 -93.98 36.505 -96 36 C-96.556875 36.763125 -97.11375 37.52625 -97.6875 38.3125 C-100.01298778 41.01509391 -101.95990566 42.22043258 -105 44 C-105.86625 44.86625 -106.7325 45.7325 -107.625 46.625 C-110 49 -110 49 -113 50 C-114.17082878 52.92914165 -114.17082878 52.92914165 -115 56 C-115.495 56.99 -115.495 56.99 -116 58 C-116.08426094 59.6674606 -116.10725143 61.33825187 -116.09765625 63.0078125 C-116.09443359 63.99394531 -116.09121094 64.98007813 -116.08789062 65.99609375 C-116.07532227 67.54490234 -116.07532227 67.54490234 -116.0625 69.125 C-116.05798828 70.16527344 -116.05347656 71.20554687 -116.04882812 72.27734375 C-116.03701952 74.85161962 -116.02055075 77.42578146 -116 80 C-116.66 80 -117.32 80 -118 80 C-118.17015625 78.9378125 -118.3403125 77.875625 -118.515625 76.78125 C-120.57047624 63.24639141 -120.57047624 63.24639141 -128.5 52.5 C-135.65654903 48.054265 -145.88552463 49.16712168 -154 50 C-155.485 50.495 -155.485 50.495 -157 51 C-157.33 50.34 -157.66 49.68 -158 49 C-158.99 48.67 -159.98 48.34 -161 48 C-161.12375 47.360625 -161.2475 46.72125 -161.375 46.0625 C-161.58125 45.381875 -161.7875 44.70125 -162 44 C-163.65697379 43.30959426 -165.3255761 42.6469365 -167 42 C-169.8125 39.4375 -169.8125 39.4375 -172 37 C-172 36.67 -172 36.34 -172 36 C-171.236875 35.9175 -170.47375 35.835 -169.6875 35.75 C-166.43857664 34.84332371 -165.84920369 33.71144236 -164 31 C-163.3709375 31.3609375 -162.741875 31.721875 -162.09375 32.09375 C-161.2378125 32.5578125 -160.381875 33.021875 -159.5 33.5 C-158.6646875 33.9640625 -157.829375 34.428125 -156.96875 34.90625 C-150.5787081 37.26047596 -143.66859139 35.80257432 -137.1171875 34.6875 C-136.29928741 34.55432373 -135.48138733 34.42114746 -134.63870239 34.28393555 C-132.04977792 33.86193007 -129.46231053 33.4317819 -126.875 33 C-124.28046878 32.56878399 -121.68568303 32.1395257 -119.08987427 31.71606445 C-117.48190942 31.4536303 -115.87465718 31.18677854 -114.26828003 30.91479492 C-110.128386 30.23774473 -106.2128516 29.85959947 -102 30 C-101.67 28.35 -101.34 26.7 -101 25 C-100.34 25 -99.68 25 -99 25 C-98.67 23.68 -98.34 22.36 -98 21 C-91.60877695 20.40822009 -87.88170565 21.68713586 -82.296875 24.80859375 C-73.79989006 29.21604342 -60.65651442 28.05503527 -51.5234375 26.3515625 C-45.69099072 24.38500264 -41.04983743 21.15413236 -36.2890625 17.29296875 C-34 16 -34 16 -31.3046875 16.11328125 C-27.9330862 17.41049056 -27.57115909 19.85768181 -26 23 C-23.70705512 23.85974801 -23.70705512 23.85974801 -21 24 C-19.4221875 24.5259375 -19.4221875 24.5259375 -17.8125 25.0625 C-8.92547738 27.24783343 -1.63373433 25.65653364 7 23 C7 16.4 7 9.8 7 3 C5.02 3 3.04 3 1 3 C0.67 2.01 0.34 1.02 0 0 Z M50 32 C49.01 33.485 49.01 33.485 48 35 C50.31 35 52.62 35 55 35 C53.62514468 33.45833358 53.62514468 33.45833358 52 32 C51.34 32 50.68 32 50 32 Z M22 39 C23.32 40.32 24.64 41.64 26 43 C26.99 41.68 27.98 40.36 29 39 C26.69 39 24.38 39 22 39 Z M-123 43 C-123 43.99 -123 44.98 -123 46 C-121.02463255 45.65213292 -121.02463255 45.65213292 -119 45 C-118.67 44.34 -118.34 43.68 -118 43 C-119.65 43 -121.3 43 -123 43 Z " fill="#8EAFDF" transform="translate(218,98)"/>
<path d="M0 0 C4.98750828 4.30906046 7.37552795 8.89644213 8.30859375 15.3984375 C8.58659416 21.00899127 7.81941452 24.51091905 3.9375 28.8125 C-2.16418622 33.23622251 -8.71726129 33.57269272 -16.0625 32.8125 C-19.3011235 31.74691842 -22.02685802 30.40496793 -25.0625 28.8125 C-25.0625 25.8425 -25.0625 22.8725 -25.0625 19.8125 C-26.0525 19.8125 -27.0425 19.8125 -28.0625 19.8125 C-27.75599173 23.58384561 -27.44126767 27.35446127 -27.125 31.125 C-26.99448242 32.7327832 -26.99448242 32.7327832 -26.86132812 34.37304688 C-26.73081055 35.91508789 -26.73081055 35.91508789 -26.59765625 37.48828125 C-26.519104 38.43614502 -26.44055176 39.38400879 -26.35961914 40.3605957 C-26.12926896 42.94520257 -26.12926896 42.94520257 -25.0625 45.8125 C-24.8975 45.07 -24.7325 44.3275 -24.5625 43.5625 C-22.03990967 38.93775106 -17.72147845 37.64401799 -12.8515625 36.12109375 C-10.59183329 35.55417923 -8.3674423 35.14904506 -6.0625 34.8125 C-5.27230469 34.68101563 -4.48210937 34.54953125 -3.66796875 34.4140625 C-1.21822524 34.17843211 0.56875918 34.13177448 2.9375 34.8125 C5.32758879 37.16188168 6.61607979 39.75879783 7.9375 42.8125 C8.370625 43.8025 8.80375 44.7925 9.25 45.8125 C10.2895806 50.34885172 11.17234012 54.37421401 9.015625 58.6328125 C3.37133212 66.03679669 -6.12881609 70.85709823 -15.0625 72.8125 C-18.50461397 73.12884853 -21.91957492 73.19366545 -25.375 73.1875 C-26.77504272 73.18508301 -26.77504272 73.18508301 -28.20336914 73.18261719 C-34.85208912 73.06387965 -40.28591749 72.31235816 -46.0625 68.8125 C-47.135 68.214375 -48.2075 67.61625 -49.3125 67 C-57.02520438 60.86489424 -62.38184492 52.59810526 -64.0625 42.8125 C-65.25978463 28.53890669 -65.35872046 17.04190708 -56.234375 5.5 C-42.22375511 -9.99141711 -16.90381652 -11.87686455 0 0 Z " fill="#FCFDFE" transform="translate(178.0625,53.1875)"/>
<path d="M0 0 C3.74632909 6.28416493 5.64793363 10.48396988 5 18 C3.5 21.3125 3.5 21.3125 1 24 C-5.2181464 25.91165987 -11.56569226 26.75525909 -18 27.625 C-18.96550781 27.7590625 -19.93101563 27.893125 -20.92578125 28.03125 C-23.28334876 28.35804154 -25.64138524 28.68087073 -28 29 C-27.67 29.33 -27.34 29.66 -27 30 C-25.4275186 29.87509822 -23.8609756 29.67398269 -22.30078125 29.44140625 C-21.33849609 29.30283203 -20.37621094 29.16425781 -19.38476562 29.02148438 C-18.37091797 28.87001953 -17.35707031 28.71855469 -16.3125 28.5625 C-4.27160935 26.77548512 -4.27160935 26.77548512 1 27 C3.79441201 31.70869426 4.39036978 35.50675354 4.1875 40.875 C4.16719727 41.90753906 4.16719727 41.90753906 4.14648438 42.9609375 C4.1114837 44.64097001 4.05768954 46.3205935 4 48 C3.33468262 48.11069824 2.66936523 48.22139648 1.98388672 48.33544922 C-1.0532636 48.84366817 -4.0891172 49.35926569 -7.125 49.875 C-8.17171875 50.04902344 -9.2184375 50.22304687 -10.296875 50.40234375 C-17.80309624 51.62330877 -17.80309624 51.62330877 -25 54 C-25.495 54.99 -25.495 54.99 -26 56 C-24.88882813 55.53980469 -23.77765625 55.07960937 -22.6328125 54.60546875 C-17.79328496 52.79304331 -12.9776711 52.01249161 -7.875 51.3125 C-7.00746094 51.18294922 -6.13992187 51.05339844 -5.24609375 50.91992188 C3.9666761 49.59479744 3.9666761 49.59479744 8 50 C12.18246886 54.97374675 13.14358743 59.10530784 13.1875 65.4375 C13.20167969 66.36433594 13.21585937 67.29117188 13.23046875 68.24609375 C12.95671273 71.51724618 12.79766172 73.21097459 11 76 C7.91334172 77.19339743 4.72740549 77.57094237 1.4609375 78.01953125 C0.50611481 78.16782883 -0.44870789 78.3161264 -1.4324646 78.46891785 C-3.45679464 78.7792078 -5.48282272 79.07858492 -7.51025391 79.36791992 C-10.59526508 79.80825582 -13.67438177 80.27880209 -16.75390625 80.75585938 C-18.7236884 81.05387303 -20.69373389 81.3501522 -22.6640625 81.64453125 C-23.5789444 81.78196243 -24.49382629 81.91939362 -25.43643188 82.06098938 C-39.89058874 84.11215003 -39.89058874 84.11215003 -45.25 81.5 C-45.87390625 81.2215625 -46.4978125 80.943125 -47.140625 80.65625 C-52.85558697 75.5656116 -53.88247815 67.76212313 -54.88671875 60.5859375 C-55.0340596 59.6126651 -55.18140045 58.6393927 -55.33320618 57.6366272 C-55.79742289 54.55116349 -56.24282807 51.46333465 -56.6875 48.375 C-56.99678608 46.29408305 -57.30732141 44.21335137 -57.61914062 42.1328125 C-58.18968165 38.31798818 -58.75243518 34.50218198 -59.30737305 30.68505859 C-59.70542294 27.95358889 -60.12884453 25.23422187 -60.58691406 22.51171875 C-61.17051239 18.96322016 -61.06191632 15.59114652 -61 12 C-55.96592673 8.84136579 -51.62736094 7.11424005 -45.8125 6 C-45.01875977 5.84047852 -44.22501953 5.68095703 -43.40722656 5.51660156 C-35.7256568 4.03124714 -27.99099133 2.87691367 -20.25 1.75 C-19.04835205 1.5746875 -17.8467041 1.399375 -16.60864258 1.21875 C-11.02616788 0.43905061 -5.6381669 -0.23080215 0 0 Z " fill="#FBFDFE" transform="translate(105,52)"/>
<path d="M0 0 C3.8599789 2.7103462 6.91116384 4.87858861 7.7890625 9.70703125 C8.47952448 16.28596147 7.38590019 22.39712008 6.06542969 28.8371582 C4.81631187 35.09351555 4.07662092 41.37131915 3.3515625 47.70703125 C0.18802392 74.2649272 0.18802392 74.2649272 -7.2109375 81.70703125 C-13.01624115 84.9198548 -20.2235993 84.48488903 -26.59375 83.2421875 C-31.68517533 81.60634932 -34.20392708 79.0808646 -37.2109375 74.70703125 C-41.01866165 63.2838588 -37.23719039 48.70563362 -35.49487305 37.11962891 C-35.02270275 33.95210225 -34.5800228 30.78132466 -34.13867188 27.609375 C-33.83771773 25.56353941 -33.53504233 23.51795613 -33.23046875 21.47265625 C-33.10315872 20.54012024 -32.97584869 19.60758423 -32.84468079 18.64678955 C-31.77555005 11.80037784 -29.94362291 3.67381997 -24.27156067 -0.83441162 C-16.8610143 -5.12123615 -7.26045823 -4.24595702 0 0 Z " fill="#FAFCFD" transform="translate(324.2109375,150.29296875)"/>
<path d="M0 0 C3.42981955 2.56203388 5.28058904 5.18942336 6.62109375 9.2109375 C7.20228943 15.81217238 7.38167835 22.43094256 7.56134033 29.05383301 C7.60402723 30.59483435 7.64936643 32.13576315 7.69647217 33.67663574 C7.86795682 39.3394054 7.99263004 45.00094927 8.07199097 50.66577148 C8.10459343 52.6046557 8.14935637 54.54337546 8.20657349 56.48168945 C8.70877522 74.18984995 8.70877522 74.18984995 4.2578125 79.40625 C-1.41537484 84.3863869 -7.16165327 84.61085186 -14.47265625 84.45703125 C-19.88530715 83.99870194 -22.9900947 82.3837117 -27.19140625 78.8359375 C-32.87051398 71.30669593 -31.69651975 58.36661194 -31.71484375 49.375 C-31.72150055 48.21140961 -31.72815735 47.04781921 -31.73501587 45.84896851 C-31.74505644 43.41381392 -31.74983559 40.9786323 -31.74951172 38.54345703 C-31.75392029 34.82409037 -31.79042915 31.10587908 -31.828125 27.38671875 C-31.83398796 25.00781652 -31.83796083 22.62890871 -31.83984375 20.25 C-31.85421478 19.14572662 -31.86858582 18.04145325 -31.88339233 16.90371704 C-31.84515187 10.44896496 -31.26373529 6.44212684 -27.37890625 1.2109375 C-19.74318657 -4.51585226 -8.17127757 -4.79064506 0 0 Z " fill="#F9FBFC" transform="translate(182.37890625,141.7890625)"/>
<path d="M0 0 C0.33 0 0.66 0 1 0 C1.05607422 1.77503906 1.05607422 1.77503906 1.11328125 3.5859375 C1.70869757 19.08480483 4.61442732 28.5417696 14 41 C12 42 12 42 8.9375 42.4375 C7.968125 42.623125 6.99875 42.80875 6 43 C5.505 43.99 5.505 43.99 5 45 C4.89042969 43.97519531 4.78085938 42.95039062 4.66796875 41.89453125 C4.50843255 40.53378133 4.3482416 39.17310806 4.1875 37.8125 C4.11724609 37.13896484 4.04699219 36.46542969 3.97460938 35.77148438 C3.45380471 31.50088615 2.48923123 28.51220296 0 25 C-9.88491071 25.49086029 -19.32917741 27.03160248 -29 29 C-30.66666667 29.33333333 -32.33333333 29.66666667 -34 30 C-33.505 28.515 -33.505 28.515 -33 27 C-24.27750956 23.25465582 -13.40651989 22 -4 22 C-4 18.04 -4 14.08 -4 10 C-2.68 10.66 -1.36 11.32 0 12 C0 8.04 0 4.08 0 0 Z " fill="#9BB5DB" transform="translate(113,78)"/>
<path d="M0 0 C5.94 0 11.88 0 18 0 C18 0.99 18 1.98 18 3 C15.36 3 12.72 3 10 3 C10.06005854 5.91884528 10.14708616 8.83261639 10.25 11.75 C10.26417969 12.575 10.27835938 13.4 10.29296875 14.25 C10.46987439 19.24127307 10.46987439 19.24127307 12.90234375 23.50390625 C17.34068686 26.66942843 21.63660053 27.36901183 27 28 C27 28.33 27 28.66 27 29 C20.66606918 29.34548714 15.89738492 28.29342747 10 26 C10 25.34 10 24.68 10 24 C9.34 24 8.68 24 8 24 C7.67 24.66 7.34 25.32 7 26 C0.85466005 27.98757852 -4.8867199 28.33621137 -11.3125 28.3125 C-12.20517578 28.32861328 -13.09785156 28.34472656 -14.01757812 28.36132812 C-14.87416016 28.36197266 -15.73074219 28.36261719 -16.61328125 28.36328125 C-17.38454346 28.36626221 -18.15580566 28.36924316 -18.95043945 28.37231445 C-21.49093129 27.91081951 -22.37822411 26.95446443 -24 25 C-23.67 24.34 -23.34 23.68 -23 23 C-22.46632812 23.2165625 -21.93265625 23.433125 -21.3828125 23.65625 C-11.18900265 27.46570143 -3.24439542 26.15212167 7 23 C7 16.4 7 9.8 7 3 C5.02 3 3.04 3 1 3 C0.67 2.01 0.34 1.02 0 0 Z " fill="#9BB4DB" transform="translate(218,98)"/>
<path d="M0 0 C0.33 0 0.66 0 1 0 C1.06058594 1.07121094 1.12117188 2.14242187 1.18359375 3.24609375 C1.26798537 4.64324391 1.35263406 6.04037857 1.4375 7.4375 C1.47681641 8.14455078 1.51613281 8.85160156 1.55664062 9.58007812 C1.47624438 13.08690419 1.47624438 13.08690419 3 16 C3.08097324 18.27024968 3.13917704 20.54132075 3.1875 22.8125 C3.45848825 29.73101291 5.28636825 34.6732693 8.8203125 40.70703125 C9.20960938 41.46371094 9.59890625 42.22039062 10 43 C9.67 43.66 9.34 44.32 9 45 C8.34 44.67 7.68 44.34 7 44 C7 43.34 7 42.68 7 42 C6.01 42 5.02 42 4 42 C3.67 41.34 3.34 40.68 3 40 C2.34 40.66 1.68 41.32 1 42 C-1.93427143 39.06572857 -1.12714883 32.12308394 -1.13867188 28.20092773 C-1.13416016 27.51587158 -1.12964844 26.83081543 -1.125 26.125 C-1.12306641 25.4019165 -1.12113281 24.67883301 -1.11914062 23.93383789 C-1.05711698 15.93881793 -0.55883643 7.97339838 0 0 Z " fill="#8EB3E4" transform="translate(264,74)"/>
<path d="M0 0 C0.66 0 1.32 0 2 0 C2.45375 1.134375 2.9075 2.26875 3.375 3.4375 C4.57095806 7.04721692 4.57095806 7.04721692 7 8 C13.6753469 8.73574364 13.6753469 8.73574364 19.5625 6.125 C21.01759039 4.07376616 21.01759039 4.07376616 22 2 C22.66 2 23.32 2 24 2 C22.76067171 5.43198603 21.49698489 8.30325632 19 11 C18.01 11 17.02 11 16 11 C16.35042971 20.43023267 16.35042971 20.43023267 20 29 C20.33 29.66 20.66 30.32 21 31 C18.61435923 30.42415568 16.33317216 29.77772405 14 29 C14 23.39 14 17.78 14 12 C12.618125 11.979375 11.23625 11.95875 9.8125 11.9375 C6.97695971 11.63337265 5.46022292 11.39928016 3.2890625 9.515625 C0.70403402 6.0191125 0 4.5079956 0 0 Z " fill="#92ACD1" transform="translate(228,193)"/>
<path d="M0 0 C2.09350689 3.4019487 2.17942163 6.05272412 2 10 C0.5 8.625 0.5 8.625 -1 7 C-1 6.34 -1 5.68 -1 5 C-10.57 6.32 -20.14 7.64 -30 9 C-30 8.34 -30 7.68 -30 7 C-23.25479841 5.19505563 -16.53685799 4.10380103 -9.62695312 3.14453125 C-8.81548828 3.02464844 -8.00402344 2.90476562 -7.16796875 2.78125 C-6.07391724 2.6275293 -6.07391724 2.6275293 -4.95776367 2.47070312 C-2.69495459 2.04567647 -2.69495459 2.04567647 0 0 Z " fill="#9CB5D9" transform="translate(107,74)"/>
<path d="M0 0 C0.99 0 1.98 0 3 0 C3 2.97 3 5.94 3 9 C3.66 9.33 4.32 9.66 5 10 C4.67 10.99 4.34 11.98 4 13 C3.34 13 2.68 13 2 13 C2 14.98 2 16.96 2 19 C4.31 19 6.62 19 9 19 C8.360625 19.391875 7.72125 19.78375 7.0625 20.1875 C4.56221181 22.38472296 4.35049575 23.75791433 4 27 C3.34 26.67 2.68 26.34 2 26 C-0.67654075 17.63994062 -0.21031889 8.65812757 0 0 Z " fill="#9CB5DC" transform="translate(150,73)"/>
<path d="M0 0 C5.94 0 11.88 0 18 0 C18 0.99 18 1.98 18 3 C14.7 3.33 11.4 3.66 8 4 C8 7.96 8 11.92 8 16 C7.67 16 7.34 16 7 16 C7 11.71 7 7.42 7 3 C5.02 3 3.04 3 1 3 C0.67 2.01 0.34 1.02 0 0 Z " fill="#ADC3E2" transform="translate(218,98)"/>
<path d="M0 0 C0.66 0 1.32 0 2 0 C2.27733386 8.5511272 1.52016163 16.58481953 0 25 C-0.99 25 -1.98 25 -3 25 C-2.4237919 16.58432901 -1.38227951 8.32051741 0 0 Z " fill="#9EB5D9" transform="translate(307,80)"/>
<path d="M0 0 C0.33 0 0.66 0 1 0 C1.33 7.26 1.66 14.52 2 22 C1.01 21.67 0.02 21.34 -1 21 C-1.99 21.33 -2.98 21.66 -4 22 C-4 18.04 -4 14.08 -4 10 C-2.02 10.99 -2.02 10.99 0 12 C0 8.04 0 4.08 0 0 Z " fill="#A4BFE5" transform="translate(113,78)"/>
<path d="M0 0 C0.66 0 1.32 0 2 0 C2.33 1.98 2.66 3.96 3 6 C3.66 6 4.32 6 5 6 C5.03738281 7.09699219 5.07476562 8.19398437 5.11328125 9.32421875 C5.17896653 10.77867857 5.24541299 12.23310416 5.3125 13.6875 C5.33505859 14.40873047 5.35761719 15.12996094 5.38085938 15.87304688 C5.60678337 20.37098822 6.24937312 23.26121225 9 27 C8.01 27 7.02 27 6 27 C5.566875 26.05125 5.13375 25.1025 4.6875 24.125 C3.20697799 20.79958063 3.20697799 20.79958063 0 19 C0.99 17.515 0.99 17.515 2 16 C2.3920214 10.2176844 1.58713619 5.55497665 0 0 Z " fill="#A0B9DE" transform="translate(185,94)"/>
<path d="M0 0 C0.33 0 0.66 0 1 0 C1 5.28 1 10.56 1 16 C1.99 16 2.98 16 4 16 C4 16.99 4 17.98 4 19 C2.02 19 0.04 19 -2 19 C-2.05411124 16.58303128 -2.09372278 14.16728213 -2.125 11.75 C-2.14175781 11.06808594 -2.15851563 10.38617188 -2.17578125 9.68359375 C-2.21213482 5.9391765 -2.07944349 3.17647273 0 0 Z " fill="#B6CAEB" transform="translate(229,53)"/>
<path d="M0 0 C0.33 0 0.66 0 1 0 C1.06058594 1.07121094 1.12117188 2.14242187 1.18359375 3.24609375 C1.26798537 4.64324391 1.35263406 6.04037857 1.4375 7.4375 C1.47681641 8.14455078 1.51613281 8.85160156 1.55664062 9.58007812 C1.47624438 13.08690419 1.47624438 13.08690419 3 16 C3.07179964 17.51928038 3.08392007 19.04167482 3.0625 20.5625 C3.05347656 21.38878906 3.04445313 22.21507813 3.03515625 23.06640625 C3.02355469 23.70449219 3.01195312 24.34257813 3 25 C2.34 24.01 1.68 23.02 1 22 C0.67 25.96 0.34 29.92 0 34 C-0.33 34 -0.66 34 -1 34 C-1.12818318 22.62018175 -0.79568202 11.35267742 0 0 Z " fill="#AEC3E7" transform="translate(264,74)"/>
<path d="M0 0 C3.06114953 1.0555688 3.94633805 1.90918748 5.625 4.75 C6.07875 5.8225 6.5325 6.895 7 8 C7.35578125 8.81210938 7.7115625 9.62421875 8.078125 10.4609375 C9.41814219 15.60524078 9.20969552 20.58478771 9.125 25.875 C9.11597656 26.94492188 9.10695313 28.01484375 9.09765625 29.1171875 C9.07419342 31.74502439 9.04136459 34.37239406 9 37 C8.34 36.67 7.68 36.34 7 36 C7.04640625 34.68386719 7.0928125 33.36773437 7.140625 32.01171875 C7.44408441 19.69642183 6.57280402 10.67845237 0 0 Z " fill="#98B4DB" transform="translate(337,66)"/>
<path d="M0 0 C0.66 0.33 1.32 0.66 2 1 C3.1577506 4.47325181 3.06866652 7.36067448 3 11 C2.34 10.34 1.68 9.68 1 9 C0.401875 9.9075 -0.19625 10.815 -0.8125 11.75 C-1.534375 12.8225 -2.25625 13.895 -3 15 C-3.7115625 16.175625 -3.7115625 16.175625 -4.4375 17.375 C-6 19 -6 19 -8.6875 19.25 C-9.450625 19.1675 -10.21375 19.085 -11 19 C-10.2575 18.46375 -9.515 17.9275 -8.75 17.375 C-2.97919216 12.3911205 -1.22844687 7.27369858 0 0 Z " fill="#99B0D8" transform="translate(283,209)"/>
<path d="M0 0 C-2.64738916 1.4606285 -3.89448334 2 -7 2 C-7 2.66 -7 3.32 -7 4 C-7.92232422 4.23783203 -7.92232422 4.23783203 -8.86328125 4.48046875 C-14.07172853 5.91602881 -14.07172853 5.91602881 -18 9.4375 C-18.85536855 11.62938191 -19.57186293 13.68805982 -20 16 C-20.66 16 -21.32 16 -22 16 C-21.6958489 11.74188455 -20.756357 8.68169985 -17.859375 5.4609375 C-13.17813681 1.78282178 -5.92478995 -2.28750883 0 0 Z " fill="#99ADD6" transform="translate(55,50)"/>
<path d="M0 0 C0.66 0.99 1.32 1.98 2 3 C-2.17321246 7.75986213 -8.14479414 8.77377721 -14.25390625 9.2578125 C-20.07851308 9.35594065 -20.07851308 9.35594065 -23 9 C-23.66 8.34 -24.32 7.68 -25 7 C-24.3709375 7.02320313 -23.741875 7.04640625 -23.09375 7.0703125 C-14.51459746 7.25119825 -7.96915627 6.26936206 -1 1 C-0.67 0.67 -0.34 0.34 0 0 Z " fill="#93ABCE" transform="translate(97,226)"/>
<path d="M0 0 C2.39614126 -0.05425226 4.79103853 -0.09379027 7.1875 -0.125 C8.19780273 -0.15013672 8.19780273 -0.15013672 9.22851562 -0.17578125 C13.28807807 -0.21538674 16.34998815 0.19979998 20 2 C20 2.33 20 2.66 20 3 C17.73052303 3.36275656 15.45935265 3.71493186 13.1875 4.0625 C11.29064453 4.35833984 11.29064453 4.35833984 9.35546875 4.66015625 C6 5 6 5 3 4 C3 3.34 3 2.68 3 2 C2.01 1.67 1.02 1.34 0 1 C0 0.67 0 0.34 0 0 Z " fill="#A1B9E2" transform="translate(160,85)"/>
<path d="M0 0 C0 0.33 0 0.66 0 1 C-0.845625 1.21914063 -1.69125 1.43828125 -2.5625 1.6640625 C-9.91351134 3.71900431 -15.23782308 6.0326061 -21 11 C-21.99 11.66 -22.98 12.32 -24 13 C-23.67 11.68 -23.34 10.36 -23 9 C-22.34 9 -21.68 9 -21 9 C-21 8.34 -21 7.68 -21 7 C-14.49829978 1.58191649 -8.60414724 -0.43020736 0 0 Z " fill="#9EB5DB" transform="translate(146,46)"/>
<path d="M0 0 C0.9075 0.639375 1.815 1.27875 2.75 1.9375 C7.32405857 4.84026794 10.55974084 5.13856307 15.9375 5.125 C16.95714844 5.12757813 17.97679687 5.13015625 19.02734375 5.1328125 C21.79588725 5.00911936 24.30539535 4.62526738 27 4 C27 4.99 27 5.98 27 7 C24.16640156 7.05449228 21.33387515 7.09390733 18.5 7.125 C17.70851562 7.14175781 16.91703125 7.15851563 16.1015625 7.17578125 C10.72001921 7.21989226 6.17000073 6.50594058 1 5 C0.67 3.35 0.34 1.7 0 0 Z " fill="#94ADD2" transform="translate(155,220)"/>
<path d="M0 0 C-3.61980156 2.13309735 -7.42216558 2.81423718 -11.5 3.5625 C-16.42450164 4.45849578 -16.42450164 4.45849578 -21.28125 5.65234375 C-23 6 -23 6 -26 5 C-26 4.34 -26 3.68 -26 3 C-22.79279138 2.4926043 -19.58407837 1.995421 -16.375 1.5 C-15.47136719 1.35691406 -14.56773438 1.21382812 -13.63671875 1.06640625 C-9.04560134 0.36265833 -4.66168185 -0.18584778 0 0 Z " fill="#9CB5DA" transform="translate(116,128)"/>
<path d="M0 0 C0.66 0.33 1.32 0.66 2 1 C2 3 2 3 -0.375 5.4375 C-1.24125 6.283125 -2.1075 7.12875 -3 8 C-5.28062828 11.42094242 -5.21925007 12.68187222 -5.125 16.6875 C-5.10695312 17.68136719 -5.08890625 18.67523438 -5.0703125 19.69921875 C-5.04710937 20.45847656 -5.02390625 21.21773437 -5 22 C-7.35119399 18.47320901 -7.21443452 16.97120515 -7.125 12.8125 C-7.10695312 11.72582031 -7.08890625 10.63914063 -7.0703125 9.51953125 C-7.04710937 8.68808594 -7.02390625 7.85664063 -7 7 C-6.37609375 6.72414062 -5.7521875 6.44828125 -5.109375 6.1640625 C-2.34397156 4.63796949 -1.44794372 2.75109306 0 0 Z " fill="#E6F2FB" transform="translate(251,197)"/>
<path d="M0 0 C1 3 1 3 -0.109375 5.4453125 C-0.65078125 6.32960938 -1.1921875 7.21390625 -1.75 8.125 C-2.54664063 9.45917969 -2.54664063 9.45917969 -3.359375 10.8203125 C-5 13 -5 13 -8 14 C-8.99 13.34 -9.98 12.68 -11 12 C-10.45730469 11.55269531 -9.91460937 11.10539062 -9.35546875 10.64453125 C-5.51120516 7.39595535 -2.23667322 4.61313852 0 0 Z " fill="#9EB7DE" transform="translate(338,116)"/>
<path d="M0 0 C0.66 0 1.32 0 2 0 C2.28875 1.11375 2.5775 2.2275 2.875 3.375 C3.58861643 5.36694105 3.58861643 5.36694105 5 7 C8.27852858 8.23010815 11.52346897 8.68039396 15 9 C11.4067229 10.90868697 9.1170007 11.7561838 5 11 C2.83532051 8.93705479 1.24766372 6.71615287 0 4 C0 2.68 0 1.36 0 0 Z " fill="#A1B6D1" transform="translate(228,193)"/>
<path d="M0 0 C0.66 0 1.32 0 2 0 C1.56638344 4.59633558 1.29574577 6.84157697 -2 10 C-2.7269226 13.10839021 -2.7269226 13.10839021 -3 16 C-3.33 16 -3.66 16 -4 16 C-4 14.02 -4 12.04 -4 10 C-4.66 10 -5.32 10 -6 10 C-6 9.34 -6 8.68 -6 8 C-5.38125 7.79375 -4.7625 7.5875 -4.125 7.375 C-1.15346355 5.45224112 -0.86975341 3.33405473 0 0 Z " fill="#A4B8D2" transform="translate(113,197)"/>
<path d="M0 0 C0.71027344 0.16242188 1.42054688 0.32484375 2.15234375 0.4921875 C5.02027009 1.00361469 7.65241682 1.13309481 10.5625 1.125 C11.49191406 1.12757813 12.42132813 1.13015625 13.37890625 1.1328125 C15.74147476 1.01309964 17.74030763 0.66993233 20 0 C19 2 19 2 17 4 C10.73893592 4.75564567 5.81302096 3.26061926 0 1 C0 0.67 0 0.34 0 0 Z " fill="#B7C5D4" transform="translate(296,224)"/>
<path d="M0 0 C0.33 0.66 0.66 1.32 1 2 C0.21625 2.226875 -0.5675 2.45375 -1.375 2.6875 C-4.21875 3.78125 -4.21875 3.78125 -5.3125 6.625 C-5.539375 7.40875 -5.76625 8.1925 -6 9 C-8.31 8.67 -10.62 8.34 -13 8 C-8.98745115 4.48901975 -4.79016959 2.23462006 0 0 Z " fill="#93ACD3" transform="translate(286,45)"/>
<path d="M0 0 C0.66 0.33 1.32 0.66 2 1 C1.236875 1.70125 0.47375 2.4025 -0.3125 3.125 C-2.97816966 5.97664661 -4.30240388 8.5276443 -6 12 C-6.99 12.66 -7.98 13.32 -9 14 C-7.32497468 8.13741138 -5.16787202 3.44524801 0 0 Z " fill="#E4F2FB" transform="translate(253,144)"/>
<path d="M0 0 C0 0.66 0 1.32 0 2 C-0.7425 2.226875 -1.485 2.45375 -2.25 2.6875 C-6.09146563 4.52092678 -8.11488412 7.22976824 -10 11 C-10.99 11 -11.98 11 -13 11 C-12.44511332 7.59141041 -11.7673781 5.56139003 -8.93359375 3.48828125 C-2.70666189 0 -2.70666189 0 0 0 Z " fill="#E4F1FB" transform="translate(165,90)"/>
<path d="M0 0 C2.73693289 3.64924385 4.91061451 6.97047084 7 11 C6.67 11.66 6.34 12.32 6 13 C5.34 12.67 4.68 12.34 4 12 C4 11.34 4 10.68 4 10 C3.01 10 2.02 10 1 10 C0.67 6.7 0.34 3.4 0 0 Z " fill="#A2B9DE" transform="translate(267,106)"/>
<path d="M0 0 C-3.01031744 0.93423645 -3.86650268 1.04449911 -7 0 C-9.73289293 -0.22797562 -12.45042204 -0.41668187 -15.1875 -0.5625 C-15.93708984 -0.60568359 -16.68667969 -0.64886719 -17.45898438 -0.69335938 C-19.30578375 -0.79922685 -21.15286834 -0.9000976 -23 -1 C-23 -1.33 -23 -1.66 -23 -2 C-20.47966841 -2.25112548 -17.96123432 -2.47626233 -15.4375 -2.6875 C-14.38079102 -2.79674805 -14.38079102 -2.79674805 -13.30273438 -2.90820312 C-8.01254645 -3.32264181 -4.72625668 -2.41591833 0 0 Z " fill="#A9C1E3" transform="translate(322,54)"/>
<path d="M0 0 C0.33 0 0.66 0 1 0 C1 3.3 1 6.6 1 10 C2.32 10 3.64 10 5 10 C5 10.66 5 11.32 5 12 C3.02 12 1.04 12 -1 12 C-1.02712066 10.56260487 -1.04645067 9.12506137 -1.0625 7.6875 C-1.07410156 6.88699219 -1.08570313 6.08648437 -1.09765625 5.26171875 C-1 3 -1 3 0 0 Z " fill="#99AFD1" transform="translate(228,60)"/>
<path d="M0 0 C0.66 0 1.32 0 2 0 C2.6496875 1.175625 2.6496875 1.175625 3.3125 2.375 C5.26798281 5.41686215 6.60211849 5.98981901 10 7 C9.34 7.66 8.68 8.32 8 9 C4.83566886 8.8945223 3.95080666 7.9480737 1.75 5.625 C0 3 0 3 0 0 Z " fill="#9CAFCD" transform="translate(92,199)"/>
<path d="M0 0 C0.99 0.33 1.98 0.66 3 1 C2.00269864 3.4932534 1.34925469 4.77467439 -0.9375 6.25 C-3 7 -3 7 -6 7 C-6 6.34 -6 5.68 -6 5 C-4.68 5 -3.36 5 -2 5 C-1.855625 4.360625 -1.71125 3.72125 -1.5625 3.0625 C-1 1 -1 1 0 0 Z " fill="#8AA3CC" transform="translate(187,226)"/>
<path d="M0 0 C1.83832664 3.10217621 2.47446226 5.39408679 2 9 C1.01 9.66 0.02 10.32 -1 11 C-1.02688151 9.35425434 -1.04634123 7.70838587 -1.0625 6.0625 C-1.07410156 5.14597656 -1.08570313 4.22945313 -1.09765625 3.28515625 C-1 1 -1 1 0 0 Z " fill="#95B0DC" transform="translate(265,95)"/>
<path d="M0 0 C0.66 0 1.32 0 2 0 C2.33 1.98 2.66 3.96 3 6 C3.66 6 4.32 6 5 6 C5 8.97 5 11.94 5 15 C3.31626595 11.6325319 2.31781585 8.84984234 1.375 5.25 C1.11460937 4.26515625 0.85421875 3.2803125 0.5859375 2.265625 C0.39257812 1.51796875 0.19921875 0.7703125 0 0 Z " fill="#9AB2D7" transform="translate(185,94)"/>
<path d="M0 0 C0.66 0.99 1.32 1.98 2 3 C0.02579865 5.52259061 -0.96745642 5.9929808 -4.1875 6.6875 C-5.5796875 6.8421875 -5.5796875 6.8421875 -7 7 C-7 6.34 -7 5.68 -7 5 C-5.03277992 3.61876037 -3.03131672 2.28511874 -1 1 C-0.67 0.67 -0.34 0.34 0 0 Z " fill="#9AB0D8" transform="translate(97,226)"/>
<path d="M0 0 C0 0.33 0 0.66 0 1 C-4.95 1.66 -9.9 2.32 -15 3 C-14.34 2.01 -13.68 1.02 -13 0 C-8.32822823 -0.91903707 -4.63851904 -1.30458348 0 0 Z " fill="#92ABD1" transform="translate(127,140)"/>
<path d="M0 0 C0.99 1.32 1.98 2.64 3 4 C-1.455 5.485 -1.455 5.485 -6 7 C-6 6.34 -6 5.68 -6 5 C-5.01 4.67 -4.02 4.34 -3 4 C-2.67 3.01 -2.34 2.02 -2 1 C-1.34 0.67 -0.68 0.34 0 0 Z " fill="#87A4CD" transform="translate(95,234)"/>
<path d="M0 0 C2.43929746 1.92576115 4.80090595 3.80090595 7 6 C5.35 6.33 3.7 6.66 2 7 C0.68 5.35 -0.64 3.7 -2 2 C-1.34 2 -0.68 2 0 2 C0 1.34 0 0.68 0 0 Z " fill="#98B1DA" transform="translate(65,227)"/>
<path d="M0 0 C0.66 0 1.32 0 2 0 C2.25 5.625 2.25 5.625 0 9 C-0.66 9 -1.32 9 -2 9 C-1.34 6.03 -0.68 3.06 0 0 Z " fill="#86AAE1" transform="translate(192,210)"/>
<path d="M0 0 C0.99 0 1.98 0 3 0 C3 2.64 3 5.28 3 8 C2.01 7.67 1.02 7.34 0 7 C0 4.69 0 2.38 0 0 Z " fill="#AEC3E1" transform="translate(150,73)"/>
<path d="M0 0 C2.97 0.495 2.97 0.495 6 1 C2.79663178 3.83374881 0.21912747 4.5205537 -4 5 C-3.01 4.34 -2.02 3.68 -1 3 C-0.67 2.01 -0.34 1.02 0 0 Z " fill="#87A5CD" transform="translate(276,231)"/>
<path d="M0 0 C0 3.60573896 -0.81707462 4.41336566 -3 7.1875 C-3.556875 7.90292969 -4.11375 8.61835937 -4.6875 9.35546875 C-5.120625 9.89816406 -5.55375 10.44085938 -6 11 C-6 6.32765318 -3.22690244 3.22690244 0 0 Z " fill="#E6F2FD" transform="translate(278,63)"/>
<path d="M0 0 C0.33 0.99 0.66 1.98 1 3 C0.34 3 -0.32 3 -1 3 C-1.33 4.32 -1.66 5.64 -2 7 C-3.65 7 -5.3 7 -7 7 C-5.37660195 5.29115995 -3.70680947 3.62553283 -2 2 C-1.34 2 -0.68 2 0 2 C0 1.34 0 0.68 0 0 Z " fill="#9AB4D5" transform="translate(231,218)"/>
<path d="M0 0 C0.66 0 1.32 0 2 0 C0.68775452 3.93673644 -0.91910327 6.22719294 -4 9 C-4.33 8.01 -4.66 7.02 -5 6 C-4.360625 5.38125 -3.72125 4.7625 -3.0625 4.125 C-0.96116416 2.17402388 -0.96116416 2.17402388 0 0 Z " fill="#9FB0CE" transform="translate(250,195)"/>
<path d="M0 0 C1.88343932 3.76687864 2.22057835 5.02958963 2 9 C1.01 9 0.02 9 -1 9 C-0.67 6.03 -0.34 3.06 0 0 Z " fill="#A6BDDD" transform="translate(305,96)"/>
<path d="M0 0 C6.52307692 0.61538462 6.52307692 0.61538462 8.9375 2.5625 C9.288125 3.036875 9.63875 3.51125 10 4 C9.67 4.66 9.34 5.32 9 6 C2.25 2.25 2.25 2.25 0 0 Z " fill="#9EB6DA" transform="translate(252,47)"/>
<path d="M0 0 C-6.625 4 -6.625 4 -10 4 C-9 1 -9 1 -6.6875 -0.25 C-3.90126985 -1.0275526 -2.66561622 -0.98726527 0 0 Z " fill="#93ACD4" transform="translate(68,148)"/>
<path d="M0 0 C-1.29299694 2.88437779 -2.65941363 4.87219421 -5 7 C-5.33 5.35 -5.66 3.7 -6 2 C-2.25 0 -2.25 0 0 0 Z " fill="#99B0D5" transform="translate(206,140)"/>
<path d="M0 0 C3.65316671 1.24976756 4.78065836 1.67098753 7 5 C4 6 4 6 1 5 C0.67 3.35 0.34 1.7 0 0 Z " fill="#8CA1CC" transform="translate(184,133)"/>
<path d="M0 0 C0 1.98 0 3.96 0 6 C-1.98 5.34 -3.96 4.68 -6 4 C-1.125 0 -1.125 0 0 0 Z " fill="#9AB1DB" transform="translate(181,82)"/>
<path d="M0 0 C0 1.65 0 3.3 0 5 C-1.98 5.99 -1.98 5.99 -4 7 C-3.625 4.0625 -3.625 4.0625 -3 1 C-1 0 -1 0 0 0 Z " fill="#93B0DC" transform="translate(150,179)"/>
<path d="M0 0 C0.66 0.33 1.32 0.66 2 1 C1.04882866 2.1725131 0.08882991 3.33787015 -0.875 4.5 C-1.40867188 5.1496875 -1.94234375 5.799375 -2.4921875 6.46875 C-2.98976562 6.9740625 -3.48734375 7.479375 -4 8 C-4.66 8 -5.32 8 -6 8 C-4.73058503 4.08597051 -3.48832306 2.20927127 0 0 Z " fill="#E5F1FA" transform="translate(158,141)"/>
<path d="M0 0 C0.66 0.33 1.32 0.66 2 1 C-2.75 5.875 -2.75 5.875 -5 7 C-3.75023244 3.34683329 -3.32901247 2.21934164 0 0 Z " fill="#E6F2FC" transform="translate(301,149)"/>
<path d="M0 0 C1.32 0 2.64 0 4 0 C5.75 2 5.75 2 7 4 C5.35 4.66 3.7 5.32 2 6 C2 3 2 3 3 1 C2.01 0.67 1.02 0.34 0 0 Z " fill="#8BA6CE" transform="translate(291,141)"/>
<path d="M0 0 C-0.33 0.99 -0.66 1.98 -1 3 C-3.64 3 -6.28 3 -9 3 C-5.73209435 0.82139623 -3.91954654 0 0 0 Z " fill="#9CB6DA" transform="translate(263,123)"/>
</svg>
