<?xml version="1.0" encoding="UTF-8"?>
<svg version="1.1" xmlns="http://www.w3.org/2000/svg" width="116" height="191">
<path d="M0 0 C4.82106458 0.82982382 6.70564572 3.95281125 9.5 7.6875 C9.97308594 8.30044922 10.44617188 8.91339844 10.93359375 9.54492188 C13.78265208 13.26606038 16.44257635 17.07338962 19 21 C22.73022412 18.20724872 25.56227019 15.28438339 28.4375 11.625 C31.76829996 7.47815405 35.04932054 3.56524732 39 0 C39.66 0 40.32 0 41 0 C40.43391802 4.18293047 39.46788215 7.66109408 37.75 11.51171875 C37.08484375 13.01895508 37.08484375 13.01895508 36.40625 14.55664062 C35.9421875 15.58982422 35.478125 16.62300781 35 17.6875 C34.0823564 19.7534726 33.1656463 21.81986016 32.25 23.88671875 C31.84265625 24.79639404 31.4353125 25.70606934 31.015625 26.64331055 C29.92666403 29.0782586 29.92666403 29.0782586 29 32 C29.60473145 31.99476318 30.20946289 31.98952637 30.83251953 31.98413086 C33.59666894 31.96322642 36.36080165 31.95029721 39.125 31.9375 C40.55199219 31.92493164 40.55199219 31.92493164 42.0078125 31.91210938 C46.79018487 31.89550392 51.29771569 31.99462945 56 33 C55.67 34.32 55.34 35.64 55 37 C45.76 38.98 36.52 40.96 27 43 C28.21302203 47.8520881 30.35124362 52.05852432 32.56054688 56.51171875 C34.24183955 59.99961784 35 62.05390339 35 66 C34.01 66 33.02 66 32 66 C29.94921875 63.875 29.94921875 63.875 27.6875 61 C26.89859375 60.00355469 26.1096875 59.00710937 25.296875 57.98046875 C22.495804 54.34574567 19.70729248 50.7052748 17 47 C13.66919823 48.11026726 13.32118816 48.5888567 11.4765625 51.38671875 C10.78046875 52.4240918 10.78046875 52.4240918 10.0703125 53.48242188 C9.59335937 54.21009766 9.11640625 54.93777344 8.625 55.6875 C1.857493 65.90383269 1.857493 65.90383269 -2 70 C-2.99 70 -3.98 70 -5 70 C-4.50168029 63.44936086 -2.11810613 58.13573627 0.5625 52.1875 C1.40023341 50.3073669 2.23502543 48.42591953 3.06640625 46.54296875 C3.43709229 45.71821045 3.80777832 44.89345215 4.18969727 44.04370117 C5.12285814 42.0565469 5.12285814 42.0565469 5 40 C-2.26 37.69 -9.52 35.38 -17 33 C-17 31.68 -17 30.36 -17 29 C-8.42 28.67 0.16 28.34 9 28 C6.0453599 20.27894071 6.0453599 20.27894071 3.07617188 12.56347656 C2.71072266 11.59893555 2.34527344 10.63439453 1.96875 9.640625 C1.59169922 8.65610352 1.21464844 7.67158203 0.82617188 6.65722656 C0 4 0 4 0 0 Z " fill="#BCD2EF" transform="translate(30,101)"/>
<path d="M0 0 C0.66 0.33 1.32 0.66 2 1 C2 9.25 2 17.5 2 26 C3.86527344 26.40992187 5.73054688 26.81984375 7.65234375 27.2421875 C10.08082784 27.78601791 12.50920797 28.33031269 14.9375 28.875 C16.16919922 29.14441406 17.40089844 29.41382812 18.66992188 29.69140625 C19.83974609 29.95566406 21.00957031 30.21992187 22.21484375 30.4921875 C23.29886475 30.73308105 24.38288574 30.97397461 25.49975586 31.22216797 C26.32483643 31.47885254 27.14991699 31.73553711 28 32 C28.33 32.66 28.66 33.32 29 34 C20.72204547 35.83088877 12.40554534 36.94650498 4 38 C3.89359814 43.66294323 4.06503468 49.13178761 4.77734375 54.75 C5.14896449 58.50532536 5.05985294 62.22926478 5 66 C0.71372065 62.47845331 -0.72549963 58.35121889 -2.625 53.3125 C-3.21517683 51.76455774 -3.81124136 50.21884334 -4.4140625 48.67578125 C-4.6713916 47.99427002 -4.9287207 47.31275879 -5.19384766 46.6105957 C-5.89831849 44.80098222 -5.89831849 44.80098222 -8 44 C-8.73605469 44.55429688 -9.47210938 45.10859375 -10.23046875 45.6796875 C-11.20628906 46.40414062 -12.18210937 47.12859375 -13.1875 47.875 C-14.15042969 48.59429687 -15.11335938 49.31359375 -16.10546875 50.0546875 C-18.71128675 51.80596599 -21.04792144 52.97459794 -24 54 C-23.38188466 49.44684052 -21.53234107 45.71540233 -19.4375 41.6875 C-19.10814453 41.04232422 -18.77878906 40.39714844 -18.43945312 39.73242188 C-17.63175745 38.15214772 -16.81662387 36.57567895 -16 35 C-16.70125 34.49210937 -17.4025 33.98421875 -18.125 33.4609375 C-21.08680701 31.31201774 -24.04448499 29.15756469 -27 27 C-27.82886719 26.39542969 -28.65773438 25.79085937 -29.51171875 25.16796875 C-30.58873047 24.37326172 -30.58873047 24.37326172 -31.6875 23.5625 C-32.33074219 23.08941406 -32.97398438 22.61632812 -33.63671875 22.12890625 C-34.08660156 21.75636719 -34.53648438 21.38382813 -35 21 C-35 20.67 -35 20.34 -35 20 C-29.10804255 20.56653437 -23.63398225 21.79774232 -17.9296875 23.37890625 C-14.87089543 24.02737017 -12.11732697 24.10637763 -9 24 C-8.60167969 22.85402344 -8.20335938 21.70804688 -7.79296875 20.52734375 C-7.25794062 18.99735102 -6.72277715 17.46740562 -6.1875 15.9375 C-5.79594727 14.80924805 -5.79594727 14.80924805 -5.39648438 13.65820312 C-3.76907517 9.01707317 -1.98925559 4.49822662 0 0 Z " fill="#97C2E4" transform="translate(80,28)"/>
<path d="M0 0 C3.33333333 3.33333333 6.66666667 6.66666667 10 10 C10.47050781 9.4225 10.94101562 8.845 11.42578125 8.25 C12.04839844 7.5075 12.67101562 6.765 13.3125 6 C14.23482422 4.88625 14.23482422 4.88625 15.17578125 3.75 C17 2 17 2 20 2 C18.55049545 5.7910119 16.84827434 9.3874638 15 13 C17.97 13.66 20.94 14.32 24 15 C23.67 15.99 23.34 16.98 23 18 C19.9375 19.1875 19.9375 19.1875 17 20 C17.2165625 20.68707031 17.433125 21.37414062 17.65625 22.08203125 C17.9346875 22.98308594 18.213125 23.88414063 18.5 24.8125 C18.7784375 25.70582031 19.056875 26.59914063 19.34375 27.51953125 C20 30 20 30 20 33 C16.78956118 31.61811547 14.95063635 30.07578097 12.75 27.375 C11.96882813 26.42753906 11.96882813 26.42753906 11.171875 25.4609375 C10.78515625 24.97882813 10.3984375 24.49671875 10 24 C6.95577545 27.60796984 4.55621145 31.32816264 2.24609375 35.42578125 C1.62927734 36.20501953 1.62927734 36.20501953 1 37 C0.01 37 -0.98 37 -2 37 C-0.33846988 31.14340094 1.47041916 25.5409866 4 20 C0.7 20 -2.6 20 -6 20 C-6 19.01 -6 18.02 -6 17 C-3.03 16.01 -0.06 15.02 3 14 C2.7834375 13.32453125 2.566875 12.6490625 2.34375 11.953125 C2.0653125 11.06109375 1.786875 10.1690625 1.5 9.25 C1.2215625 8.36828125 0.943125 7.4865625 0.65625 6.578125 C0 4 0 4 0 0 Z " fill="#B9B0EA" transform="translate(11,59)"/>
<path d="M0 0 C0.66 0.33 1.32 0.66 2 1 C2 9.58 2 18.16 2 27 C1.01 27 0.02 27 -1 27 C-1.33 26.01 -1.66 25.02 -2 24 C-2.78375 24.33 -3.5675 24.66 -4.375 25 C-8.99361869 26.27410171 -13.24249356 26.16923936 -18 26 C-18 25.34 -18 24.68 -18 24 C-15.03 24 -12.06 24 -9 24 C-8.60167969 22.85402344 -8.20335938 21.70804688 -7.79296875 20.52734375 C-7.25794062 18.99735102 -6.72277715 17.46740562 -6.1875 15.9375 C-5.92646484 15.18533203 -5.66542969 14.43316406 -5.39648438 13.65820312 C-3.76907517 9.01707317 -1.98925559 4.49822662 0 0 Z " fill="#BBD8EE" transform="translate(80,28)"/>
<path d="M0 0 C2.875 -0.125 2.875 -0.125 6 0 C6.66 0.66 7.32 1.32 8 2 C6.35 2.33 4.7 2.66 3 3 C2.89359814 8.66294323 3.06503468 14.13178761 3.77734375 19.75 C4.14896449 23.50532536 4.05985294 27.22926478 4 31 C-0.86819739 27.00722407 -2.27220994 21.75002109 -4.35546875 16.0234375 C-4.64035156 15.2809375 -4.92523438 14.5384375 -5.21875 13.7734375 C-5.5890332 12.75902588 -5.5890332 12.75902588 -5.96679688 11.72412109 C-7.28524455 9.52400826 -8.66022095 8.94667896 -11 8 C-9.68 6.35 -8.36 4.7 -7 3 C-3.3700912 6.92731729 -1.94348835 10.70104376 -0.75 15.8125 C-0.57726562 16.50537109 -0.40453125 17.19824219 -0.2265625 17.91210938 C0.19380492 19.60525594 0.59852527 21.30227443 1 23 C0.9278125 21.92621094 0.855625 20.85242188 0.78125 19.74609375 C0.68738136 18.30990358 0.59363805 16.87370522 0.5 15.4375 C0.45230469 14.73302734 0.40460938 14.02855469 0.35546875 13.30273438 C0.0686729 8.85739865 -0.04682842 4.45455341 0 0 Z " fill="#B7D1E6" transform="translate(81,63)"/>
<path d="M0 0 C0.89589844 0.00322266 1.79179688 0.00644531 2.71484375 0.00976562 C4.12056641 0.02233398 4.12056641 0.02233398 5.5546875 0.03515625 C6.49957031 0.03966797 7.44445312 0.04417969 8.41796875 0.04882812 C10.75527137 0.06063268 13.09244811 0.07709866 15.4296875 0.09765625 C15.0996875 1.41765625 14.7696875 2.73765625 14.4296875 4.09765625 C7.45389507 5.89355175 1.54747268 6.21832881 -5.5703125 5.09765625 C-5.9003125 3.77765625 -6.2303125 2.45765625 -6.5703125 1.09765625 C-4.16971433 -0.10264283 -2.67670601 -0.01694118 0 0 Z " fill="#ABC6EC" transform="translate(70.5703125,133.90234375)"/>
<path d="M0 0 C2.33524782 2.25740623 4.18705073 4.2805761 6 7 C5.875 9.5625 5.875 9.5625 5 12 C3.0625 13.375 3.0625 13.375 1 14 C0.34 13.67 -0.32 13.34 -1 13 C-1 14.65 -1 16.3 -1 18 C-2.98 18 -4.96 18 -7 18 C-7 17.67 -7 17.34 -7 17 C-5.35 17 -3.7 17 -2 17 C-2.37253906 16.08476562 -2.74507812 15.16953125 -3.12890625 14.2265625 C-3.83853516 12.44378906 -3.83853516 12.44378906 -4.5625 10.625 C-5.03816406 9.44164063 -5.51382813 8.25828125 -6.00390625 7.0390625 C-7 4 -7 4 -6 2 C-5.34 2.33 -4.68 2.66 -4 3 C-3.67 3.99 -3.34 4.98 -3 6 C-1.35 5.67 0.3 5.34 2 5 C1.34 3.35 0.68 1.7 0 0 Z " fill="#C4D8F1" transform="translate(41,112)"/>
<path d="M0 0 C3.06506337 -0.3405626 4.52912358 -0.34245558 7.0625 1.5 C10.60180513 6.06684532 13 10.15807306 13 16 C12.01 16 11.02 16 10 16 C7.7734375 13.76953125 7.7734375 13.76953125 5.375 10.8125 C4.57835937 9.84957031 3.78171875 8.88664063 2.9609375 7.89453125 C1.06310059 5.0931425 0.3522119 3.32172261 0 0 Z " fill="#A9C7EC" transform="translate(52,151)"/>
<path d="M0 0 C0.99 0.66 1.98 1.32 3 2 C3.62386596 5.35971853 3.15209811 6.75252445 1.35546875 9.67578125 C0.64003906 10.54589844 -0.07539062 11.41601562 -0.8125 12.3125 C-1.52019531 13.19550781 -2.22789063 14.07851562 -2.95703125 14.98828125 C-5 17 -5 17 -8 17 C-7.49770926 12.73052871 -7.02851102 8.83163192 -5 5 C-4.01 4.67 -3.02 4.34 -2 4 C-0.79117904 1.99983534 -0.79117904 1.99983534 0 0 Z " fill="#9CBCE7" transform="translate(33,154)"/>
<path d="M0 0 C3.50869324 2.2202312 4.71665493 3.96688415 5.875 7.9375 C6.14054687 8.79214844 6.40609375 9.64679688 6.6796875 10.52734375 C7.05660991 13.43700093 6.46516586 14.52419053 5 17 C5 17.66 5 18.32 5 19 C2.03 19 -0.94 19 -4 19 C-3.505 17.515 -3.505 17.515 -3 16 C0.0625 14.8125 0.0625 14.8125 3 14 C2.7834375 13.32453125 2.566875 12.6490625 2.34375 11.953125 C2.0653125 11.06109375 1.786875 10.1690625 1.5 9.25 C1.2215625 8.36828125 0.943125 7.4865625 0.65625 6.578125 C0 4 0 4 0 0 Z " fill="#C1BBE4" transform="translate(11,59)"/>
<path d="M0 0 C8.21052632 -0.27368421 8.21052632 -0.27368421 12 2 C13.99220557 2.68960962 15.99105606 3.36079057 18 4 C18 4.33 18 4.66 18 5 C6.3981395 6.71564848 6.3981395 6.71564848 3.0234375 4.98828125 C0 1.90296053 0 1.90296053 0 0 Z " fill="#6498CA" transform="translate(84,57)"/>
<path d="M0 0 C0.33 0 0.66 0 1 0 C0.63453804 5.84739138 -1.01535382 10.5662174 -5 15 C-5.99 15 -6.98 15 -8 15 C-7.52140759 13.39566191 -7.04210442 11.79153584 -6.5625 10.1875 C-6.29566406 9.29417969 -6.02882813 8.40085937 -5.75390625 7.48046875 C-5.19612127 5.64526945 -4.60655425 3.81966274 -4 2 C-2.68 2 -1.36 2 0 2 C0 1.34 0 0.68 0 0 Z " fill="#BDB6E1" transform="translate(17,81)"/>
<path d="M0 0 C0.66 0.33 1.32 0.66 2 1 C1.71889511 3.79310605 1.42563948 6.58398875 1.125 9.375 C1.04636719 10.1690625 0.96773438 10.963125 0.88671875 11.78125 C0.2265625 17.7734375 0.2265625 17.7734375 -2 20 C-4.0430177 12.7011545 -3.42514321 6.70757213 0 0 Z " fill="#9EC1DF" transform="translate(80,28)"/>
<path d="M0 0 C5.7809725 0.63065155 11.3443706 1.65155132 17 3 C17 3.33 17 3.66 17 4 C15.35 4.33 13.7 4.66 12 5 C11.67 5.99 11.34 6.98 11 8 C6.40378078 6.5129879 3.53027653 4.20187872 0 1 C0 0.67 0 0.34 0 0 Z " fill="#ADC9E5" transform="translate(45,48)"/>
<path d="M0 0 C6.19518473 0.41588046 11.26689311 1.60251894 17 4 C17 4.33 17 4.66 17 5 C10.88019467 6.40454548 5.28260706 7.23268915 -1 7 C2.26545761 5.11608215 5.28111761 4.50712033 9 4 C6.03 3.67 3.06 3.34 0 3 C0 2.01 0 1.02 0 0 Z " fill="#ACC7E1" transform="translate(92,57)"/>
<path d="M0 0 C-1.44950455 3.7910119 -3.15172566 7.3874638 -5 11 C-3.35 11.33 -1.7 11.66 0 12 C0 12.33 0 12.66 0 13 C-2.31 13 -4.62 13 -7 13 C-6.67 11.02 -6.34 9.04 -6 7 C-6.66 6.67 -7.32 6.34 -8 6 C-3.375 0 -3.375 0 0 0 Z " fill="#C9C3E5" transform="translate(31,61)"/>
<path d="M0 0 C2.8125 0.125 2.8125 0.125 6 1 C8.43349748 4.65024621 9 6.57704202 9 11 C8.01 11 7.02 11 6 11 C5.81824219 10.45730469 5.63648438 9.91460937 5.44921875 9.35546875 C5.07216797 8.28232422 5.07216797 8.28232422 4.6875 7.1875 C4.44386719 6.47980469 4.20023438 5.77210938 3.94921875 5.04296875 C2.93275742 2.85527627 1.79179406 1.59103282 0 0 Z " fill="#8CA8DC" transform="translate(56,156)"/>
<path d="M0 0 C-0.55105909 3.9492568 -1.38935371 7.34920174 -3 11 C-3.33 11 -3.66 11 -4 11 C-4 9.35 -4 7.7 -4 6 C-5.98 7.32 -7.96 8.64 -10 10 C-8.50006099 6.10015857 -4.53875449 0 0 0 Z " fill="#B8CCED" transform="translate(71,101)"/>
<path d="M0 0 C2.64 0 5.28 0 8 0 C8 0.66 8 1.32 8 2 C9.32 2.66 10.64 3.32 12 4 C8.88109857 5.55945072 6.34501482 4.64552918 3 4 C2.01 3.34 1.02 2.68 0 2 C0 1.34 0 0.68 0 0 Z " fill="#90ADDB" transform="translate(14,131)"/>
<path d="M0 0 C4.95 0 9.9 0 15 0 C15 0.66 15 1.32 15 2 C10.38 2.33 5.76 2.66 1 3 C0.67 2.01 0.34 1.02 0 0 Z " fill="#8DAEE3" transform="translate(70,135)"/>
<path d="M0 0 C0.99 0.33 1.98 0.66 3 1 C1.53781513 5.6302521 1.53781513 5.6302521 -1 7.375 C-3 8 -3 8 -5 7 C-3.70700306 4.11562221 -2.34058637 2.12780579 0 0 Z " fill="#C1D6F2" transform="translate(60,111)"/>
<path d="M0 0 C1.32 0.33 2.64 0.66 4 1 C4.66 3.97 5.32 6.94 6 10 C2 8 2 8 0.75 5.5625 C0 3 0 3 0 0 Z " fill="#BBB3DF" transform="translate(25,82)"/>
<path d="M0 0 C1.24546405 2.49092811 0.7767578 3.41080733 0 6 C0.99 6.33 1.98 6.66 3 7 C-1.75 11 -1.75 11 -4 11 C-3.39301257 6.87248551 -1.96189209 3.6678852 0 0 Z " fill="#B7D1E4" transform="translate(60,71)"/>
<path d="M0 0 C0.99 1.32 1.98 2.64 3 4 C2.34 4 1.68 4 1 4 C1 4.66 1 5.32 1 6 C-0.65 6 -2.3 6 -4 6 C-4.66 4.68 -5.32 3.36 -6 2 C-4.7934375 1.7834375 -4.7934375 1.7834375 -3.5625 1.5625 C-1.07896294 1.25864751 -1.07896294 1.25864751 0 0 Z " fill="#B5CCEB" transform="translate(46,123)"/>
<path d="M0 0 C1.24546405 2.49092811 0.7767578 3.41080733 0 6 C0.66 6 1.32 6 2 6 C2 7.65 2 9.3 2 11 C0.68 10.34 -0.64 9.68 -2 9 C-2.125 5.625 -2.125 5.625 -2 2 C-1.34 1.34 -0.68 0.68 0 0 Z " fill="#A9C5EE" transform="translate(38,143)"/>
<path d="M0 0 C2.64 0 5.28 0 8 0 C7.01 0.66 6.02 1.32 5 2 C5 2.66 5 3.32 5 4 C7.97 4.495 7.97 4.495 11 5 C11 5.33 11 5.66 11 6 C8.3125 6.3125 8.3125 6.3125 5 6 C2.125 3.5625 2.125 3.5625 0 1 C0 0.67 0 0.34 0 0 Z " fill="#76A6D1" transform="translate(84,57)"/>
<path d="M0 0 C0.33 0.99 0.66 1.98 1 3 C0.34 3.66 -0.32 4.32 -1 5 C-3.1640625 4.9765625 -3.1640625 4.9765625 -5.625 4.625 C-6.44226563 4.51414063 -7.25953125 4.40328125 -8.1015625 4.2890625 C-8.72804688 4.19367188 -9.35453125 4.09828125 -10 4 C-8.68 3.67 -7.36 3.34 -6 3 C-6 2.34 -6 1.68 -6 1 C-4.7934375 1.0309375 -4.7934375 1.0309375 -3.5625 1.0625 C-1.06645115 1.29633621 -1.06645115 1.29633621 0 0 Z " fill="#ACC3E9" transform="translate(30,132)"/>
<path d="M0 0 C4.29 0 8.58 0 13 0 C12.01 0.33 11.02 0.66 10 1 C9.67 1.66 9.34 2.32 9 3 C5.72724974 3 3.153368 2.70074844 0 2 C0 1.34 0 0.68 0 0 Z " fill="#B2CAF2" transform="translate(22,131)"/>
<path d="M0 0 C2.31 0 4.62 0 7 0 C7.33 0.99 7.66 1.98 8 3 C5.03 3 2.06 3 -1 3 C-0.67 2.01 -0.34 1.02 0 0 Z " fill="#A297D8" transform="translate(8,75)"/>
<path d="M0 0 C0.66 0.33 1.32 0.66 2 1 C1.125 8.75 1.125 8.75 0 11 C-0.66 11 -1.32 11 -2 11 C-1.85957123 9.35369672 -1.71250671 7.70795821 -1.5625 6.0625 C-1.48128906 5.14597656 -1.40007812 4.22945312 -1.31640625 3.28515625 C-1 1 -1 1 0 0 Z " fill="#AABCCF" transform="translate(80,28)"/>
<path d="M0 0 C2.97 0.495 2.97 0.495 6 1 C6 2.65 6 4.3 6 6 C4.35 6.33 2.7 6.66 1 7 C1.20625 6.401875 1.4125 5.80375 1.625 5.1875 C2.30671915 2.71549154 2.30671915 2.71549154 0 0 Z " fill="#B3D2EA" transform="translate(62,60)"/>
<path d="M0 0 C1.98 0 3.96 0 6 0 C6 1.32 6 2.64 6 4 C4.02 4 2.04 4 0 4 C0 2.66666667 0 1.33333333 0 0 Z " fill="#6E9DC9" transform="translate(56,52)"/>
<path d="M0 0 C2.64 0.33 5.28 0.66 8 1 C7.67 2.32 7.34 3.64 7 5 C3.34683329 3.75023244 2.21934164 3.32901247 0 0 Z " fill="#ABC5DA" transform="translate(45,48)"/>
<path d="M0 0 C0.33 0.66 0.66 1.32 1 2 C3.02463255 2.65213292 3.02463255 2.65213292 5 3 C3.6875 5 3.6875 5 2 7 C1.01 7 0.02 7 -1 7 C-0.67 4.69 -0.34 2.38 0 0 Z " fill="#B8D2EA" transform="translate(26,164)"/>
<path d="M0 0 C0.66 0.33 1.32 0.66 2 1 C1.67 2.32 1.34 3.64 1 5 C0.34 4.67 -0.32 4.34 -1 4 C-0.67 2.68 -0.34 1.36 0 0 Z M-6 3 C-3.525 3.495 -3.525 3.495 -1 4 C-0.67 5.65 -0.34 7.3 0 9 C-2.02054804 7.35830472 -4.02043058 5.69088222 -6 4 C-6 3.67 -6 3.34 -6 3 Z " fill="#D9D2F4" transform="translate(26,78)"/>
<path d="M0 0 C2.875 -0.125 2.875 -0.125 6 0 C6.66 0.66 7.32 1.32 8 2 C6.35 2.33 4.7 2.66 3 3 C2.67 5.64 2.34 8.28 2 11 C1.67 11 1.34 11 1 11 C0.67 7.37 0.34 3.74 0 0 Z " fill="#C5DBED" transform="translate(81,63)"/>
<path d="M0 0 C0.99 0.33 1.98 0.66 3 1 C3.66666667 4.33333333 4.33333333 7.66666667 5 11 C1.51668565 7.98112756 0.20842856 5.43090471 -1 1 C-0.67 0.67 -0.34 0.34 0 0 Z " fill="#D3E2F5" transform="translate(54,142)"/>
<path d="M0 0 C0 1.65 0 3.3 0 5 C-0.99 5.33 -1.98 5.66 -3 6 C-3.99 5.34 -4.98 4.68 -6 4 C-2.25 0 -2.25 0 0 0 Z " fill="#90B1DD" transform="translate(67,107)"/>
<path d="M0 0 C2.64 0 5.28 0 8 0 C7.67 0.99 7.34 1.98 7 3 C5.02 3 3.04 3 1 3 C0.67 2.01 0.34 1.02 0 0 Z " fill="#B1A9D8" transform="translate(27,74)"/>
<path d="M0 0 C1.98 1.65 3.96 3.3 6 5 C6.66 4.67 7.32 4.34 8 4 C7.34 5.32 6.68 6.64 6 8 C4.68 7.67 3.36 7.34 2 7 C1.34 4.69 0.68 2.38 0 0 Z " fill="#CFC8F1" transform="translate(15,64)"/>
<path d="M0 0 C0.33 0 0.66 0 1 0 C0.67 2.31 0.34 4.62 0 7 C-0.99 7.33 -1.98 7.66 -3 8 C-3 6.02 -3 4.04 -3 2 C-2.01 2 -1.02 2 0 2 C0 1.34 0 0.68 0 0 Z " fill="#9B8FD8" transform="translate(17,81)"/>
<path d="M0 0 C-1.13304992 3.39914975 -2.12518475 4.05254451 -5 6 C-5.66 5.67 -6.32 5.34 -7 5 C-6.67 3.68 -6.34 2.36 -6 1 C-3.92446352 0.4465236 -2.15634036 0 0 0 Z " fill="#ABC8DF" transform="translate(70,71)"/>
<path d="M0 0 C2.62386487 3.06117568 3 3.73173127 3 8 C2.01 8 1.02 8 0 8 C-1.09658936 4.71023192 -0.79953138 3.28696233 0 0 Z " fill="#BBC7E9" transform="translate(62,159)"/>
<path d="M0 0 C0.33 0.66 0.66 1.32 1 2 C3.02463255 2.65213292 3.02463255 2.65213292 5 3 C3.68 3 2.36 3 1 3 C0.67 3.66 0.34 4.32 0 5 C-0.99 4.67 -1.98 4.34 -3 4 C-3 3.01 -3 2.02 -3 1 C-2.01 0.67 -1.02 0.34 0 0 Z " fill="#C4BCF1" transform="translate(25,75)"/>
<path d="M0 0 C0.66 0 1.32 0 2 0 C1.67 2.31 1.34 4.62 1 7 C0.34 7 -0.32 7 -1 7 C-0.67 4.69 -0.34 2.38 0 0 Z " fill="#A9C2E6" transform="translate(28,159)"/>
<path d="M0 0 C0.99 0.33 1.98 0.66 3 1 C3.33 2.65 3.66 4.3 4 6 C2.68 5.67 1.36 5.34 0 5 C0 3.35 0 1.7 0 0 Z " fill="#AAC2E8" transform="translate(36,107)"/>
<path d="M0 0 C0.66 0.33 1.32 0.66 2 1 C1.67 1.66 1.34 2.32 1 3 C1.99 3.33 2.98 3.66 4 4 C3.34 4.66 2.68 5.32 2 6 C1.01 6 0.02 6 -1 6 C-0.67 4.02 -0.34 2.04 0 0 Z " fill="#85A8C9" transform="translate(61,71)"/>
</svg>
